G04 #@! TF.FileFunction,Legend,Bot*
%FSLAX46Y46*%
G04 Gerber Fmt 4.6, Leading zero omitted, Abs format (unit mm)*
G04 Created by KiCad (PCBNEW 4.0.7-e2-6376~60~ubuntu17.10.1) date Thu Dec 28 14:25:31 2017*
%MOMM*%
%LPD*%
G01*
G04 APERTURE LIST*
%ADD10C,0.100000*%
%ADD11C,0.120000*%
%ADD12C,0.010000*%
%ADD13C,0.150000*%
G04 APERTURE END LIST*
D10*
X174397857Y-111935714D02*
X174397857Y-111735714D01*
X174083571Y-111650000D02*
X174083571Y-111935714D01*
X174683571Y-111935714D01*
X174683571Y-111650000D01*
X174083571Y-111450000D02*
X174483571Y-111135714D01*
X174483571Y-111450000D02*
X174083571Y-111135714D01*
X174483571Y-110992857D02*
X174483571Y-110764286D01*
X174683571Y-110907143D02*
X174169286Y-110907143D01*
X174112143Y-110878571D01*
X174083571Y-110821429D01*
X174083571Y-110764286D01*
X174112143Y-110335714D02*
X174083571Y-110392857D01*
X174083571Y-110507143D01*
X174112143Y-110564286D01*
X174169286Y-110592857D01*
X174397857Y-110592857D01*
X174455000Y-110564286D01*
X174483571Y-110507143D01*
X174483571Y-110392857D01*
X174455000Y-110335714D01*
X174397857Y-110307143D01*
X174340714Y-110307143D01*
X174283571Y-110592857D01*
X174483571Y-110050000D02*
X174083571Y-110050000D01*
X174426429Y-110050000D02*
X174455000Y-110021428D01*
X174483571Y-109964286D01*
X174483571Y-109878571D01*
X174455000Y-109821428D01*
X174397857Y-109792857D01*
X174083571Y-109792857D01*
X174112143Y-109535714D02*
X174083571Y-109478571D01*
X174083571Y-109364286D01*
X174112143Y-109307143D01*
X174169286Y-109278571D01*
X174197857Y-109278571D01*
X174255000Y-109307143D01*
X174283571Y-109364286D01*
X174283571Y-109450000D01*
X174312143Y-109507143D01*
X174369286Y-109535714D01*
X174397857Y-109535714D01*
X174455000Y-109507143D01*
X174483571Y-109450000D01*
X174483571Y-109364286D01*
X174455000Y-109307143D01*
X174083571Y-109021429D02*
X174483571Y-109021429D01*
X174683571Y-109021429D02*
X174655000Y-109050000D01*
X174626429Y-109021429D01*
X174655000Y-108992857D01*
X174683571Y-109021429D01*
X174626429Y-109021429D01*
X174083571Y-108650001D02*
X174112143Y-108707143D01*
X174140714Y-108735715D01*
X174197857Y-108764286D01*
X174369286Y-108764286D01*
X174426429Y-108735715D01*
X174455000Y-108707143D01*
X174483571Y-108650001D01*
X174483571Y-108564286D01*
X174455000Y-108507143D01*
X174426429Y-108478572D01*
X174369286Y-108450001D01*
X174197857Y-108450001D01*
X174140714Y-108478572D01*
X174112143Y-108507143D01*
X174083571Y-108564286D01*
X174083571Y-108650001D01*
X174483571Y-108192858D02*
X174083571Y-108192858D01*
X174426429Y-108192858D02*
X174455000Y-108164286D01*
X174483571Y-108107144D01*
X174483571Y-108021429D01*
X174455000Y-107964286D01*
X174397857Y-107935715D01*
X174083571Y-107935715D01*
X174483571Y-107221429D02*
X174483571Y-106792858D01*
X174740714Y-107050001D02*
X173969286Y-107221429D01*
X174226429Y-106850001D02*
X174226429Y-107278572D01*
X173969286Y-107021429D02*
X174740714Y-106850001D01*
X174626429Y-106621429D02*
X174655000Y-106592858D01*
X174683571Y-106535715D01*
X174683571Y-106392858D01*
X174655000Y-106335715D01*
X174626429Y-106307144D01*
X174569286Y-106278572D01*
X174512143Y-106278572D01*
X174426429Y-106307144D01*
X174083571Y-106650001D01*
X174083571Y-106278572D01*
X174483571Y-105621429D02*
X174083571Y-105478572D01*
X174483571Y-105335714D01*
X174683571Y-104992857D02*
X174683571Y-104935714D01*
X174655000Y-104878571D01*
X174626429Y-104850000D01*
X174569286Y-104821429D01*
X174455000Y-104792857D01*
X174312143Y-104792857D01*
X174197857Y-104821429D01*
X174140714Y-104850000D01*
X174112143Y-104878571D01*
X174083571Y-104935714D01*
X174083571Y-104992857D01*
X174112143Y-105050000D01*
X174140714Y-105078571D01*
X174197857Y-105107143D01*
X174312143Y-105135714D01*
X174455000Y-105135714D01*
X174569286Y-105107143D01*
X174626429Y-105078571D01*
X174655000Y-105050000D01*
X174683571Y-104992857D01*
X174140714Y-104535714D02*
X174112143Y-104507142D01*
X174083571Y-104535714D01*
X174112143Y-104564285D01*
X174140714Y-104535714D01*
X174083571Y-104535714D01*
X174683571Y-104307143D02*
X174683571Y-103907143D01*
X174083571Y-104164286D01*
X173083571Y-110464286D02*
X173083571Y-110750000D01*
X173683571Y-110750000D01*
X173083571Y-110264286D02*
X173483571Y-110264286D01*
X173683571Y-110264286D02*
X173655000Y-110292857D01*
X173626429Y-110264286D01*
X173655000Y-110235714D01*
X173683571Y-110264286D01*
X173626429Y-110264286D01*
X173483571Y-109721429D02*
X172883571Y-109721429D01*
X173112143Y-109721429D02*
X173083571Y-109778572D01*
X173083571Y-109892858D01*
X173112143Y-109950000D01*
X173140714Y-109978572D01*
X173197857Y-110007143D01*
X173369286Y-110007143D01*
X173426429Y-109978572D01*
X173455000Y-109950000D01*
X173483571Y-109892858D01*
X173483571Y-109778572D01*
X173455000Y-109721429D01*
X173483571Y-109178572D02*
X173083571Y-109178572D01*
X173483571Y-109435715D02*
X173169286Y-109435715D01*
X173112143Y-109407143D01*
X173083571Y-109350001D01*
X173083571Y-109264286D01*
X173112143Y-109207143D01*
X173140714Y-109178572D01*
X173083571Y-108892858D02*
X173483571Y-108892858D01*
X173683571Y-108892858D02*
X173655000Y-108921429D01*
X173626429Y-108892858D01*
X173655000Y-108864286D01*
X173683571Y-108892858D01*
X173626429Y-108892858D01*
X173083571Y-108350001D02*
X173683571Y-108350001D01*
X173112143Y-108350001D02*
X173083571Y-108407144D01*
X173083571Y-108521430D01*
X173112143Y-108578572D01*
X173140714Y-108607144D01*
X173197857Y-108635715D01*
X173369286Y-108635715D01*
X173426429Y-108607144D01*
X173455000Y-108578572D01*
X173483571Y-108521430D01*
X173483571Y-108407144D01*
X173455000Y-108350001D01*
X173083571Y-107321430D02*
X173083571Y-107607144D01*
X173683571Y-107607144D01*
X173112143Y-106892858D02*
X173083571Y-106950001D01*
X173083571Y-107064287D01*
X173112143Y-107121430D01*
X173169286Y-107150001D01*
X173397857Y-107150001D01*
X173455000Y-107121430D01*
X173483571Y-107064287D01*
X173483571Y-106950001D01*
X173455000Y-106892858D01*
X173397857Y-106864287D01*
X173340714Y-106864287D01*
X173283571Y-107150001D01*
X173483571Y-106664287D02*
X173083571Y-106521430D01*
X173483571Y-106378572D01*
X173112143Y-105921429D02*
X173083571Y-105978572D01*
X173083571Y-106092858D01*
X173112143Y-106150001D01*
X173169286Y-106178572D01*
X173397857Y-106178572D01*
X173455000Y-106150001D01*
X173483571Y-106092858D01*
X173483571Y-105978572D01*
X173455000Y-105921429D01*
X173397857Y-105892858D01*
X173340714Y-105892858D01*
X173283571Y-106178572D01*
X173083571Y-105550001D02*
X173112143Y-105607143D01*
X173169286Y-105635715D01*
X173683571Y-105635715D01*
X172683571Y-111650001D02*
X172083571Y-111250001D01*
X172683571Y-111250001D02*
X172083571Y-111650001D01*
X172083571Y-111021429D02*
X172683571Y-111021429D01*
X172083571Y-110678572D02*
X172426429Y-110935715D01*
X172683571Y-110678572D02*
X172340714Y-111021429D01*
X172140714Y-110078572D02*
X172112143Y-110107143D01*
X172083571Y-110192857D01*
X172083571Y-110250000D01*
X172112143Y-110335715D01*
X172169286Y-110392857D01*
X172226429Y-110421429D01*
X172340714Y-110450000D01*
X172426429Y-110450000D01*
X172540714Y-110421429D01*
X172597857Y-110392857D01*
X172655000Y-110335715D01*
X172683571Y-110250000D01*
X172683571Y-110192857D01*
X172655000Y-110107143D01*
X172626429Y-110078572D01*
X172312143Y-109821429D02*
X172312143Y-109364286D01*
X172369286Y-108964286D02*
X172083571Y-108964286D01*
X172683571Y-109164286D02*
X172369286Y-108964286D01*
X172683571Y-108764286D01*
X172626429Y-108592857D02*
X172655000Y-108564286D01*
X172683571Y-108507143D01*
X172683571Y-108364286D01*
X172655000Y-108307143D01*
X172626429Y-108278572D01*
X172569286Y-108250000D01*
X172512143Y-108250000D01*
X172426429Y-108278572D01*
X172083571Y-108621429D01*
X172083571Y-108250000D01*
X172683571Y-107707143D02*
X172683571Y-107992857D01*
X172397857Y-108021428D01*
X172426429Y-107992857D01*
X172455000Y-107935714D01*
X172455000Y-107792857D01*
X172426429Y-107735714D01*
X172397857Y-107707143D01*
X172340714Y-107678571D01*
X172197857Y-107678571D01*
X172140714Y-107707143D01*
X172112143Y-107735714D01*
X172083571Y-107792857D01*
X172083571Y-107935714D01*
X172112143Y-107992857D01*
X172140714Y-108021428D01*
X172112143Y-106992856D02*
X172083571Y-106935713D01*
X172083571Y-106821428D01*
X172112143Y-106764285D01*
X172169286Y-106735713D01*
X172197857Y-106735713D01*
X172255000Y-106764285D01*
X172283571Y-106821428D01*
X172283571Y-106907142D01*
X172312143Y-106964285D01*
X172369286Y-106992856D01*
X172397857Y-106992856D01*
X172455000Y-106964285D01*
X172483571Y-106907142D01*
X172483571Y-106821428D01*
X172455000Y-106764285D01*
X172112143Y-106249999D02*
X172083571Y-106307142D01*
X172083571Y-106421428D01*
X172112143Y-106478571D01*
X172169286Y-106507142D01*
X172397857Y-106507142D01*
X172455000Y-106478571D01*
X172483571Y-106421428D01*
X172483571Y-106307142D01*
X172455000Y-106249999D01*
X172397857Y-106221428D01*
X172340714Y-106221428D01*
X172283571Y-106507142D01*
X172483571Y-105964285D02*
X172083571Y-105964285D01*
X172426429Y-105964285D02*
X172455000Y-105935713D01*
X172483571Y-105878571D01*
X172483571Y-105792856D01*
X172455000Y-105735713D01*
X172397857Y-105707142D01*
X172083571Y-105707142D01*
X172112143Y-105449999D02*
X172083571Y-105392856D01*
X172083571Y-105278571D01*
X172112143Y-105221428D01*
X172169286Y-105192856D01*
X172197857Y-105192856D01*
X172255000Y-105221428D01*
X172283571Y-105278571D01*
X172283571Y-105364285D01*
X172312143Y-105421428D01*
X172369286Y-105449999D01*
X172397857Y-105449999D01*
X172455000Y-105421428D01*
X172483571Y-105364285D01*
X172483571Y-105278571D01*
X172455000Y-105221428D01*
X172083571Y-104850000D02*
X172112143Y-104907142D01*
X172140714Y-104935714D01*
X172197857Y-104964285D01*
X172369286Y-104964285D01*
X172426429Y-104935714D01*
X172455000Y-104907142D01*
X172483571Y-104850000D01*
X172483571Y-104764285D01*
X172455000Y-104707142D01*
X172426429Y-104678571D01*
X172369286Y-104650000D01*
X172197857Y-104650000D01*
X172140714Y-104678571D01*
X172112143Y-104707142D01*
X172083571Y-104764285D01*
X172083571Y-104850000D01*
X172083571Y-104392857D02*
X172483571Y-104392857D01*
X172369286Y-104392857D02*
X172426429Y-104364285D01*
X172455000Y-104335714D01*
X172483571Y-104278571D01*
X172483571Y-104221428D01*
D11*
X175260000Y-121980000D02*
X147260000Y-121980000D01*
X147260000Y-121980000D02*
X147260000Y-119320000D01*
X147260000Y-119320000D02*
X175260000Y-119320000D01*
X175260000Y-119320000D02*
X175260000Y-121980000D01*
X176530000Y-121980000D02*
X177860000Y-121980000D01*
X177860000Y-121980000D02*
X177860000Y-120650000D01*
D12*
G36*
X172520816Y-99698759D02*
X172507718Y-99672247D01*
X172484894Y-99639553D01*
X172460004Y-99615725D01*
X172428751Y-99599406D01*
X172386834Y-99589240D01*
X172329956Y-99583872D01*
X172253816Y-99581944D01*
X172221083Y-99581831D01*
X172149344Y-99582161D01*
X172098073Y-99583527D01*
X172062596Y-99586500D01*
X172038237Y-99591649D01*
X172020320Y-99599543D01*
X172008098Y-99607757D01*
X171956095Y-99660187D01*
X171924816Y-99721930D01*
X171915408Y-99788536D01*
X171929020Y-99855558D01*
X171938646Y-99876792D01*
X171965141Y-99927624D01*
X171549948Y-99927624D01*
X171569132Y-99890525D01*
X171583975Y-99841643D01*
X171587778Y-99781561D01*
X171580757Y-99721564D01*
X171564987Y-99676256D01*
X171534953Y-99638675D01*
X171491976Y-99606564D01*
X171487564Y-99604150D01*
X171466779Y-99593967D01*
X171445830Y-99586530D01*
X171420452Y-99581411D01*
X171386382Y-99578181D01*
X171339359Y-99576413D01*
X171275118Y-99575677D01*
X171202824Y-99575544D01*
X170972178Y-99575544D01*
X170972178Y-99713861D01*
X171397467Y-99713861D01*
X171430021Y-99752549D01*
X171456060Y-99792738D01*
X171460795Y-99830797D01*
X171448611Y-99869066D01*
X171436680Y-99889462D01*
X171419687Y-99904642D01*
X171394005Y-99915438D01*
X171356009Y-99922683D01*
X171302074Y-99927208D01*
X171228575Y-99929844D01*
X171179653Y-99930772D01*
X170978465Y-99933911D01*
X170974664Y-99999926D01*
X170970864Y-100065940D01*
X172219350Y-100065940D01*
X172219350Y-99927624D01*
X172149746Y-99924097D01*
X172101431Y-99912215D01*
X172071369Y-99890020D01*
X172056529Y-99855559D01*
X172053564Y-99820742D01*
X172056972Y-99781329D01*
X172070383Y-99755171D01*
X172088104Y-99738814D01*
X172107165Y-99725937D01*
X172128399Y-99718272D01*
X172158151Y-99714861D01*
X172202764Y-99714749D01*
X172240120Y-99715897D01*
X172296396Y-99718532D01*
X172333342Y-99722456D01*
X172356777Y-99729063D01*
X172372520Y-99739749D01*
X172381620Y-99749833D01*
X172401463Y-99791970D01*
X172404668Y-99841840D01*
X172397832Y-99870476D01*
X172373536Y-99898828D01*
X172326272Y-99917609D01*
X172256376Y-99926712D01*
X172219350Y-99927624D01*
X172219350Y-100065940D01*
X172531386Y-100065940D01*
X172531386Y-99996782D01*
X172529744Y-99955260D01*
X172523913Y-99933838D01*
X172512539Y-99927626D01*
X172512202Y-99927624D01*
X172501062Y-99924742D01*
X172502327Y-99912030D01*
X172514567Y-99886757D01*
X172533293Y-99827869D01*
X172535261Y-99761615D01*
X172520816Y-99698759D01*
X172520816Y-99698759D01*
G37*
X172520816Y-99698759D02*
X172507718Y-99672247D01*
X172484894Y-99639553D01*
X172460004Y-99615725D01*
X172428751Y-99599406D01*
X172386834Y-99589240D01*
X172329956Y-99583872D01*
X172253816Y-99581944D01*
X172221083Y-99581831D01*
X172149344Y-99582161D01*
X172098073Y-99583527D01*
X172062596Y-99586500D01*
X172038237Y-99591649D01*
X172020320Y-99599543D01*
X172008098Y-99607757D01*
X171956095Y-99660187D01*
X171924816Y-99721930D01*
X171915408Y-99788536D01*
X171929020Y-99855558D01*
X171938646Y-99876792D01*
X171965141Y-99927624D01*
X171549948Y-99927624D01*
X171569132Y-99890525D01*
X171583975Y-99841643D01*
X171587778Y-99781561D01*
X171580757Y-99721564D01*
X171564987Y-99676256D01*
X171534953Y-99638675D01*
X171491976Y-99606564D01*
X171487564Y-99604150D01*
X171466779Y-99593967D01*
X171445830Y-99586530D01*
X171420452Y-99581411D01*
X171386382Y-99578181D01*
X171339359Y-99576413D01*
X171275118Y-99575677D01*
X171202824Y-99575544D01*
X170972178Y-99575544D01*
X170972178Y-99713861D01*
X171397467Y-99713861D01*
X171430021Y-99752549D01*
X171456060Y-99792738D01*
X171460795Y-99830797D01*
X171448611Y-99869066D01*
X171436680Y-99889462D01*
X171419687Y-99904642D01*
X171394005Y-99915438D01*
X171356009Y-99922683D01*
X171302074Y-99927208D01*
X171228575Y-99929844D01*
X171179653Y-99930772D01*
X170978465Y-99933911D01*
X170974664Y-99999926D01*
X170970864Y-100065940D01*
X172219350Y-100065940D01*
X172219350Y-99927624D01*
X172149746Y-99924097D01*
X172101431Y-99912215D01*
X172071369Y-99890020D01*
X172056529Y-99855559D01*
X172053564Y-99820742D01*
X172056972Y-99781329D01*
X172070383Y-99755171D01*
X172088104Y-99738814D01*
X172107165Y-99725937D01*
X172128399Y-99718272D01*
X172158151Y-99714861D01*
X172202764Y-99714749D01*
X172240120Y-99715897D01*
X172296396Y-99718532D01*
X172333342Y-99722456D01*
X172356777Y-99729063D01*
X172372520Y-99739749D01*
X172381620Y-99749833D01*
X172401463Y-99791970D01*
X172404668Y-99841840D01*
X172397832Y-99870476D01*
X172373536Y-99898828D01*
X172326272Y-99917609D01*
X172256376Y-99926712D01*
X172219350Y-99927624D01*
X172219350Y-100065940D01*
X172531386Y-100065940D01*
X172531386Y-99996782D01*
X172529744Y-99955260D01*
X172523913Y-99933838D01*
X172512539Y-99927626D01*
X172512202Y-99927624D01*
X172501062Y-99924742D01*
X172502327Y-99912030D01*
X172514567Y-99886757D01*
X172533293Y-99827869D01*
X172535261Y-99761615D01*
X172520816Y-99698759D01*
G36*
X171583445Y-99174210D02*
X171567661Y-99115055D01*
X171539052Y-99070023D01*
X171501581Y-99038246D01*
X171485589Y-99028366D01*
X171468837Y-99021073D01*
X171447408Y-99015974D01*
X171417384Y-99012679D01*
X171374846Y-99010797D01*
X171315878Y-99009937D01*
X171236560Y-99009707D01*
X171215516Y-99009703D01*
X170972178Y-99009703D01*
X170972178Y-99070059D01*
X170974874Y-99108557D01*
X170981705Y-99137023D01*
X170985917Y-99144155D01*
X170993187Y-99163652D01*
X170985917Y-99183566D01*
X170976840Y-99216353D01*
X170973187Y-99263978D01*
X170974772Y-99316764D01*
X170981411Y-99365036D01*
X170989928Y-99393218D01*
X171024937Y-99447753D01*
X171073521Y-99481835D01*
X171138118Y-99497157D01*
X171139777Y-99497299D01*
X171168434Y-99495955D01*
X171168434Y-99374356D01*
X171135839Y-99363726D01*
X171117495Y-99346410D01*
X171103621Y-99311652D01*
X171098083Y-99265773D01*
X171100809Y-99218988D01*
X171111726Y-99181514D01*
X171118731Y-99171015D01*
X171151096Y-99152668D01*
X171187889Y-99148020D01*
X171236237Y-99148020D01*
X171236237Y-99217582D01*
X171231150Y-99283667D01*
X171216737Y-99333764D01*
X171194271Y-99364929D01*
X171168434Y-99374356D01*
X171168434Y-99495955D01*
X171210353Y-99493987D01*
X171266155Y-99470710D01*
X171308353Y-99426948D01*
X171312192Y-99420899D01*
X171324691Y-99394907D01*
X171332260Y-99362735D01*
X171335939Y-99317760D01*
X171336784Y-99264331D01*
X171336831Y-99148020D01*
X171385589Y-99148020D01*
X171423419Y-99152953D01*
X171448764Y-99165543D01*
X171450113Y-99167017D01*
X171461200Y-99195034D01*
X171465497Y-99237326D01*
X171463385Y-99284064D01*
X171455244Y-99325418D01*
X171443035Y-99349957D01*
X171433254Y-99363253D01*
X171431387Y-99377294D01*
X171439400Y-99396671D01*
X171459261Y-99425976D01*
X171492937Y-99469803D01*
X171496091Y-99473825D01*
X171507764Y-99471764D01*
X171527178Y-99454568D01*
X171548752Y-99428433D01*
X171566904Y-99399552D01*
X171571191Y-99390478D01*
X171579744Y-99357380D01*
X171585845Y-99308880D01*
X171588292Y-99254695D01*
X171588297Y-99252161D01*
X171583445Y-99174210D01*
X171583445Y-99174210D01*
G37*
X171583445Y-99174210D02*
X171567661Y-99115055D01*
X171539052Y-99070023D01*
X171501581Y-99038246D01*
X171485589Y-99028366D01*
X171468837Y-99021073D01*
X171447408Y-99015974D01*
X171417384Y-99012679D01*
X171374846Y-99010797D01*
X171315878Y-99009937D01*
X171236560Y-99009707D01*
X171215516Y-99009703D01*
X170972178Y-99009703D01*
X170972178Y-99070059D01*
X170974874Y-99108557D01*
X170981705Y-99137023D01*
X170985917Y-99144155D01*
X170993187Y-99163652D01*
X170985917Y-99183566D01*
X170976840Y-99216353D01*
X170973187Y-99263978D01*
X170974772Y-99316764D01*
X170981411Y-99365036D01*
X170989928Y-99393218D01*
X171024937Y-99447753D01*
X171073521Y-99481835D01*
X171138118Y-99497157D01*
X171139777Y-99497299D01*
X171168434Y-99495955D01*
X171168434Y-99374356D01*
X171135839Y-99363726D01*
X171117495Y-99346410D01*
X171103621Y-99311652D01*
X171098083Y-99265773D01*
X171100809Y-99218988D01*
X171111726Y-99181514D01*
X171118731Y-99171015D01*
X171151096Y-99152668D01*
X171187889Y-99148020D01*
X171236237Y-99148020D01*
X171236237Y-99217582D01*
X171231150Y-99283667D01*
X171216737Y-99333764D01*
X171194271Y-99364929D01*
X171168434Y-99374356D01*
X171168434Y-99495955D01*
X171210353Y-99493987D01*
X171266155Y-99470710D01*
X171308353Y-99426948D01*
X171312192Y-99420899D01*
X171324691Y-99394907D01*
X171332260Y-99362735D01*
X171335939Y-99317760D01*
X171336784Y-99264331D01*
X171336831Y-99148020D01*
X171385589Y-99148020D01*
X171423419Y-99152953D01*
X171448764Y-99165543D01*
X171450113Y-99167017D01*
X171461200Y-99195034D01*
X171465497Y-99237326D01*
X171463385Y-99284064D01*
X171455244Y-99325418D01*
X171443035Y-99349957D01*
X171433254Y-99363253D01*
X171431387Y-99377294D01*
X171439400Y-99396671D01*
X171459261Y-99425976D01*
X171492937Y-99469803D01*
X171496091Y-99473825D01*
X171507764Y-99471764D01*
X171527178Y-99454568D01*
X171548752Y-99428433D01*
X171566904Y-99399552D01*
X171571191Y-99390478D01*
X171579744Y-99357380D01*
X171585845Y-99308880D01*
X171588292Y-99254695D01*
X171588297Y-99252161D01*
X171583445Y-99174210D01*
G36*
X171586980Y-98783356D02*
X171581340Y-98764539D01*
X171568947Y-98758473D01*
X171563353Y-98758218D01*
X171547770Y-98757129D01*
X171545324Y-98749632D01*
X171556007Y-98729381D01*
X171563306Y-98717351D01*
X171578937Y-98679400D01*
X171586666Y-98634072D01*
X171587260Y-98586544D01*
X171581487Y-98541995D01*
X171570116Y-98505602D01*
X171553912Y-98482543D01*
X171533645Y-98477996D01*
X171528157Y-98480291D01*
X171505374Y-98497020D01*
X171477353Y-98522963D01*
X171472823Y-98527655D01*
X171451995Y-98552383D01*
X171445265Y-98573718D01*
X171449962Y-98603555D01*
X171453083Y-98615508D01*
X171460579Y-98652705D01*
X171457208Y-98678859D01*
X171445319Y-98700946D01*
X171429365Y-98721178D01*
X171409300Y-98736079D01*
X171381298Y-98746434D01*
X171341533Y-98753029D01*
X171286177Y-98756649D01*
X171211406Y-98758078D01*
X171166260Y-98758218D01*
X170972178Y-98758218D01*
X170972178Y-98883960D01*
X171588317Y-98883960D01*
X171588317Y-98821089D01*
X171586980Y-98783356D01*
X171586980Y-98783356D01*
G37*
X171586980Y-98783356D02*
X171581340Y-98764539D01*
X171568947Y-98758473D01*
X171563353Y-98758218D01*
X171547770Y-98757129D01*
X171545324Y-98749632D01*
X171556007Y-98729381D01*
X171563306Y-98717351D01*
X171578937Y-98679400D01*
X171586666Y-98634072D01*
X171587260Y-98586544D01*
X171581487Y-98541995D01*
X171570116Y-98505602D01*
X171553912Y-98482543D01*
X171533645Y-98477996D01*
X171528157Y-98480291D01*
X171505374Y-98497020D01*
X171477353Y-98522963D01*
X171472823Y-98527655D01*
X171451995Y-98552383D01*
X171445265Y-98573718D01*
X171449962Y-98603555D01*
X171453083Y-98615508D01*
X171460579Y-98652705D01*
X171457208Y-98678859D01*
X171445319Y-98700946D01*
X171429365Y-98721178D01*
X171409300Y-98736079D01*
X171381298Y-98746434D01*
X171341533Y-98753029D01*
X171286177Y-98756649D01*
X171211406Y-98758078D01*
X171166260Y-98758218D01*
X170972178Y-98758218D01*
X170972178Y-98883960D01*
X171588317Y-98883960D01*
X171588317Y-98821089D01*
X171586980Y-98783356D01*
G36*
X170972178Y-97991188D02*
X170972178Y-98060346D01*
X170973355Y-98100488D01*
X170978228Y-98121394D01*
X170988814Y-98128922D01*
X170995971Y-98129505D01*
X171010324Y-98130774D01*
X171013077Y-98138779D01*
X171004229Y-98159815D01*
X170995971Y-98176173D01*
X170976403Y-98238977D01*
X170975271Y-98307248D01*
X170989865Y-98362752D01*
X171025123Y-98414438D01*
X171077165Y-98453838D01*
X171138550Y-98475413D01*
X171141982Y-98475962D01*
X171179429Y-98479167D01*
X171233187Y-98480761D01*
X171273845Y-98480633D01*
X171273845Y-98343279D01*
X171219806Y-98340097D01*
X171175265Y-98332859D01*
X171150112Y-98323060D01*
X171115740Y-98285989D01*
X171103418Y-98241974D01*
X171113382Y-98196584D01*
X171143105Y-98157797D01*
X171163095Y-98143108D01*
X171186950Y-98134519D01*
X171221770Y-98130496D01*
X171274070Y-98129505D01*
X171325861Y-98131278D01*
X171371366Y-98135963D01*
X171401819Y-98142603D01*
X171404548Y-98143710D01*
X171437000Y-98170491D01*
X171454817Y-98209579D01*
X171457694Y-98253315D01*
X171445326Y-98294038D01*
X171417407Y-98324087D01*
X171411852Y-98327204D01*
X171377978Y-98336961D01*
X171329272Y-98342277D01*
X171273845Y-98343279D01*
X171273845Y-98480633D01*
X171294460Y-98480568D01*
X171327437Y-98479664D01*
X171409019Y-98473514D01*
X171470270Y-98460733D01*
X171515551Y-98439471D01*
X171549221Y-98407878D01*
X171568986Y-98377207D01*
X171582880Y-98334354D01*
X171587646Y-98281056D01*
X171583764Y-98226480D01*
X171571718Y-98179792D01*
X171557307Y-98155124D01*
X171534122Y-98129505D01*
X171827227Y-98129505D01*
X171827227Y-97991188D01*
X170972178Y-97991188D01*
X170972178Y-97991188D01*
G37*
X170972178Y-97991188D02*
X170972178Y-98060346D01*
X170973355Y-98100488D01*
X170978228Y-98121394D01*
X170988814Y-98128922D01*
X170995971Y-98129505D01*
X171010324Y-98130774D01*
X171013077Y-98138779D01*
X171004229Y-98159815D01*
X170995971Y-98176173D01*
X170976403Y-98238977D01*
X170975271Y-98307248D01*
X170989865Y-98362752D01*
X171025123Y-98414438D01*
X171077165Y-98453838D01*
X171138550Y-98475413D01*
X171141982Y-98475962D01*
X171179429Y-98479167D01*
X171233187Y-98480761D01*
X171273845Y-98480633D01*
X171273845Y-98343279D01*
X171219806Y-98340097D01*
X171175265Y-98332859D01*
X171150112Y-98323060D01*
X171115740Y-98285989D01*
X171103418Y-98241974D01*
X171113382Y-98196584D01*
X171143105Y-98157797D01*
X171163095Y-98143108D01*
X171186950Y-98134519D01*
X171221770Y-98130496D01*
X171274070Y-98129505D01*
X171325861Y-98131278D01*
X171371366Y-98135963D01*
X171401819Y-98142603D01*
X171404548Y-98143710D01*
X171437000Y-98170491D01*
X171454817Y-98209579D01*
X171457694Y-98253315D01*
X171445326Y-98294038D01*
X171417407Y-98324087D01*
X171411852Y-98327204D01*
X171377978Y-98336961D01*
X171329272Y-98342277D01*
X171273845Y-98343279D01*
X171273845Y-98480633D01*
X171294460Y-98480568D01*
X171327437Y-98479664D01*
X171409019Y-98473514D01*
X171470270Y-98460733D01*
X171515551Y-98439471D01*
X171549221Y-98407878D01*
X171568986Y-98377207D01*
X171582880Y-98334354D01*
X171587646Y-98281056D01*
X171583764Y-98226480D01*
X171571718Y-98179792D01*
X171557307Y-98155124D01*
X171534122Y-98129505D01*
X171827227Y-98129505D01*
X171827227Y-97991188D01*
X170972178Y-97991188D01*
G36*
X171585763Y-97508476D02*
X171582029Y-97458745D01*
X171192227Y-97328709D01*
X171261386Y-97308322D01*
X171304126Y-97296054D01*
X171361885Y-97279915D01*
X171425375Y-97262488D01*
X171459430Y-97253274D01*
X171588317Y-97218612D01*
X171588317Y-97075609D01*
X171453143Y-97118354D01*
X171386658Y-97139404D01*
X171306461Y-97164833D01*
X171222807Y-97191390D01*
X171148218Y-97215098D01*
X170978465Y-97269098D01*
X170974672Y-97327402D01*
X170970878Y-97385705D01*
X171075266Y-97417321D01*
X171140111Y-97436818D01*
X171211600Y-97458096D01*
X171274737Y-97476692D01*
X171277250Y-97477426D01*
X171320031Y-97491316D01*
X171349221Y-97503571D01*
X171360259Y-97512154D01*
X171358982Y-97513918D01*
X171341870Y-97520109D01*
X171305213Y-97531872D01*
X171253622Y-97547775D01*
X171191706Y-97566386D01*
X171157648Y-97576457D01*
X170972178Y-97630993D01*
X170972178Y-97746736D01*
X171264529Y-97839263D01*
X171346538Y-97865256D01*
X171421013Y-97888934D01*
X171484456Y-97909180D01*
X171533368Y-97924874D01*
X171564251Y-97934898D01*
X171573274Y-97937945D01*
X171582513Y-97935533D01*
X171586559Y-97916592D01*
X171586154Y-97877177D01*
X171585848Y-97871007D01*
X171582029Y-97797914D01*
X171405990Y-97750043D01*
X171341789Y-97732447D01*
X171285351Y-97716723D01*
X171241578Y-97704254D01*
X171215370Y-97696426D01*
X171211097Y-97694980D01*
X171216010Y-97688986D01*
X171241468Y-97676899D01*
X171284003Y-97660107D01*
X171340150Y-97639997D01*
X171390870Y-97622997D01*
X171589496Y-97558206D01*
X171585763Y-97508476D01*
X171585763Y-97508476D01*
G37*
X171585763Y-97508476D02*
X171582029Y-97458745D01*
X171192227Y-97328709D01*
X171261386Y-97308322D01*
X171304126Y-97296054D01*
X171361885Y-97279915D01*
X171425375Y-97262488D01*
X171459430Y-97253274D01*
X171588317Y-97218612D01*
X171588317Y-97075609D01*
X171453143Y-97118354D01*
X171386658Y-97139404D01*
X171306461Y-97164833D01*
X171222807Y-97191390D01*
X171148218Y-97215098D01*
X170978465Y-97269098D01*
X170974672Y-97327402D01*
X170970878Y-97385705D01*
X171075266Y-97417321D01*
X171140111Y-97436818D01*
X171211600Y-97458096D01*
X171274737Y-97476692D01*
X171277250Y-97477426D01*
X171320031Y-97491316D01*
X171349221Y-97503571D01*
X171360259Y-97512154D01*
X171358982Y-97513918D01*
X171341870Y-97520109D01*
X171305213Y-97531872D01*
X171253622Y-97547775D01*
X171191706Y-97566386D01*
X171157648Y-97576457D01*
X170972178Y-97630993D01*
X170972178Y-97746736D01*
X171264529Y-97839263D01*
X171346538Y-97865256D01*
X171421013Y-97888934D01*
X171484456Y-97909180D01*
X171533368Y-97924874D01*
X171564251Y-97934898D01*
X171573274Y-97937945D01*
X171582513Y-97935533D01*
X171586559Y-97916592D01*
X171586154Y-97877177D01*
X171585848Y-97871007D01*
X171582029Y-97797914D01*
X171405990Y-97750043D01*
X171341789Y-97732447D01*
X171285351Y-97716723D01*
X171241578Y-97704254D01*
X171215370Y-97696426D01*
X171211097Y-97694980D01*
X171216010Y-97688986D01*
X171241468Y-97676899D01*
X171284003Y-97660107D01*
X171340150Y-97639997D01*
X171390870Y-97622997D01*
X171589496Y-97558206D01*
X171585763Y-97508476D01*
G36*
X171584583Y-96751589D02*
X171571710Y-96698589D01*
X171564890Y-96683269D01*
X171547026Y-96653572D01*
X171526907Y-96630780D01*
X171501038Y-96613917D01*
X171465927Y-96602002D01*
X171418080Y-96594058D01*
X171354004Y-96589106D01*
X171270206Y-96586169D01*
X171214232Y-96585053D01*
X170972178Y-96580948D01*
X170972178Y-96651068D01*
X170973962Y-96693607D01*
X170980058Y-96715524D01*
X170990294Y-96721188D01*
X171001363Y-96724179D01*
X170999246Y-96737549D01*
X170990371Y-96755767D01*
X170976767Y-96801376D01*
X170973101Y-96859993D01*
X170979097Y-96921646D01*
X170994479Y-96976362D01*
X170996614Y-96981270D01*
X171031745Y-97031277D01*
X171080581Y-97064244D01*
X171137667Y-97079413D01*
X171158176Y-97078254D01*
X171158176Y-96954492D01*
X171130575Y-96943587D01*
X171110796Y-96911255D01*
X171100181Y-96859090D01*
X171098772Y-96831213D01*
X171102380Y-96784753D01*
X171116403Y-96753871D01*
X171123069Y-96746336D01*
X171159334Y-96725924D01*
X171192227Y-96721188D01*
X171236237Y-96721188D01*
X171236237Y-96782487D01*
X171232605Y-96853744D01*
X171221182Y-96903724D01*
X171201176Y-96935304D01*
X171192257Y-96942374D01*
X171158176Y-96954492D01*
X171158176Y-97078254D01*
X171197544Y-97076029D01*
X171254756Y-97053337D01*
X171293420Y-97022376D01*
X171310136Y-97003624D01*
X171321122Y-96985267D01*
X171327820Y-96961381D01*
X171331674Y-96926043D01*
X171334127Y-96873331D01*
X171334832Y-96852423D01*
X171339121Y-96721188D01*
X171378842Y-96721380D01*
X171420595Y-96726463D01*
X171445842Y-96744838D01*
X171461970Y-96781961D01*
X171462258Y-96782957D01*
X171468600Y-96835590D01*
X171460316Y-96887094D01*
X171440173Y-96925370D01*
X171430227Y-96940728D01*
X171431603Y-96957270D01*
X171446013Y-96982725D01*
X171456183Y-96997672D01*
X171477912Y-97026909D01*
X171494200Y-97045020D01*
X171498863Y-97047926D01*
X171522995Y-97035960D01*
X171551815Y-97000604D01*
X171561539Y-96985247D01*
X171578286Y-96941099D01*
X171587773Y-96881602D01*
X171589905Y-96815513D01*
X171584583Y-96751589D01*
X171584583Y-96751589D01*
G37*
X171584583Y-96751589D02*
X171571710Y-96698589D01*
X171564890Y-96683269D01*
X171547026Y-96653572D01*
X171526907Y-96630780D01*
X171501038Y-96613917D01*
X171465927Y-96602002D01*
X171418080Y-96594058D01*
X171354004Y-96589106D01*
X171270206Y-96586169D01*
X171214232Y-96585053D01*
X170972178Y-96580948D01*
X170972178Y-96651068D01*
X170973962Y-96693607D01*
X170980058Y-96715524D01*
X170990294Y-96721188D01*
X171001363Y-96724179D01*
X170999246Y-96737549D01*
X170990371Y-96755767D01*
X170976767Y-96801376D01*
X170973101Y-96859993D01*
X170979097Y-96921646D01*
X170994479Y-96976362D01*
X170996614Y-96981270D01*
X171031745Y-97031277D01*
X171080581Y-97064244D01*
X171137667Y-97079413D01*
X171158176Y-97078254D01*
X171158176Y-96954492D01*
X171130575Y-96943587D01*
X171110796Y-96911255D01*
X171100181Y-96859090D01*
X171098772Y-96831213D01*
X171102380Y-96784753D01*
X171116403Y-96753871D01*
X171123069Y-96746336D01*
X171159334Y-96725924D01*
X171192227Y-96721188D01*
X171236237Y-96721188D01*
X171236237Y-96782487D01*
X171232605Y-96853744D01*
X171221182Y-96903724D01*
X171201176Y-96935304D01*
X171192257Y-96942374D01*
X171158176Y-96954492D01*
X171158176Y-97078254D01*
X171197544Y-97076029D01*
X171254756Y-97053337D01*
X171293420Y-97022376D01*
X171310136Y-97003624D01*
X171321122Y-96985267D01*
X171327820Y-96961381D01*
X171331674Y-96926043D01*
X171334127Y-96873331D01*
X171334832Y-96852423D01*
X171339121Y-96721188D01*
X171378842Y-96721380D01*
X171420595Y-96726463D01*
X171445842Y-96744838D01*
X171461970Y-96781961D01*
X171462258Y-96782957D01*
X171468600Y-96835590D01*
X171460316Y-96887094D01*
X171440173Y-96925370D01*
X171430227Y-96940728D01*
X171431603Y-96957270D01*
X171446013Y-96982725D01*
X171456183Y-96997672D01*
X171477912Y-97026909D01*
X171494200Y-97045020D01*
X171498863Y-97047926D01*
X171522995Y-97035960D01*
X171551815Y-97000604D01*
X171561539Y-96985247D01*
X171578286Y-96941099D01*
X171587773Y-96881602D01*
X171589905Y-96815513D01*
X171584583Y-96751589D01*
G36*
X171588514Y-96154745D02*
X171578985Y-96106405D01*
X171564875Y-96078886D01*
X171541432Y-96049936D01*
X171489429Y-96091124D01*
X171457936Y-96116518D01*
X171442572Y-96133762D01*
X171440224Y-96150898D01*
X171447783Y-96175973D01*
X171452059Y-96187743D01*
X171458369Y-96235730D01*
X171444844Y-96279676D01*
X171414290Y-96311940D01*
X171404548Y-96317181D01*
X171378742Y-96322888D01*
X171331183Y-96327294D01*
X171265242Y-96330189D01*
X171184290Y-96331369D01*
X171172774Y-96331386D01*
X170972178Y-96331386D01*
X170972178Y-96469703D01*
X171588317Y-96469703D01*
X171588317Y-96400544D01*
X171587275Y-96360667D01*
X171582642Y-96339893D01*
X171572151Y-96332211D01*
X171562255Y-96331386D01*
X171536194Y-96331386D01*
X171562255Y-96298255D01*
X171580035Y-96260265D01*
X171588826Y-96209230D01*
X171588514Y-96154745D01*
X171588514Y-96154745D01*
G37*
X171588514Y-96154745D02*
X171578985Y-96106405D01*
X171564875Y-96078886D01*
X171541432Y-96049936D01*
X171489429Y-96091124D01*
X171457936Y-96116518D01*
X171442572Y-96133762D01*
X171440224Y-96150898D01*
X171447783Y-96175973D01*
X171452059Y-96187743D01*
X171458369Y-96235730D01*
X171444844Y-96279676D01*
X171414290Y-96311940D01*
X171404548Y-96317181D01*
X171378742Y-96322888D01*
X171331183Y-96327294D01*
X171265242Y-96330189D01*
X171184290Y-96331369D01*
X171172774Y-96331386D01*
X170972178Y-96331386D01*
X170972178Y-96469703D01*
X171588317Y-96469703D01*
X171588317Y-96400544D01*
X171587275Y-96360667D01*
X171582642Y-96339893D01*
X171572151Y-96332211D01*
X171562255Y-96331386D01*
X171536194Y-96331386D01*
X171562255Y-96298255D01*
X171580035Y-96260265D01*
X171588826Y-96209230D01*
X171588514Y-96154745D01*
G36*
X171585030Y-95757419D02*
X171569403Y-95697315D01*
X171537152Y-95646979D01*
X171513060Y-95622607D01*
X171456105Y-95582655D01*
X171390035Y-95559758D01*
X171308818Y-95551892D01*
X171302252Y-95551852D01*
X171236237Y-95551782D01*
X171236237Y-95931736D01*
X171201658Y-95923637D01*
X171170341Y-95909013D01*
X171137709Y-95883419D01*
X171132500Y-95878065D01*
X171104306Y-95832057D01*
X171099525Y-95779590D01*
X171118074Y-95719197D01*
X171123069Y-95708960D01*
X171138255Y-95677561D01*
X171146906Y-95656530D01*
X171147707Y-95652861D01*
X171139937Y-95640052D01*
X171120928Y-95615622D01*
X171110540Y-95603221D01*
X171086679Y-95577524D01*
X171070923Y-95569085D01*
X171056429Y-95574942D01*
X171052466Y-95578072D01*
X171035121Y-95599275D01*
X171014041Y-95634262D01*
X171001735Y-95658663D01*
X170980054Y-95727928D01*
X170973029Y-95804612D01*
X170981353Y-95877235D01*
X170987314Y-95897574D01*
X171021048Y-95960524D01*
X171072955Y-96007185D01*
X171143541Y-96037827D01*
X171233308Y-96052718D01*
X171280247Y-96054353D01*
X171348587Y-96049579D01*
X171348587Y-95929010D01*
X171343535Y-95917348D01*
X171339571Y-95886002D01*
X171337232Y-95840429D01*
X171336831Y-95809554D01*
X171337217Y-95754019D01*
X171339025Y-95718967D01*
X171343227Y-95699738D01*
X171350797Y-95691670D01*
X171361782Y-95690099D01*
X171395619Y-95700879D01*
X171429060Y-95728020D01*
X171454728Y-95763723D01*
X171465228Y-95799440D01*
X171455914Y-95847952D01*
X171428987Y-95889947D01*
X171390173Y-95919064D01*
X171348587Y-95929010D01*
X171348587Y-96049579D01*
X171379764Y-96047401D01*
X171459051Y-96025945D01*
X171518737Y-95989530D01*
X171559451Y-95937703D01*
X171581821Y-95870010D01*
X171586129Y-95833338D01*
X171585030Y-95757419D01*
X171585030Y-95757419D01*
G37*
X171585030Y-95757419D02*
X171569403Y-95697315D01*
X171537152Y-95646979D01*
X171513060Y-95622607D01*
X171456105Y-95582655D01*
X171390035Y-95559758D01*
X171308818Y-95551892D01*
X171302252Y-95551852D01*
X171236237Y-95551782D01*
X171236237Y-95931736D01*
X171201658Y-95923637D01*
X171170341Y-95909013D01*
X171137709Y-95883419D01*
X171132500Y-95878065D01*
X171104306Y-95832057D01*
X171099525Y-95779590D01*
X171118074Y-95719197D01*
X171123069Y-95708960D01*
X171138255Y-95677561D01*
X171146906Y-95656530D01*
X171147707Y-95652861D01*
X171139937Y-95640052D01*
X171120928Y-95615622D01*
X171110540Y-95603221D01*
X171086679Y-95577524D01*
X171070923Y-95569085D01*
X171056429Y-95574942D01*
X171052466Y-95578072D01*
X171035121Y-95599275D01*
X171014041Y-95634262D01*
X171001735Y-95658663D01*
X170980054Y-95727928D01*
X170973029Y-95804612D01*
X170981353Y-95877235D01*
X170987314Y-95897574D01*
X171021048Y-95960524D01*
X171072955Y-96007185D01*
X171143541Y-96037827D01*
X171233308Y-96052718D01*
X171280247Y-96054353D01*
X171348587Y-96049579D01*
X171348587Y-95929010D01*
X171343535Y-95917348D01*
X171339571Y-95886002D01*
X171337232Y-95840429D01*
X171336831Y-95809554D01*
X171337217Y-95754019D01*
X171339025Y-95718967D01*
X171343227Y-95699738D01*
X171350797Y-95691670D01*
X171361782Y-95690099D01*
X171395619Y-95700879D01*
X171429060Y-95728020D01*
X171454728Y-95763723D01*
X171465228Y-95799440D01*
X171455914Y-95847952D01*
X171428987Y-95889947D01*
X171390173Y-95919064D01*
X171348587Y-95929010D01*
X171348587Y-96049579D01*
X171379764Y-96047401D01*
X171459051Y-96025945D01*
X171518737Y-95989530D01*
X171559451Y-95937703D01*
X171581821Y-95870010D01*
X171586129Y-95833338D01*
X171585030Y-95757419D01*
G36*
X172524852Y-100328261D02*
X172495769Y-100262479D01*
X172447207Y-100212540D01*
X172379092Y-100178374D01*
X172291349Y-100159907D01*
X172277649Y-100158583D01*
X172181061Y-100157546D01*
X172096398Y-100170993D01*
X172027779Y-100198108D01*
X172005706Y-100212627D01*
X171958989Y-100263201D01*
X171928732Y-100327609D01*
X171916176Y-100399666D01*
X171922561Y-100473185D01*
X171942228Y-100529072D01*
X171975371Y-100577132D01*
X172018825Y-100616412D01*
X172019842Y-100617092D01*
X172046662Y-100633044D01*
X172073632Y-100643410D01*
X172107668Y-100649688D01*
X172155690Y-100653373D01*
X172195069Y-100654997D01*
X172230781Y-100655672D01*
X172230781Y-100529955D01*
X172195230Y-100528726D01*
X172147906Y-100524266D01*
X172117535Y-100516397D01*
X172095928Y-100502207D01*
X172083306Y-100488917D01*
X172056878Y-100441802D01*
X172053347Y-100392505D01*
X172072361Y-100346593D01*
X172093669Y-100323638D01*
X172115141Y-100307096D01*
X172135687Y-100297421D01*
X172162426Y-100293174D01*
X172202477Y-100292920D01*
X172239362Y-100294228D01*
X172292053Y-100297043D01*
X172326228Y-100301505D01*
X172348520Y-100309548D01*
X172365558Y-100323103D01*
X172375297Y-100333845D01*
X172400877Y-100378777D01*
X172402153Y-100427249D01*
X172387001Y-100467894D01*
X172355358Y-100502567D01*
X172303380Y-100523224D01*
X172230781Y-100529955D01*
X172230781Y-100655672D01*
X172273379Y-100656479D01*
X172331944Y-100653948D01*
X172375993Y-100646362D01*
X172410752Y-100632681D01*
X172441449Y-100611865D01*
X172450564Y-100604147D01*
X172495979Y-100555889D01*
X172522507Y-100504128D01*
X172533621Y-100440828D01*
X172534529Y-100409961D01*
X172524852Y-100328261D01*
X172524852Y-100328261D01*
G37*
X172524852Y-100328261D02*
X172495769Y-100262479D01*
X172447207Y-100212540D01*
X172379092Y-100178374D01*
X172291349Y-100159907D01*
X172277649Y-100158583D01*
X172181061Y-100157546D01*
X172096398Y-100170993D01*
X172027779Y-100198108D01*
X172005706Y-100212627D01*
X171958989Y-100263201D01*
X171928732Y-100327609D01*
X171916176Y-100399666D01*
X171922561Y-100473185D01*
X171942228Y-100529072D01*
X171975371Y-100577132D01*
X172018825Y-100616412D01*
X172019842Y-100617092D01*
X172046662Y-100633044D01*
X172073632Y-100643410D01*
X172107668Y-100649688D01*
X172155690Y-100653373D01*
X172195069Y-100654997D01*
X172230781Y-100655672D01*
X172230781Y-100529955D01*
X172195230Y-100528726D01*
X172147906Y-100524266D01*
X172117535Y-100516397D01*
X172095928Y-100502207D01*
X172083306Y-100488917D01*
X172056878Y-100441802D01*
X172053347Y-100392505D01*
X172072361Y-100346593D01*
X172093669Y-100323638D01*
X172115141Y-100307096D01*
X172135687Y-100297421D01*
X172162426Y-100293174D01*
X172202477Y-100292920D01*
X172239362Y-100294228D01*
X172292053Y-100297043D01*
X172326228Y-100301505D01*
X172348520Y-100309548D01*
X172365558Y-100323103D01*
X172375297Y-100333845D01*
X172400877Y-100378777D01*
X172402153Y-100427249D01*
X172387001Y-100467894D01*
X172355358Y-100502567D01*
X172303380Y-100523224D01*
X172230781Y-100529955D01*
X172230781Y-100655672D01*
X172273379Y-100656479D01*
X172331944Y-100653948D01*
X172375993Y-100646362D01*
X172410752Y-100632681D01*
X172441449Y-100611865D01*
X172450564Y-100604147D01*
X172495979Y-100555889D01*
X172522507Y-100504128D01*
X172533621Y-100440828D01*
X172534529Y-100409961D01*
X172524852Y-100328261D01*
G36*
X172517386Y-99146699D02*
X172511486Y-99134168D01*
X172479717Y-99090799D01*
X172433354Y-99049790D01*
X172382304Y-99019168D01*
X172358834Y-99010459D01*
X172316909Y-99002512D01*
X172266243Y-98997774D01*
X172245321Y-98997199D01*
X172179307Y-98997129D01*
X172179307Y-99377083D01*
X172144727Y-99368983D01*
X172103830Y-99349104D01*
X172068486Y-99314347D01*
X172045718Y-99272998D01*
X172040990Y-99246649D01*
X172046727Y-99210916D01*
X172061118Y-99168282D01*
X172067738Y-99153799D01*
X172094487Y-99100240D01*
X172059624Y-99054533D01*
X172036045Y-99028158D01*
X172016583Y-99014124D01*
X172010871Y-99013414D01*
X171997027Y-99025951D01*
X171975988Y-99053428D01*
X171959575Y-99078366D01*
X171930070Y-99145664D01*
X171916716Y-99221110D01*
X171920188Y-99295888D01*
X171938337Y-99355495D01*
X171977216Y-99416941D01*
X172028405Y-99460608D01*
X172094633Y-99487926D01*
X172178629Y-99500322D01*
X172217064Y-99501421D01*
X172305139Y-99497022D01*
X172307701Y-99496482D01*
X172307701Y-99370582D01*
X172299442Y-99367115D01*
X172294887Y-99352863D01*
X172292935Y-99323470D01*
X172292483Y-99274575D01*
X172292475Y-99255748D01*
X172293157Y-99198467D01*
X172295636Y-99162141D01*
X172300557Y-99142604D01*
X172308566Y-99135690D01*
X172311138Y-99135445D01*
X172331577Y-99143336D01*
X172360211Y-99163085D01*
X172370237Y-99171575D01*
X172398592Y-99203094D01*
X172409741Y-99235949D01*
X172410673Y-99253651D01*
X172399019Y-99301539D01*
X172367715Y-99341699D01*
X172322248Y-99367173D01*
X172320767Y-99367625D01*
X172307701Y-99370582D01*
X172307701Y-99496482D01*
X172374490Y-99482392D01*
X172429975Y-99456038D01*
X172469361Y-99423807D01*
X172512069Y-99364217D01*
X172534891Y-99294168D01*
X172536954Y-99219661D01*
X172517386Y-99146699D01*
X172517386Y-99146699D01*
G37*
X172517386Y-99146699D02*
X172511486Y-99134168D01*
X172479717Y-99090799D01*
X172433354Y-99049790D01*
X172382304Y-99019168D01*
X172358834Y-99010459D01*
X172316909Y-99002512D01*
X172266243Y-98997774D01*
X172245321Y-98997199D01*
X172179307Y-98997129D01*
X172179307Y-99377083D01*
X172144727Y-99368983D01*
X172103830Y-99349104D01*
X172068486Y-99314347D01*
X172045718Y-99272998D01*
X172040990Y-99246649D01*
X172046727Y-99210916D01*
X172061118Y-99168282D01*
X172067738Y-99153799D01*
X172094487Y-99100240D01*
X172059624Y-99054533D01*
X172036045Y-99028158D01*
X172016583Y-99014124D01*
X172010871Y-99013414D01*
X171997027Y-99025951D01*
X171975988Y-99053428D01*
X171959575Y-99078366D01*
X171930070Y-99145664D01*
X171916716Y-99221110D01*
X171920188Y-99295888D01*
X171938337Y-99355495D01*
X171977216Y-99416941D01*
X172028405Y-99460608D01*
X172094633Y-99487926D01*
X172178629Y-99500322D01*
X172217064Y-99501421D01*
X172305139Y-99497022D01*
X172307701Y-99496482D01*
X172307701Y-99370582D01*
X172299442Y-99367115D01*
X172294887Y-99352863D01*
X172292935Y-99323470D01*
X172292483Y-99274575D01*
X172292475Y-99255748D01*
X172293157Y-99198467D01*
X172295636Y-99162141D01*
X172300557Y-99142604D01*
X172308566Y-99135690D01*
X172311138Y-99135445D01*
X172331577Y-99143336D01*
X172360211Y-99163085D01*
X172370237Y-99171575D01*
X172398592Y-99203094D01*
X172409741Y-99235949D01*
X172410673Y-99253651D01*
X172399019Y-99301539D01*
X172367715Y-99341699D01*
X172322248Y-99367173D01*
X172320767Y-99367625D01*
X172307701Y-99370582D01*
X172307701Y-99496482D01*
X172374490Y-99482392D01*
X172429975Y-99456038D01*
X172469361Y-99423807D01*
X172512069Y-99364217D01*
X172534891Y-99294168D01*
X172536954Y-99219661D01*
X172517386Y-99146699D01*
G36*
X172533548Y-97775983D02*
X172524518Y-97728366D01*
X172505630Y-97678966D01*
X172503223Y-97673688D01*
X172483524Y-97636226D01*
X172465219Y-97610283D01*
X172453492Y-97601897D01*
X172434368Y-97609883D01*
X172406150Y-97629280D01*
X172395616Y-97637890D01*
X172354153Y-97673372D01*
X172381142Y-97719115D01*
X172399122Y-97762650D01*
X172408733Y-97812950D01*
X172409340Y-97861188D01*
X172400309Y-97898533D01*
X172394673Y-97907495D01*
X172368829Y-97924563D01*
X172339059Y-97926637D01*
X172315803Y-97913866D01*
X172311292Y-97906312D01*
X172305691Y-97883675D01*
X172299108Y-97843885D01*
X172292817Y-97794834D01*
X172291830Y-97785785D01*
X172278202Y-97707004D01*
X172255054Y-97649864D01*
X172220248Y-97611970D01*
X172171646Y-97590921D01*
X172112282Y-97584365D01*
X172044802Y-97593423D01*
X171991812Y-97622836D01*
X171953217Y-97672722D01*
X171928919Y-97743200D01*
X171919333Y-97821435D01*
X171919448Y-97885234D01*
X171928155Y-97936984D01*
X171940175Y-97972327D01*
X171961120Y-98016983D01*
X171985426Y-98058253D01*
X171996124Y-98072921D01*
X172026916Y-98110643D01*
X172072951Y-98065148D01*
X172118987Y-98019653D01*
X172084757Y-97967928D01*
X172059048Y-97916048D01*
X172045601Y-97860649D01*
X172044182Y-97807395D01*
X172054557Y-97761951D01*
X172076493Y-97729984D01*
X172095002Y-97719662D01*
X172124686Y-97721211D01*
X172147385Y-97746860D01*
X172163060Y-97796540D01*
X172170305Y-97850969D01*
X172184127Y-97934736D01*
X172210204Y-97996967D01*
X172249301Y-98038493D01*
X172302180Y-98060147D01*
X172364874Y-98063147D01*
X172430358Y-98048329D01*
X172479856Y-98014546D01*
X172513592Y-97961495D01*
X172531793Y-97888874D01*
X172535361Y-97835072D01*
X172533548Y-97775983D01*
X172533548Y-97775983D01*
G37*
X172533548Y-97775983D02*
X172524518Y-97728366D01*
X172505630Y-97678966D01*
X172503223Y-97673688D01*
X172483524Y-97636226D01*
X172465219Y-97610283D01*
X172453492Y-97601897D01*
X172434368Y-97609883D01*
X172406150Y-97629280D01*
X172395616Y-97637890D01*
X172354153Y-97673372D01*
X172381142Y-97719115D01*
X172399122Y-97762650D01*
X172408733Y-97812950D01*
X172409340Y-97861188D01*
X172400309Y-97898533D01*
X172394673Y-97907495D01*
X172368829Y-97924563D01*
X172339059Y-97926637D01*
X172315803Y-97913866D01*
X172311292Y-97906312D01*
X172305691Y-97883675D01*
X172299108Y-97843885D01*
X172292817Y-97794834D01*
X172291830Y-97785785D01*
X172278202Y-97707004D01*
X172255054Y-97649864D01*
X172220248Y-97611970D01*
X172171646Y-97590921D01*
X172112282Y-97584365D01*
X172044802Y-97593423D01*
X171991812Y-97622836D01*
X171953217Y-97672722D01*
X171928919Y-97743200D01*
X171919333Y-97821435D01*
X171919448Y-97885234D01*
X171928155Y-97936984D01*
X171940175Y-97972327D01*
X171961120Y-98016983D01*
X171985426Y-98058253D01*
X171996124Y-98072921D01*
X172026916Y-98110643D01*
X172072951Y-98065148D01*
X172118987Y-98019653D01*
X172084757Y-97967928D01*
X172059048Y-97916048D01*
X172045601Y-97860649D01*
X172044182Y-97807395D01*
X172054557Y-97761951D01*
X172076493Y-97729984D01*
X172095002Y-97719662D01*
X172124686Y-97721211D01*
X172147385Y-97746860D01*
X172163060Y-97796540D01*
X172170305Y-97850969D01*
X172184127Y-97934736D01*
X172210204Y-97996967D01*
X172249301Y-98038493D01*
X172302180Y-98060147D01*
X172364874Y-98063147D01*
X172430358Y-98048329D01*
X172479856Y-98014546D01*
X172513592Y-97961495D01*
X172531793Y-97888874D01*
X172535361Y-97835072D01*
X172533548Y-97775983D01*
G36*
X172523945Y-97179238D02*
X172489308Y-97115637D01*
X172434628Y-97065877D01*
X172390158Y-97042432D01*
X172350879Y-97032366D01*
X172294884Y-97025844D01*
X172230379Y-97023049D01*
X172165571Y-97024164D01*
X172108666Y-97029374D01*
X172078273Y-97035459D01*
X172036694Y-97055986D01*
X171992532Y-97091537D01*
X171953913Y-97134381D01*
X171928966Y-97176789D01*
X171928570Y-97177823D01*
X171917669Y-97230447D01*
X171917399Y-97292812D01*
X171927324Y-97352076D01*
X171935278Y-97374960D01*
X171968700Y-97433898D01*
X172012489Y-97476110D01*
X172070462Y-97503844D01*
X172146435Y-97519349D01*
X172186229Y-97522857D01*
X172236234Y-97522410D01*
X172236234Y-97387624D01*
X172163268Y-97383083D01*
X172107666Y-97370014D01*
X172072139Y-97349244D01*
X172061980Y-97334448D01*
X172054896Y-97296536D01*
X172056993Y-97251473D01*
X172067188Y-97212513D01*
X172072796Y-97202296D01*
X172105462Y-97175341D01*
X172155455Y-97157549D01*
X172216295Y-97149976D01*
X172281503Y-97153675D01*
X172320747Y-97161943D01*
X172366195Y-97185680D01*
X172394604Y-97223151D01*
X172404427Y-97268280D01*
X172394113Y-97314989D01*
X172368888Y-97350868D01*
X172348075Y-97369723D01*
X172327561Y-97380728D01*
X172299797Y-97385974D01*
X172257238Y-97387551D01*
X172236234Y-97387624D01*
X172236234Y-97522410D01*
X172292420Y-97521906D01*
X172379499Y-97504612D01*
X172447470Y-97470971D01*
X172496336Y-97420982D01*
X172526101Y-97354644D01*
X172529552Y-97340399D01*
X172537655Y-97254790D01*
X172523945Y-97179238D01*
X172523945Y-97179238D01*
G37*
X172523945Y-97179238D02*
X172489308Y-97115637D01*
X172434628Y-97065877D01*
X172390158Y-97042432D01*
X172350879Y-97032366D01*
X172294884Y-97025844D01*
X172230379Y-97023049D01*
X172165571Y-97024164D01*
X172108666Y-97029374D01*
X172078273Y-97035459D01*
X172036694Y-97055986D01*
X171992532Y-97091537D01*
X171953913Y-97134381D01*
X171928966Y-97176789D01*
X171928570Y-97177823D01*
X171917669Y-97230447D01*
X171917399Y-97292812D01*
X171927324Y-97352076D01*
X171935278Y-97374960D01*
X171968700Y-97433898D01*
X172012489Y-97476110D01*
X172070462Y-97503844D01*
X172146435Y-97519349D01*
X172186229Y-97522857D01*
X172236234Y-97522410D01*
X172236234Y-97387624D01*
X172163268Y-97383083D01*
X172107666Y-97370014D01*
X172072139Y-97349244D01*
X172061980Y-97334448D01*
X172054896Y-97296536D01*
X172056993Y-97251473D01*
X172067188Y-97212513D01*
X172072796Y-97202296D01*
X172105462Y-97175341D01*
X172155455Y-97157549D01*
X172216295Y-97149976D01*
X172281503Y-97153675D01*
X172320747Y-97161943D01*
X172366195Y-97185680D01*
X172394604Y-97223151D01*
X172404427Y-97268280D01*
X172394113Y-97314989D01*
X172368888Y-97350868D01*
X172348075Y-97369723D01*
X172327561Y-97380728D01*
X172299797Y-97385974D01*
X172257238Y-97387551D01*
X172236234Y-97387624D01*
X172236234Y-97522410D01*
X172292420Y-97521906D01*
X172379499Y-97504612D01*
X172447470Y-97470971D01*
X172496336Y-97420982D01*
X172526101Y-97354644D01*
X172529552Y-97340399D01*
X172537655Y-97254790D01*
X172523945Y-97179238D01*
G36*
X172335658Y-96796633D02*
X172243437Y-96795445D01*
X172173390Y-96791103D01*
X172122619Y-96782442D01*
X172088228Y-96768296D01*
X172067321Y-96747500D01*
X172057000Y-96718890D01*
X172054364Y-96683465D01*
X172057318Y-96646364D01*
X172068111Y-96618182D01*
X172089640Y-96597757D01*
X172124801Y-96583921D01*
X172176490Y-96575509D01*
X172247606Y-96571357D01*
X172335658Y-96570297D01*
X172531386Y-96570297D01*
X172531386Y-96431980D01*
X171927821Y-96431980D01*
X171927821Y-96501138D01*
X171929511Y-96542830D01*
X171935444Y-96564299D01*
X171946707Y-96570297D01*
X171956739Y-96573909D01*
X171954617Y-96588286D01*
X171940420Y-96617264D01*
X171918520Y-96683681D01*
X171920072Y-96754125D01*
X171943853Y-96821623D01*
X171962638Y-96853767D01*
X171982978Y-96878285D01*
X172008427Y-96896196D01*
X172042542Y-96908521D01*
X172088879Y-96916277D01*
X172150993Y-96920484D01*
X172232439Y-96922160D01*
X172295422Y-96922376D01*
X172531386Y-96922376D01*
X172531386Y-96796633D01*
X172335658Y-96796633D01*
X172335658Y-96796633D01*
G37*
X172335658Y-96796633D02*
X172243437Y-96795445D01*
X172173390Y-96791103D01*
X172122619Y-96782442D01*
X172088228Y-96768296D01*
X172067321Y-96747500D01*
X172057000Y-96718890D01*
X172054364Y-96683465D01*
X172057318Y-96646364D01*
X172068111Y-96618182D01*
X172089640Y-96597757D01*
X172124801Y-96583921D01*
X172176490Y-96575509D01*
X172247606Y-96571357D01*
X172335658Y-96570297D01*
X172531386Y-96570297D01*
X172531386Y-96431980D01*
X171927821Y-96431980D01*
X171927821Y-96501138D01*
X171929511Y-96542830D01*
X171935444Y-96564299D01*
X171946707Y-96570297D01*
X171956739Y-96573909D01*
X171954617Y-96588286D01*
X171940420Y-96617264D01*
X171918520Y-96683681D01*
X171920072Y-96754125D01*
X171943853Y-96821623D01*
X171962638Y-96853767D01*
X171982978Y-96878285D01*
X172008427Y-96896196D01*
X172042542Y-96908521D01*
X172088879Y-96916277D01*
X172150993Y-96920484D01*
X172232439Y-96922160D01*
X172295422Y-96922376D01*
X172531386Y-96922376D01*
X172531386Y-96796633D01*
X172335658Y-96796633D01*
G36*
X172526120Y-95572774D02*
X172495170Y-95499920D01*
X172480105Y-95476973D01*
X172456952Y-95447646D01*
X172438747Y-95429236D01*
X172432817Y-95426039D01*
X172419660Y-95435065D01*
X172397333Y-95458163D01*
X172381750Y-95476656D01*
X172341074Y-95527272D01*
X172374705Y-95567240D01*
X172396416Y-95598126D01*
X172403910Y-95628241D01*
X172402080Y-95662708D01*
X172388472Y-95717439D01*
X172360228Y-95755114D01*
X172314567Y-95778009D01*
X172248711Y-95788403D01*
X172248669Y-95788405D01*
X172175061Y-95787506D01*
X172121054Y-95773537D01*
X172084284Y-95745672D01*
X172071832Y-95726675D01*
X172056327Y-95676224D01*
X172056317Y-95622337D01*
X172071362Y-95575454D01*
X172078713Y-95564356D01*
X172097489Y-95536524D01*
X172100566Y-95514764D01*
X172086591Y-95491296D01*
X172061490Y-95465351D01*
X172019120Y-95424284D01*
X171981536Y-95469879D01*
X171939118Y-95540326D01*
X171918215Y-95619767D01*
X171919728Y-95702785D01*
X171933589Y-95757306D01*
X171967865Y-95821030D01*
X172021788Y-95871995D01*
X172059851Y-95895149D01*
X172114464Y-95913901D01*
X172183631Y-95923285D01*
X172258593Y-95923357D01*
X172330591Y-95914176D01*
X172390863Y-95895801D01*
X172397042Y-95892907D01*
X172457649Y-95850048D01*
X172501776Y-95792021D01*
X172528507Y-95723409D01*
X172536927Y-95648799D01*
X172526120Y-95572774D01*
X172526120Y-95572774D01*
G37*
X172526120Y-95572774D02*
X172495170Y-95499920D01*
X172480105Y-95476973D01*
X172456952Y-95447646D01*
X172438747Y-95429236D01*
X172432817Y-95426039D01*
X172419660Y-95435065D01*
X172397333Y-95458163D01*
X172381750Y-95476656D01*
X172341074Y-95527272D01*
X172374705Y-95567240D01*
X172396416Y-95598126D01*
X172403910Y-95628241D01*
X172402080Y-95662708D01*
X172388472Y-95717439D01*
X172360228Y-95755114D01*
X172314567Y-95778009D01*
X172248711Y-95788403D01*
X172248669Y-95788405D01*
X172175061Y-95787506D01*
X172121054Y-95773537D01*
X172084284Y-95745672D01*
X172071832Y-95726675D01*
X172056327Y-95676224D01*
X172056317Y-95622337D01*
X172071362Y-95575454D01*
X172078713Y-95564356D01*
X172097489Y-95536524D01*
X172100566Y-95514764D01*
X172086591Y-95491296D01*
X172061490Y-95465351D01*
X172019120Y-95424284D01*
X171981536Y-95469879D01*
X171939118Y-95540326D01*
X171918215Y-95619767D01*
X171919728Y-95702785D01*
X171933589Y-95757306D01*
X171967865Y-95821030D01*
X172021788Y-95871995D01*
X172059851Y-95895149D01*
X172114464Y-95913901D01*
X172183631Y-95923285D01*
X172258593Y-95923357D01*
X172330591Y-95914176D01*
X172390863Y-95895801D01*
X172397042Y-95892907D01*
X172457649Y-95850048D01*
X172501776Y-95792021D01*
X172528507Y-95723409D01*
X172536927Y-95648799D01*
X172526120Y-95572774D01*
G36*
X172533543Y-95112102D02*
X172525721Y-95079904D01*
X172497079Y-95018175D01*
X172453333Y-94965390D01*
X172400883Y-94928859D01*
X172389107Y-94923840D01*
X172358260Y-94916955D01*
X172312629Y-94912136D01*
X172266508Y-94910495D01*
X172179307Y-94910495D01*
X172179307Y-95092822D01*
X172179022Y-95168021D01*
X172177296Y-95220997D01*
X172172819Y-95254675D01*
X172164280Y-95271980D01*
X172150370Y-95275837D01*
X172129778Y-95269171D01*
X172105685Y-95257230D01*
X172065475Y-95223920D01*
X172045442Y-95177632D01*
X172046095Y-95121056D01*
X172067899Y-95056969D01*
X172094807Y-95001583D01*
X172058468Y-94955625D01*
X172022128Y-94909667D01*
X171982181Y-94952904D01*
X171944437Y-95010626D01*
X171921680Y-95081614D01*
X171915312Y-95157971D01*
X171926732Y-95231801D01*
X171930607Y-95243713D01*
X171964494Y-95308601D01*
X172015014Y-95356870D01*
X172083675Y-95389535D01*
X172171986Y-95407615D01*
X172173879Y-95407825D01*
X172270122Y-95409444D01*
X172304458Y-95402900D01*
X172304458Y-95275148D01*
X172299178Y-95263416D01*
X172295133Y-95231562D01*
X172292824Y-95184603D01*
X172292475Y-95154846D01*
X172292694Y-95099352D01*
X172294084Y-95064654D01*
X172297749Y-95046399D01*
X172304790Y-95040234D01*
X172316310Y-95041805D01*
X172320767Y-95043122D01*
X172362645Y-95065618D01*
X172396396Y-95100997D01*
X172411227Y-95132220D01*
X172410332Y-95173699D01*
X172391836Y-95215731D01*
X172361214Y-95250988D01*
X172323938Y-95272146D01*
X172304458Y-95275148D01*
X172304458Y-95402900D01*
X172354771Y-95393310D01*
X172425809Y-95361302D01*
X172481221Y-95315299D01*
X172518991Y-95257179D01*
X172537104Y-95188820D01*
X172533543Y-95112102D01*
X172533543Y-95112102D01*
G37*
X172533543Y-95112102D02*
X172525721Y-95079904D01*
X172497079Y-95018175D01*
X172453333Y-94965390D01*
X172400883Y-94928859D01*
X172389107Y-94923840D01*
X172358260Y-94916955D01*
X172312629Y-94912136D01*
X172266508Y-94910495D01*
X172179307Y-94910495D01*
X172179307Y-95092822D01*
X172179022Y-95168021D01*
X172177296Y-95220997D01*
X172172819Y-95254675D01*
X172164280Y-95271980D01*
X172150370Y-95275837D01*
X172129778Y-95269171D01*
X172105685Y-95257230D01*
X172065475Y-95223920D01*
X172045442Y-95177632D01*
X172046095Y-95121056D01*
X172067899Y-95056969D01*
X172094807Y-95001583D01*
X172058468Y-94955625D01*
X172022128Y-94909667D01*
X171982181Y-94952904D01*
X171944437Y-95010626D01*
X171921680Y-95081614D01*
X171915312Y-95157971D01*
X171926732Y-95231801D01*
X171930607Y-95243713D01*
X171964494Y-95308601D01*
X172015014Y-95356870D01*
X172083675Y-95389535D01*
X172171986Y-95407615D01*
X172173879Y-95407825D01*
X172270122Y-95409444D01*
X172304458Y-95402900D01*
X172304458Y-95275148D01*
X172299178Y-95263416D01*
X172295133Y-95231562D01*
X172292824Y-95184603D01*
X172292475Y-95154846D01*
X172292694Y-95099352D01*
X172294084Y-95064654D01*
X172297749Y-95046399D01*
X172304790Y-95040234D01*
X172316310Y-95041805D01*
X172320767Y-95043122D01*
X172362645Y-95065618D01*
X172396396Y-95100997D01*
X172411227Y-95132220D01*
X172410332Y-95173699D01*
X172391836Y-95215731D01*
X172361214Y-95250988D01*
X172323938Y-95272146D01*
X172304458Y-95275148D01*
X172304458Y-95402900D01*
X172354771Y-95393310D01*
X172425809Y-95361302D01*
X172481221Y-95315299D01*
X172518991Y-95257179D01*
X172537104Y-95188820D01*
X172533543Y-95112102D01*
G36*
X172520998Y-98544012D02*
X172506050Y-98512717D01*
X172484459Y-98482409D01*
X172459609Y-98459318D01*
X172427913Y-98442500D01*
X172385786Y-98431006D01*
X172329642Y-98423891D01*
X172255894Y-98420207D01*
X172160956Y-98419008D01*
X172151015Y-98418989D01*
X171927821Y-98418713D01*
X171927821Y-98557030D01*
X172133582Y-98557030D01*
X172209811Y-98557128D01*
X172265061Y-98557809D01*
X172303499Y-98559651D01*
X172329294Y-98563233D01*
X172346616Y-98569132D01*
X172359632Y-98577927D01*
X172372493Y-98590180D01*
X172400127Y-98633047D01*
X172405255Y-98679843D01*
X172387783Y-98724424D01*
X172374779Y-98739928D01*
X172362553Y-98751310D01*
X172349460Y-98759481D01*
X172331385Y-98764974D01*
X172304213Y-98768320D01*
X172263830Y-98770051D01*
X172206121Y-98770697D01*
X172135868Y-98770792D01*
X171927821Y-98770792D01*
X171927821Y-98909109D01*
X172531386Y-98909109D01*
X172531386Y-98839950D01*
X172529744Y-98798428D01*
X172523913Y-98777006D01*
X172512539Y-98770795D01*
X172512202Y-98770792D01*
X172501062Y-98767910D01*
X172502326Y-98755199D01*
X172514566Y-98729926D01*
X172532576Y-98672605D01*
X172534579Y-98607037D01*
X172520998Y-98544012D01*
X172520998Y-98544012D01*
G37*
X172520998Y-98544012D02*
X172506050Y-98512717D01*
X172484459Y-98482409D01*
X172459609Y-98459318D01*
X172427913Y-98442500D01*
X172385786Y-98431006D01*
X172329642Y-98423891D01*
X172255894Y-98420207D01*
X172160956Y-98419008D01*
X172151015Y-98418989D01*
X171927821Y-98418713D01*
X171927821Y-98557030D01*
X172133582Y-98557030D01*
X172209811Y-98557128D01*
X172265061Y-98557809D01*
X172303499Y-98559651D01*
X172329294Y-98563233D01*
X172346616Y-98569132D01*
X172359632Y-98577927D01*
X172372493Y-98590180D01*
X172400127Y-98633047D01*
X172405255Y-98679843D01*
X172387783Y-98724424D01*
X172374779Y-98739928D01*
X172362553Y-98751310D01*
X172349460Y-98759481D01*
X172331385Y-98764974D01*
X172304213Y-98768320D01*
X172263830Y-98770051D01*
X172206121Y-98770697D01*
X172135868Y-98770792D01*
X171927821Y-98770792D01*
X171927821Y-98909109D01*
X172531386Y-98909109D01*
X172531386Y-98839950D01*
X172529744Y-98798428D01*
X172523913Y-98777006D01*
X172512539Y-98770795D01*
X172512202Y-98770792D01*
X172501062Y-98767910D01*
X172502326Y-98755199D01*
X172514566Y-98729926D01*
X172532576Y-98672605D01*
X172534579Y-98607037D01*
X172520998Y-98544012D01*
G36*
X172531970Y-95990540D02*
X172518755Y-95947289D01*
X172502059Y-95919442D01*
X172488855Y-95910371D01*
X172473203Y-95912868D01*
X172448615Y-95929069D01*
X172431200Y-95942768D01*
X172399717Y-95971008D01*
X172386471Y-95992225D01*
X172387336Y-96010312D01*
X172400990Y-96063965D01*
X172400370Y-96103370D01*
X172384896Y-96135368D01*
X172375839Y-96146110D01*
X172343973Y-96180495D01*
X171927821Y-96180495D01*
X171927821Y-96318812D01*
X172531386Y-96318812D01*
X172531386Y-96249653D01*
X172529744Y-96208131D01*
X172523913Y-96186709D01*
X172512539Y-96180498D01*
X172512202Y-96180495D01*
X172500287Y-96177561D01*
X172501841Y-96164296D01*
X172510437Y-96145916D01*
X172526432Y-96107954D01*
X172536055Y-96077128D01*
X172538522Y-96037464D01*
X172531970Y-95990540D01*
X172531970Y-95990540D01*
G37*
X172531970Y-95990540D02*
X172518755Y-95947289D01*
X172502059Y-95919442D01*
X172488855Y-95910371D01*
X172473203Y-95912868D01*
X172448615Y-95929069D01*
X172431200Y-95942768D01*
X172399717Y-95971008D01*
X172386471Y-95992225D01*
X172387336Y-96010312D01*
X172400990Y-96063965D01*
X172400370Y-96103370D01*
X172384896Y-96135368D01*
X172375839Y-96146110D01*
X172343973Y-96180495D01*
X171927821Y-96180495D01*
X171927821Y-96318812D01*
X172531386Y-96318812D01*
X172531386Y-96249653D01*
X172529744Y-96208131D01*
X172523913Y-96186709D01*
X172512539Y-96180498D01*
X172512202Y-96180495D01*
X172500287Y-96177561D01*
X172501841Y-96164296D01*
X172510437Y-96145916D01*
X172526432Y-96107954D01*
X172536055Y-96077128D01*
X172538522Y-96037464D01*
X172531970Y-95990540D01*
G36*
X176699982Y-97413036D02*
X176398430Y-97356188D01*
X176225488Y-96936662D01*
X176396605Y-96685016D01*
X176444250Y-96614542D01*
X176486790Y-96550837D01*
X176522285Y-96496874D01*
X176548790Y-96455627D01*
X176564364Y-96430066D01*
X176567722Y-96423105D01*
X176559086Y-96410565D01*
X176535208Y-96383769D01*
X176499141Y-96345720D01*
X176453933Y-96299421D01*
X176402636Y-96247877D01*
X176348299Y-96194091D01*
X176293972Y-96141065D01*
X176242705Y-96091805D01*
X176197549Y-96049313D01*
X176161554Y-96016593D01*
X176137770Y-95996649D01*
X176129810Y-95991881D01*
X176115135Y-95998743D01*
X176082986Y-96017980D01*
X176036508Y-96047570D01*
X175978844Y-96085490D01*
X175913140Y-96129718D01*
X175875664Y-96155346D01*
X175807232Y-96202059D01*
X175745480Y-96243568D01*
X175693481Y-96277860D01*
X175654308Y-96302920D01*
X175631035Y-96316736D01*
X175626145Y-96318812D01*
X175612245Y-96314105D01*
X175579850Y-96301277D01*
X175533515Y-96282262D01*
X175477794Y-96258997D01*
X175417242Y-96233416D01*
X175356414Y-96207455D01*
X175299864Y-96183050D01*
X175252148Y-96162137D01*
X175217819Y-96146651D01*
X175201432Y-96138528D01*
X175200788Y-96138048D01*
X175197659Y-96125293D01*
X175190679Y-96091323D01*
X175180533Y-96039660D01*
X175167908Y-95973824D01*
X175153491Y-95897336D01*
X175145177Y-95852710D01*
X175129616Y-95770979D01*
X175114808Y-95697157D01*
X175101564Y-95634979D01*
X175090695Y-95588178D01*
X175083011Y-95560491D01*
X175080573Y-95554926D01*
X175064070Y-95549474D01*
X175026800Y-95545076D01*
X174973120Y-95541728D01*
X174907388Y-95539426D01*
X174833963Y-95538168D01*
X174757204Y-95537952D01*
X174681468Y-95538773D01*
X174611114Y-95540629D01*
X174550500Y-95543518D01*
X174503984Y-95547435D01*
X174475925Y-95552378D01*
X174470084Y-95555343D01*
X174463083Y-95573066D01*
X174453073Y-95610619D01*
X174441231Y-95663036D01*
X174428733Y-95725348D01*
X174424690Y-95747100D01*
X174405480Y-95851976D01*
X174390009Y-95934820D01*
X174377663Y-95998370D01*
X174367827Y-96045363D01*
X174359886Y-96078537D01*
X174353224Y-96100629D01*
X174347227Y-96114376D01*
X174341281Y-96122516D01*
X174340106Y-96123655D01*
X174321174Y-96135023D01*
X174284331Y-96152365D01*
X174234087Y-96173950D01*
X174174954Y-96198046D01*
X174111444Y-96222921D01*
X174048068Y-96246843D01*
X173989338Y-96268081D01*
X173939765Y-96284903D01*
X173903861Y-96295578D01*
X173886138Y-96298373D01*
X173885517Y-96298140D01*
X173871030Y-96288669D01*
X173839156Y-96267182D01*
X173793211Y-96235937D01*
X173736515Y-96197193D01*
X173672383Y-96153207D01*
X173654158Y-96140681D01*
X173588086Y-96096016D01*
X173527800Y-96056712D01*
X173476765Y-96024912D01*
X173438440Y-96002755D01*
X173416289Y-95992383D01*
X173413568Y-95991881D01*
X173399264Y-96000595D01*
X173370928Y-96024675D01*
X173331604Y-96061024D01*
X173284339Y-96106547D01*
X173232177Y-96158148D01*
X173178165Y-96212733D01*
X173125347Y-96267206D01*
X173076769Y-96318471D01*
X173035477Y-96363433D01*
X173004515Y-96398996D01*
X172986930Y-96422065D01*
X172984059Y-96428446D01*
X172990822Y-96443301D01*
X173009061Y-96473714D01*
X173035703Y-96514732D01*
X173057148Y-96546291D01*
X173096497Y-96603475D01*
X173142829Y-96671194D01*
X173189087Y-96739120D01*
X173213845Y-96775639D01*
X173297453Y-96899248D01*
X173241350Y-97003009D01*
X173216772Y-97050280D01*
X173197669Y-97090477D01*
X173186773Y-97117674D01*
X173185257Y-97124598D01*
X173196451Y-97132923D01*
X173228083Y-97149346D01*
X173277235Y-97172643D01*
X173340990Y-97201586D01*
X173416429Y-97234950D01*
X173500636Y-97271509D01*
X173590692Y-97310036D01*
X173683679Y-97349306D01*
X173776680Y-97388092D01*
X173866777Y-97425170D01*
X173951052Y-97459311D01*
X174026587Y-97489292D01*
X174090466Y-97513884D01*
X174139769Y-97531864D01*
X174171579Y-97542003D01*
X174182504Y-97543634D01*
X174196439Y-97530709D01*
X174219060Y-97502411D01*
X174245667Y-97464654D01*
X174247772Y-97461485D01*
X174325886Y-97363900D01*
X174417018Y-97285214D01*
X174518255Y-97226109D01*
X174626682Y-97187268D01*
X174739386Y-97169372D01*
X174853452Y-97173103D01*
X174965966Y-97199143D01*
X175074015Y-97248175D01*
X175097655Y-97262600D01*
X175193113Y-97337631D01*
X175269768Y-97426270D01*
X175327220Y-97525451D01*
X175365071Y-97632105D01*
X175382922Y-97743164D01*
X175380375Y-97855561D01*
X175357030Y-97966227D01*
X175312490Y-98072094D01*
X175246355Y-98170095D01*
X175219513Y-98200410D01*
X175135488Y-98277562D01*
X175047034Y-98333782D01*
X174947885Y-98372347D01*
X174849697Y-98393826D01*
X174739303Y-98399128D01*
X174628360Y-98381448D01*
X174520619Y-98342581D01*
X174419831Y-98284323D01*
X174329744Y-98208469D01*
X174254108Y-98116817D01*
X174246136Y-98104772D01*
X174220026Y-98066611D01*
X174197405Y-98037601D01*
X174182961Y-98023732D01*
X174182504Y-98023531D01*
X174166879Y-98026508D01*
X174131418Y-98038311D01*
X174079038Y-98057714D01*
X174012655Y-98083488D01*
X173935186Y-98114409D01*
X173849550Y-98149249D01*
X173758663Y-98186783D01*
X173665441Y-98225783D01*
X173572803Y-98265023D01*
X173483665Y-98303276D01*
X173400945Y-98339317D01*
X173327559Y-98371917D01*
X173266425Y-98399852D01*
X173220459Y-98421895D01*
X173192579Y-98436818D01*
X173185257Y-98442828D01*
X173190959Y-98461191D01*
X173206251Y-98495552D01*
X173228401Y-98539984D01*
X173241350Y-98564417D01*
X173297453Y-98668178D01*
X173213845Y-98791787D01*
X173171013Y-98854886D01*
X173123878Y-98923970D01*
X173079497Y-98988707D01*
X173057148Y-99021134D01*
X173026523Y-99066741D01*
X173002253Y-99105360D01*
X172987413Y-99131952D01*
X172984276Y-99140590D01*
X172992739Y-99153161D01*
X173016364Y-99180984D01*
X173052698Y-99221361D01*
X173099289Y-99271595D01*
X173153683Y-99328988D01*
X173188608Y-99365286D01*
X173251004Y-99428790D01*
X173306812Y-99483673D01*
X173353646Y-99527714D01*
X173389118Y-99558695D01*
X173410839Y-99574398D01*
X173415248Y-99575905D01*
X173432015Y-99568914D01*
X173465918Y-99549594D01*
X173513524Y-99520091D01*
X173571401Y-99482545D01*
X173636116Y-99439100D01*
X173654158Y-99426745D01*
X173719733Y-99381727D01*
X173778772Y-99341340D01*
X173827958Y-99307840D01*
X173863972Y-99283486D01*
X173883498Y-99270536D01*
X173885517Y-99269285D01*
X173901078Y-99271156D01*
X173935291Y-99281087D01*
X173983645Y-99297347D01*
X174041629Y-99318205D01*
X174104730Y-99341927D01*
X174168437Y-99366784D01*
X174228239Y-99391042D01*
X174279624Y-99412971D01*
X174318081Y-99430838D01*
X174339098Y-99442913D01*
X174340106Y-99443771D01*
X174346112Y-99451154D01*
X174352052Y-99463625D01*
X174358540Y-99483920D01*
X174366191Y-99514778D01*
X174375620Y-99558934D01*
X174387441Y-99619126D01*
X174402271Y-99698093D01*
X174420723Y-99798570D01*
X174424690Y-99820325D01*
X174437147Y-99884802D01*
X174449334Y-99941011D01*
X174460074Y-99983987D01*
X174468191Y-100008760D01*
X174470084Y-100012082D01*
X174486862Y-100017556D01*
X174524355Y-100022006D01*
X174578206Y-100025428D01*
X174644056Y-100027819D01*
X174717547Y-100029177D01*
X174794320Y-100029499D01*
X174870017Y-100028781D01*
X174940280Y-100027021D01*
X175000750Y-100024216D01*
X175047070Y-100020362D01*
X175074881Y-100015457D01*
X175080573Y-100012500D01*
X175086314Y-99996037D01*
X175095655Y-99958551D01*
X175107785Y-99903775D01*
X175121893Y-99835445D01*
X175137170Y-99757294D01*
X175145177Y-99714716D01*
X175160279Y-99633929D01*
X175173960Y-99561887D01*
X175185533Y-99502111D01*
X175194313Y-99458121D01*
X175199613Y-99433439D01*
X175200788Y-99429377D01*
X175214035Y-99422511D01*
X175245943Y-99407998D01*
X175291953Y-99387771D01*
X175347508Y-99363766D01*
X175408047Y-99337918D01*
X175469014Y-99312160D01*
X175525849Y-99288427D01*
X175573994Y-99268654D01*
X175608890Y-99254776D01*
X175625979Y-99248726D01*
X175626726Y-99248614D01*
X175640207Y-99255472D01*
X175671230Y-99274698D01*
X175716711Y-99304272D01*
X175773568Y-99342173D01*
X175838717Y-99386380D01*
X175876138Y-99412079D01*
X175944753Y-99458907D01*
X176007048Y-99500499D01*
X176059871Y-99534825D01*
X176100073Y-99559857D01*
X176124500Y-99573565D01*
X176129976Y-99575544D01*
X176142722Y-99567034D01*
X176169937Y-99543507D01*
X176208572Y-99507968D01*
X176255577Y-99463423D01*
X176307905Y-99412877D01*
X176362505Y-99359336D01*
X176416330Y-99305805D01*
X176466330Y-99255289D01*
X176509457Y-99210794D01*
X176542661Y-99175325D01*
X176562894Y-99151887D01*
X176567722Y-99144046D01*
X176560933Y-99131280D01*
X176541858Y-99100744D01*
X176512439Y-99055410D01*
X176474619Y-98998244D01*
X176430339Y-98932216D01*
X176396605Y-98882410D01*
X176225488Y-98630764D01*
X176311959Y-98421001D01*
X176398430Y-98211237D01*
X176699982Y-98154389D01*
X177001534Y-98097540D01*
X177001534Y-97469885D01*
X176699982Y-97413036D01*
X176699982Y-97413036D01*
G37*
X176699982Y-97413036D02*
X176398430Y-97356188D01*
X176225488Y-96936662D01*
X176396605Y-96685016D01*
X176444250Y-96614542D01*
X176486790Y-96550837D01*
X176522285Y-96496874D01*
X176548790Y-96455627D01*
X176564364Y-96430066D01*
X176567722Y-96423105D01*
X176559086Y-96410565D01*
X176535208Y-96383769D01*
X176499141Y-96345720D01*
X176453933Y-96299421D01*
X176402636Y-96247877D01*
X176348299Y-96194091D01*
X176293972Y-96141065D01*
X176242705Y-96091805D01*
X176197549Y-96049313D01*
X176161554Y-96016593D01*
X176137770Y-95996649D01*
X176129810Y-95991881D01*
X176115135Y-95998743D01*
X176082986Y-96017980D01*
X176036508Y-96047570D01*
X175978844Y-96085490D01*
X175913140Y-96129718D01*
X175875664Y-96155346D01*
X175807232Y-96202059D01*
X175745480Y-96243568D01*
X175693481Y-96277860D01*
X175654308Y-96302920D01*
X175631035Y-96316736D01*
X175626145Y-96318812D01*
X175612245Y-96314105D01*
X175579850Y-96301277D01*
X175533515Y-96282262D01*
X175477794Y-96258997D01*
X175417242Y-96233416D01*
X175356414Y-96207455D01*
X175299864Y-96183050D01*
X175252148Y-96162137D01*
X175217819Y-96146651D01*
X175201432Y-96138528D01*
X175200788Y-96138048D01*
X175197659Y-96125293D01*
X175190679Y-96091323D01*
X175180533Y-96039660D01*
X175167908Y-95973824D01*
X175153491Y-95897336D01*
X175145177Y-95852710D01*
X175129616Y-95770979D01*
X175114808Y-95697157D01*
X175101564Y-95634979D01*
X175090695Y-95588178D01*
X175083011Y-95560491D01*
X175080573Y-95554926D01*
X175064070Y-95549474D01*
X175026800Y-95545076D01*
X174973120Y-95541728D01*
X174907388Y-95539426D01*
X174833963Y-95538168D01*
X174757204Y-95537952D01*
X174681468Y-95538773D01*
X174611114Y-95540629D01*
X174550500Y-95543518D01*
X174503984Y-95547435D01*
X174475925Y-95552378D01*
X174470084Y-95555343D01*
X174463083Y-95573066D01*
X174453073Y-95610619D01*
X174441231Y-95663036D01*
X174428733Y-95725348D01*
X174424690Y-95747100D01*
X174405480Y-95851976D01*
X174390009Y-95934820D01*
X174377663Y-95998370D01*
X174367827Y-96045363D01*
X174359886Y-96078537D01*
X174353224Y-96100629D01*
X174347227Y-96114376D01*
X174341281Y-96122516D01*
X174340106Y-96123655D01*
X174321174Y-96135023D01*
X174284331Y-96152365D01*
X174234087Y-96173950D01*
X174174954Y-96198046D01*
X174111444Y-96222921D01*
X174048068Y-96246843D01*
X173989338Y-96268081D01*
X173939765Y-96284903D01*
X173903861Y-96295578D01*
X173886138Y-96298373D01*
X173885517Y-96298140D01*
X173871030Y-96288669D01*
X173839156Y-96267182D01*
X173793211Y-96235937D01*
X173736515Y-96197193D01*
X173672383Y-96153207D01*
X173654158Y-96140681D01*
X173588086Y-96096016D01*
X173527800Y-96056712D01*
X173476765Y-96024912D01*
X173438440Y-96002755D01*
X173416289Y-95992383D01*
X173413568Y-95991881D01*
X173399264Y-96000595D01*
X173370928Y-96024675D01*
X173331604Y-96061024D01*
X173284339Y-96106547D01*
X173232177Y-96158148D01*
X173178165Y-96212733D01*
X173125347Y-96267206D01*
X173076769Y-96318471D01*
X173035477Y-96363433D01*
X173004515Y-96398996D01*
X172986930Y-96422065D01*
X172984059Y-96428446D01*
X172990822Y-96443301D01*
X173009061Y-96473714D01*
X173035703Y-96514732D01*
X173057148Y-96546291D01*
X173096497Y-96603475D01*
X173142829Y-96671194D01*
X173189087Y-96739120D01*
X173213845Y-96775639D01*
X173297453Y-96899248D01*
X173241350Y-97003009D01*
X173216772Y-97050280D01*
X173197669Y-97090477D01*
X173186773Y-97117674D01*
X173185257Y-97124598D01*
X173196451Y-97132923D01*
X173228083Y-97149346D01*
X173277235Y-97172643D01*
X173340990Y-97201586D01*
X173416429Y-97234950D01*
X173500636Y-97271509D01*
X173590692Y-97310036D01*
X173683679Y-97349306D01*
X173776680Y-97388092D01*
X173866777Y-97425170D01*
X173951052Y-97459311D01*
X174026587Y-97489292D01*
X174090466Y-97513884D01*
X174139769Y-97531864D01*
X174171579Y-97542003D01*
X174182504Y-97543634D01*
X174196439Y-97530709D01*
X174219060Y-97502411D01*
X174245667Y-97464654D01*
X174247772Y-97461485D01*
X174325886Y-97363900D01*
X174417018Y-97285214D01*
X174518255Y-97226109D01*
X174626682Y-97187268D01*
X174739386Y-97169372D01*
X174853452Y-97173103D01*
X174965966Y-97199143D01*
X175074015Y-97248175D01*
X175097655Y-97262600D01*
X175193113Y-97337631D01*
X175269768Y-97426270D01*
X175327220Y-97525451D01*
X175365071Y-97632105D01*
X175382922Y-97743164D01*
X175380375Y-97855561D01*
X175357030Y-97966227D01*
X175312490Y-98072094D01*
X175246355Y-98170095D01*
X175219513Y-98200410D01*
X175135488Y-98277562D01*
X175047034Y-98333782D01*
X174947885Y-98372347D01*
X174849697Y-98393826D01*
X174739303Y-98399128D01*
X174628360Y-98381448D01*
X174520619Y-98342581D01*
X174419831Y-98284323D01*
X174329744Y-98208469D01*
X174254108Y-98116817D01*
X174246136Y-98104772D01*
X174220026Y-98066611D01*
X174197405Y-98037601D01*
X174182961Y-98023732D01*
X174182504Y-98023531D01*
X174166879Y-98026508D01*
X174131418Y-98038311D01*
X174079038Y-98057714D01*
X174012655Y-98083488D01*
X173935186Y-98114409D01*
X173849550Y-98149249D01*
X173758663Y-98186783D01*
X173665441Y-98225783D01*
X173572803Y-98265023D01*
X173483665Y-98303276D01*
X173400945Y-98339317D01*
X173327559Y-98371917D01*
X173266425Y-98399852D01*
X173220459Y-98421895D01*
X173192579Y-98436818D01*
X173185257Y-98442828D01*
X173190959Y-98461191D01*
X173206251Y-98495552D01*
X173228401Y-98539984D01*
X173241350Y-98564417D01*
X173297453Y-98668178D01*
X173213845Y-98791787D01*
X173171013Y-98854886D01*
X173123878Y-98923970D01*
X173079497Y-98988707D01*
X173057148Y-99021134D01*
X173026523Y-99066741D01*
X173002253Y-99105360D01*
X172987413Y-99131952D01*
X172984276Y-99140590D01*
X172992739Y-99153161D01*
X173016364Y-99180984D01*
X173052698Y-99221361D01*
X173099289Y-99271595D01*
X173153683Y-99328988D01*
X173188608Y-99365286D01*
X173251004Y-99428790D01*
X173306812Y-99483673D01*
X173353646Y-99527714D01*
X173389118Y-99558695D01*
X173410839Y-99574398D01*
X173415248Y-99575905D01*
X173432015Y-99568914D01*
X173465918Y-99549594D01*
X173513524Y-99520091D01*
X173571401Y-99482545D01*
X173636116Y-99439100D01*
X173654158Y-99426745D01*
X173719733Y-99381727D01*
X173778772Y-99341340D01*
X173827958Y-99307840D01*
X173863972Y-99283486D01*
X173883498Y-99270536D01*
X173885517Y-99269285D01*
X173901078Y-99271156D01*
X173935291Y-99281087D01*
X173983645Y-99297347D01*
X174041629Y-99318205D01*
X174104730Y-99341927D01*
X174168437Y-99366784D01*
X174228239Y-99391042D01*
X174279624Y-99412971D01*
X174318081Y-99430838D01*
X174339098Y-99442913D01*
X174340106Y-99443771D01*
X174346112Y-99451154D01*
X174352052Y-99463625D01*
X174358540Y-99483920D01*
X174366191Y-99514778D01*
X174375620Y-99558934D01*
X174387441Y-99619126D01*
X174402271Y-99698093D01*
X174420723Y-99798570D01*
X174424690Y-99820325D01*
X174437147Y-99884802D01*
X174449334Y-99941011D01*
X174460074Y-99983987D01*
X174468191Y-100008760D01*
X174470084Y-100012082D01*
X174486862Y-100017556D01*
X174524355Y-100022006D01*
X174578206Y-100025428D01*
X174644056Y-100027819D01*
X174717547Y-100029177D01*
X174794320Y-100029499D01*
X174870017Y-100028781D01*
X174940280Y-100027021D01*
X175000750Y-100024216D01*
X175047070Y-100020362D01*
X175074881Y-100015457D01*
X175080573Y-100012500D01*
X175086314Y-99996037D01*
X175095655Y-99958551D01*
X175107785Y-99903775D01*
X175121893Y-99835445D01*
X175137170Y-99757294D01*
X175145177Y-99714716D01*
X175160279Y-99633929D01*
X175173960Y-99561887D01*
X175185533Y-99502111D01*
X175194313Y-99458121D01*
X175199613Y-99433439D01*
X175200788Y-99429377D01*
X175214035Y-99422511D01*
X175245943Y-99407998D01*
X175291953Y-99387771D01*
X175347508Y-99363766D01*
X175408047Y-99337918D01*
X175469014Y-99312160D01*
X175525849Y-99288427D01*
X175573994Y-99268654D01*
X175608890Y-99254776D01*
X175625979Y-99248726D01*
X175626726Y-99248614D01*
X175640207Y-99255472D01*
X175671230Y-99274698D01*
X175716711Y-99304272D01*
X175773568Y-99342173D01*
X175838717Y-99386380D01*
X175876138Y-99412079D01*
X175944753Y-99458907D01*
X176007048Y-99500499D01*
X176059871Y-99534825D01*
X176100073Y-99559857D01*
X176124500Y-99573565D01*
X176129976Y-99575544D01*
X176142722Y-99567034D01*
X176169937Y-99543507D01*
X176208572Y-99507968D01*
X176255577Y-99463423D01*
X176307905Y-99412877D01*
X176362505Y-99359336D01*
X176416330Y-99305805D01*
X176466330Y-99255289D01*
X176509457Y-99210794D01*
X176542661Y-99175325D01*
X176562894Y-99151887D01*
X176567722Y-99144046D01*
X176560933Y-99131280D01*
X176541858Y-99100744D01*
X176512439Y-99055410D01*
X176474619Y-98998244D01*
X176430339Y-98932216D01*
X176396605Y-98882410D01*
X176225488Y-98630764D01*
X176311959Y-98421001D01*
X176398430Y-98211237D01*
X176699982Y-98154389D01*
X177001534Y-98097540D01*
X177001534Y-97469885D01*
X176699982Y-97413036D01*
D11*
X149860000Y-90110000D02*
X177860000Y-90110000D01*
X177860000Y-90110000D02*
X177860000Y-92770000D01*
X177860000Y-92770000D02*
X149860000Y-92770000D01*
X149860000Y-92770000D02*
X149860000Y-90110000D01*
X148590000Y-90110000D02*
X147260000Y-90110000D01*
X147260000Y-90110000D02*
X147260000Y-91440000D01*
D13*
X178312381Y-120316667D02*
X179026667Y-120316667D01*
X179169524Y-120269047D01*
X179264762Y-120173809D01*
X179312381Y-120030952D01*
X179312381Y-119935714D01*
X178645714Y-121221429D02*
X179312381Y-121221429D01*
X178264762Y-120983333D02*
X178979048Y-120745238D01*
X178979048Y-121364286D01*
X145712381Y-91106667D02*
X146426667Y-91106667D01*
X146569524Y-91059047D01*
X146664762Y-90963809D01*
X146712381Y-90820952D01*
X146712381Y-90725714D01*
X145712381Y-91487619D02*
X145712381Y-92106667D01*
X146093333Y-91773333D01*
X146093333Y-91916191D01*
X146140952Y-92011429D01*
X146188571Y-92059048D01*
X146283810Y-92106667D01*
X146521905Y-92106667D01*
X146617143Y-92059048D01*
X146664762Y-92011429D01*
X146712381Y-91916191D01*
X146712381Y-91630476D01*
X146664762Y-91535238D01*
X146617143Y-91487619D01*
M02*
