M48
INCH,TZ
T1C0.016
T2C0.039
%
G90
G05
T1
X59072Y-46888
X60691Y-38111
X62461Y-46257
X64239Y-38683
X64547Y-43203
X64639Y-42874
X65626Y-40867
X66937Y-39317
X68795Y-44171
X69611Y-44414
X70399Y-44307
X71690Y-45419
T2
X58500Y-36000
X58500Y-47500
X59500Y-36000
X59500Y-40500
X59500Y-41484
X59500Y-42469
X59500Y-43453
X59500Y-47500
X60500Y-36000
X60500Y-47500
X61500Y-36000
X61500Y-47500
X62500Y-36000
X62500Y-47500
X63250Y-40500
X63250Y-41484
X63250Y-42469
X63250Y-43453
X63500Y-36000
X63500Y-47500
X64500Y-36000
X64500Y-47500
X65500Y-36000
X65500Y-47500
X66500Y-36000
X66500Y-47500
X67500Y-36000
X67500Y-47500
X68500Y-36000
X68500Y-47500
X69500Y-36000
X69500Y-47500
X70250Y-38500
X70250Y-39500
X70250Y-40500
X70250Y-41500
X70250Y-42500
X70250Y-43500
X75500Y-44500
X75500Y-45500
X75500Y-46500
X75500Y-47500
T0
M30
