G04 #@! TF.FileFunction,Legend,Top*
%FSLAX46Y46*%
G04 Gerber Fmt 4.6, Leading zero omitted, Abs format (unit mm)*
G04 Created by KiCad (PCBNEW 4.0.7-e2-6376~60~ubuntu17.10.1) date Thu Dec 28 20:23:01 2017*
%MOMM*%
%LPD*%
G01*
G04 APERTURE LIST*
%ADD10C,0.100000*%
%ADD11C,0.127000*%
%ADD12C,0.120000*%
%ADD13C,0.150000*%
G04 APERTURE END LIST*
D10*
X170950000Y-102351667D02*
X171283334Y-102351667D01*
X170883334Y-102551667D02*
X171116667Y-101851667D01*
X171350000Y-102551667D01*
X171883334Y-102085000D02*
X171883334Y-102551667D01*
X171716667Y-101818333D02*
X171550000Y-102318333D01*
X171983334Y-102318333D01*
X170950000Y-104891667D02*
X171283334Y-104891667D01*
X170883334Y-105091667D02*
X171116667Y-104391667D01*
X171350000Y-105091667D01*
X171916667Y-104391667D02*
X171583334Y-104391667D01*
X171550000Y-104725000D01*
X171583334Y-104691667D01*
X171650000Y-104658333D01*
X171816667Y-104658333D01*
X171883334Y-104691667D01*
X171916667Y-104725000D01*
X171950000Y-104791667D01*
X171950000Y-104958333D01*
X171916667Y-105025000D01*
X171883334Y-105058333D01*
X171816667Y-105091667D01*
X171650000Y-105091667D01*
X171583334Y-105058333D01*
X171550000Y-105025000D01*
X170916667Y-106965000D02*
X170850001Y-106931667D01*
X170750001Y-106931667D01*
X170650001Y-106965000D01*
X170583334Y-107031667D01*
X170550001Y-107098333D01*
X170516667Y-107231667D01*
X170516667Y-107331667D01*
X170550001Y-107465000D01*
X170583334Y-107531667D01*
X170650001Y-107598333D01*
X170750001Y-107631667D01*
X170816667Y-107631667D01*
X170916667Y-107598333D01*
X170950001Y-107565000D01*
X170950001Y-107331667D01*
X170816667Y-107331667D01*
X171250001Y-107631667D02*
X171250001Y-106931667D01*
X171650001Y-107631667D01*
X171650001Y-106931667D01*
X171983334Y-107631667D02*
X171983334Y-106931667D01*
X172150000Y-106931667D01*
X172250000Y-106965000D01*
X172316667Y-107031667D01*
X172350000Y-107098333D01*
X172383334Y-107231667D01*
X172383334Y-107331667D01*
X172350000Y-107465000D01*
X172316667Y-107531667D01*
X172250000Y-107598333D01*
X172150000Y-107631667D01*
X171983334Y-107631667D01*
X170416667Y-109471667D02*
X170850000Y-109471667D01*
X170616667Y-109738333D01*
X170716667Y-109738333D01*
X170783334Y-109771667D01*
X170816667Y-109805000D01*
X170850000Y-109871667D01*
X170850000Y-110038333D01*
X170816667Y-110105000D01*
X170783334Y-110138333D01*
X170716667Y-110171667D01*
X170516667Y-110171667D01*
X170450000Y-110138333D01*
X170416667Y-110105000D01*
X171150001Y-110105000D02*
X171183334Y-110138333D01*
X171150001Y-110171667D01*
X171116667Y-110138333D01*
X171150001Y-110105000D01*
X171150001Y-110171667D01*
X171416667Y-109471667D02*
X171850000Y-109471667D01*
X171616667Y-109738333D01*
X171716667Y-109738333D01*
X171783334Y-109771667D01*
X171816667Y-109805000D01*
X171850000Y-109871667D01*
X171850000Y-110038333D01*
X171816667Y-110105000D01*
X171783334Y-110138333D01*
X171716667Y-110171667D01*
X171516667Y-110171667D01*
X171450000Y-110138333D01*
X171416667Y-110105000D01*
X172050001Y-109471667D02*
X172283334Y-110171667D01*
X172516667Y-109471667D01*
X164376420Y-103910000D02*
G75*
G03X164376420Y-103910000I-141420J0D01*
G01*
D11*
X164735000Y-103910000D02*
X166735000Y-103910000D01*
X164735000Y-106910000D02*
X166735000Y-106910000D01*
D12*
X167645000Y-108965000D02*
X163825000Y-108965000D01*
X163825000Y-108965000D02*
X163825000Y-110745000D01*
X163825000Y-110745000D02*
X167645000Y-110745000D01*
X167645000Y-108965000D02*
X167645000Y-110745000D01*
X169580000Y-105125000D02*
X169580000Y-104425000D01*
X170780000Y-104425000D02*
X170780000Y-105125000D01*
D10*
X164973095Y-106767381D02*
X164973095Y-107576905D01*
X165020714Y-107672143D01*
X165068333Y-107719762D01*
X165163571Y-107767381D01*
X165354048Y-107767381D01*
X165449286Y-107719762D01*
X165496905Y-107672143D01*
X165544524Y-107576905D01*
X165544524Y-106767381D01*
X166544524Y-107767381D02*
X165973095Y-107767381D01*
X166258809Y-107767381D02*
X166258809Y-106767381D01*
X166163571Y-106910238D01*
X166068333Y-107005476D01*
X165973095Y-107053095D01*
D13*
X168743334Y-106402143D02*
X168695715Y-106449762D01*
X168552858Y-106497381D01*
X168457620Y-106497381D01*
X168314762Y-106449762D01*
X168219524Y-106354524D01*
X168171905Y-106259286D01*
X168124286Y-106068810D01*
X168124286Y-105925952D01*
X168171905Y-105735476D01*
X168219524Y-105640238D01*
X168314762Y-105545000D01*
X168457620Y-105497381D01*
X168552858Y-105497381D01*
X168695715Y-105545000D01*
X168743334Y-105592619D01*
X169695715Y-106497381D02*
X169124286Y-106497381D01*
X169410000Y-106497381D02*
X169410000Y-105497381D01*
X169314762Y-105640238D01*
X169219524Y-105735476D01*
X169124286Y-105783095D01*
M02*
