G04 #@! TF.FileFunction,Copper,L2,Bot,Signal*
%FSLAX46Y46*%
G04 Gerber Fmt 4.6, Leading zero omitted, Abs format (unit mm)*
G04 Created by KiCad (PCBNEW 4.0.7-e2-6376~60~ubuntu17.10.1) date Thu Dec 28 20:23:01 2017*
%MOMM*%
%LPD*%
G01*
G04 APERTURE LIST*
%ADD10C,0.100000*%
%ADD11R,1.700000X1.700000*%
%ADD12O,1.700000X1.700000*%
%ADD13C,1.199120*%
%ADD14C,1.199000*%
%ADD15C,0.600000*%
%ADD16C,0.254000*%
G04 APERTURE END LIST*
D10*
D11*
X173228000Y-102108000D03*
D12*
X173228000Y-104648000D03*
X173228000Y-107188000D03*
X173228000Y-109728000D03*
D13*
X163195000Y-107950000D03*
D14*
X168275000Y-107950000D03*
X163195000Y-102870000D03*
X168275000Y-102870000D03*
D15*
X163195000Y-105410000D03*
X170180000Y-102870000D03*
X165735000Y-108585000D03*
D16*
G36*
X167576626Y-101822832D02*
X167229052Y-102169799D01*
X167040715Y-102623366D01*
X167040286Y-103114480D01*
X167227832Y-103568374D01*
X167574799Y-103915948D01*
X168028366Y-104104285D01*
X168519480Y-104104714D01*
X168973374Y-103917168D01*
X169320948Y-103570201D01*
X169509285Y-103116634D01*
X169509714Y-102625520D01*
X169322168Y-102171626D01*
X168975201Y-101824052D01*
X168616243Y-101675000D01*
X171730560Y-101675000D01*
X171730560Y-102958000D01*
X171774838Y-103193317D01*
X171913910Y-103409441D01*
X172126110Y-103554431D01*
X172193541Y-103568086D01*
X172148853Y-103597946D01*
X171826946Y-104079715D01*
X171713907Y-104648000D01*
X171826946Y-105216285D01*
X172148853Y-105698054D01*
X172489553Y-105925702D01*
X172346642Y-105992817D01*
X171956355Y-106421076D01*
X171786524Y-106831110D01*
X171907845Y-107061000D01*
X173101000Y-107061000D01*
X173101000Y-107041000D01*
X173355000Y-107041000D01*
X173355000Y-107061000D01*
X173375000Y-107061000D01*
X173375000Y-107315000D01*
X173355000Y-107315000D01*
X173355000Y-107335000D01*
X173101000Y-107335000D01*
X173101000Y-107315000D01*
X171907845Y-107315000D01*
X171786524Y-107544890D01*
X171956355Y-107954924D01*
X172346642Y-108383183D01*
X172489553Y-108450298D01*
X172148853Y-108677946D01*
X171826946Y-109159715D01*
X171713907Y-109728000D01*
X171826946Y-110296285D01*
X171906269Y-110415000D01*
X162635000Y-110415000D01*
X162635000Y-109054229D01*
X162948354Y-109184345D01*
X163439492Y-109184773D01*
X163893408Y-108997219D01*
X164240998Y-108650235D01*
X164429345Y-108196646D01*
X164429346Y-108194480D01*
X167040286Y-108194480D01*
X167227832Y-108648374D01*
X167574799Y-108995948D01*
X168028366Y-109184285D01*
X168519480Y-109184714D01*
X168973374Y-108997168D01*
X169320948Y-108650201D01*
X169509285Y-108196634D01*
X169509714Y-107705520D01*
X169322168Y-107251626D01*
X168975201Y-106904052D01*
X168521634Y-106715715D01*
X168030520Y-106715286D01*
X167576626Y-106902832D01*
X167229052Y-107249799D01*
X167040715Y-107703366D01*
X167040286Y-108194480D01*
X164429346Y-108194480D01*
X164429773Y-107705508D01*
X164242219Y-107251592D01*
X163895235Y-106904002D01*
X163441646Y-106715655D01*
X162950508Y-106715227D01*
X162635000Y-106845592D01*
X162635000Y-103974164D01*
X162948366Y-104104285D01*
X163439480Y-104104714D01*
X163893374Y-103917168D01*
X164240948Y-103570201D01*
X164429285Y-103116634D01*
X164429714Y-102625520D01*
X164242168Y-102171626D01*
X163895201Y-101824052D01*
X163536243Y-101675000D01*
X167934405Y-101675000D01*
X167576626Y-101822832D01*
X167576626Y-101822832D01*
G37*
X167576626Y-101822832D02*
X167229052Y-102169799D01*
X167040715Y-102623366D01*
X167040286Y-103114480D01*
X167227832Y-103568374D01*
X167574799Y-103915948D01*
X168028366Y-104104285D01*
X168519480Y-104104714D01*
X168973374Y-103917168D01*
X169320948Y-103570201D01*
X169509285Y-103116634D01*
X169509714Y-102625520D01*
X169322168Y-102171626D01*
X168975201Y-101824052D01*
X168616243Y-101675000D01*
X171730560Y-101675000D01*
X171730560Y-102958000D01*
X171774838Y-103193317D01*
X171913910Y-103409441D01*
X172126110Y-103554431D01*
X172193541Y-103568086D01*
X172148853Y-103597946D01*
X171826946Y-104079715D01*
X171713907Y-104648000D01*
X171826946Y-105216285D01*
X172148853Y-105698054D01*
X172489553Y-105925702D01*
X172346642Y-105992817D01*
X171956355Y-106421076D01*
X171786524Y-106831110D01*
X171907845Y-107061000D01*
X173101000Y-107061000D01*
X173101000Y-107041000D01*
X173355000Y-107041000D01*
X173355000Y-107061000D01*
X173375000Y-107061000D01*
X173375000Y-107315000D01*
X173355000Y-107315000D01*
X173355000Y-107335000D01*
X173101000Y-107335000D01*
X173101000Y-107315000D01*
X171907845Y-107315000D01*
X171786524Y-107544890D01*
X171956355Y-107954924D01*
X172346642Y-108383183D01*
X172489553Y-108450298D01*
X172148853Y-108677946D01*
X171826946Y-109159715D01*
X171713907Y-109728000D01*
X171826946Y-110296285D01*
X171906269Y-110415000D01*
X162635000Y-110415000D01*
X162635000Y-109054229D01*
X162948354Y-109184345D01*
X163439492Y-109184773D01*
X163893408Y-108997219D01*
X164240998Y-108650235D01*
X164429345Y-108196646D01*
X164429346Y-108194480D01*
X167040286Y-108194480D01*
X167227832Y-108648374D01*
X167574799Y-108995948D01*
X168028366Y-109184285D01*
X168519480Y-109184714D01*
X168973374Y-108997168D01*
X169320948Y-108650201D01*
X169509285Y-108196634D01*
X169509714Y-107705520D01*
X169322168Y-107251626D01*
X168975201Y-106904052D01*
X168521634Y-106715715D01*
X168030520Y-106715286D01*
X167576626Y-106902832D01*
X167229052Y-107249799D01*
X167040715Y-107703366D01*
X167040286Y-108194480D01*
X164429346Y-108194480D01*
X164429773Y-107705508D01*
X164242219Y-107251592D01*
X163895235Y-106904002D01*
X163441646Y-106715655D01*
X162950508Y-106715227D01*
X162635000Y-106845592D01*
X162635000Y-103974164D01*
X162948366Y-104104285D01*
X163439480Y-104104714D01*
X163893374Y-103917168D01*
X164240948Y-103570201D01*
X164429285Y-103116634D01*
X164429714Y-102625520D01*
X164242168Y-102171626D01*
X163895201Y-101824052D01*
X163536243Y-101675000D01*
X167934405Y-101675000D01*
X167576626Y-101822832D01*
M02*
