G04 #@! TF.FileFunction,Legend,Bot*
%FSLAX46Y46*%
G04 Gerber Fmt 4.6, Leading zero omitted, Abs format (unit mm)*
G04 Created by KiCad (PCBNEW 4.0.7-e2-6376~60~ubuntu17.10.1) date Thu Dec 28 10:46:34 2017*
%MOMM*%
%LPD*%
G01*
G04 APERTURE LIST*
%ADD10C,0.100000*%
%ADD11C,0.010000*%
%ADD12C,0.150000*%
%ADD13C,0.381000*%
%ADD14C,0.304800*%
G04 APERTURE END LIST*
D10*
X149682142Y-85425000D02*
X149739285Y-85396429D01*
X149824999Y-85396429D01*
X149910714Y-85425000D01*
X149967856Y-85482143D01*
X149996428Y-85539286D01*
X150024999Y-85653571D01*
X150024999Y-85739286D01*
X149996428Y-85853571D01*
X149967856Y-85910714D01*
X149910714Y-85967857D01*
X149824999Y-85996429D01*
X149767856Y-85996429D01*
X149682142Y-85967857D01*
X149653571Y-85939286D01*
X149653571Y-85739286D01*
X149767856Y-85739286D01*
X149396428Y-85996429D02*
X149396428Y-85396429D01*
X149053571Y-85996429D01*
X149053571Y-85396429D01*
X148767857Y-85996429D02*
X148767857Y-85396429D01*
X148625000Y-85396429D01*
X148539285Y-85425000D01*
X148482143Y-85482143D01*
X148453571Y-85539286D01*
X148425000Y-85653571D01*
X148425000Y-85739286D01*
X148453571Y-85853571D01*
X148482143Y-85910714D01*
X148539285Y-85967857D01*
X148625000Y-85996429D01*
X148767857Y-85996429D01*
X150239286Y-81322857D02*
X149782143Y-81322857D01*
X150010714Y-81551429D02*
X150010714Y-81094286D01*
X149296429Y-81237143D02*
X149210715Y-81265714D01*
X149182143Y-81294286D01*
X149153572Y-81351429D01*
X149153572Y-81437143D01*
X149182143Y-81494286D01*
X149210715Y-81522857D01*
X149267857Y-81551429D01*
X149496429Y-81551429D01*
X149496429Y-80951429D01*
X149296429Y-80951429D01*
X149239286Y-80980000D01*
X149210715Y-81008571D01*
X149182143Y-81065714D01*
X149182143Y-81122857D01*
X149210715Y-81180000D01*
X149239286Y-81208571D01*
X149296429Y-81237143D01*
X149496429Y-81237143D01*
X148925000Y-81380000D02*
X148639286Y-81380000D01*
X148982143Y-81551429D02*
X148782143Y-80951429D01*
X148582143Y-81551429D01*
X148467857Y-80951429D02*
X148125000Y-80951429D01*
X148296429Y-81551429D02*
X148296429Y-80951429D01*
D11*
G36*
X153655082Y-97650256D02*
X153627432Y-97594799D01*
X153576520Y-97545852D01*
X153557662Y-97532371D01*
X153532985Y-97517686D01*
X153506184Y-97508158D01*
X153470413Y-97502707D01*
X153418831Y-97500253D01*
X153350733Y-97499714D01*
X153257412Y-97502148D01*
X153187343Y-97510606D01*
X153135069Y-97526826D01*
X153095131Y-97552546D01*
X153062071Y-97589503D01*
X153060114Y-97592218D01*
X153040092Y-97628640D01*
X153030185Y-97672498D01*
X153027743Y-97728276D01*
X153027743Y-97818952D01*
X152939717Y-97818990D01*
X152890692Y-97819834D01*
X152861935Y-97824976D01*
X152844689Y-97838413D01*
X152830192Y-97864142D01*
X152827231Y-97870321D01*
X152813352Y-97899236D01*
X152804586Y-97921624D01*
X152803829Y-97938271D01*
X152813977Y-97949964D01*
X152837927Y-97957490D01*
X152878574Y-97961634D01*
X152938814Y-97963185D01*
X153021545Y-97962929D01*
X153129661Y-97961651D01*
X153162000Y-97961252D01*
X153273476Y-97959815D01*
X153346397Y-97958528D01*
X153346397Y-97819029D01*
X153284501Y-97818245D01*
X153244003Y-97814760D01*
X153217292Y-97806876D01*
X153196756Y-97792895D01*
X153186740Y-97783403D01*
X153157433Y-97744596D01*
X153155048Y-97710237D01*
X153179250Y-97674784D01*
X153180143Y-97673886D01*
X153198847Y-97659461D01*
X153224268Y-97650687D01*
X153263416Y-97646261D01*
X153323303Y-97644882D01*
X153336570Y-97644857D01*
X153419099Y-97648188D01*
X153476309Y-97659031D01*
X153511234Y-97678660D01*
X153526906Y-97708350D01*
X153528486Y-97725509D01*
X153521074Y-97766234D01*
X153496670Y-97794168D01*
X153452020Y-97810983D01*
X153383870Y-97818350D01*
X153346397Y-97819029D01*
X153346397Y-97958528D01*
X153359755Y-97958292D01*
X153424667Y-97956323D01*
X153472042Y-97953550D01*
X153505710Y-97949612D01*
X153529502Y-97944151D01*
X153547247Y-97936808D01*
X153562776Y-97927223D01*
X153568619Y-97923113D01*
X153623815Y-97868595D01*
X153655110Y-97799664D01*
X153663835Y-97719928D01*
X153655082Y-97650256D01*
X153655082Y-97650256D01*
G37*
X153655082Y-97650256D02*
X153627432Y-97594799D01*
X153576520Y-97545852D01*
X153557662Y-97532371D01*
X153532985Y-97517686D01*
X153506184Y-97508158D01*
X153470413Y-97502707D01*
X153418831Y-97500253D01*
X153350733Y-97499714D01*
X153257412Y-97502148D01*
X153187343Y-97510606D01*
X153135069Y-97526826D01*
X153095131Y-97552546D01*
X153062071Y-97589503D01*
X153060114Y-97592218D01*
X153040092Y-97628640D01*
X153030185Y-97672498D01*
X153027743Y-97728276D01*
X153027743Y-97818952D01*
X152939717Y-97818990D01*
X152890692Y-97819834D01*
X152861935Y-97824976D01*
X152844689Y-97838413D01*
X152830192Y-97864142D01*
X152827231Y-97870321D01*
X152813352Y-97899236D01*
X152804586Y-97921624D01*
X152803829Y-97938271D01*
X152813977Y-97949964D01*
X152837927Y-97957490D01*
X152878574Y-97961634D01*
X152938814Y-97963185D01*
X153021545Y-97962929D01*
X153129661Y-97961651D01*
X153162000Y-97961252D01*
X153273476Y-97959815D01*
X153346397Y-97958528D01*
X153346397Y-97819029D01*
X153284501Y-97818245D01*
X153244003Y-97814760D01*
X153217292Y-97806876D01*
X153196756Y-97792895D01*
X153186740Y-97783403D01*
X153157433Y-97744596D01*
X153155048Y-97710237D01*
X153179250Y-97674784D01*
X153180143Y-97673886D01*
X153198847Y-97659461D01*
X153224268Y-97650687D01*
X153263416Y-97646261D01*
X153323303Y-97644882D01*
X153336570Y-97644857D01*
X153419099Y-97648188D01*
X153476309Y-97659031D01*
X153511234Y-97678660D01*
X153526906Y-97708350D01*
X153528486Y-97725509D01*
X153521074Y-97766234D01*
X153496670Y-97794168D01*
X153452020Y-97810983D01*
X153383870Y-97818350D01*
X153346397Y-97819029D01*
X153346397Y-97958528D01*
X153359755Y-97958292D01*
X153424667Y-97956323D01*
X153472042Y-97953550D01*
X153505710Y-97949612D01*
X153529502Y-97944151D01*
X153547247Y-97936808D01*
X153562776Y-97927223D01*
X153568619Y-97923113D01*
X153623815Y-97868595D01*
X153655110Y-97799664D01*
X153663835Y-97719928D01*
X153655082Y-97650256D01*
G36*
X153647220Y-96533907D02*
X153620277Y-96487328D01*
X153593534Y-96454943D01*
X153565516Y-96431258D01*
X153531252Y-96414941D01*
X153485773Y-96404661D01*
X153424108Y-96399086D01*
X153341289Y-96396884D01*
X153281754Y-96396629D01*
X153062609Y-96396629D01*
X153034956Y-96458314D01*
X153007303Y-96520000D01*
X153247330Y-96527257D01*
X153336972Y-96530256D01*
X153402038Y-96533402D01*
X153446974Y-96537299D01*
X153476230Y-96542553D01*
X153494252Y-96549769D01*
X153505489Y-96559550D01*
X153507921Y-96562688D01*
X153526917Y-96610239D01*
X153519400Y-96658303D01*
X153499457Y-96686914D01*
X153485325Y-96698553D01*
X153466780Y-96706609D01*
X153438666Y-96711729D01*
X153395827Y-96714559D01*
X153333105Y-96715744D01*
X153267739Y-96715943D01*
X153185732Y-96715982D01*
X153127684Y-96717386D01*
X153088535Y-96722086D01*
X153063220Y-96732013D01*
X153046677Y-96749097D01*
X153033844Y-96775268D01*
X153020509Y-96810225D01*
X153005993Y-96848404D01*
X153263611Y-96843859D01*
X153356481Y-96842029D01*
X153425111Y-96839888D01*
X153474289Y-96836819D01*
X153508802Y-96832206D01*
X153533438Y-96825432D01*
X153552984Y-96815881D01*
X153570230Y-96804366D01*
X153625320Y-96748810D01*
X153657178Y-96681020D01*
X153664809Y-96607287D01*
X153647220Y-96533907D01*
X153647220Y-96533907D01*
G37*
X153647220Y-96533907D02*
X153620277Y-96487328D01*
X153593534Y-96454943D01*
X153565516Y-96431258D01*
X153531252Y-96414941D01*
X153485773Y-96404661D01*
X153424108Y-96399086D01*
X153341289Y-96396884D01*
X153281754Y-96396629D01*
X153062609Y-96396629D01*
X153034956Y-96458314D01*
X153007303Y-96520000D01*
X153247330Y-96527257D01*
X153336972Y-96530256D01*
X153402038Y-96533402D01*
X153446974Y-96537299D01*
X153476230Y-96542553D01*
X153494252Y-96549769D01*
X153505489Y-96559550D01*
X153507921Y-96562688D01*
X153526917Y-96610239D01*
X153519400Y-96658303D01*
X153499457Y-96686914D01*
X153485325Y-96698553D01*
X153466780Y-96706609D01*
X153438666Y-96711729D01*
X153395827Y-96714559D01*
X153333105Y-96715744D01*
X153267739Y-96715943D01*
X153185732Y-96715982D01*
X153127684Y-96717386D01*
X153088535Y-96722086D01*
X153063220Y-96732013D01*
X153046677Y-96749097D01*
X153033844Y-96775268D01*
X153020509Y-96810225D01*
X153005993Y-96848404D01*
X153263611Y-96843859D01*
X153356481Y-96842029D01*
X153425111Y-96839888D01*
X153474289Y-96836819D01*
X153508802Y-96832206D01*
X153533438Y-96825432D01*
X153552984Y-96815881D01*
X153570230Y-96804366D01*
X153625320Y-96748810D01*
X153657178Y-96681020D01*
X153664809Y-96607287D01*
X153647220Y-96533907D01*
G36*
X153653038Y-98208885D02*
X153617267Y-98140855D01*
X153559699Y-98090649D01*
X153522688Y-98072815D01*
X153467118Y-98058937D01*
X153396904Y-98051833D01*
X153320273Y-98051160D01*
X153245448Y-98056573D01*
X153180658Y-98067730D01*
X153134127Y-98084286D01*
X153126113Y-98089374D01*
X153066293Y-98149645D01*
X153030465Y-98221231D01*
X153019980Y-98298908D01*
X153036190Y-98377452D01*
X153045908Y-98399311D01*
X153075857Y-98441878D01*
X153115567Y-98479237D01*
X153120603Y-98482768D01*
X153144876Y-98497119D01*
X153170822Y-98506606D01*
X153204978Y-98512210D01*
X153253881Y-98514914D01*
X153324065Y-98515701D01*
X153339800Y-98515714D01*
X153344808Y-98515678D01*
X153344808Y-98370571D01*
X153278570Y-98369727D01*
X153234614Y-98366404D01*
X153206221Y-98359417D01*
X153186675Y-98347584D01*
X153180143Y-98341543D01*
X153155320Y-98306814D01*
X153156452Y-98273097D01*
X153177984Y-98239005D01*
X153200971Y-98218671D01*
X153234522Y-98206629D01*
X153287431Y-98199866D01*
X153293601Y-98199402D01*
X153389487Y-98198248D01*
X153460701Y-98210312D01*
X153506806Y-98235430D01*
X153527365Y-98273440D01*
X153528486Y-98287008D01*
X153522848Y-98322636D01*
X153503314Y-98347006D01*
X153465958Y-98361907D01*
X153406850Y-98369125D01*
X153344808Y-98370571D01*
X153344808Y-98515678D01*
X153414587Y-98515174D01*
X153466841Y-98512904D01*
X153503051Y-98507932D01*
X153529701Y-98499287D01*
X153553278Y-98485995D01*
X153557662Y-98483057D01*
X153616751Y-98433687D01*
X153651053Y-98379891D01*
X153664669Y-98314398D01*
X153665335Y-98292158D01*
X153653038Y-98208885D01*
X153653038Y-98208885D01*
G37*
X153653038Y-98208885D02*
X153617267Y-98140855D01*
X153559699Y-98090649D01*
X153522688Y-98072815D01*
X153467118Y-98058937D01*
X153396904Y-98051833D01*
X153320273Y-98051160D01*
X153245448Y-98056573D01*
X153180658Y-98067730D01*
X153134127Y-98084286D01*
X153126113Y-98089374D01*
X153066293Y-98149645D01*
X153030465Y-98221231D01*
X153019980Y-98298908D01*
X153036190Y-98377452D01*
X153045908Y-98399311D01*
X153075857Y-98441878D01*
X153115567Y-98479237D01*
X153120603Y-98482768D01*
X153144876Y-98497119D01*
X153170822Y-98506606D01*
X153204978Y-98512210D01*
X153253881Y-98514914D01*
X153324065Y-98515701D01*
X153339800Y-98515714D01*
X153344808Y-98515678D01*
X153344808Y-98370571D01*
X153278570Y-98369727D01*
X153234614Y-98366404D01*
X153206221Y-98359417D01*
X153186675Y-98347584D01*
X153180143Y-98341543D01*
X153155320Y-98306814D01*
X153156452Y-98273097D01*
X153177984Y-98239005D01*
X153200971Y-98218671D01*
X153234522Y-98206629D01*
X153287431Y-98199866D01*
X153293601Y-98199402D01*
X153389487Y-98198248D01*
X153460701Y-98210312D01*
X153506806Y-98235430D01*
X153527365Y-98273440D01*
X153528486Y-98287008D01*
X153522848Y-98322636D01*
X153503314Y-98347006D01*
X153465958Y-98361907D01*
X153406850Y-98369125D01*
X153344808Y-98370571D01*
X153344808Y-98515678D01*
X153414587Y-98515174D01*
X153466841Y-98512904D01*
X153503051Y-98507932D01*
X153529701Y-98499287D01*
X153553278Y-98485995D01*
X153557662Y-98483057D01*
X153616751Y-98433687D01*
X153651053Y-98379891D01*
X153664669Y-98314398D01*
X153665335Y-98292158D01*
X153653038Y-98208885D01*
G36*
X153643761Y-97081697D02*
X153605265Y-97024473D01*
X153549665Y-96980251D01*
X153478914Y-96953833D01*
X153426838Y-96948490D01*
X153405107Y-96949097D01*
X153388469Y-96954178D01*
X153373563Y-96968145D01*
X153357027Y-96995411D01*
X153335502Y-97040388D01*
X153305626Y-97107489D01*
X153305476Y-97107829D01*
X153277187Y-97169593D01*
X153252067Y-97220241D01*
X153232821Y-97254596D01*
X153222152Y-97267482D01*
X153222066Y-97267486D01*
X153198834Y-97256128D01*
X153173226Y-97229569D01*
X153154779Y-97199077D01*
X153151114Y-97183630D01*
X153163788Y-97141485D01*
X153195529Y-97105192D01*
X153230428Y-97087483D01*
X153256155Y-97070448D01*
X153285454Y-97037078D01*
X153310765Y-96997851D01*
X153324529Y-96963244D01*
X153325286Y-96956007D01*
X153312840Y-96947861D01*
X153281028Y-96947370D01*
X153238134Y-96953357D01*
X153192442Y-96964643D01*
X153152239Y-96980050D01*
X153150678Y-96980829D01*
X153085938Y-97027196D01*
X153041903Y-97087289D01*
X153020289Y-97155535D01*
X153022815Y-97226362D01*
X153051196Y-97294196D01*
X153053192Y-97297212D01*
X153101552Y-97350573D01*
X153164648Y-97385660D01*
X153247613Y-97405078D01*
X153270922Y-97407684D01*
X153380945Y-97412299D01*
X153432252Y-97406767D01*
X153432252Y-97267486D01*
X153400247Y-97265676D01*
X153390907Y-97255778D01*
X153397895Y-97231102D01*
X153414413Y-97192205D01*
X153435119Y-97148725D01*
X153435667Y-97147644D01*
X153455051Y-97110791D01*
X153467987Y-97096000D01*
X153481549Y-97099647D01*
X153499368Y-97115005D01*
X153525155Y-97154077D01*
X153527050Y-97196154D01*
X153508283Y-97233897D01*
X153472085Y-97259966D01*
X153432252Y-97267486D01*
X153432252Y-97406767D01*
X153468973Y-97402806D01*
X153538788Y-97378450D01*
X153587698Y-97344544D01*
X153637122Y-97283347D01*
X153661641Y-97215937D01*
X153663203Y-97147120D01*
X153643761Y-97081697D01*
X153643761Y-97081697D01*
G37*
X153643761Y-97081697D02*
X153605265Y-97024473D01*
X153549665Y-96980251D01*
X153478914Y-96953833D01*
X153426838Y-96948490D01*
X153405107Y-96949097D01*
X153388469Y-96954178D01*
X153373563Y-96968145D01*
X153357027Y-96995411D01*
X153335502Y-97040388D01*
X153305626Y-97107489D01*
X153305476Y-97107829D01*
X153277187Y-97169593D01*
X153252067Y-97220241D01*
X153232821Y-97254596D01*
X153222152Y-97267482D01*
X153222066Y-97267486D01*
X153198834Y-97256128D01*
X153173226Y-97229569D01*
X153154779Y-97199077D01*
X153151114Y-97183630D01*
X153163788Y-97141485D01*
X153195529Y-97105192D01*
X153230428Y-97087483D01*
X153256155Y-97070448D01*
X153285454Y-97037078D01*
X153310765Y-96997851D01*
X153324529Y-96963244D01*
X153325286Y-96956007D01*
X153312840Y-96947861D01*
X153281028Y-96947370D01*
X153238134Y-96953357D01*
X153192442Y-96964643D01*
X153152239Y-96980050D01*
X153150678Y-96980829D01*
X153085938Y-97027196D01*
X153041903Y-97087289D01*
X153020289Y-97155535D01*
X153022815Y-97226362D01*
X153051196Y-97294196D01*
X153053192Y-97297212D01*
X153101552Y-97350573D01*
X153164648Y-97385660D01*
X153247613Y-97405078D01*
X153270922Y-97407684D01*
X153380945Y-97412299D01*
X153432252Y-97406767D01*
X153432252Y-97267486D01*
X153400247Y-97265676D01*
X153390907Y-97255778D01*
X153397895Y-97231102D01*
X153414413Y-97192205D01*
X153435119Y-97148725D01*
X153435667Y-97147644D01*
X153455051Y-97110791D01*
X153467987Y-97096000D01*
X153481549Y-97099647D01*
X153499368Y-97115005D01*
X153525155Y-97154077D01*
X153527050Y-97196154D01*
X153508283Y-97233897D01*
X153472085Y-97259966D01*
X153432252Y-97267486D01*
X153432252Y-97406767D01*
X153468973Y-97402806D01*
X153538788Y-97378450D01*
X153587698Y-97344544D01*
X153637122Y-97283347D01*
X153661641Y-97215937D01*
X153663203Y-97147120D01*
X153643761Y-97081697D01*
G36*
X153723711Y-95874114D02*
X153664387Y-95869861D01*
X153629428Y-95864975D01*
X153614180Y-95858205D01*
X153613985Y-95848298D01*
X153615805Y-95845086D01*
X153628985Y-95802356D01*
X153628215Y-95746773D01*
X153614667Y-95690263D01*
X153597139Y-95654918D01*
X153569139Y-95618679D01*
X153537451Y-95592187D01*
X153497187Y-95574001D01*
X153443457Y-95562678D01*
X153371374Y-95556778D01*
X153276049Y-95554857D01*
X153257763Y-95554823D01*
X153052354Y-95554800D01*
X153036420Y-95600509D01*
X153025580Y-95632973D01*
X153020532Y-95650785D01*
X153020486Y-95651309D01*
X153034172Y-95653063D01*
X153071924Y-95654556D01*
X153128776Y-95655674D01*
X153199766Y-95656303D01*
X153242927Y-95656400D01*
X153328027Y-95656602D01*
X153389019Y-95657642D01*
X153430823Y-95660169D01*
X153458358Y-95664836D01*
X153476544Y-95672293D01*
X153490302Y-95683189D01*
X153496927Y-95689993D01*
X153523625Y-95736728D01*
X153525625Y-95787728D01*
X153503045Y-95833999D01*
X153494893Y-95842556D01*
X153479564Y-95855107D01*
X153461382Y-95863812D01*
X153435091Y-95869369D01*
X153395438Y-95872474D01*
X153337168Y-95873824D01*
X153256827Y-95874114D01*
X153052354Y-95874114D01*
X153036420Y-95919823D01*
X153025580Y-95952287D01*
X153020532Y-95970099D01*
X153020486Y-95970623D01*
X153034377Y-95971963D01*
X153073561Y-95973172D01*
X153134300Y-95974199D01*
X153212859Y-95974998D01*
X153305502Y-95975519D01*
X153408491Y-95975714D01*
X153805658Y-95975714D01*
X153825556Y-95928543D01*
X153845453Y-95881371D01*
X153723711Y-95874114D01*
X153723711Y-95874114D01*
G37*
X153723711Y-95874114D02*
X153664387Y-95869861D01*
X153629428Y-95864975D01*
X153614180Y-95858205D01*
X153613985Y-95848298D01*
X153615805Y-95845086D01*
X153628985Y-95802356D01*
X153628215Y-95746773D01*
X153614667Y-95690263D01*
X153597139Y-95654918D01*
X153569139Y-95618679D01*
X153537451Y-95592187D01*
X153497187Y-95574001D01*
X153443457Y-95562678D01*
X153371374Y-95556778D01*
X153276049Y-95554857D01*
X153257763Y-95554823D01*
X153052354Y-95554800D01*
X153036420Y-95600509D01*
X153025580Y-95632973D01*
X153020532Y-95650785D01*
X153020486Y-95651309D01*
X153034172Y-95653063D01*
X153071924Y-95654556D01*
X153128776Y-95655674D01*
X153199766Y-95656303D01*
X153242927Y-95656400D01*
X153328027Y-95656602D01*
X153389019Y-95657642D01*
X153430823Y-95660169D01*
X153458358Y-95664836D01*
X153476544Y-95672293D01*
X153490302Y-95683189D01*
X153496927Y-95689993D01*
X153523625Y-95736728D01*
X153525625Y-95787728D01*
X153503045Y-95833999D01*
X153494893Y-95842556D01*
X153479564Y-95855107D01*
X153461382Y-95863812D01*
X153435091Y-95869369D01*
X153395438Y-95872474D01*
X153337168Y-95873824D01*
X153256827Y-95874114D01*
X153052354Y-95874114D01*
X153036420Y-95919823D01*
X153025580Y-95952287D01*
X153020532Y-95970099D01*
X153020486Y-95970623D01*
X153034377Y-95971963D01*
X153073561Y-95973172D01*
X153134300Y-95974199D01*
X153212859Y-95974998D01*
X153305502Y-95975519D01*
X153408491Y-95975714D01*
X153805658Y-95975714D01*
X153825556Y-95928543D01*
X153845453Y-95881371D01*
X153723711Y-95874114D01*
G36*
X153624032Y-95210256D02*
X153602913Y-95153384D01*
X153602507Y-95152733D01*
X153576620Y-95117560D01*
X153546367Y-95091593D01*
X153506942Y-95073330D01*
X153453538Y-95061268D01*
X153381349Y-95053904D01*
X153285568Y-95049736D01*
X153271922Y-95049371D01*
X153066158Y-95044124D01*
X153043322Y-95088284D01*
X153027890Y-95120237D01*
X153020577Y-95139530D01*
X153020486Y-95140422D01*
X153033978Y-95143761D01*
X153070374Y-95146413D01*
X153123548Y-95148044D01*
X153166607Y-95148400D01*
X153236359Y-95148408D01*
X153280163Y-95151597D01*
X153301056Y-95162712D01*
X153302075Y-95186499D01*
X153286259Y-95227704D01*
X153257185Y-95289914D01*
X153233037Y-95335659D01*
X153212087Y-95359187D01*
X153189253Y-95366104D01*
X153188123Y-95366114D01*
X153148788Y-95354701D01*
X153127538Y-95320908D01*
X153124461Y-95269191D01*
X153124994Y-95231939D01*
X153114265Y-95212297D01*
X153088495Y-95200048D01*
X153055663Y-95192998D01*
X153037034Y-95203158D01*
X153034368Y-95206983D01*
X153023660Y-95242999D01*
X153022144Y-95293434D01*
X153029241Y-95345374D01*
X153042212Y-95382178D01*
X153085415Y-95433062D01*
X153145554Y-95461986D01*
X153192538Y-95467714D01*
X153234918Y-95463343D01*
X153269512Y-95447525D01*
X153300237Y-95416203D01*
X153331010Y-95365322D01*
X153365748Y-95290824D01*
X153367712Y-95286286D01*
X153398713Y-95219179D01*
X153424138Y-95177768D01*
X153446986Y-95160019D01*
X153470255Y-95163893D01*
X153496944Y-95187357D01*
X153503086Y-95194373D01*
X153526900Y-95241370D01*
X153525897Y-95290067D01*
X153502549Y-95332478D01*
X153459325Y-95360616D01*
X153450840Y-95363231D01*
X153409692Y-95388692D01*
X153389872Y-95420999D01*
X153370230Y-95467714D01*
X153421050Y-95467714D01*
X153494918Y-95453504D01*
X153562673Y-95411325D01*
X153585339Y-95389376D01*
X153614431Y-95339483D01*
X153627600Y-95276033D01*
X153624032Y-95210256D01*
X153624032Y-95210256D01*
G37*
X153624032Y-95210256D02*
X153602913Y-95153384D01*
X153602507Y-95152733D01*
X153576620Y-95117560D01*
X153546367Y-95091593D01*
X153506942Y-95073330D01*
X153453538Y-95061268D01*
X153381349Y-95053904D01*
X153285568Y-95049736D01*
X153271922Y-95049371D01*
X153066158Y-95044124D01*
X153043322Y-95088284D01*
X153027890Y-95120237D01*
X153020577Y-95139530D01*
X153020486Y-95140422D01*
X153033978Y-95143761D01*
X153070374Y-95146413D01*
X153123548Y-95148044D01*
X153166607Y-95148400D01*
X153236359Y-95148408D01*
X153280163Y-95151597D01*
X153301056Y-95162712D01*
X153302075Y-95186499D01*
X153286259Y-95227704D01*
X153257185Y-95289914D01*
X153233037Y-95335659D01*
X153212087Y-95359187D01*
X153189253Y-95366104D01*
X153188123Y-95366114D01*
X153148788Y-95354701D01*
X153127538Y-95320908D01*
X153124461Y-95269191D01*
X153124994Y-95231939D01*
X153114265Y-95212297D01*
X153088495Y-95200048D01*
X153055663Y-95192998D01*
X153037034Y-95203158D01*
X153034368Y-95206983D01*
X153023660Y-95242999D01*
X153022144Y-95293434D01*
X153029241Y-95345374D01*
X153042212Y-95382178D01*
X153085415Y-95433062D01*
X153145554Y-95461986D01*
X153192538Y-95467714D01*
X153234918Y-95463343D01*
X153269512Y-95447525D01*
X153300237Y-95416203D01*
X153331010Y-95365322D01*
X153365748Y-95290824D01*
X153367712Y-95286286D01*
X153398713Y-95219179D01*
X153424138Y-95177768D01*
X153446986Y-95160019D01*
X153470255Y-95163893D01*
X153496944Y-95187357D01*
X153503086Y-95194373D01*
X153526900Y-95241370D01*
X153525897Y-95290067D01*
X153502549Y-95332478D01*
X153459325Y-95360616D01*
X153450840Y-95363231D01*
X153409692Y-95388692D01*
X153389872Y-95420999D01*
X153370230Y-95467714D01*
X153421050Y-95467714D01*
X153494918Y-95453504D01*
X153562673Y-95411325D01*
X153585339Y-95389376D01*
X153614431Y-95339483D01*
X153627600Y-95276033D01*
X153624032Y-95210256D01*
G36*
X153625245Y-94720074D02*
X153600916Y-94654142D01*
X153557883Y-94600727D01*
X153527591Y-94579836D01*
X153472006Y-94557061D01*
X153431814Y-94557534D01*
X153404783Y-94581438D01*
X153400187Y-94590283D01*
X153385856Y-94628470D01*
X153389528Y-94647972D01*
X153413593Y-94654578D01*
X153426886Y-94654914D01*
X153475790Y-94667008D01*
X153510001Y-94698529D01*
X153526524Y-94742341D01*
X153522366Y-94791305D01*
X153500773Y-94831106D01*
X153488456Y-94844550D01*
X153473513Y-94854079D01*
X153450925Y-94860515D01*
X153415672Y-94864683D01*
X153362734Y-94867403D01*
X153287093Y-94869498D01*
X153263143Y-94870040D01*
X153181210Y-94872019D01*
X153123545Y-94874269D01*
X153085392Y-94877643D01*
X153061996Y-94882994D01*
X153048602Y-94891176D01*
X153040455Y-94903041D01*
X153036856Y-94910638D01*
X153024548Y-94942898D01*
X153020486Y-94961889D01*
X153034052Y-94968164D01*
X153075066Y-94971994D01*
X153144001Y-94973400D01*
X153241331Y-94972402D01*
X153256343Y-94972092D01*
X153345141Y-94969899D01*
X153409981Y-94967307D01*
X153455933Y-94963618D01*
X153488065Y-94958136D01*
X153511447Y-94950165D01*
X153531148Y-94939007D01*
X153539590Y-94933170D01*
X153576943Y-94899704D01*
X153605997Y-94862273D01*
X153608533Y-94857691D01*
X153628557Y-94790574D01*
X153625245Y-94720074D01*
X153625245Y-94720074D01*
G37*
X153625245Y-94720074D02*
X153600916Y-94654142D01*
X153557883Y-94600727D01*
X153527591Y-94579836D01*
X153472006Y-94557061D01*
X153431814Y-94557534D01*
X153404783Y-94581438D01*
X153400187Y-94590283D01*
X153385856Y-94628470D01*
X153389528Y-94647972D01*
X153413593Y-94654578D01*
X153426886Y-94654914D01*
X153475790Y-94667008D01*
X153510001Y-94698529D01*
X153526524Y-94742341D01*
X153522366Y-94791305D01*
X153500773Y-94831106D01*
X153488456Y-94844550D01*
X153473513Y-94854079D01*
X153450925Y-94860515D01*
X153415672Y-94864683D01*
X153362734Y-94867403D01*
X153287093Y-94869498D01*
X153263143Y-94870040D01*
X153181210Y-94872019D01*
X153123545Y-94874269D01*
X153085392Y-94877643D01*
X153061996Y-94882994D01*
X153048602Y-94891176D01*
X153040455Y-94903041D01*
X153036856Y-94910638D01*
X153024548Y-94942898D01*
X153020486Y-94961889D01*
X153034052Y-94968164D01*
X153075066Y-94971994D01*
X153144001Y-94973400D01*
X153241331Y-94972402D01*
X153256343Y-94972092D01*
X153345141Y-94969899D01*
X153409981Y-94967307D01*
X153455933Y-94963618D01*
X153488065Y-94958136D01*
X153511447Y-94950165D01*
X153531148Y-94939007D01*
X153539590Y-94933170D01*
X153576943Y-94899704D01*
X153605997Y-94862273D01*
X153608533Y-94857691D01*
X153628557Y-94790574D01*
X153625245Y-94720074D01*
G36*
X153509642Y-94059883D02*
X153401163Y-94060067D01*
X153317713Y-94060781D01*
X153255296Y-94062325D01*
X153209915Y-94064999D01*
X153177571Y-94069106D01*
X153154267Y-94074945D01*
X153136005Y-94082818D01*
X153125582Y-94088779D01*
X153069055Y-94138145D01*
X153033623Y-94200736D01*
X153020910Y-94269987D01*
X153032537Y-94339332D01*
X153053432Y-94380625D01*
X153089578Y-94423975D01*
X153133724Y-94453519D01*
X153191538Y-94471345D01*
X153268687Y-94479537D01*
X153325286Y-94480698D01*
X153329353Y-94480542D01*
X153329353Y-94379143D01*
X153264450Y-94378524D01*
X153221486Y-94375686D01*
X153193378Y-94369160D01*
X153173047Y-94357477D01*
X153157712Y-94343517D01*
X153128110Y-94296635D01*
X153125581Y-94246299D01*
X153150295Y-94198724D01*
X153153644Y-94195021D01*
X153171065Y-94179217D01*
X153191791Y-94169307D01*
X153222638Y-94163942D01*
X153270423Y-94161772D01*
X153323252Y-94161429D01*
X153389619Y-94162173D01*
X153433894Y-94165252D01*
X153462991Y-94171939D01*
X153483827Y-94183504D01*
X153494893Y-94192987D01*
X153522802Y-94237040D01*
X153526157Y-94287776D01*
X153504841Y-94336204D01*
X153496927Y-94345550D01*
X153479353Y-94361460D01*
X153458413Y-94371390D01*
X153427218Y-94376722D01*
X153378878Y-94378837D01*
X153329353Y-94379143D01*
X153329353Y-94480542D01*
X153416432Y-94477190D01*
X153484914Y-94465274D01*
X153536400Y-94442865D01*
X153576557Y-94407876D01*
X153597139Y-94380625D01*
X153619375Y-94331093D01*
X153629696Y-94273684D01*
X153626933Y-94220318D01*
X153615788Y-94190457D01*
X153612617Y-94178739D01*
X153624443Y-94170963D01*
X153656134Y-94165535D01*
X153704407Y-94161429D01*
X153758171Y-94156933D01*
X153790518Y-94150687D01*
X153809015Y-94139324D01*
X153821230Y-94119472D01*
X153826638Y-94107000D01*
X153846399Y-94059829D01*
X153509642Y-94059883D01*
X153509642Y-94059883D01*
G37*
X153509642Y-94059883D02*
X153401163Y-94060067D01*
X153317713Y-94060781D01*
X153255296Y-94062325D01*
X153209915Y-94064999D01*
X153177571Y-94069106D01*
X153154267Y-94074945D01*
X153136005Y-94082818D01*
X153125582Y-94088779D01*
X153069055Y-94138145D01*
X153033623Y-94200736D01*
X153020910Y-94269987D01*
X153032537Y-94339332D01*
X153053432Y-94380625D01*
X153089578Y-94423975D01*
X153133724Y-94453519D01*
X153191538Y-94471345D01*
X153268687Y-94479537D01*
X153325286Y-94480698D01*
X153329353Y-94480542D01*
X153329353Y-94379143D01*
X153264450Y-94378524D01*
X153221486Y-94375686D01*
X153193378Y-94369160D01*
X153173047Y-94357477D01*
X153157712Y-94343517D01*
X153128110Y-94296635D01*
X153125581Y-94246299D01*
X153150295Y-94198724D01*
X153153644Y-94195021D01*
X153171065Y-94179217D01*
X153191791Y-94169307D01*
X153222638Y-94163942D01*
X153270423Y-94161772D01*
X153323252Y-94161429D01*
X153389619Y-94162173D01*
X153433894Y-94165252D01*
X153462991Y-94171939D01*
X153483827Y-94183504D01*
X153494893Y-94192987D01*
X153522802Y-94237040D01*
X153526157Y-94287776D01*
X153504841Y-94336204D01*
X153496927Y-94345550D01*
X153479353Y-94361460D01*
X153458413Y-94371390D01*
X153427218Y-94376722D01*
X153378878Y-94378837D01*
X153329353Y-94379143D01*
X153329353Y-94480542D01*
X153416432Y-94477190D01*
X153484914Y-94465274D01*
X153536400Y-94442865D01*
X153576557Y-94407876D01*
X153597139Y-94380625D01*
X153619375Y-94331093D01*
X153629696Y-94273684D01*
X153626933Y-94220318D01*
X153615788Y-94190457D01*
X153612617Y-94178739D01*
X153624443Y-94170963D01*
X153656134Y-94165535D01*
X153704407Y-94161429D01*
X153758171Y-94156933D01*
X153790518Y-94150687D01*
X153809015Y-94139324D01*
X153821230Y-94119472D01*
X153826638Y-94107000D01*
X153846399Y-94059829D01*
X153509642Y-94059883D01*
G36*
X153616337Y-93470167D02*
X153578150Y-93467952D01*
X153520114Y-93466216D01*
X153446820Y-93465101D01*
X153369945Y-93464743D01*
X153109804Y-93464743D01*
X153063873Y-93510674D01*
X153035571Y-93542325D01*
X153024107Y-93570110D01*
X153024832Y-93608085D01*
X153026679Y-93623160D01*
X153032052Y-93670274D01*
X153035131Y-93709244D01*
X153035415Y-93718743D01*
X153033555Y-93750767D01*
X153028886Y-93796568D01*
X153026679Y-93814326D01*
X153023265Y-93857943D01*
X153030680Y-93887255D01*
X153053573Y-93916320D01*
X153063873Y-93926812D01*
X153109804Y-93972743D01*
X153596398Y-93972743D01*
X153613242Y-93935774D01*
X153625718Y-93903941D01*
X153630086Y-93885317D01*
X153616282Y-93880542D01*
X153577714Y-93876079D01*
X153518644Y-93872225D01*
X153443337Y-93869278D01*
X153379714Y-93867857D01*
X153129343Y-93863886D01*
X153124444Y-93829241D01*
X153127869Y-93797732D01*
X153138959Y-93782292D01*
X153159692Y-93777977D01*
X153203855Y-93774292D01*
X153265854Y-93771531D01*
X153340091Y-93769988D01*
X153378294Y-93769765D01*
X153598217Y-93769543D01*
X153614151Y-93723834D01*
X153624985Y-93691482D01*
X153630038Y-93673885D01*
X153630086Y-93673377D01*
X153616352Y-93671612D01*
X153578270Y-93669671D01*
X153520518Y-93667718D01*
X153447773Y-93665916D01*
X153379714Y-93664657D01*
X153129343Y-93660686D01*
X153129343Y-93573600D01*
X153357760Y-93569604D01*
X153586178Y-93565608D01*
X153608132Y-93523153D01*
X153623207Y-93491808D01*
X153630049Y-93473256D01*
X153630086Y-93472721D01*
X153616337Y-93470167D01*
X153616337Y-93470167D01*
G37*
X153616337Y-93470167D02*
X153578150Y-93467952D01*
X153520114Y-93466216D01*
X153446820Y-93465101D01*
X153369945Y-93464743D01*
X153109804Y-93464743D01*
X153063873Y-93510674D01*
X153035571Y-93542325D01*
X153024107Y-93570110D01*
X153024832Y-93608085D01*
X153026679Y-93623160D01*
X153032052Y-93670274D01*
X153035131Y-93709244D01*
X153035415Y-93718743D01*
X153033555Y-93750767D01*
X153028886Y-93796568D01*
X153026679Y-93814326D01*
X153023265Y-93857943D01*
X153030680Y-93887255D01*
X153053573Y-93916320D01*
X153063873Y-93926812D01*
X153109804Y-93972743D01*
X153596398Y-93972743D01*
X153613242Y-93935774D01*
X153625718Y-93903941D01*
X153630086Y-93885317D01*
X153616282Y-93880542D01*
X153577714Y-93876079D01*
X153518644Y-93872225D01*
X153443337Y-93869278D01*
X153379714Y-93867857D01*
X153129343Y-93863886D01*
X153124444Y-93829241D01*
X153127869Y-93797732D01*
X153138959Y-93782292D01*
X153159692Y-93777977D01*
X153203855Y-93774292D01*
X153265854Y-93771531D01*
X153340091Y-93769988D01*
X153378294Y-93769765D01*
X153598217Y-93769543D01*
X153614151Y-93723834D01*
X153624985Y-93691482D01*
X153630038Y-93673885D01*
X153630086Y-93673377D01*
X153616352Y-93671612D01*
X153578270Y-93669671D01*
X153520518Y-93667718D01*
X153447773Y-93665916D01*
X153379714Y-93664657D01*
X153129343Y-93660686D01*
X153129343Y-93573600D01*
X153357760Y-93569604D01*
X153586178Y-93565608D01*
X153608132Y-93523153D01*
X153623207Y-93491808D01*
X153630049Y-93473256D01*
X153630086Y-93472721D01*
X153616337Y-93470167D01*
G36*
X153618665Y-93105124D02*
X153599656Y-93063333D01*
X153576622Y-93030531D01*
X153550867Y-93006497D01*
X153517642Y-92989903D01*
X153472200Y-92979423D01*
X153409793Y-92973729D01*
X153325673Y-92971493D01*
X153270279Y-92971257D01*
X153054174Y-92971257D01*
X153037330Y-93008226D01*
X153025019Y-93037344D01*
X153020486Y-93051769D01*
X153033975Y-93054528D01*
X153070347Y-93056718D01*
X153123458Y-93058058D01*
X153165628Y-93058343D01*
X153226553Y-93059566D01*
X153274885Y-93062864D01*
X153304482Y-93067679D01*
X153310771Y-93071504D01*
X153304348Y-93097217D01*
X153287875Y-93137582D01*
X153265542Y-93184321D01*
X153241543Y-93229155D01*
X153220070Y-93263807D01*
X153205315Y-93279998D01*
X153205155Y-93280062D01*
X153177848Y-93278670D01*
X153151781Y-93266182D01*
X153130608Y-93244257D01*
X153123526Y-93212257D01*
X153124351Y-93184908D01*
X153124958Y-93146174D01*
X153115884Y-93125842D01*
X153091908Y-93113631D01*
X153087387Y-93112091D01*
X153053194Y-93106797D01*
X153032432Y-93120953D01*
X153022538Y-93157852D01*
X153020708Y-93197711D01*
X153034273Y-93269438D01*
X153053645Y-93306568D01*
X153099155Y-93352424D01*
X153155017Y-93376744D01*
X153214043Y-93378927D01*
X153269047Y-93358371D01*
X153303514Y-93327451D01*
X153322811Y-93296580D01*
X153347241Y-93248058D01*
X153372015Y-93191515D01*
X153375801Y-93182090D01*
X153403209Y-93119981D01*
X153427366Y-93084178D01*
X153451381Y-93072663D01*
X153478365Y-93083420D01*
X153499457Y-93101886D01*
X153525428Y-93145531D01*
X153527376Y-93193554D01*
X153507363Y-93237594D01*
X153467449Y-93269291D01*
X153457152Y-93273451D01*
X153419276Y-93297673D01*
X153391158Y-93333035D01*
X153368083Y-93377657D01*
X153433515Y-93377657D01*
X153473494Y-93375031D01*
X153505003Y-93363770D01*
X153538622Y-93338801D01*
X153564516Y-93314831D01*
X153601183Y-93277559D01*
X153620879Y-93248599D01*
X153628780Y-93217495D01*
X153630086Y-93182287D01*
X153618665Y-93105124D01*
X153618665Y-93105124D01*
G37*
X153618665Y-93105124D02*
X153599656Y-93063333D01*
X153576622Y-93030531D01*
X153550867Y-93006497D01*
X153517642Y-92989903D01*
X153472200Y-92979423D01*
X153409793Y-92973729D01*
X153325673Y-92971493D01*
X153270279Y-92971257D01*
X153054174Y-92971257D01*
X153037330Y-93008226D01*
X153025019Y-93037344D01*
X153020486Y-93051769D01*
X153033975Y-93054528D01*
X153070347Y-93056718D01*
X153123458Y-93058058D01*
X153165628Y-93058343D01*
X153226553Y-93059566D01*
X153274885Y-93062864D01*
X153304482Y-93067679D01*
X153310771Y-93071504D01*
X153304348Y-93097217D01*
X153287875Y-93137582D01*
X153265542Y-93184321D01*
X153241543Y-93229155D01*
X153220070Y-93263807D01*
X153205315Y-93279998D01*
X153205155Y-93280062D01*
X153177848Y-93278670D01*
X153151781Y-93266182D01*
X153130608Y-93244257D01*
X153123526Y-93212257D01*
X153124351Y-93184908D01*
X153124958Y-93146174D01*
X153115884Y-93125842D01*
X153091908Y-93113631D01*
X153087387Y-93112091D01*
X153053194Y-93106797D01*
X153032432Y-93120953D01*
X153022538Y-93157852D01*
X153020708Y-93197711D01*
X153034273Y-93269438D01*
X153053645Y-93306568D01*
X153099155Y-93352424D01*
X153155017Y-93376744D01*
X153214043Y-93378927D01*
X153269047Y-93358371D01*
X153303514Y-93327451D01*
X153322811Y-93296580D01*
X153347241Y-93248058D01*
X153372015Y-93191515D01*
X153375801Y-93182090D01*
X153403209Y-93119981D01*
X153427366Y-93084178D01*
X153451381Y-93072663D01*
X153478365Y-93083420D01*
X153499457Y-93101886D01*
X153525428Y-93145531D01*
X153527376Y-93193554D01*
X153507363Y-93237594D01*
X153467449Y-93269291D01*
X153457152Y-93273451D01*
X153419276Y-93297673D01*
X153391158Y-93333035D01*
X153368083Y-93377657D01*
X153433515Y-93377657D01*
X153473494Y-93375031D01*
X153505003Y-93363770D01*
X153538622Y-93338801D01*
X153564516Y-93314831D01*
X153601183Y-93277559D01*
X153620879Y-93248599D01*
X153628780Y-93217495D01*
X153630086Y-93182287D01*
X153618665Y-93105124D01*
G36*
X153616248Y-92597400D02*
X153608666Y-92580052D01*
X153575872Y-92538644D01*
X153528453Y-92503235D01*
X153477849Y-92481336D01*
X153452902Y-92477771D01*
X153418073Y-92489721D01*
X153399643Y-92515933D01*
X153388484Y-92544036D01*
X153386428Y-92556905D01*
X153401351Y-92563171D01*
X153433825Y-92575544D01*
X153448498Y-92580972D01*
X153499256Y-92611410D01*
X153524573Y-92655480D01*
X153523794Y-92711990D01*
X153522797Y-92716175D01*
X153508493Y-92746345D01*
X153480607Y-92768524D01*
X153435713Y-92783673D01*
X153370385Y-92792750D01*
X153281196Y-92796714D01*
X153233739Y-92797086D01*
X153158929Y-92797270D01*
X153107931Y-92798478D01*
X153075529Y-92801691D01*
X153056505Y-92807891D01*
X153045644Y-92818060D01*
X153037728Y-92833181D01*
X153037330Y-92834054D01*
X153025019Y-92863172D01*
X153020486Y-92877597D01*
X153034191Y-92879814D01*
X153072075Y-92881711D01*
X153129285Y-92883153D01*
X153200973Y-92884002D01*
X153253435Y-92884171D01*
X153354953Y-92883308D01*
X153431968Y-92879930D01*
X153488977Y-92872858D01*
X153530474Y-92860912D01*
X153560957Y-92842910D01*
X153584920Y-92817673D01*
X153601645Y-92792753D01*
X153623903Y-92732829D01*
X153628924Y-92663089D01*
X153616248Y-92597400D01*
X153616248Y-92597400D01*
G37*
X153616248Y-92597400D02*
X153608666Y-92580052D01*
X153575872Y-92538644D01*
X153528453Y-92503235D01*
X153477849Y-92481336D01*
X153452902Y-92477771D01*
X153418073Y-92489721D01*
X153399643Y-92515933D01*
X153388484Y-92544036D01*
X153386428Y-92556905D01*
X153401351Y-92563171D01*
X153433825Y-92575544D01*
X153448498Y-92580972D01*
X153499256Y-92611410D01*
X153524573Y-92655480D01*
X153523794Y-92711990D01*
X153522797Y-92716175D01*
X153508493Y-92746345D01*
X153480607Y-92768524D01*
X153435713Y-92783673D01*
X153370385Y-92792750D01*
X153281196Y-92796714D01*
X153233739Y-92797086D01*
X153158929Y-92797270D01*
X153107931Y-92798478D01*
X153075529Y-92801691D01*
X153056505Y-92807891D01*
X153045644Y-92818060D01*
X153037728Y-92833181D01*
X153037330Y-92834054D01*
X153025019Y-92863172D01*
X153020486Y-92877597D01*
X153034191Y-92879814D01*
X153072075Y-92881711D01*
X153129285Y-92883153D01*
X153200973Y-92884002D01*
X153253435Y-92884171D01*
X153354953Y-92883308D01*
X153431968Y-92879930D01*
X153488977Y-92872858D01*
X153530474Y-92860912D01*
X153560957Y-92842910D01*
X153584920Y-92817673D01*
X153601645Y-92792753D01*
X153623903Y-92732829D01*
X153628924Y-92663089D01*
X153616248Y-92597400D01*
G36*
X153608034Y-92096405D02*
X153570503Y-92038979D01*
X153536904Y-92011281D01*
X153475936Y-91989338D01*
X153427692Y-91987595D01*
X153363184Y-91991543D01*
X153298066Y-92140314D01*
X153264798Y-92212651D01*
X153238036Y-92259916D01*
X153214856Y-92284493D01*
X153192333Y-92288763D01*
X153167545Y-92275111D01*
X153151114Y-92260057D01*
X153124765Y-92216254D01*
X153122919Y-92168611D01*
X153143454Y-92124855D01*
X153184248Y-92092711D01*
X153198653Y-92086962D01*
X153243644Y-92059424D01*
X153262818Y-92027742D01*
X153279221Y-91984286D01*
X153217034Y-91984286D01*
X153174717Y-91988128D01*
X153139031Y-92003177D01*
X153098057Y-92034720D01*
X153092733Y-92039408D01*
X153056280Y-92074494D01*
X153036717Y-92104653D01*
X153027717Y-92142385D01*
X153024770Y-92173665D01*
X153024035Y-92229615D01*
X153033340Y-92269445D01*
X153047154Y-92294292D01*
X153077533Y-92333344D01*
X153110387Y-92360375D01*
X153151706Y-92377483D01*
X153207479Y-92386762D01*
X153283695Y-92390307D01*
X153322378Y-92390590D01*
X153368753Y-92389628D01*
X153368753Y-92301993D01*
X153343874Y-92300977D01*
X153339800Y-92298444D01*
X153345335Y-92281726D01*
X153359983Y-92245751D01*
X153380810Y-92197669D01*
X153385286Y-92187614D01*
X153416186Y-92126848D01*
X153443343Y-92093368D01*
X153468780Y-92086010D01*
X153494519Y-92103609D01*
X153505891Y-92118144D01*
X153528636Y-92170590D01*
X153524878Y-92219678D01*
X153497116Y-92260773D01*
X153447848Y-92289242D01*
X153408743Y-92298369D01*
X153368753Y-92301993D01*
X153368753Y-92389628D01*
X153412751Y-92388715D01*
X153479616Y-92381804D01*
X153528305Y-92368116D01*
X153564151Y-92345904D01*
X153592487Y-92313426D01*
X153601645Y-92299267D01*
X153625493Y-92234947D01*
X153626994Y-92164527D01*
X153608034Y-92096405D01*
X153608034Y-92096405D01*
G37*
X153608034Y-92096405D02*
X153570503Y-92038979D01*
X153536904Y-92011281D01*
X153475936Y-91989338D01*
X153427692Y-91987595D01*
X153363184Y-91991543D01*
X153298066Y-92140314D01*
X153264798Y-92212651D01*
X153238036Y-92259916D01*
X153214856Y-92284493D01*
X153192333Y-92288763D01*
X153167545Y-92275111D01*
X153151114Y-92260057D01*
X153124765Y-92216254D01*
X153122919Y-92168611D01*
X153143454Y-92124855D01*
X153184248Y-92092711D01*
X153198653Y-92086962D01*
X153243644Y-92059424D01*
X153262818Y-92027742D01*
X153279221Y-91984286D01*
X153217034Y-91984286D01*
X153174717Y-91988128D01*
X153139031Y-92003177D01*
X153098057Y-92034720D01*
X153092733Y-92039408D01*
X153056280Y-92074494D01*
X153036717Y-92104653D01*
X153027717Y-92142385D01*
X153024770Y-92173665D01*
X153024035Y-92229615D01*
X153033340Y-92269445D01*
X153047154Y-92294292D01*
X153077533Y-92333344D01*
X153110387Y-92360375D01*
X153151706Y-92377483D01*
X153207479Y-92386762D01*
X153283695Y-92390307D01*
X153322378Y-92390590D01*
X153368753Y-92389628D01*
X153368753Y-92301993D01*
X153343874Y-92300977D01*
X153339800Y-92298444D01*
X153345335Y-92281726D01*
X153359983Y-92245751D01*
X153380810Y-92197669D01*
X153385286Y-92187614D01*
X153416186Y-92126848D01*
X153443343Y-92093368D01*
X153468780Y-92086010D01*
X153494519Y-92103609D01*
X153505891Y-92118144D01*
X153528636Y-92170590D01*
X153524878Y-92219678D01*
X153497116Y-92260773D01*
X153447848Y-92289242D01*
X153408743Y-92298369D01*
X153368753Y-92301993D01*
X153368753Y-92389628D01*
X153412751Y-92388715D01*
X153479616Y-92381804D01*
X153528305Y-92368116D01*
X153564151Y-92345904D01*
X153592487Y-92313426D01*
X153601645Y-92299267D01*
X153625493Y-92234947D01*
X153626994Y-92164527D01*
X153608034Y-92096405D01*
G36*
X158332652Y-95146090D02*
X158332222Y-95067546D01*
X158331058Y-95010702D01*
X158328793Y-94971895D01*
X158325060Y-94947462D01*
X158319494Y-94933738D01*
X158311727Y-94927060D01*
X158301395Y-94923764D01*
X158300057Y-94923444D01*
X158275921Y-94918438D01*
X158228299Y-94909171D01*
X158162259Y-94896608D01*
X158082872Y-94881713D01*
X157995204Y-94865449D01*
X157992125Y-94864881D01*
X157906211Y-94848590D01*
X157830304Y-94833348D01*
X157768955Y-94820139D01*
X157726718Y-94809946D01*
X157708145Y-94803752D01*
X157707816Y-94803457D01*
X157698747Y-94785212D01*
X157683633Y-94747595D01*
X157665738Y-94698729D01*
X157665642Y-94698457D01*
X157642507Y-94636907D01*
X157613035Y-94564343D01*
X157583403Y-94495943D01*
X157581938Y-94492706D01*
X157531374Y-94381298D01*
X157699840Y-94134601D01*
X157751197Y-94058923D01*
X157797111Y-93990369D01*
X157834970Y-93932912D01*
X157862163Y-93890524D01*
X157876079Y-93867175D01*
X157877111Y-93864958D01*
X157872516Y-93847990D01*
X157850345Y-93816299D01*
X157809553Y-93768648D01*
X157749095Y-93703802D01*
X157684773Y-93637603D01*
X157621388Y-93573786D01*
X157563549Y-93516671D01*
X157514825Y-93469695D01*
X157478790Y-93436297D01*
X157459016Y-93419915D01*
X157457998Y-93419306D01*
X157444428Y-93417495D01*
X157422267Y-93424317D01*
X157388522Y-93441460D01*
X157340200Y-93470607D01*
X157274308Y-93513445D01*
X157189483Y-93570552D01*
X157114823Y-93621234D01*
X157047860Y-93666539D01*
X156992484Y-93703850D01*
X156952580Y-93730548D01*
X156932038Y-93744015D01*
X156930644Y-93744863D01*
X156910962Y-93743219D01*
X156872707Y-93730755D01*
X156823111Y-93709952D01*
X156807272Y-93702538D01*
X156736710Y-93670186D01*
X156656647Y-93635672D01*
X156587371Y-93607635D01*
X156535955Y-93587432D01*
X156496881Y-93571385D01*
X156476459Y-93562112D01*
X156474886Y-93560959D01*
X156472279Y-93543904D01*
X156465137Y-93503702D01*
X156454477Y-93445698D01*
X156441315Y-93375237D01*
X156426667Y-93297665D01*
X156411551Y-93218328D01*
X156396982Y-93142569D01*
X156383978Y-93075736D01*
X156373555Y-93023172D01*
X156366730Y-92990224D01*
X156364801Y-92982143D01*
X156360038Y-92973795D01*
X156349282Y-92967494D01*
X156328902Y-92962955D01*
X156295266Y-92959896D01*
X156244745Y-92958033D01*
X156173708Y-92957082D01*
X156078524Y-92956760D01*
X156039508Y-92956743D01*
X155722201Y-92956743D01*
X155707161Y-93032943D01*
X155699005Y-93075337D01*
X155687101Y-93138600D01*
X155672884Y-93215038D01*
X155657790Y-93296957D01*
X155653645Y-93319600D01*
X155638947Y-93395194D01*
X155624495Y-93461047D01*
X155611625Y-93511634D01*
X155601678Y-93541426D01*
X155598713Y-93546388D01*
X155577717Y-93558574D01*
X155537033Y-93576047D01*
X155484678Y-93595423D01*
X155473400Y-93599266D01*
X155403477Y-93624661D01*
X155324582Y-93656183D01*
X155253734Y-93687031D01*
X155253405Y-93687183D01*
X155142267Y-93738553D01*
X154893747Y-93569601D01*
X154645228Y-93400648D01*
X154427942Y-93617571D01*
X154363274Y-93683181D01*
X154306267Y-93743021D01*
X154259967Y-93793733D01*
X154227416Y-93831954D01*
X154211657Y-93854325D01*
X154210657Y-93857534D01*
X154218531Y-93876374D01*
X154240422Y-93914820D01*
X154273733Y-93968670D01*
X154315869Y-94033724D01*
X154363057Y-94104060D01*
X154411190Y-94175445D01*
X154453072Y-94239092D01*
X154486129Y-94290959D01*
X154507782Y-94327005D01*
X154515457Y-94343133D01*
X154508963Y-94362811D01*
X154491850Y-94400125D01*
X154467674Y-94447379D01*
X154464987Y-94452388D01*
X154433073Y-94516023D01*
X154417421Y-94559659D01*
X154417255Y-94586798D01*
X154431796Y-94600943D01*
X154432000Y-94601025D01*
X154449221Y-94608095D01*
X154490101Y-94624958D01*
X154551475Y-94650305D01*
X154630181Y-94682829D01*
X154723053Y-94721222D01*
X154826928Y-94764178D01*
X154927498Y-94805778D01*
X155038484Y-94851496D01*
X155141297Y-94893474D01*
X155232785Y-94930452D01*
X155309799Y-94961173D01*
X155369185Y-94984378D01*
X155407791Y-94998810D01*
X155422200Y-95003257D01*
X155438728Y-94992104D01*
X155465070Y-94962931D01*
X155494113Y-94924029D01*
X155585961Y-94813243D01*
X155691241Y-94726649D01*
X155807734Y-94665284D01*
X155933224Y-94630185D01*
X156065493Y-94622392D01*
X156126543Y-94628057D01*
X156253205Y-94658922D01*
X156365059Y-94712080D01*
X156460999Y-94784233D01*
X156539924Y-94872083D01*
X156600730Y-94972335D01*
X156642313Y-95081690D01*
X156663572Y-95196853D01*
X156663401Y-95314525D01*
X156640699Y-95431410D01*
X156594362Y-95544211D01*
X156523287Y-95649631D01*
X156483089Y-95693632D01*
X156379871Y-95778021D01*
X156267075Y-95836778D01*
X156147990Y-95870296D01*
X156025905Y-95878965D01*
X155904107Y-95863177D01*
X155785884Y-95823322D01*
X155674525Y-95759793D01*
X155573316Y-95672979D01*
X155494113Y-95575971D01*
X155463838Y-95535563D01*
X155437781Y-95507018D01*
X155422175Y-95496743D01*
X155405157Y-95502123D01*
X155364500Y-95517425D01*
X155303358Y-95541388D01*
X155224881Y-95572756D01*
X155132220Y-95610268D01*
X155028528Y-95652667D01*
X154927474Y-95694337D01*
X154816393Y-95740310D01*
X154713459Y-95782893D01*
X154621835Y-95820779D01*
X154544684Y-95852660D01*
X154485169Y-95877229D01*
X154446456Y-95893180D01*
X154432000Y-95899090D01*
X154417315Y-95913052D01*
X154417358Y-95940060D01*
X154432901Y-95983587D01*
X154464716Y-96047110D01*
X154464987Y-96047612D01*
X154489677Y-96095440D01*
X154507662Y-96134103D01*
X154515386Y-96155905D01*
X154515457Y-96156867D01*
X154507622Y-96173279D01*
X154485835Y-96209513D01*
X154452672Y-96261526D01*
X154410709Y-96325275D01*
X154363057Y-96395940D01*
X154314809Y-96467884D01*
X154272849Y-96532726D01*
X154239773Y-96586265D01*
X154218179Y-96624303D01*
X154210657Y-96642467D01*
X154220543Y-96659192D01*
X154248174Y-96692820D01*
X154290505Y-96739990D01*
X154344495Y-96797342D01*
X154407101Y-96861516D01*
X154428017Y-96882503D01*
X154645377Y-97099501D01*
X154887780Y-96934332D01*
X154962219Y-96884136D01*
X155029028Y-96840081D01*
X155084335Y-96804638D01*
X155124271Y-96780281D01*
X155144964Y-96769478D01*
X155146437Y-96769162D01*
X155165942Y-96774857D01*
X155205178Y-96790174D01*
X155257570Y-96812463D01*
X155292645Y-96828107D01*
X155359799Y-96857359D01*
X155427642Y-96884906D01*
X155484966Y-96906263D01*
X155502428Y-96912065D01*
X155549062Y-96928548D01*
X155585095Y-96944660D01*
X155598713Y-96953510D01*
X155607048Y-96973040D01*
X155618863Y-97015666D01*
X155632819Y-97075855D01*
X155647578Y-97148078D01*
X155653645Y-97180400D01*
X155668727Y-97262478D01*
X155683331Y-97341205D01*
X155696020Y-97408891D01*
X155705358Y-97457840D01*
X155707161Y-97467057D01*
X155722201Y-97543257D01*
X156039508Y-97543257D01*
X156143846Y-97543086D01*
X156222787Y-97542384D01*
X156279962Y-97540866D01*
X156319001Y-97538251D01*
X156343535Y-97534254D01*
X156357195Y-97528591D01*
X156363611Y-97520980D01*
X156364801Y-97517857D01*
X156369020Y-97499022D01*
X156377438Y-97457412D01*
X156389039Y-97398370D01*
X156402805Y-97327243D01*
X156417720Y-97249375D01*
X156432768Y-97170113D01*
X156446931Y-97094802D01*
X156459194Y-97028787D01*
X156468539Y-96977413D01*
X156473950Y-96946025D01*
X156474886Y-96939041D01*
X156487404Y-96932715D01*
X156520754Y-96918710D01*
X156568623Y-96899645D01*
X156587371Y-96892366D01*
X156659805Y-96863004D01*
X156739830Y-96828429D01*
X156807272Y-96797463D01*
X156858841Y-96774677D01*
X156901215Y-96759518D01*
X156927166Y-96754458D01*
X156930644Y-96755264D01*
X156947064Y-96765959D01*
X156983583Y-96790380D01*
X157036313Y-96825905D01*
X157101365Y-96869913D01*
X157174849Y-96919783D01*
X157189355Y-96929644D01*
X157275296Y-96987508D01*
X157340739Y-97030044D01*
X157388696Y-97058946D01*
X157422180Y-97075910D01*
X157444205Y-97082633D01*
X157457783Y-97080810D01*
X157457869Y-97080764D01*
X157475703Y-97066414D01*
X157510183Y-97034677D01*
X157557732Y-96988990D01*
X157614778Y-96932796D01*
X157677745Y-96869532D01*
X157684773Y-96862398D01*
X157761980Y-96782670D01*
X157818670Y-96721143D01*
X157855890Y-96676579D01*
X157874685Y-96647743D01*
X157877111Y-96635042D01*
X157866529Y-96616506D01*
X157842084Y-96578039D01*
X157806388Y-96523614D01*
X157762053Y-96457202D01*
X157711689Y-96382775D01*
X157699840Y-96365399D01*
X157531374Y-96118703D01*
X157581938Y-96007294D01*
X157611405Y-95939543D01*
X157641041Y-95866817D01*
X157664670Y-95804297D01*
X157665642Y-95801543D01*
X157683543Y-95752640D01*
X157698680Y-95714943D01*
X157707790Y-95696575D01*
X157707816Y-95696544D01*
X157724283Y-95690715D01*
X157764781Y-95680808D01*
X157824758Y-95667805D01*
X157899660Y-95652691D01*
X157984936Y-95636448D01*
X157992125Y-95635119D01*
X158079986Y-95618825D01*
X158159740Y-95603867D01*
X158226319Y-95591209D01*
X158274653Y-95581814D01*
X158299675Y-95576646D01*
X158300057Y-95576556D01*
X158310701Y-95573411D01*
X158318738Y-95567296D01*
X158324533Y-95554547D01*
X158328453Y-95531500D01*
X158330865Y-95494491D01*
X158332135Y-95439856D01*
X158332629Y-95363933D01*
X158332714Y-95263056D01*
X158332714Y-95250000D01*
X158332652Y-95146090D01*
X158332652Y-95146090D01*
G37*
X158332652Y-95146090D02*
X158332222Y-95067546D01*
X158331058Y-95010702D01*
X158328793Y-94971895D01*
X158325060Y-94947462D01*
X158319494Y-94933738D01*
X158311727Y-94927060D01*
X158301395Y-94923764D01*
X158300057Y-94923444D01*
X158275921Y-94918438D01*
X158228299Y-94909171D01*
X158162259Y-94896608D01*
X158082872Y-94881713D01*
X157995204Y-94865449D01*
X157992125Y-94864881D01*
X157906211Y-94848590D01*
X157830304Y-94833348D01*
X157768955Y-94820139D01*
X157726718Y-94809946D01*
X157708145Y-94803752D01*
X157707816Y-94803457D01*
X157698747Y-94785212D01*
X157683633Y-94747595D01*
X157665738Y-94698729D01*
X157665642Y-94698457D01*
X157642507Y-94636907D01*
X157613035Y-94564343D01*
X157583403Y-94495943D01*
X157581938Y-94492706D01*
X157531374Y-94381298D01*
X157699840Y-94134601D01*
X157751197Y-94058923D01*
X157797111Y-93990369D01*
X157834970Y-93932912D01*
X157862163Y-93890524D01*
X157876079Y-93867175D01*
X157877111Y-93864958D01*
X157872516Y-93847990D01*
X157850345Y-93816299D01*
X157809553Y-93768648D01*
X157749095Y-93703802D01*
X157684773Y-93637603D01*
X157621388Y-93573786D01*
X157563549Y-93516671D01*
X157514825Y-93469695D01*
X157478790Y-93436297D01*
X157459016Y-93419915D01*
X157457998Y-93419306D01*
X157444428Y-93417495D01*
X157422267Y-93424317D01*
X157388522Y-93441460D01*
X157340200Y-93470607D01*
X157274308Y-93513445D01*
X157189483Y-93570552D01*
X157114823Y-93621234D01*
X157047860Y-93666539D01*
X156992484Y-93703850D01*
X156952580Y-93730548D01*
X156932038Y-93744015D01*
X156930644Y-93744863D01*
X156910962Y-93743219D01*
X156872707Y-93730755D01*
X156823111Y-93709952D01*
X156807272Y-93702538D01*
X156736710Y-93670186D01*
X156656647Y-93635672D01*
X156587371Y-93607635D01*
X156535955Y-93587432D01*
X156496881Y-93571385D01*
X156476459Y-93562112D01*
X156474886Y-93560959D01*
X156472279Y-93543904D01*
X156465137Y-93503702D01*
X156454477Y-93445698D01*
X156441315Y-93375237D01*
X156426667Y-93297665D01*
X156411551Y-93218328D01*
X156396982Y-93142569D01*
X156383978Y-93075736D01*
X156373555Y-93023172D01*
X156366730Y-92990224D01*
X156364801Y-92982143D01*
X156360038Y-92973795D01*
X156349282Y-92967494D01*
X156328902Y-92962955D01*
X156295266Y-92959896D01*
X156244745Y-92958033D01*
X156173708Y-92957082D01*
X156078524Y-92956760D01*
X156039508Y-92956743D01*
X155722201Y-92956743D01*
X155707161Y-93032943D01*
X155699005Y-93075337D01*
X155687101Y-93138600D01*
X155672884Y-93215038D01*
X155657790Y-93296957D01*
X155653645Y-93319600D01*
X155638947Y-93395194D01*
X155624495Y-93461047D01*
X155611625Y-93511634D01*
X155601678Y-93541426D01*
X155598713Y-93546388D01*
X155577717Y-93558574D01*
X155537033Y-93576047D01*
X155484678Y-93595423D01*
X155473400Y-93599266D01*
X155403477Y-93624661D01*
X155324582Y-93656183D01*
X155253734Y-93687031D01*
X155253405Y-93687183D01*
X155142267Y-93738553D01*
X154893747Y-93569601D01*
X154645228Y-93400648D01*
X154427942Y-93617571D01*
X154363274Y-93683181D01*
X154306267Y-93743021D01*
X154259967Y-93793733D01*
X154227416Y-93831954D01*
X154211657Y-93854325D01*
X154210657Y-93857534D01*
X154218531Y-93876374D01*
X154240422Y-93914820D01*
X154273733Y-93968670D01*
X154315869Y-94033724D01*
X154363057Y-94104060D01*
X154411190Y-94175445D01*
X154453072Y-94239092D01*
X154486129Y-94290959D01*
X154507782Y-94327005D01*
X154515457Y-94343133D01*
X154508963Y-94362811D01*
X154491850Y-94400125D01*
X154467674Y-94447379D01*
X154464987Y-94452388D01*
X154433073Y-94516023D01*
X154417421Y-94559659D01*
X154417255Y-94586798D01*
X154431796Y-94600943D01*
X154432000Y-94601025D01*
X154449221Y-94608095D01*
X154490101Y-94624958D01*
X154551475Y-94650305D01*
X154630181Y-94682829D01*
X154723053Y-94721222D01*
X154826928Y-94764178D01*
X154927498Y-94805778D01*
X155038484Y-94851496D01*
X155141297Y-94893474D01*
X155232785Y-94930452D01*
X155309799Y-94961173D01*
X155369185Y-94984378D01*
X155407791Y-94998810D01*
X155422200Y-95003257D01*
X155438728Y-94992104D01*
X155465070Y-94962931D01*
X155494113Y-94924029D01*
X155585961Y-94813243D01*
X155691241Y-94726649D01*
X155807734Y-94665284D01*
X155933224Y-94630185D01*
X156065493Y-94622392D01*
X156126543Y-94628057D01*
X156253205Y-94658922D01*
X156365059Y-94712080D01*
X156460999Y-94784233D01*
X156539924Y-94872083D01*
X156600730Y-94972335D01*
X156642313Y-95081690D01*
X156663572Y-95196853D01*
X156663401Y-95314525D01*
X156640699Y-95431410D01*
X156594362Y-95544211D01*
X156523287Y-95649631D01*
X156483089Y-95693632D01*
X156379871Y-95778021D01*
X156267075Y-95836778D01*
X156147990Y-95870296D01*
X156025905Y-95878965D01*
X155904107Y-95863177D01*
X155785884Y-95823322D01*
X155674525Y-95759793D01*
X155573316Y-95672979D01*
X155494113Y-95575971D01*
X155463838Y-95535563D01*
X155437781Y-95507018D01*
X155422175Y-95496743D01*
X155405157Y-95502123D01*
X155364500Y-95517425D01*
X155303358Y-95541388D01*
X155224881Y-95572756D01*
X155132220Y-95610268D01*
X155028528Y-95652667D01*
X154927474Y-95694337D01*
X154816393Y-95740310D01*
X154713459Y-95782893D01*
X154621835Y-95820779D01*
X154544684Y-95852660D01*
X154485169Y-95877229D01*
X154446456Y-95893180D01*
X154432000Y-95899090D01*
X154417315Y-95913052D01*
X154417358Y-95940060D01*
X154432901Y-95983587D01*
X154464716Y-96047110D01*
X154464987Y-96047612D01*
X154489677Y-96095440D01*
X154507662Y-96134103D01*
X154515386Y-96155905D01*
X154515457Y-96156867D01*
X154507622Y-96173279D01*
X154485835Y-96209513D01*
X154452672Y-96261526D01*
X154410709Y-96325275D01*
X154363057Y-96395940D01*
X154314809Y-96467884D01*
X154272849Y-96532726D01*
X154239773Y-96586265D01*
X154218179Y-96624303D01*
X154210657Y-96642467D01*
X154220543Y-96659192D01*
X154248174Y-96692820D01*
X154290505Y-96739990D01*
X154344495Y-96797342D01*
X154407101Y-96861516D01*
X154428017Y-96882503D01*
X154645377Y-97099501D01*
X154887780Y-96934332D01*
X154962219Y-96884136D01*
X155029028Y-96840081D01*
X155084335Y-96804638D01*
X155124271Y-96780281D01*
X155144964Y-96769478D01*
X155146437Y-96769162D01*
X155165942Y-96774857D01*
X155205178Y-96790174D01*
X155257570Y-96812463D01*
X155292645Y-96828107D01*
X155359799Y-96857359D01*
X155427642Y-96884906D01*
X155484966Y-96906263D01*
X155502428Y-96912065D01*
X155549062Y-96928548D01*
X155585095Y-96944660D01*
X155598713Y-96953510D01*
X155607048Y-96973040D01*
X155618863Y-97015666D01*
X155632819Y-97075855D01*
X155647578Y-97148078D01*
X155653645Y-97180400D01*
X155668727Y-97262478D01*
X155683331Y-97341205D01*
X155696020Y-97408891D01*
X155705358Y-97457840D01*
X155707161Y-97467057D01*
X155722201Y-97543257D01*
X156039508Y-97543257D01*
X156143846Y-97543086D01*
X156222787Y-97542384D01*
X156279962Y-97540866D01*
X156319001Y-97538251D01*
X156343535Y-97534254D01*
X156357195Y-97528591D01*
X156363611Y-97520980D01*
X156364801Y-97517857D01*
X156369020Y-97499022D01*
X156377438Y-97457412D01*
X156389039Y-97398370D01*
X156402805Y-97327243D01*
X156417720Y-97249375D01*
X156432768Y-97170113D01*
X156446931Y-97094802D01*
X156459194Y-97028787D01*
X156468539Y-96977413D01*
X156473950Y-96946025D01*
X156474886Y-96939041D01*
X156487404Y-96932715D01*
X156520754Y-96918710D01*
X156568623Y-96899645D01*
X156587371Y-96892366D01*
X156659805Y-96863004D01*
X156739830Y-96828429D01*
X156807272Y-96797463D01*
X156858841Y-96774677D01*
X156901215Y-96759518D01*
X156927166Y-96754458D01*
X156930644Y-96755264D01*
X156947064Y-96765959D01*
X156983583Y-96790380D01*
X157036313Y-96825905D01*
X157101365Y-96869913D01*
X157174849Y-96919783D01*
X157189355Y-96929644D01*
X157275296Y-96987508D01*
X157340739Y-97030044D01*
X157388696Y-97058946D01*
X157422180Y-97075910D01*
X157444205Y-97082633D01*
X157457783Y-97080810D01*
X157457869Y-97080764D01*
X157475703Y-97066414D01*
X157510183Y-97034677D01*
X157557732Y-96988990D01*
X157614778Y-96932796D01*
X157677745Y-96869532D01*
X157684773Y-96862398D01*
X157761980Y-96782670D01*
X157818670Y-96721143D01*
X157855890Y-96676579D01*
X157874685Y-96647743D01*
X157877111Y-96635042D01*
X157866529Y-96616506D01*
X157842084Y-96578039D01*
X157806388Y-96523614D01*
X157762053Y-96457202D01*
X157711689Y-96382775D01*
X157699840Y-96365399D01*
X157531374Y-96118703D01*
X157581938Y-96007294D01*
X157611405Y-95939543D01*
X157641041Y-95866817D01*
X157664670Y-95804297D01*
X157665642Y-95801543D01*
X157683543Y-95752640D01*
X157698680Y-95714943D01*
X157707790Y-95696575D01*
X157707816Y-95696544D01*
X157724283Y-95690715D01*
X157764781Y-95680808D01*
X157824758Y-95667805D01*
X157899660Y-95652691D01*
X157984936Y-95636448D01*
X157992125Y-95635119D01*
X158079986Y-95618825D01*
X158159740Y-95603867D01*
X158226319Y-95591209D01*
X158274653Y-95581814D01*
X158299675Y-95576646D01*
X158300057Y-95576556D01*
X158310701Y-95573411D01*
X158318738Y-95567296D01*
X158324533Y-95554547D01*
X158328453Y-95531500D01*
X158330865Y-95494491D01*
X158332135Y-95439856D01*
X158332629Y-95363933D01*
X158332714Y-95263056D01*
X158332714Y-95250000D01*
X158332652Y-95146090D01*
G36*
X152557178Y-100487178D02*
X152557178Y-104007971D01*
X153424802Y-104007971D01*
X153424802Y-100487178D01*
X152557178Y-100487178D01*
X152557178Y-100487178D01*
G37*
X152557178Y-100487178D02*
X152557178Y-104007971D01*
X153424802Y-104007971D01*
X153424802Y-100487178D01*
X152557178Y-100487178D01*
G36*
X158510152Y-100110570D02*
X158423069Y-100111189D01*
X157964109Y-100562914D01*
X157505148Y-101014639D01*
X157294529Y-101014968D01*
X157083911Y-101015297D01*
X157083911Y-101290390D01*
X157030470Y-101297478D01*
X157006112Y-101300162D01*
X156960241Y-101304687D01*
X156895595Y-101310809D01*
X156814909Y-101318288D01*
X156720919Y-101326881D01*
X156616363Y-101336346D01*
X156503975Y-101346442D01*
X156386493Y-101356926D01*
X156266652Y-101367556D01*
X156147189Y-101378091D01*
X156030841Y-101388287D01*
X155920343Y-101397905D01*
X155818431Y-101406700D01*
X155727842Y-101414432D01*
X155651313Y-101420858D01*
X155591579Y-101425737D01*
X155551376Y-101428825D01*
X155533441Y-101429883D01*
X155533356Y-101429882D01*
X155518965Y-101422173D01*
X155489252Y-101399019D01*
X155443869Y-101360105D01*
X155382471Y-101305116D01*
X155304712Y-101233736D01*
X155210246Y-101145651D01*
X155098728Y-101040546D01*
X154969812Y-100918105D01*
X154933713Y-100883690D01*
X154361584Y-100337863D01*
X154273564Y-100426119D01*
X154351242Y-100497515D01*
X154379314Y-100523634D01*
X154422726Y-100564434D01*
X154478634Y-100617223D01*
X154544192Y-100679309D01*
X154616559Y-100748000D01*
X154692888Y-100820604D01*
X154738476Y-100864040D01*
X154823881Y-100945584D01*
X154892290Y-101011496D01*
X154944947Y-101063456D01*
X154983095Y-101103145D01*
X155007980Y-101132243D01*
X155020844Y-101152431D01*
X155022932Y-101165390D01*
X155015487Y-101172800D01*
X154999754Y-101176342D01*
X154976977Y-101177697D01*
X154970761Y-101177879D01*
X154927939Y-101187297D01*
X154876181Y-101210503D01*
X154823672Y-101242864D01*
X154778597Y-101279748D01*
X154764672Y-101294507D01*
X154715953Y-101370233D01*
X154688694Y-101458692D01*
X154682227Y-101536900D01*
X154694424Y-101625532D01*
X154730187Y-101707388D01*
X154788278Y-101779836D01*
X154802738Y-101793203D01*
X154858267Y-101842082D01*
X154858267Y-102687674D01*
X154682227Y-102687674D01*
X154682227Y-102914010D01*
X154764469Y-102914010D01*
X154820614Y-102916850D01*
X154859584Y-102926393D01*
X154880781Y-102937991D01*
X154895948Y-102946277D01*
X154917938Y-102953373D01*
X154950013Y-102959748D01*
X154995431Y-102965872D01*
X155057452Y-102972216D01*
X155139338Y-102979250D01*
X155200254Y-102984066D01*
X155485657Y-103006161D01*
X154936195Y-103548565D01*
X154836772Y-103646637D01*
X154741185Y-103740784D01*
X154651190Y-103829285D01*
X154568543Y-103910420D01*
X154494999Y-103982469D01*
X154432316Y-104043712D01*
X154382248Y-104092427D01*
X154346552Y-104126896D01*
X154327005Y-104145379D01*
X154296056Y-104175743D01*
X154274470Y-104201071D01*
X154267277Y-104214695D01*
X154275703Y-104232095D01*
X154296755Y-104257460D01*
X154305329Y-104266058D01*
X154343380Y-104302514D01*
X154547342Y-104101802D01*
X154599301Y-104050596D01*
X154666180Y-103984569D01*
X154745050Y-103906618D01*
X154832986Y-103819638D01*
X154927059Y-103726526D01*
X155024342Y-103630179D01*
X155121907Y-103533492D01*
X155191855Y-103464134D01*
X155298450Y-103358703D01*
X155388693Y-103270129D01*
X155463808Y-103197281D01*
X155525014Y-103139023D01*
X155573534Y-103094225D01*
X155598871Y-103072021D01*
X155598871Y-102893724D01*
X155313445Y-102871401D01*
X155229781Y-102864669D01*
X155153273Y-102858157D01*
X155087919Y-102852234D01*
X155037719Y-102847268D01*
X155006671Y-102843629D01*
X154999727Y-102842458D01*
X154971435Y-102835838D01*
X154971435Y-101886364D01*
X155050394Y-101880026D01*
X155143685Y-101860890D01*
X155226209Y-101820846D01*
X155294962Y-101762418D01*
X155346937Y-101688129D01*
X155378137Y-101604748D01*
X155392772Y-101577698D01*
X155424181Y-101564156D01*
X155425566Y-101563872D01*
X155438826Y-101562247D01*
X155452405Y-101564256D01*
X155468819Y-101571858D01*
X155490589Y-101587016D01*
X155520233Y-101611688D01*
X155560268Y-101647836D01*
X155613215Y-101697420D01*
X155681591Y-101762401D01*
X155685995Y-101766599D01*
X155759389Y-101836493D01*
X155837563Y-101910800D01*
X155915136Y-101984414D01*
X155986725Y-102052229D01*
X156046949Y-102109140D01*
X156060413Y-102121832D01*
X156111180Y-102170487D01*
X156154625Y-102213709D01*
X156187759Y-102248395D01*
X156207595Y-102271444D01*
X156211954Y-102279182D01*
X156202830Y-102290722D01*
X156177800Y-102317710D01*
X156138948Y-102358021D01*
X156088357Y-102409529D01*
X156028112Y-102470109D01*
X155960296Y-102537636D01*
X155904435Y-102592826D01*
X155598871Y-102893724D01*
X155598871Y-103072021D01*
X155610589Y-103061751D01*
X155637401Y-103040471D01*
X155655192Y-103029251D01*
X155663430Y-103026754D01*
X155681410Y-103027700D01*
X155722108Y-103030573D01*
X155783181Y-103035187D01*
X155862287Y-103041358D01*
X155957086Y-103048898D01*
X156065233Y-103057621D01*
X156184388Y-103067343D01*
X156312209Y-103077876D01*
X156414365Y-103086365D01*
X156990326Y-103134396D01*
X156990326Y-103010805D01*
X156977896Y-103010273D01*
X156942890Y-103007769D01*
X156887785Y-103003496D01*
X156815057Y-102997653D01*
X156727186Y-102990443D01*
X156626649Y-102982066D01*
X156515923Y-102972723D01*
X156410795Y-102963758D01*
X156291517Y-102953602D01*
X156178920Y-102944142D01*
X156075695Y-102935596D01*
X155984527Y-102928179D01*
X155908105Y-102922108D01*
X155849117Y-102917601D01*
X155810251Y-102914873D01*
X155795156Y-102914116D01*
X155785762Y-102912935D01*
X155782034Y-102908256D01*
X155785529Y-102898276D01*
X155797801Y-102881190D01*
X155820406Y-102855196D01*
X155854900Y-102818490D01*
X155902838Y-102769267D01*
X155965776Y-102705726D01*
X156033032Y-102638305D01*
X156308523Y-102362601D01*
X156310594Y-102364533D01*
X156310594Y-102182290D01*
X156299220Y-102173984D01*
X156272437Y-102150733D01*
X156232708Y-102114865D01*
X156182493Y-102068713D01*
X156124254Y-102014606D01*
X156060453Y-101954874D01*
X155993551Y-101891848D01*
X155926010Y-101827858D01*
X155860290Y-101765236D01*
X155798854Y-101706310D01*
X155744163Y-101653412D01*
X155698678Y-101608872D01*
X155664862Y-101575020D01*
X155645174Y-101554188D01*
X155641163Y-101548506D01*
X155654109Y-101546634D01*
X155689866Y-101542746D01*
X155746196Y-101537057D01*
X155820860Y-101529781D01*
X155911620Y-101521131D01*
X156016238Y-101511322D01*
X156132474Y-101500566D01*
X156258092Y-101489079D01*
X156359382Y-101479907D01*
X156490721Y-101468174D01*
X156614448Y-101457335D01*
X156728319Y-101447570D01*
X156830089Y-101439063D01*
X156917513Y-101431995D01*
X156988347Y-101426549D01*
X157040347Y-101422908D01*
X157071268Y-101421253D01*
X157079297Y-101421442D01*
X157072146Y-101431334D01*
X157049159Y-101456524D01*
X157012561Y-101494810D01*
X156964578Y-101543989D01*
X156907434Y-101601861D01*
X156843353Y-101666222D01*
X156774562Y-101734871D01*
X156703284Y-101805605D01*
X156631745Y-101876222D01*
X156562170Y-101944520D01*
X156496783Y-102008296D01*
X156437809Y-102065350D01*
X156387473Y-102113478D01*
X156348001Y-102150478D01*
X156321617Y-102174148D01*
X156310594Y-102182290D01*
X156310594Y-102364533D01*
X156418705Y-102465409D01*
X156474623Y-102517768D01*
X156537052Y-102576535D01*
X156603557Y-102639385D01*
X156671702Y-102703995D01*
X156739052Y-102768042D01*
X156803172Y-102829203D01*
X156861628Y-102885153D01*
X156911982Y-102933570D01*
X156951802Y-102972130D01*
X156978650Y-102998509D01*
X156990092Y-103010384D01*
X156990326Y-103010805D01*
X156990326Y-103134396D01*
X157134274Y-103146401D01*
X157765842Y-103746938D01*
X158397411Y-104347475D01*
X158485685Y-104347034D01*
X158573960Y-104346592D01*
X158470334Y-104249583D01*
X158412537Y-104195291D01*
X158344632Y-104131192D01*
X158268428Y-104059016D01*
X158185731Y-103980492D01*
X158098347Y-103897349D01*
X158008085Y-103811319D01*
X157916750Y-103724130D01*
X157826151Y-103637513D01*
X157738093Y-103553197D01*
X157654385Y-103472912D01*
X157576833Y-103398387D01*
X157507243Y-103331354D01*
X157447424Y-103273541D01*
X157399182Y-103226679D01*
X157364324Y-103192496D01*
X157344657Y-103172724D01*
X157340884Y-103168390D01*
X157354008Y-103168092D01*
X157387611Y-103169731D01*
X157437120Y-103173023D01*
X157497963Y-103177682D01*
X157522268Y-103179682D01*
X157700049Y-103194577D01*
X157700049Y-103077955D01*
X157671757Y-103071934D01*
X157649382Y-103068863D01*
X157607283Y-103064548D01*
X157550822Y-103059488D01*
X157485365Y-103054181D01*
X157461138Y-103052344D01*
X157391579Y-103046927D01*
X157326982Y-103041459D01*
X157273452Y-103036488D01*
X157237090Y-103032561D01*
X157230491Y-103031675D01*
X157216944Y-103028334D01*
X157201086Y-103021101D01*
X157181139Y-103008440D01*
X157155327Y-102988811D01*
X157121871Y-102960678D01*
X157078993Y-102922502D01*
X157024917Y-102872746D01*
X156957864Y-102809871D01*
X156876057Y-102732341D01*
X156793050Y-102653251D01*
X156710906Y-102574564D01*
X156634831Y-102501112D01*
X156566675Y-102434724D01*
X156508288Y-102377227D01*
X156461519Y-102330451D01*
X156428218Y-102296224D01*
X156410233Y-102276373D01*
X156407558Y-102272140D01*
X156417259Y-102261003D01*
X156442559Y-102234971D01*
X156480918Y-102196570D01*
X156529800Y-102148328D01*
X156586666Y-102092770D01*
X156628094Y-102052592D01*
X156845000Y-101842831D01*
X156845000Y-102461337D01*
X157083911Y-102461337D01*
X157083911Y-101706881D01*
X156977458Y-101706881D01*
X157115346Y-101568565D01*
X157213160Y-101470447D01*
X157213160Y-101279357D01*
X157197730Y-101277529D01*
X157189133Y-101268277D01*
X157185387Y-101245950D01*
X157184511Y-101204895D01*
X157184505Y-101197624D01*
X157184505Y-101115891D01*
X157403828Y-101115891D01*
X157322821Y-101197624D01*
X157273572Y-101243730D01*
X157235841Y-101271306D01*
X157213160Y-101279357D01*
X157213160Y-101470447D01*
X157253234Y-101430248D01*
X157376048Y-101430248D01*
X157432550Y-101429863D01*
X157468495Y-101428100D01*
X157488470Y-101424050D01*
X157497063Y-101416801D01*
X157498861Y-101405870D01*
X157501502Y-101393712D01*
X157512088Y-101384727D01*
X157534619Y-101377826D01*
X157573091Y-101371924D01*
X157631502Y-101365935D01*
X157652896Y-101364013D01*
X157700049Y-101359852D01*
X157700049Y-103077955D01*
X157700049Y-103194577D01*
X157700049Y-103354109D01*
X157813218Y-103354109D01*
X157813218Y-103286314D01*
X157814304Y-103246662D01*
X157819546Y-103225116D01*
X157822666Y-103222480D01*
X157822666Y-103083616D01*
X157815538Y-103076308D01*
X157813338Y-103050993D01*
X157813218Y-103033908D01*
X157813218Y-102976881D01*
X157813218Y-102764221D01*
X157813218Y-101349698D01*
X157862214Y-101397542D01*
X157922676Y-101471850D01*
X157969309Y-101563816D01*
X158002751Y-101674998D01*
X158021247Y-101785471D01*
X158029878Y-101857773D01*
X157938960Y-101857773D01*
X157938960Y-102436188D01*
X158042107Y-102436188D01*
X158033504Y-102521065D01*
X158026244Y-102580368D01*
X158016621Y-102643551D01*
X158009748Y-102681386D01*
X157994593Y-102756832D01*
X157903905Y-102760526D01*
X157813218Y-102764221D01*
X157813218Y-102976881D01*
X157863515Y-102976881D01*
X157895024Y-102978544D01*
X157912537Y-102982697D01*
X157913812Y-102984371D01*
X157905746Y-103002987D01*
X157886180Y-103030183D01*
X157862056Y-103057448D01*
X157840318Y-103076267D01*
X157837492Y-103077943D01*
X157822666Y-103083616D01*
X157822666Y-103222480D01*
X157831919Y-103214662D01*
X157845396Y-103210442D01*
X157880373Y-103193219D01*
X157922421Y-103160138D01*
X157965644Y-103116893D01*
X158004146Y-103069174D01*
X158024199Y-103037830D01*
X158046149Y-103002123D01*
X158064589Y-102983819D01*
X158086332Y-102977388D01*
X158099282Y-102976894D01*
X158102425Y-102976894D01*
X158102425Y-102335594D01*
X158039554Y-102335594D01*
X158039554Y-101958367D01*
X158102425Y-101958367D01*
X158102425Y-102335594D01*
X158102425Y-102976894D01*
X158140148Y-102976881D01*
X158140148Y-102871048D01*
X158138971Y-102822355D01*
X158135835Y-102784405D01*
X158131329Y-102763308D01*
X158129505Y-102761023D01*
X158126705Y-102747641D01*
X158127852Y-102715074D01*
X158132607Y-102668916D01*
X158136997Y-102637376D01*
X158145622Y-102580188D01*
X158153409Y-102527886D01*
X158159153Y-102488582D01*
X158160785Y-102477055D01*
X158170112Y-102446937D01*
X158184728Y-102436188D01*
X158190680Y-102432920D01*
X158195222Y-102421230D01*
X158198530Y-102398288D01*
X158200785Y-102361265D01*
X158202166Y-102307332D01*
X158202850Y-102233660D01*
X158203020Y-102146980D01*
X158202923Y-102054471D01*
X158202470Y-101984094D01*
X158201410Y-101932836D01*
X158199497Y-101897680D01*
X158196481Y-101875611D01*
X158192115Y-101863615D01*
X158186151Y-101858676D01*
X158179216Y-101857773D01*
X158157205Y-101850079D01*
X158144679Y-101824879D01*
X158140212Y-101778991D01*
X158140148Y-101770736D01*
X158132132Y-101693027D01*
X158110064Y-101604767D01*
X158076916Y-101513915D01*
X158035661Y-101428430D01*
X157989269Y-101356274D01*
X157981918Y-101346928D01*
X157958002Y-101316467D01*
X157948424Y-101298428D01*
X157951520Y-101285831D01*
X157964296Y-101272900D01*
X157989322Y-101234707D01*
X157998929Y-101185002D01*
X157993933Y-101131476D01*
X157975149Y-101081822D01*
X157943394Y-101043733D01*
X157939703Y-101040975D01*
X157880425Y-101012474D01*
X157819066Y-101007172D01*
X157760573Y-101024482D01*
X157709896Y-101063820D01*
X157705711Y-101068630D01*
X157685833Y-101096560D01*
X157677079Y-101124898D01*
X157676447Y-101164737D01*
X157677008Y-101174689D01*
X157678438Y-101213668D01*
X157675161Y-101233746D01*
X157665272Y-101241015D01*
X157656039Y-101241760D01*
X157629256Y-101243284D01*
X157588975Y-101247065D01*
X157564876Y-101249782D01*
X157526599Y-101253723D01*
X157507004Y-101252084D01*
X157499842Y-101242579D01*
X157498861Y-101225649D01*
X157502099Y-101215608D01*
X157512580Y-101199410D01*
X157531452Y-101175855D01*
X157559865Y-101143743D01*
X157598965Y-101101872D01*
X157649903Y-101049043D01*
X157713827Y-100984055D01*
X157791886Y-100905709D01*
X157885228Y-100812803D01*
X157995002Y-100704137D01*
X158048048Y-100651769D01*
X158597233Y-100109951D01*
X158510152Y-100110570D01*
X158510152Y-100110570D01*
G37*
X158510152Y-100110570D02*
X158423069Y-100111189D01*
X157964109Y-100562914D01*
X157505148Y-101014639D01*
X157294529Y-101014968D01*
X157083911Y-101015297D01*
X157083911Y-101290390D01*
X157030470Y-101297478D01*
X157006112Y-101300162D01*
X156960241Y-101304687D01*
X156895595Y-101310809D01*
X156814909Y-101318288D01*
X156720919Y-101326881D01*
X156616363Y-101336346D01*
X156503975Y-101346442D01*
X156386493Y-101356926D01*
X156266652Y-101367556D01*
X156147189Y-101378091D01*
X156030841Y-101388287D01*
X155920343Y-101397905D01*
X155818431Y-101406700D01*
X155727842Y-101414432D01*
X155651313Y-101420858D01*
X155591579Y-101425737D01*
X155551376Y-101428825D01*
X155533441Y-101429883D01*
X155533356Y-101429882D01*
X155518965Y-101422173D01*
X155489252Y-101399019D01*
X155443869Y-101360105D01*
X155382471Y-101305116D01*
X155304712Y-101233736D01*
X155210246Y-101145651D01*
X155098728Y-101040546D01*
X154969812Y-100918105D01*
X154933713Y-100883690D01*
X154361584Y-100337863D01*
X154273564Y-100426119D01*
X154351242Y-100497515D01*
X154379314Y-100523634D01*
X154422726Y-100564434D01*
X154478634Y-100617223D01*
X154544192Y-100679309D01*
X154616559Y-100748000D01*
X154692888Y-100820604D01*
X154738476Y-100864040D01*
X154823881Y-100945584D01*
X154892290Y-101011496D01*
X154944947Y-101063456D01*
X154983095Y-101103145D01*
X155007980Y-101132243D01*
X155020844Y-101152431D01*
X155022932Y-101165390D01*
X155015487Y-101172800D01*
X154999754Y-101176342D01*
X154976977Y-101177697D01*
X154970761Y-101177879D01*
X154927939Y-101187297D01*
X154876181Y-101210503D01*
X154823672Y-101242864D01*
X154778597Y-101279748D01*
X154764672Y-101294507D01*
X154715953Y-101370233D01*
X154688694Y-101458692D01*
X154682227Y-101536900D01*
X154694424Y-101625532D01*
X154730187Y-101707388D01*
X154788278Y-101779836D01*
X154802738Y-101793203D01*
X154858267Y-101842082D01*
X154858267Y-102687674D01*
X154682227Y-102687674D01*
X154682227Y-102914010D01*
X154764469Y-102914010D01*
X154820614Y-102916850D01*
X154859584Y-102926393D01*
X154880781Y-102937991D01*
X154895948Y-102946277D01*
X154917938Y-102953373D01*
X154950013Y-102959748D01*
X154995431Y-102965872D01*
X155057452Y-102972216D01*
X155139338Y-102979250D01*
X155200254Y-102984066D01*
X155485657Y-103006161D01*
X154936195Y-103548565D01*
X154836772Y-103646637D01*
X154741185Y-103740784D01*
X154651190Y-103829285D01*
X154568543Y-103910420D01*
X154494999Y-103982469D01*
X154432316Y-104043712D01*
X154382248Y-104092427D01*
X154346552Y-104126896D01*
X154327005Y-104145379D01*
X154296056Y-104175743D01*
X154274470Y-104201071D01*
X154267277Y-104214695D01*
X154275703Y-104232095D01*
X154296755Y-104257460D01*
X154305329Y-104266058D01*
X154343380Y-104302514D01*
X154547342Y-104101802D01*
X154599301Y-104050596D01*
X154666180Y-103984569D01*
X154745050Y-103906618D01*
X154832986Y-103819638D01*
X154927059Y-103726526D01*
X155024342Y-103630179D01*
X155121907Y-103533492D01*
X155191855Y-103464134D01*
X155298450Y-103358703D01*
X155388693Y-103270129D01*
X155463808Y-103197281D01*
X155525014Y-103139023D01*
X155573534Y-103094225D01*
X155598871Y-103072021D01*
X155598871Y-102893724D01*
X155313445Y-102871401D01*
X155229781Y-102864669D01*
X155153273Y-102858157D01*
X155087919Y-102852234D01*
X155037719Y-102847268D01*
X155006671Y-102843629D01*
X154999727Y-102842458D01*
X154971435Y-102835838D01*
X154971435Y-101886364D01*
X155050394Y-101880026D01*
X155143685Y-101860890D01*
X155226209Y-101820846D01*
X155294962Y-101762418D01*
X155346937Y-101688129D01*
X155378137Y-101604748D01*
X155392772Y-101577698D01*
X155424181Y-101564156D01*
X155425566Y-101563872D01*
X155438826Y-101562247D01*
X155452405Y-101564256D01*
X155468819Y-101571858D01*
X155490589Y-101587016D01*
X155520233Y-101611688D01*
X155560268Y-101647836D01*
X155613215Y-101697420D01*
X155681591Y-101762401D01*
X155685995Y-101766599D01*
X155759389Y-101836493D01*
X155837563Y-101910800D01*
X155915136Y-101984414D01*
X155986725Y-102052229D01*
X156046949Y-102109140D01*
X156060413Y-102121832D01*
X156111180Y-102170487D01*
X156154625Y-102213709D01*
X156187759Y-102248395D01*
X156207595Y-102271444D01*
X156211954Y-102279182D01*
X156202830Y-102290722D01*
X156177800Y-102317710D01*
X156138948Y-102358021D01*
X156088357Y-102409529D01*
X156028112Y-102470109D01*
X155960296Y-102537636D01*
X155904435Y-102592826D01*
X155598871Y-102893724D01*
X155598871Y-103072021D01*
X155610589Y-103061751D01*
X155637401Y-103040471D01*
X155655192Y-103029251D01*
X155663430Y-103026754D01*
X155681410Y-103027700D01*
X155722108Y-103030573D01*
X155783181Y-103035187D01*
X155862287Y-103041358D01*
X155957086Y-103048898D01*
X156065233Y-103057621D01*
X156184388Y-103067343D01*
X156312209Y-103077876D01*
X156414365Y-103086365D01*
X156990326Y-103134396D01*
X156990326Y-103010805D01*
X156977896Y-103010273D01*
X156942890Y-103007769D01*
X156887785Y-103003496D01*
X156815057Y-102997653D01*
X156727186Y-102990443D01*
X156626649Y-102982066D01*
X156515923Y-102972723D01*
X156410795Y-102963758D01*
X156291517Y-102953602D01*
X156178920Y-102944142D01*
X156075695Y-102935596D01*
X155984527Y-102928179D01*
X155908105Y-102922108D01*
X155849117Y-102917601D01*
X155810251Y-102914873D01*
X155795156Y-102914116D01*
X155785762Y-102912935D01*
X155782034Y-102908256D01*
X155785529Y-102898276D01*
X155797801Y-102881190D01*
X155820406Y-102855196D01*
X155854900Y-102818490D01*
X155902838Y-102769267D01*
X155965776Y-102705726D01*
X156033032Y-102638305D01*
X156308523Y-102362601D01*
X156310594Y-102364533D01*
X156310594Y-102182290D01*
X156299220Y-102173984D01*
X156272437Y-102150733D01*
X156232708Y-102114865D01*
X156182493Y-102068713D01*
X156124254Y-102014606D01*
X156060453Y-101954874D01*
X155993551Y-101891848D01*
X155926010Y-101827858D01*
X155860290Y-101765236D01*
X155798854Y-101706310D01*
X155744163Y-101653412D01*
X155698678Y-101608872D01*
X155664862Y-101575020D01*
X155645174Y-101554188D01*
X155641163Y-101548506D01*
X155654109Y-101546634D01*
X155689866Y-101542746D01*
X155746196Y-101537057D01*
X155820860Y-101529781D01*
X155911620Y-101521131D01*
X156016238Y-101511322D01*
X156132474Y-101500566D01*
X156258092Y-101489079D01*
X156359382Y-101479907D01*
X156490721Y-101468174D01*
X156614448Y-101457335D01*
X156728319Y-101447570D01*
X156830089Y-101439063D01*
X156917513Y-101431995D01*
X156988347Y-101426549D01*
X157040347Y-101422908D01*
X157071268Y-101421253D01*
X157079297Y-101421442D01*
X157072146Y-101431334D01*
X157049159Y-101456524D01*
X157012561Y-101494810D01*
X156964578Y-101543989D01*
X156907434Y-101601861D01*
X156843353Y-101666222D01*
X156774562Y-101734871D01*
X156703284Y-101805605D01*
X156631745Y-101876222D01*
X156562170Y-101944520D01*
X156496783Y-102008296D01*
X156437809Y-102065350D01*
X156387473Y-102113478D01*
X156348001Y-102150478D01*
X156321617Y-102174148D01*
X156310594Y-102182290D01*
X156310594Y-102364533D01*
X156418705Y-102465409D01*
X156474623Y-102517768D01*
X156537052Y-102576535D01*
X156603557Y-102639385D01*
X156671702Y-102703995D01*
X156739052Y-102768042D01*
X156803172Y-102829203D01*
X156861628Y-102885153D01*
X156911982Y-102933570D01*
X156951802Y-102972130D01*
X156978650Y-102998509D01*
X156990092Y-103010384D01*
X156990326Y-103010805D01*
X156990326Y-103134396D01*
X157134274Y-103146401D01*
X157765842Y-103746938D01*
X158397411Y-104347475D01*
X158485685Y-104347034D01*
X158573960Y-104346592D01*
X158470334Y-104249583D01*
X158412537Y-104195291D01*
X158344632Y-104131192D01*
X158268428Y-104059016D01*
X158185731Y-103980492D01*
X158098347Y-103897349D01*
X158008085Y-103811319D01*
X157916750Y-103724130D01*
X157826151Y-103637513D01*
X157738093Y-103553197D01*
X157654385Y-103472912D01*
X157576833Y-103398387D01*
X157507243Y-103331354D01*
X157447424Y-103273541D01*
X157399182Y-103226679D01*
X157364324Y-103192496D01*
X157344657Y-103172724D01*
X157340884Y-103168390D01*
X157354008Y-103168092D01*
X157387611Y-103169731D01*
X157437120Y-103173023D01*
X157497963Y-103177682D01*
X157522268Y-103179682D01*
X157700049Y-103194577D01*
X157700049Y-103077955D01*
X157671757Y-103071934D01*
X157649382Y-103068863D01*
X157607283Y-103064548D01*
X157550822Y-103059488D01*
X157485365Y-103054181D01*
X157461138Y-103052344D01*
X157391579Y-103046927D01*
X157326982Y-103041459D01*
X157273452Y-103036488D01*
X157237090Y-103032561D01*
X157230491Y-103031675D01*
X157216944Y-103028334D01*
X157201086Y-103021101D01*
X157181139Y-103008440D01*
X157155327Y-102988811D01*
X157121871Y-102960678D01*
X157078993Y-102922502D01*
X157024917Y-102872746D01*
X156957864Y-102809871D01*
X156876057Y-102732341D01*
X156793050Y-102653251D01*
X156710906Y-102574564D01*
X156634831Y-102501112D01*
X156566675Y-102434724D01*
X156508288Y-102377227D01*
X156461519Y-102330451D01*
X156428218Y-102296224D01*
X156410233Y-102276373D01*
X156407558Y-102272140D01*
X156417259Y-102261003D01*
X156442559Y-102234971D01*
X156480918Y-102196570D01*
X156529800Y-102148328D01*
X156586666Y-102092770D01*
X156628094Y-102052592D01*
X156845000Y-101842831D01*
X156845000Y-102461337D01*
X157083911Y-102461337D01*
X157083911Y-101706881D01*
X156977458Y-101706881D01*
X157115346Y-101568565D01*
X157213160Y-101470447D01*
X157213160Y-101279357D01*
X157197730Y-101277529D01*
X157189133Y-101268277D01*
X157185387Y-101245950D01*
X157184511Y-101204895D01*
X157184505Y-101197624D01*
X157184505Y-101115891D01*
X157403828Y-101115891D01*
X157322821Y-101197624D01*
X157273572Y-101243730D01*
X157235841Y-101271306D01*
X157213160Y-101279357D01*
X157213160Y-101470447D01*
X157253234Y-101430248D01*
X157376048Y-101430248D01*
X157432550Y-101429863D01*
X157468495Y-101428100D01*
X157488470Y-101424050D01*
X157497063Y-101416801D01*
X157498861Y-101405870D01*
X157501502Y-101393712D01*
X157512088Y-101384727D01*
X157534619Y-101377826D01*
X157573091Y-101371924D01*
X157631502Y-101365935D01*
X157652896Y-101364013D01*
X157700049Y-101359852D01*
X157700049Y-103077955D01*
X157700049Y-103194577D01*
X157700049Y-103354109D01*
X157813218Y-103354109D01*
X157813218Y-103286314D01*
X157814304Y-103246662D01*
X157819546Y-103225116D01*
X157822666Y-103222480D01*
X157822666Y-103083616D01*
X157815538Y-103076308D01*
X157813338Y-103050993D01*
X157813218Y-103033908D01*
X157813218Y-102976881D01*
X157813218Y-102764221D01*
X157813218Y-101349698D01*
X157862214Y-101397542D01*
X157922676Y-101471850D01*
X157969309Y-101563816D01*
X158002751Y-101674998D01*
X158021247Y-101785471D01*
X158029878Y-101857773D01*
X157938960Y-101857773D01*
X157938960Y-102436188D01*
X158042107Y-102436188D01*
X158033504Y-102521065D01*
X158026244Y-102580368D01*
X158016621Y-102643551D01*
X158009748Y-102681386D01*
X157994593Y-102756832D01*
X157903905Y-102760526D01*
X157813218Y-102764221D01*
X157813218Y-102976881D01*
X157863515Y-102976881D01*
X157895024Y-102978544D01*
X157912537Y-102982697D01*
X157913812Y-102984371D01*
X157905746Y-103002987D01*
X157886180Y-103030183D01*
X157862056Y-103057448D01*
X157840318Y-103076267D01*
X157837492Y-103077943D01*
X157822666Y-103083616D01*
X157822666Y-103222480D01*
X157831919Y-103214662D01*
X157845396Y-103210442D01*
X157880373Y-103193219D01*
X157922421Y-103160138D01*
X157965644Y-103116893D01*
X158004146Y-103069174D01*
X158024199Y-103037830D01*
X158046149Y-103002123D01*
X158064589Y-102983819D01*
X158086332Y-102977388D01*
X158099282Y-102976894D01*
X158102425Y-102976894D01*
X158102425Y-102335594D01*
X158039554Y-102335594D01*
X158039554Y-101958367D01*
X158102425Y-101958367D01*
X158102425Y-102335594D01*
X158102425Y-102976894D01*
X158140148Y-102976881D01*
X158140148Y-102871048D01*
X158138971Y-102822355D01*
X158135835Y-102784405D01*
X158131329Y-102763308D01*
X158129505Y-102761023D01*
X158126705Y-102747641D01*
X158127852Y-102715074D01*
X158132607Y-102668916D01*
X158136997Y-102637376D01*
X158145622Y-102580188D01*
X158153409Y-102527886D01*
X158159153Y-102488582D01*
X158160785Y-102477055D01*
X158170112Y-102446937D01*
X158184728Y-102436188D01*
X158190680Y-102432920D01*
X158195222Y-102421230D01*
X158198530Y-102398288D01*
X158200785Y-102361265D01*
X158202166Y-102307332D01*
X158202850Y-102233660D01*
X158203020Y-102146980D01*
X158202923Y-102054471D01*
X158202470Y-101984094D01*
X158201410Y-101932836D01*
X158199497Y-101897680D01*
X158196481Y-101875611D01*
X158192115Y-101863615D01*
X158186151Y-101858676D01*
X158179216Y-101857773D01*
X158157205Y-101850079D01*
X158144679Y-101824879D01*
X158140212Y-101778991D01*
X158140148Y-101770736D01*
X158132132Y-101693027D01*
X158110064Y-101604767D01*
X158076916Y-101513915D01*
X158035661Y-101428430D01*
X157989269Y-101356274D01*
X157981918Y-101346928D01*
X157958002Y-101316467D01*
X157948424Y-101298428D01*
X157951520Y-101285831D01*
X157964296Y-101272900D01*
X157989322Y-101234707D01*
X157998929Y-101185002D01*
X157993933Y-101131476D01*
X157975149Y-101081822D01*
X157943394Y-101043733D01*
X157939703Y-101040975D01*
X157880425Y-101012474D01*
X157819066Y-101007172D01*
X157760573Y-101024482D01*
X157709896Y-101063820D01*
X157705711Y-101068630D01*
X157685833Y-101096560D01*
X157677079Y-101124898D01*
X157676447Y-101164737D01*
X157677008Y-101174689D01*
X157678438Y-101213668D01*
X157675161Y-101233746D01*
X157665272Y-101241015D01*
X157656039Y-101241760D01*
X157629256Y-101243284D01*
X157588975Y-101247065D01*
X157564876Y-101249782D01*
X157526599Y-101253723D01*
X157507004Y-101252084D01*
X157499842Y-101242579D01*
X157498861Y-101225649D01*
X157502099Y-101215608D01*
X157512580Y-101199410D01*
X157531452Y-101175855D01*
X157559865Y-101143743D01*
X157598965Y-101101872D01*
X157649903Y-101049043D01*
X157713827Y-100984055D01*
X157791886Y-100905709D01*
X157885228Y-100812803D01*
X157995002Y-100704137D01*
X158048048Y-100651769D01*
X158597233Y-100109951D01*
X158510152Y-100110570D01*
G36*
X159164749Y-86379890D02*
X159164561Y-86197350D01*
X159164163Y-86043433D01*
X159163480Y-85915517D01*
X159162433Y-85810979D01*
X159160947Y-85727198D01*
X159158945Y-85661552D01*
X159156351Y-85611419D01*
X159153086Y-85574176D01*
X159149076Y-85547203D01*
X159144243Y-85527877D01*
X159138511Y-85513575D01*
X159132940Y-85503517D01*
X159081721Y-85448056D01*
X159016215Y-85419877D01*
X158944115Y-85422062D01*
X158935676Y-85424422D01*
X158903103Y-85438467D01*
X158846819Y-85467053D01*
X158771431Y-85507512D01*
X158681551Y-85557180D01*
X158581789Y-85613391D01*
X158476753Y-85673478D01*
X158371055Y-85734776D01*
X158269304Y-85794619D01*
X158176111Y-85850341D01*
X158096084Y-85899276D01*
X158033834Y-85938759D01*
X157993971Y-85966123D01*
X157982927Y-85975388D01*
X157970774Y-85990129D01*
X157961405Y-86008232D01*
X157954267Y-86034359D01*
X157948809Y-86073171D01*
X157944479Y-86129328D01*
X157940724Y-86207493D01*
X157936993Y-86312326D01*
X157934785Y-86381971D01*
X157931156Y-86489403D01*
X157927392Y-86584448D01*
X157923730Y-86662243D01*
X157920409Y-86717924D01*
X157917668Y-86746626D01*
X157916759Y-86749467D01*
X157900590Y-86741446D01*
X157860302Y-86719317D01*
X157801065Y-86685977D01*
X157728047Y-86644324D01*
X157682693Y-86618234D01*
X157455232Y-86487000D01*
X157454600Y-85706372D01*
X157838228Y-85487746D01*
X157943902Y-85426762D01*
X158041541Y-85368976D01*
X158126703Y-85317131D01*
X158194946Y-85273969D01*
X158241828Y-85242235D01*
X158261562Y-85226300D01*
X158301267Y-85183480D01*
X158301267Y-83047710D01*
X158245427Y-82993589D01*
X158217775Y-82968388D01*
X158191227Y-82950334D01*
X158162463Y-82940518D01*
X158128166Y-82940033D01*
X158085016Y-82949970D01*
X158029693Y-82971423D01*
X157958879Y-83005483D01*
X157869256Y-83053244D01*
X157757503Y-83115797D01*
X157620302Y-83194234D01*
X157599532Y-83206167D01*
X157456455Y-83289041D01*
X157341042Y-83357413D01*
X157251069Y-83412708D01*
X157184315Y-83456352D01*
X157138556Y-83489771D01*
X157111569Y-83514391D01*
X157104530Y-83523667D01*
X157093780Y-83545408D01*
X157085459Y-83574046D01*
X157079091Y-83614442D01*
X157074198Y-83671458D01*
X157070304Y-83749955D01*
X157066931Y-83854795D01*
X157065133Y-83925101D01*
X157056667Y-84275736D01*
X156823834Y-84139364D01*
X156591000Y-84002992D01*
X156588846Y-83695596D01*
X156587479Y-83579717D01*
X156585103Y-83459435D01*
X156581992Y-83345366D01*
X156578418Y-83248125D01*
X156576146Y-83201934D01*
X156565600Y-83015667D01*
X156472467Y-82954162D01*
X156431988Y-82928554D01*
X156367426Y-82889078D01*
X156283994Y-82838859D01*
X156186905Y-82781022D01*
X156081373Y-82718690D01*
X155999233Y-82670529D01*
X155880171Y-82601346D01*
X155786168Y-82547840D01*
X155713338Y-82508100D01*
X155657799Y-82480219D01*
X155615665Y-82462285D01*
X155583053Y-82452390D01*
X155556078Y-82448624D01*
X155547401Y-82448400D01*
X155529657Y-82449931D01*
X155507436Y-82455354D01*
X155478418Y-82465909D01*
X155440280Y-82482839D01*
X155390702Y-82507387D01*
X155327363Y-82540796D01*
X155247941Y-82584306D01*
X155150117Y-82639160D01*
X155031567Y-82706602D01*
X154889973Y-82787872D01*
X154723011Y-82884214D01*
X154598235Y-82956403D01*
X154433647Y-83052099D01*
X154278883Y-83142873D01*
X154136459Y-83227202D01*
X154008890Y-83303561D01*
X153898691Y-83370427D01*
X153808377Y-83426277D01*
X153740464Y-83469586D01*
X153697466Y-83498831D01*
X153682784Y-83510970D01*
X153651185Y-83574710D01*
X153647619Y-83647422D01*
X153672316Y-83717760D01*
X153693142Y-83739655D01*
X153736955Y-83772737D01*
X153805179Y-83817917D01*
X153899237Y-83876102D01*
X154020553Y-83948201D01*
X154160600Y-84029406D01*
X154293483Y-84105445D01*
X154400634Y-84165846D01*
X154485420Y-84212291D01*
X154551211Y-84246465D01*
X154601375Y-84270052D01*
X154639281Y-84284735D01*
X154668296Y-84292197D01*
X154690217Y-84294133D01*
X154722332Y-84290971D01*
X154760438Y-84279943D01*
X154809621Y-84258738D01*
X154874966Y-84225046D01*
X154961557Y-84176555D01*
X155008350Y-84149558D01*
X155094574Y-84099689D01*
X155173919Y-84054130D01*
X155240320Y-84016336D01*
X155287713Y-83989766D01*
X155306150Y-83979790D01*
X155354867Y-83954597D01*
X155354604Y-84230199D01*
X155354342Y-84505800D01*
X154969371Y-84725933D01*
X154863686Y-84787071D01*
X154766125Y-84844841D01*
X154681088Y-84896532D01*
X154612976Y-84939434D01*
X154566191Y-84970832D01*
X154546300Y-84986639D01*
X154536012Y-84998212D01*
X154527770Y-85011090D01*
X154521353Y-85028890D01*
X154516539Y-85055225D01*
X154513105Y-85093711D01*
X154510831Y-85147961D01*
X154509494Y-85221591D01*
X154508872Y-85318216D01*
X154508743Y-85441449D01*
X154508887Y-85594906D01*
X154508888Y-85596239D01*
X154509577Y-86165267D01*
X154555455Y-86217276D01*
X154584159Y-86241428D01*
X154637241Y-86278124D01*
X154710233Y-86324825D01*
X154798667Y-86378990D01*
X154898076Y-86438080D01*
X155003992Y-86499554D01*
X155111946Y-86560872D01*
X155217472Y-86619494D01*
X155316101Y-86672881D01*
X155403365Y-86718492D01*
X155474798Y-86753787D01*
X155525929Y-86776227D01*
X155551139Y-86783334D01*
X155603469Y-86769902D01*
X155661868Y-86733265D01*
X155664275Y-86731301D01*
X155727400Y-86679268D01*
X155729238Y-86286801D01*
X155730245Y-86168307D01*
X155732042Y-86055287D01*
X155734461Y-85954139D01*
X155737337Y-85871262D01*
X155740504Y-85813054D01*
X155741938Y-85796985D01*
X155752800Y-85699637D01*
X155985634Y-85565843D01*
X156218467Y-85432050D01*
X156218467Y-86980094D01*
X155885414Y-87170998D01*
X155776243Y-87233204D01*
X155692298Y-87279929D01*
X155629684Y-87312983D01*
X155584508Y-87334176D01*
X155552875Y-87345320D01*
X155530891Y-87348224D01*
X155514661Y-87344699D01*
X155513177Y-87344050D01*
X155488034Y-87330779D01*
X155438169Y-87302957D01*
X155368083Y-87263151D01*
X155282276Y-87213928D01*
X155185249Y-87157854D01*
X155109855Y-87114032D01*
X154980409Y-87039551D01*
X154877183Y-86982341D01*
X154797960Y-86941278D01*
X154740525Y-86915237D01*
X154702662Y-86903096D01*
X154691537Y-86901867D01*
X154669410Y-86904517D01*
X154639843Y-86913412D01*
X154600184Y-86929969D01*
X154547779Y-86955605D01*
X154479976Y-86991738D01*
X154394122Y-87039785D01*
X154287565Y-87101163D01*
X154157651Y-87177289D01*
X154001727Y-87269581D01*
X153987992Y-87277740D01*
X153895104Y-87333944D01*
X153811745Y-87386310D01*
X153742521Y-87431788D01*
X153692039Y-87467326D01*
X153664906Y-87489873D01*
X153662025Y-87493614D01*
X153647128Y-87548964D01*
X153648836Y-87615585D01*
X153666492Y-87675611D01*
X153668904Y-87680195D01*
X153692426Y-87703359D01*
X153745019Y-87741239D01*
X153825600Y-87793141D01*
X153933081Y-87858371D01*
X154066379Y-87936236D01*
X154095871Y-87953166D01*
X154499733Y-88184410D01*
X154504381Y-88466961D01*
X154509028Y-88749513D01*
X154436647Y-88707130D01*
X154406303Y-88689481D01*
X154350206Y-88656974D01*
X154271934Y-88611677D01*
X154175067Y-88555660D01*
X154063183Y-88490992D01*
X153939861Y-88419744D01*
X153808681Y-88343983D01*
X153763133Y-88317685D01*
X153162000Y-87970623D01*
X153157763Y-87584411D01*
X153153525Y-87198200D01*
X153552836Y-86970285D01*
X153674409Y-86899874D01*
X153780412Y-86836439D01*
X153867727Y-86781955D01*
X153933233Y-86738399D01*
X153973812Y-86707747D01*
X153984640Y-86696738D01*
X153991302Y-86686229D01*
X153996987Y-86673125D01*
X154001771Y-86654831D01*
X154005733Y-86628748D01*
X154008949Y-86592278D01*
X154011498Y-86542824D01*
X154013455Y-86477788D01*
X154014900Y-86394573D01*
X154015909Y-86290582D01*
X154016559Y-86163216D01*
X154016929Y-86009878D01*
X154017094Y-85827971D01*
X154017133Y-85614897D01*
X154017133Y-85605852D01*
X154017101Y-85391573D01*
X154016951Y-85208541D01*
X154016603Y-85054136D01*
X154015979Y-84925739D01*
X154014998Y-84820729D01*
X154013581Y-84736486D01*
X154011647Y-84670392D01*
X154009119Y-84619826D01*
X154005915Y-84582169D01*
X154001957Y-84554800D01*
X153997165Y-84535100D01*
X153991458Y-84520449D01*
X153984759Y-84508227D01*
X153983729Y-84506549D01*
X153936895Y-84457951D01*
X153874871Y-84429165D01*
X153809707Y-84424725D01*
X153783907Y-84431359D01*
X153753609Y-84445764D01*
X153699416Y-84474429D01*
X153625904Y-84514723D01*
X153537645Y-84564016D01*
X153439214Y-84619677D01*
X153335184Y-84679074D01*
X153230131Y-84739578D01*
X153128627Y-84798557D01*
X153035247Y-84853381D01*
X152954564Y-84901418D01*
X152891154Y-84940038D01*
X152849589Y-84966610D01*
X152836034Y-84976549D01*
X152823691Y-84988831D01*
X152814350Y-85003235D01*
X152807593Y-85024289D01*
X152803002Y-85056520D01*
X152800158Y-85104457D01*
X152798644Y-85172628D01*
X152798042Y-85265560D01*
X152797934Y-85387782D01*
X152797934Y-85389285D01*
X152797392Y-85498281D01*
X152795874Y-85594895D01*
X152793541Y-85674344D01*
X152790555Y-85731845D01*
X152787075Y-85762614D01*
X152785234Y-85766482D01*
X152766925Y-85758099D01*
X152724719Y-85735524D01*
X152663931Y-85701697D01*
X152589877Y-85659558D01*
X152543934Y-85633042D01*
X152315334Y-85500453D01*
X152304893Y-85104727D01*
X152301775Y-84986345D01*
X152298826Y-84873955D01*
X152296207Y-84773785D01*
X152294082Y-84692066D01*
X152292613Y-84635025D01*
X152292193Y-84618427D01*
X152287807Y-84560416D01*
X152274464Y-84521598D01*
X152246465Y-84487454D01*
X152237343Y-84478727D01*
X152172903Y-84438805D01*
X152103100Y-84428707D01*
X152035540Y-84446975D01*
X151977832Y-84492148D01*
X151949909Y-84533862D01*
X151936580Y-84564367D01*
X151927658Y-84598715D01*
X151922480Y-84643806D01*
X151920378Y-84706538D01*
X151920687Y-84793810D01*
X151921237Y-84831092D01*
X151922853Y-84930161D01*
X151924810Y-85051100D01*
X151926914Y-85181917D01*
X151928972Y-85310617D01*
X151930067Y-85379490D01*
X151932014Y-85490351D01*
X151934238Y-85572399D01*
X151937357Y-85630686D01*
X151941991Y-85670265D01*
X151948756Y-85696187D01*
X151958271Y-85713504D01*
X151971154Y-85727270D01*
X151972798Y-85728779D01*
X151996687Y-85745745D01*
X152045991Y-85777079D01*
X152116706Y-85820368D01*
X152204832Y-85873196D01*
X152306364Y-85933150D01*
X152417302Y-85997817D01*
X152454385Y-86019255D01*
X152581951Y-86092624D01*
X152683996Y-86150592D01*
X152764182Y-86194945D01*
X152826169Y-86227469D01*
X152873619Y-86249950D01*
X152910193Y-86264174D01*
X152939552Y-86271927D01*
X152965356Y-86274995D01*
X152979319Y-86275333D01*
X153032332Y-86272291D01*
X153067079Y-86258473D01*
X153098953Y-86226841D01*
X153106967Y-86216971D01*
X153153534Y-86158610D01*
X153153542Y-85217000D01*
X153310171Y-85128308D01*
X153387067Y-85084665D01*
X153463995Y-85040833D01*
X153529332Y-85003443D01*
X153555700Y-84988266D01*
X153644600Y-84936915D01*
X153644523Y-85711958D01*
X153644447Y-86487000D01*
X153284690Y-86688657D01*
X153180276Y-86748187D01*
X153082333Y-86805899D01*
X152995918Y-86858667D01*
X152926086Y-86903365D01*
X152877894Y-86936867D01*
X152861434Y-86950327D01*
X152797934Y-87010340D01*
X152798472Y-87586870D01*
X152798861Y-87748065D01*
X152799780Y-87878579D01*
X152801357Y-87981597D01*
X152803717Y-88060303D01*
X152806988Y-88117880D01*
X152811296Y-88157513D01*
X152816767Y-88182385D01*
X152822639Y-88194583D01*
X152841216Y-88208438D01*
X152886568Y-88237562D01*
X152956081Y-88280399D01*
X153047139Y-88335389D01*
X153157128Y-88400974D01*
X153283435Y-88475594D01*
X153423444Y-88557691D01*
X153574541Y-88645707D01*
X153734111Y-88738082D01*
X153738618Y-88740683D01*
X153929852Y-88851007D01*
X154094056Y-88945471D01*
X154233554Y-89025104D01*
X154350673Y-89090931D01*
X154447739Y-89143980D01*
X154527077Y-89185278D01*
X154591014Y-89215850D01*
X154641875Y-89236725D01*
X154681986Y-89248929D01*
X154713674Y-89253488D01*
X154739264Y-89251429D01*
X154761082Y-89243779D01*
X154781454Y-89231566D01*
X154802705Y-89215815D01*
X154807168Y-89212405D01*
X154863800Y-89169210D01*
X154863800Y-88588155D01*
X154863709Y-88431995D01*
X154863308Y-88306121D01*
X154862412Y-88206953D01*
X154860830Y-88130909D01*
X154858375Y-88074409D01*
X154854859Y-88033873D01*
X154850094Y-88005720D01*
X154843892Y-87986370D01*
X154836064Y-87972241D01*
X154831085Y-87965510D01*
X154806153Y-87943766D01*
X154757105Y-87909031D01*
X154689372Y-87864862D01*
X154608389Y-87814816D01*
X154530518Y-87768761D01*
X154443567Y-87718299D01*
X154365834Y-87673011D01*
X154302452Y-87635900D01*
X154258549Y-87609969D01*
X154239784Y-87598575D01*
X154239286Y-87586408D01*
X154261557Y-87564154D01*
X154308139Y-87530782D01*
X154380571Y-87485266D01*
X154480396Y-87426575D01*
X154593483Y-87362452D01*
X154687232Y-87309921D01*
X155084550Y-87537335D01*
X155210451Y-87608870D01*
X155310837Y-87664564D01*
X155389159Y-87706119D01*
X155448870Y-87735238D01*
X155493422Y-87753625D01*
X155526267Y-87762981D01*
X155546305Y-87765108D01*
X155569422Y-87762490D01*
X155600046Y-87753326D01*
X155641351Y-87735998D01*
X155696513Y-87708885D01*
X155768706Y-87670367D01*
X155861104Y-87618823D01*
X155976881Y-87552634D01*
X156083546Y-87490908D01*
X156217200Y-87412969D01*
X156324266Y-87349658D01*
X156407689Y-87299029D01*
X156470414Y-87259132D01*
X156515384Y-87228020D01*
X156545545Y-87203745D01*
X156563840Y-87184358D01*
X156573215Y-87167913D01*
X156573674Y-87166648D01*
X156577598Y-87137973D01*
X156581052Y-87076458D01*
X156584019Y-86983127D01*
X156586485Y-86859003D01*
X156588432Y-86705110D01*
X156589844Y-86522473D01*
X156590706Y-86312114D01*
X156591000Y-86075058D01*
X156591000Y-85028603D01*
X156542843Y-84982466D01*
X156488578Y-84941849D01*
X156431627Y-84925374D01*
X156365813Y-84933072D01*
X156284959Y-84964978D01*
X156247862Y-84984073D01*
X156137010Y-85044758D01*
X156021126Y-85109784D01*
X155904135Y-85176795D01*
X155789962Y-85243436D01*
X155682532Y-85307352D01*
X155585770Y-85366188D01*
X155503603Y-85417588D01*
X155439956Y-85459196D01*
X155398754Y-85488658D01*
X155384445Y-85502144D01*
X155375660Y-85535519D01*
X155368091Y-85602389D01*
X155361764Y-85702401D01*
X155356704Y-85835206D01*
X155355025Y-85898119D01*
X155346400Y-86257505D01*
X155104787Y-86120484D01*
X154863175Y-85983462D01*
X154872267Y-85217000D01*
X155258702Y-84995280D01*
X155364636Y-84933827D01*
X155462550Y-84875755D01*
X155548041Y-84823777D01*
X155616702Y-84780606D01*
X155664128Y-84748957D01*
X155684777Y-84732813D01*
X155724417Y-84692067D01*
X155730142Y-84141734D01*
X155731506Y-83979658D01*
X155731828Y-83848286D01*
X155731022Y-83744466D01*
X155729002Y-83665047D01*
X155725683Y-83606880D01*
X155720979Y-83566814D01*
X155714805Y-83541698D01*
X155713759Y-83539054D01*
X155678648Y-83492242D01*
X155623094Y-83453988D01*
X155560520Y-83432552D01*
X155537386Y-83430533D01*
X155513261Y-83438716D01*
X155464242Y-83461753D01*
X155394657Y-83497380D01*
X155308833Y-83543331D01*
X155211096Y-83597342D01*
X155118860Y-83649629D01*
X155014511Y-83709259D01*
X154918755Y-83763581D01*
X154835844Y-83810214D01*
X154770028Y-83846778D01*
X154725560Y-83870893D01*
X154707472Y-83879924D01*
X154678531Y-83876045D01*
X154622365Y-83852635D01*
X154538855Y-83809641D01*
X154449238Y-83759358D01*
X154370937Y-83713675D01*
X154304261Y-83673610D01*
X154254193Y-83642252D01*
X154225721Y-83622689D01*
X154221066Y-83617963D01*
X154235298Y-83608130D01*
X154275308Y-83583591D01*
X154337468Y-83546446D01*
X154418154Y-83498794D01*
X154513739Y-83442734D01*
X154620596Y-83380366D01*
X154735102Y-83313789D01*
X154853628Y-83245102D01*
X154972549Y-83176406D01*
X155088240Y-83109798D01*
X155197074Y-83047380D01*
X155295426Y-82991249D01*
X155379669Y-82943506D01*
X155446177Y-82906250D01*
X155491325Y-82881581D01*
X155505873Y-82874072D01*
X155522258Y-82867325D01*
X155539705Y-82865102D01*
X155562282Y-82869212D01*
X155594057Y-82881467D01*
X155639101Y-82903676D01*
X155701481Y-82937649D01*
X155785267Y-82985196D01*
X155885782Y-83043079D01*
X156218467Y-83235148D01*
X156218536Y-83514874D01*
X156219319Y-83631375D01*
X156221421Y-83757312D01*
X156224547Y-83879552D01*
X156228403Y-83984962D01*
X156229646Y-84011110D01*
X156240688Y-84227620D01*
X156386211Y-84317393D01*
X156444848Y-84352995D01*
X156526072Y-84401507D01*
X156623122Y-84458932D01*
X156729239Y-84521278D01*
X156837663Y-84584548D01*
X156872281Y-84604649D01*
X156993350Y-84674279D01*
X157089477Y-84727476D01*
X157164684Y-84765356D01*
X157222994Y-84789034D01*
X157268432Y-84799625D01*
X157305020Y-84798245D01*
X157336781Y-84786009D01*
X157367738Y-84764031D01*
X157386867Y-84747301D01*
X157446133Y-84693461D01*
X157452060Y-84207848D01*
X157457986Y-83722235D01*
X157678953Y-83597551D01*
X157757297Y-83553502D01*
X157825403Y-83515508D01*
X157877725Y-83486640D01*
X157908719Y-83469967D01*
X157914327Y-83467222D01*
X157917280Y-83482412D01*
X157920029Y-83528135D01*
X157922512Y-83601061D01*
X157924665Y-83697858D01*
X157926426Y-83815194D01*
X157927732Y-83949737D01*
X157928519Y-84098154D01*
X157928734Y-84230257D01*
X157928734Y-84998937D01*
X157523611Y-85233897D01*
X157382859Y-85316537D01*
X157271367Y-85384265D01*
X157188271Y-85437644D01*
X157132705Y-85477235D01*
X157103805Y-85503603D01*
X157099902Y-85509649D01*
X157093321Y-85540674D01*
X157087281Y-85600301D01*
X157081873Y-85683269D01*
X157077188Y-85784315D01*
X157073317Y-85898178D01*
X157070352Y-86019596D01*
X157068384Y-86143308D01*
X157067504Y-86264052D01*
X157067804Y-86376567D01*
X157069374Y-86475590D01*
X157072305Y-86555860D01*
X157076690Y-86612116D01*
X157080416Y-86633505D01*
X157086307Y-86655143D01*
X157092490Y-86673488D01*
X157101859Y-86690583D01*
X157117312Y-86708475D01*
X157141744Y-86729209D01*
X157178050Y-86754829D01*
X157229127Y-86787381D01*
X157297870Y-86828911D01*
X157387175Y-86881462D01*
X157499937Y-86947082D01*
X157637161Y-87026716D01*
X157768178Y-87102392D01*
X157873779Y-87162111D01*
X157957602Y-87207320D01*
X158023285Y-87239468D01*
X158074464Y-87260001D01*
X158114777Y-87270369D01*
X158147860Y-87272018D01*
X158177351Y-87266395D01*
X158206887Y-87254950D01*
X158208607Y-87254170D01*
X158234410Y-87240701D01*
X158254934Y-87223891D01*
X158270780Y-87199990D01*
X158282549Y-87165244D01*
X158290842Y-87115902D01*
X158296258Y-87048210D01*
X158299400Y-86958418D01*
X158300868Y-86842771D01*
X158301263Y-86697519D01*
X158301267Y-86675452D01*
X158301267Y-86210289D01*
X158540120Y-86073478D01*
X158620752Y-86027522D01*
X158690613Y-85988141D01*
X158744648Y-85958147D01*
X158777802Y-85940357D01*
X158785824Y-85936667D01*
X158787133Y-85953040D01*
X158788172Y-85999921D01*
X158788929Y-86073953D01*
X158789394Y-86171778D01*
X158789557Y-86290038D01*
X158789406Y-86425376D01*
X158788932Y-86574433D01*
X158788271Y-86708583D01*
X158783867Y-87480500D01*
X158452474Y-87671325D01*
X158121082Y-87862150D01*
X157716985Y-87627841D01*
X157597068Y-87558480D01*
X157502568Y-87504473D01*
X157429697Y-87464027D01*
X157374667Y-87435351D01*
X157333688Y-87416655D01*
X157302971Y-87406148D01*
X157278727Y-87402038D01*
X157257167Y-87402535D01*
X157244045Y-87404283D01*
X157209118Y-87416138D01*
X157147121Y-87445097D01*
X157057757Y-87491321D01*
X156940726Y-87554970D01*
X156795731Y-87636204D01*
X156622474Y-87735183D01*
X156531734Y-87787568D01*
X156311532Y-87915154D01*
X156119237Y-88026800D01*
X155953359Y-88123385D01*
X155812408Y-88205790D01*
X155694898Y-88274895D01*
X155599339Y-88331579D01*
X155524242Y-88376723D01*
X155468119Y-88411208D01*
X155429482Y-88435912D01*
X155406841Y-88451716D01*
X155402667Y-88455094D01*
X155373411Y-88500138D01*
X155361163Y-88561515D01*
X155367204Y-88625564D01*
X155382996Y-88664660D01*
X155407394Y-88689118D01*
X155457275Y-88726605D01*
X155528145Y-88774521D01*
X155615514Y-88830267D01*
X155714889Y-88891241D01*
X155821777Y-88954845D01*
X155931687Y-89018478D01*
X156040125Y-89079541D01*
X156142601Y-89135433D01*
X156234621Y-89183554D01*
X156311694Y-89221306D01*
X156369326Y-89246087D01*
X156403027Y-89255297D01*
X156403529Y-89255305D01*
X156434450Y-89250224D01*
X156479496Y-89233624D01*
X156542099Y-89203852D01*
X156625692Y-89159254D01*
X156733706Y-89098175D01*
X156754342Y-89086267D01*
X156844057Y-89034635D01*
X156923603Y-88989352D01*
X156988411Y-88952979D01*
X157033911Y-88928076D01*
X157055533Y-88917203D01*
X157056533Y-88916933D01*
X157059430Y-88932923D01*
X157061396Y-88977140D01*
X157062332Y-89043952D01*
X157062140Y-89127731D01*
X157061320Y-89191242D01*
X157056667Y-89465551D01*
X156689075Y-89678076D01*
X156584918Y-89739083D01*
X156487983Y-89797341D01*
X156402993Y-89849895D01*
X156334671Y-89893789D01*
X156287742Y-89926068D01*
X156269975Y-89940335D01*
X156228285Y-90001393D01*
X156218708Y-90071593D01*
X156241544Y-90148461D01*
X156244042Y-90153406D01*
X156279924Y-90202573D01*
X156329229Y-90229191D01*
X156400510Y-90237701D01*
X156406476Y-90237733D01*
X156431079Y-90235703D01*
X156460308Y-90228438D01*
X156497738Y-90214173D01*
X156546941Y-90191145D01*
X156611491Y-90157590D01*
X156694962Y-90111745D01*
X156800926Y-90051847D01*
X156911356Y-89988564D01*
X157024560Y-89922561D01*
X157130713Y-89858994D01*
X157225492Y-89800583D01*
X157304573Y-89750048D01*
X157363633Y-89710107D01*
X157398347Y-89683480D01*
X157401982Y-89679997D01*
X157459431Y-89620600D01*
X157450634Y-89053792D01*
X157441838Y-88486984D01*
X157388685Y-88439492D01*
X157357931Y-88414388D01*
X157327840Y-88397533D01*
X157294799Y-88390053D01*
X157255193Y-88393075D01*
X157205407Y-88407727D01*
X157141826Y-88435134D01*
X157060835Y-88476425D01*
X156958821Y-88532725D01*
X156832168Y-88605163D01*
X156802712Y-88622178D01*
X156404626Y-88852355D01*
X156324246Y-88806094D01*
X156274623Y-88777417D01*
X156206469Y-88737877D01*
X156130494Y-88693692D01*
X156085230Y-88667317D01*
X155926594Y-88574801D01*
X156076764Y-88487114D01*
X156127987Y-88457351D01*
X156203829Y-88413483D01*
X156299529Y-88358255D01*
X156410327Y-88294409D01*
X156531464Y-88224689D01*
X156658178Y-88151839D01*
X156739747Y-88104987D01*
X157252560Y-87810548D01*
X157315480Y-87840502D01*
X157349831Y-87858290D01*
X157407674Y-87889819D01*
X157483200Y-87931856D01*
X157570596Y-87981163D01*
X157664053Y-88034508D01*
X157666267Y-88035779D01*
X157788564Y-88105920D01*
X157885199Y-88160839D01*
X157959859Y-88202213D01*
X158016231Y-88231719D01*
X158058002Y-88251035D01*
X158088861Y-88261837D01*
X158112492Y-88265802D01*
X158132585Y-88264608D01*
X158152826Y-88259932D01*
X158156730Y-88258861D01*
X158185569Y-88246575D01*
X158239502Y-88219448D01*
X158314384Y-88179726D01*
X158406069Y-88129654D01*
X158510413Y-88071480D01*
X158623270Y-88007448D01*
X158665772Y-87983057D01*
X158807709Y-87900651D01*
X158921719Y-87832834D01*
X159009793Y-87778325D01*
X159073922Y-87735844D01*
X159116098Y-87704111D01*
X159138311Y-87681844D01*
X159141083Y-87677408D01*
X159146111Y-87662822D01*
X159150407Y-87638268D01*
X159154022Y-87601332D01*
X159157010Y-87549600D01*
X159159424Y-87480660D01*
X159161316Y-87392098D01*
X159162739Y-87281500D01*
X159163746Y-87146455D01*
X159164391Y-86984548D01*
X159164725Y-86793366D01*
X159164804Y-86593674D01*
X159164749Y-86379890D01*
X159164749Y-86379890D01*
G37*
X159164749Y-86379890D02*
X159164561Y-86197350D01*
X159164163Y-86043433D01*
X159163480Y-85915517D01*
X159162433Y-85810979D01*
X159160947Y-85727198D01*
X159158945Y-85661552D01*
X159156351Y-85611419D01*
X159153086Y-85574176D01*
X159149076Y-85547203D01*
X159144243Y-85527877D01*
X159138511Y-85513575D01*
X159132940Y-85503517D01*
X159081721Y-85448056D01*
X159016215Y-85419877D01*
X158944115Y-85422062D01*
X158935676Y-85424422D01*
X158903103Y-85438467D01*
X158846819Y-85467053D01*
X158771431Y-85507512D01*
X158681551Y-85557180D01*
X158581789Y-85613391D01*
X158476753Y-85673478D01*
X158371055Y-85734776D01*
X158269304Y-85794619D01*
X158176111Y-85850341D01*
X158096084Y-85899276D01*
X158033834Y-85938759D01*
X157993971Y-85966123D01*
X157982927Y-85975388D01*
X157970774Y-85990129D01*
X157961405Y-86008232D01*
X157954267Y-86034359D01*
X157948809Y-86073171D01*
X157944479Y-86129328D01*
X157940724Y-86207493D01*
X157936993Y-86312326D01*
X157934785Y-86381971D01*
X157931156Y-86489403D01*
X157927392Y-86584448D01*
X157923730Y-86662243D01*
X157920409Y-86717924D01*
X157917668Y-86746626D01*
X157916759Y-86749467D01*
X157900590Y-86741446D01*
X157860302Y-86719317D01*
X157801065Y-86685977D01*
X157728047Y-86644324D01*
X157682693Y-86618234D01*
X157455232Y-86487000D01*
X157454600Y-85706372D01*
X157838228Y-85487746D01*
X157943902Y-85426762D01*
X158041541Y-85368976D01*
X158126703Y-85317131D01*
X158194946Y-85273969D01*
X158241828Y-85242235D01*
X158261562Y-85226300D01*
X158301267Y-85183480D01*
X158301267Y-83047710D01*
X158245427Y-82993589D01*
X158217775Y-82968388D01*
X158191227Y-82950334D01*
X158162463Y-82940518D01*
X158128166Y-82940033D01*
X158085016Y-82949970D01*
X158029693Y-82971423D01*
X157958879Y-83005483D01*
X157869256Y-83053244D01*
X157757503Y-83115797D01*
X157620302Y-83194234D01*
X157599532Y-83206167D01*
X157456455Y-83289041D01*
X157341042Y-83357413D01*
X157251069Y-83412708D01*
X157184315Y-83456352D01*
X157138556Y-83489771D01*
X157111569Y-83514391D01*
X157104530Y-83523667D01*
X157093780Y-83545408D01*
X157085459Y-83574046D01*
X157079091Y-83614442D01*
X157074198Y-83671458D01*
X157070304Y-83749955D01*
X157066931Y-83854795D01*
X157065133Y-83925101D01*
X157056667Y-84275736D01*
X156823834Y-84139364D01*
X156591000Y-84002992D01*
X156588846Y-83695596D01*
X156587479Y-83579717D01*
X156585103Y-83459435D01*
X156581992Y-83345366D01*
X156578418Y-83248125D01*
X156576146Y-83201934D01*
X156565600Y-83015667D01*
X156472467Y-82954162D01*
X156431988Y-82928554D01*
X156367426Y-82889078D01*
X156283994Y-82838859D01*
X156186905Y-82781022D01*
X156081373Y-82718690D01*
X155999233Y-82670529D01*
X155880171Y-82601346D01*
X155786168Y-82547840D01*
X155713338Y-82508100D01*
X155657799Y-82480219D01*
X155615665Y-82462285D01*
X155583053Y-82452390D01*
X155556078Y-82448624D01*
X155547401Y-82448400D01*
X155529657Y-82449931D01*
X155507436Y-82455354D01*
X155478418Y-82465909D01*
X155440280Y-82482839D01*
X155390702Y-82507387D01*
X155327363Y-82540796D01*
X155247941Y-82584306D01*
X155150117Y-82639160D01*
X155031567Y-82706602D01*
X154889973Y-82787872D01*
X154723011Y-82884214D01*
X154598235Y-82956403D01*
X154433647Y-83052099D01*
X154278883Y-83142873D01*
X154136459Y-83227202D01*
X154008890Y-83303561D01*
X153898691Y-83370427D01*
X153808377Y-83426277D01*
X153740464Y-83469586D01*
X153697466Y-83498831D01*
X153682784Y-83510970D01*
X153651185Y-83574710D01*
X153647619Y-83647422D01*
X153672316Y-83717760D01*
X153693142Y-83739655D01*
X153736955Y-83772737D01*
X153805179Y-83817917D01*
X153899237Y-83876102D01*
X154020553Y-83948201D01*
X154160600Y-84029406D01*
X154293483Y-84105445D01*
X154400634Y-84165846D01*
X154485420Y-84212291D01*
X154551211Y-84246465D01*
X154601375Y-84270052D01*
X154639281Y-84284735D01*
X154668296Y-84292197D01*
X154690217Y-84294133D01*
X154722332Y-84290971D01*
X154760438Y-84279943D01*
X154809621Y-84258738D01*
X154874966Y-84225046D01*
X154961557Y-84176555D01*
X155008350Y-84149558D01*
X155094574Y-84099689D01*
X155173919Y-84054130D01*
X155240320Y-84016336D01*
X155287713Y-83989766D01*
X155306150Y-83979790D01*
X155354867Y-83954597D01*
X155354604Y-84230199D01*
X155354342Y-84505800D01*
X154969371Y-84725933D01*
X154863686Y-84787071D01*
X154766125Y-84844841D01*
X154681088Y-84896532D01*
X154612976Y-84939434D01*
X154566191Y-84970832D01*
X154546300Y-84986639D01*
X154536012Y-84998212D01*
X154527770Y-85011090D01*
X154521353Y-85028890D01*
X154516539Y-85055225D01*
X154513105Y-85093711D01*
X154510831Y-85147961D01*
X154509494Y-85221591D01*
X154508872Y-85318216D01*
X154508743Y-85441449D01*
X154508887Y-85594906D01*
X154508888Y-85596239D01*
X154509577Y-86165267D01*
X154555455Y-86217276D01*
X154584159Y-86241428D01*
X154637241Y-86278124D01*
X154710233Y-86324825D01*
X154798667Y-86378990D01*
X154898076Y-86438080D01*
X155003992Y-86499554D01*
X155111946Y-86560872D01*
X155217472Y-86619494D01*
X155316101Y-86672881D01*
X155403365Y-86718492D01*
X155474798Y-86753787D01*
X155525929Y-86776227D01*
X155551139Y-86783334D01*
X155603469Y-86769902D01*
X155661868Y-86733265D01*
X155664275Y-86731301D01*
X155727400Y-86679268D01*
X155729238Y-86286801D01*
X155730245Y-86168307D01*
X155732042Y-86055287D01*
X155734461Y-85954139D01*
X155737337Y-85871262D01*
X155740504Y-85813054D01*
X155741938Y-85796985D01*
X155752800Y-85699637D01*
X155985634Y-85565843D01*
X156218467Y-85432050D01*
X156218467Y-86980094D01*
X155885414Y-87170998D01*
X155776243Y-87233204D01*
X155692298Y-87279929D01*
X155629684Y-87312983D01*
X155584508Y-87334176D01*
X155552875Y-87345320D01*
X155530891Y-87348224D01*
X155514661Y-87344699D01*
X155513177Y-87344050D01*
X155488034Y-87330779D01*
X155438169Y-87302957D01*
X155368083Y-87263151D01*
X155282276Y-87213928D01*
X155185249Y-87157854D01*
X155109855Y-87114032D01*
X154980409Y-87039551D01*
X154877183Y-86982341D01*
X154797960Y-86941278D01*
X154740525Y-86915237D01*
X154702662Y-86903096D01*
X154691537Y-86901867D01*
X154669410Y-86904517D01*
X154639843Y-86913412D01*
X154600184Y-86929969D01*
X154547779Y-86955605D01*
X154479976Y-86991738D01*
X154394122Y-87039785D01*
X154287565Y-87101163D01*
X154157651Y-87177289D01*
X154001727Y-87269581D01*
X153987992Y-87277740D01*
X153895104Y-87333944D01*
X153811745Y-87386310D01*
X153742521Y-87431788D01*
X153692039Y-87467326D01*
X153664906Y-87489873D01*
X153662025Y-87493614D01*
X153647128Y-87548964D01*
X153648836Y-87615585D01*
X153666492Y-87675611D01*
X153668904Y-87680195D01*
X153692426Y-87703359D01*
X153745019Y-87741239D01*
X153825600Y-87793141D01*
X153933081Y-87858371D01*
X154066379Y-87936236D01*
X154095871Y-87953166D01*
X154499733Y-88184410D01*
X154504381Y-88466961D01*
X154509028Y-88749513D01*
X154436647Y-88707130D01*
X154406303Y-88689481D01*
X154350206Y-88656974D01*
X154271934Y-88611677D01*
X154175067Y-88555660D01*
X154063183Y-88490992D01*
X153939861Y-88419744D01*
X153808681Y-88343983D01*
X153763133Y-88317685D01*
X153162000Y-87970623D01*
X153157763Y-87584411D01*
X153153525Y-87198200D01*
X153552836Y-86970285D01*
X153674409Y-86899874D01*
X153780412Y-86836439D01*
X153867727Y-86781955D01*
X153933233Y-86738399D01*
X153973812Y-86707747D01*
X153984640Y-86696738D01*
X153991302Y-86686229D01*
X153996987Y-86673125D01*
X154001771Y-86654831D01*
X154005733Y-86628748D01*
X154008949Y-86592278D01*
X154011498Y-86542824D01*
X154013455Y-86477788D01*
X154014900Y-86394573D01*
X154015909Y-86290582D01*
X154016559Y-86163216D01*
X154016929Y-86009878D01*
X154017094Y-85827971D01*
X154017133Y-85614897D01*
X154017133Y-85605852D01*
X154017101Y-85391573D01*
X154016951Y-85208541D01*
X154016603Y-85054136D01*
X154015979Y-84925739D01*
X154014998Y-84820729D01*
X154013581Y-84736486D01*
X154011647Y-84670392D01*
X154009119Y-84619826D01*
X154005915Y-84582169D01*
X154001957Y-84554800D01*
X153997165Y-84535100D01*
X153991458Y-84520449D01*
X153984759Y-84508227D01*
X153983729Y-84506549D01*
X153936895Y-84457951D01*
X153874871Y-84429165D01*
X153809707Y-84424725D01*
X153783907Y-84431359D01*
X153753609Y-84445764D01*
X153699416Y-84474429D01*
X153625904Y-84514723D01*
X153537645Y-84564016D01*
X153439214Y-84619677D01*
X153335184Y-84679074D01*
X153230131Y-84739578D01*
X153128627Y-84798557D01*
X153035247Y-84853381D01*
X152954564Y-84901418D01*
X152891154Y-84940038D01*
X152849589Y-84966610D01*
X152836034Y-84976549D01*
X152823691Y-84988831D01*
X152814350Y-85003235D01*
X152807593Y-85024289D01*
X152803002Y-85056520D01*
X152800158Y-85104457D01*
X152798644Y-85172628D01*
X152798042Y-85265560D01*
X152797934Y-85387782D01*
X152797934Y-85389285D01*
X152797392Y-85498281D01*
X152795874Y-85594895D01*
X152793541Y-85674344D01*
X152790555Y-85731845D01*
X152787075Y-85762614D01*
X152785234Y-85766482D01*
X152766925Y-85758099D01*
X152724719Y-85735524D01*
X152663931Y-85701697D01*
X152589877Y-85659558D01*
X152543934Y-85633042D01*
X152315334Y-85500453D01*
X152304893Y-85104727D01*
X152301775Y-84986345D01*
X152298826Y-84873955D01*
X152296207Y-84773785D01*
X152294082Y-84692066D01*
X152292613Y-84635025D01*
X152292193Y-84618427D01*
X152287807Y-84560416D01*
X152274464Y-84521598D01*
X152246465Y-84487454D01*
X152237343Y-84478727D01*
X152172903Y-84438805D01*
X152103100Y-84428707D01*
X152035540Y-84446975D01*
X151977832Y-84492148D01*
X151949909Y-84533862D01*
X151936580Y-84564367D01*
X151927658Y-84598715D01*
X151922480Y-84643806D01*
X151920378Y-84706538D01*
X151920687Y-84793810D01*
X151921237Y-84831092D01*
X151922853Y-84930161D01*
X151924810Y-85051100D01*
X151926914Y-85181917D01*
X151928972Y-85310617D01*
X151930067Y-85379490D01*
X151932014Y-85490351D01*
X151934238Y-85572399D01*
X151937357Y-85630686D01*
X151941991Y-85670265D01*
X151948756Y-85696187D01*
X151958271Y-85713504D01*
X151971154Y-85727270D01*
X151972798Y-85728779D01*
X151996687Y-85745745D01*
X152045991Y-85777079D01*
X152116706Y-85820368D01*
X152204832Y-85873196D01*
X152306364Y-85933150D01*
X152417302Y-85997817D01*
X152454385Y-86019255D01*
X152581951Y-86092624D01*
X152683996Y-86150592D01*
X152764182Y-86194945D01*
X152826169Y-86227469D01*
X152873619Y-86249950D01*
X152910193Y-86264174D01*
X152939552Y-86271927D01*
X152965356Y-86274995D01*
X152979319Y-86275333D01*
X153032332Y-86272291D01*
X153067079Y-86258473D01*
X153098953Y-86226841D01*
X153106967Y-86216971D01*
X153153534Y-86158610D01*
X153153542Y-85217000D01*
X153310171Y-85128308D01*
X153387067Y-85084665D01*
X153463995Y-85040833D01*
X153529332Y-85003443D01*
X153555700Y-84988266D01*
X153644600Y-84936915D01*
X153644523Y-85711958D01*
X153644447Y-86487000D01*
X153284690Y-86688657D01*
X153180276Y-86748187D01*
X153082333Y-86805899D01*
X152995918Y-86858667D01*
X152926086Y-86903365D01*
X152877894Y-86936867D01*
X152861434Y-86950327D01*
X152797934Y-87010340D01*
X152798472Y-87586870D01*
X152798861Y-87748065D01*
X152799780Y-87878579D01*
X152801357Y-87981597D01*
X152803717Y-88060303D01*
X152806988Y-88117880D01*
X152811296Y-88157513D01*
X152816767Y-88182385D01*
X152822639Y-88194583D01*
X152841216Y-88208438D01*
X152886568Y-88237562D01*
X152956081Y-88280399D01*
X153047139Y-88335389D01*
X153157128Y-88400974D01*
X153283435Y-88475594D01*
X153423444Y-88557691D01*
X153574541Y-88645707D01*
X153734111Y-88738082D01*
X153738618Y-88740683D01*
X153929852Y-88851007D01*
X154094056Y-88945471D01*
X154233554Y-89025104D01*
X154350673Y-89090931D01*
X154447739Y-89143980D01*
X154527077Y-89185278D01*
X154591014Y-89215850D01*
X154641875Y-89236725D01*
X154681986Y-89248929D01*
X154713674Y-89253488D01*
X154739264Y-89251429D01*
X154761082Y-89243779D01*
X154781454Y-89231566D01*
X154802705Y-89215815D01*
X154807168Y-89212405D01*
X154863800Y-89169210D01*
X154863800Y-88588155D01*
X154863709Y-88431995D01*
X154863308Y-88306121D01*
X154862412Y-88206953D01*
X154860830Y-88130909D01*
X154858375Y-88074409D01*
X154854859Y-88033873D01*
X154850094Y-88005720D01*
X154843892Y-87986370D01*
X154836064Y-87972241D01*
X154831085Y-87965510D01*
X154806153Y-87943766D01*
X154757105Y-87909031D01*
X154689372Y-87864862D01*
X154608389Y-87814816D01*
X154530518Y-87768761D01*
X154443567Y-87718299D01*
X154365834Y-87673011D01*
X154302452Y-87635900D01*
X154258549Y-87609969D01*
X154239784Y-87598575D01*
X154239286Y-87586408D01*
X154261557Y-87564154D01*
X154308139Y-87530782D01*
X154380571Y-87485266D01*
X154480396Y-87426575D01*
X154593483Y-87362452D01*
X154687232Y-87309921D01*
X155084550Y-87537335D01*
X155210451Y-87608870D01*
X155310837Y-87664564D01*
X155389159Y-87706119D01*
X155448870Y-87735238D01*
X155493422Y-87753625D01*
X155526267Y-87762981D01*
X155546305Y-87765108D01*
X155569422Y-87762490D01*
X155600046Y-87753326D01*
X155641351Y-87735998D01*
X155696513Y-87708885D01*
X155768706Y-87670367D01*
X155861104Y-87618823D01*
X155976881Y-87552634D01*
X156083546Y-87490908D01*
X156217200Y-87412969D01*
X156324266Y-87349658D01*
X156407689Y-87299029D01*
X156470414Y-87259132D01*
X156515384Y-87228020D01*
X156545545Y-87203745D01*
X156563840Y-87184358D01*
X156573215Y-87167913D01*
X156573674Y-87166648D01*
X156577598Y-87137973D01*
X156581052Y-87076458D01*
X156584019Y-86983127D01*
X156586485Y-86859003D01*
X156588432Y-86705110D01*
X156589844Y-86522473D01*
X156590706Y-86312114D01*
X156591000Y-86075058D01*
X156591000Y-85028603D01*
X156542843Y-84982466D01*
X156488578Y-84941849D01*
X156431627Y-84925374D01*
X156365813Y-84933072D01*
X156284959Y-84964978D01*
X156247862Y-84984073D01*
X156137010Y-85044758D01*
X156021126Y-85109784D01*
X155904135Y-85176795D01*
X155789962Y-85243436D01*
X155682532Y-85307352D01*
X155585770Y-85366188D01*
X155503603Y-85417588D01*
X155439956Y-85459196D01*
X155398754Y-85488658D01*
X155384445Y-85502144D01*
X155375660Y-85535519D01*
X155368091Y-85602389D01*
X155361764Y-85702401D01*
X155356704Y-85835206D01*
X155355025Y-85898119D01*
X155346400Y-86257505D01*
X155104787Y-86120484D01*
X154863175Y-85983462D01*
X154872267Y-85217000D01*
X155258702Y-84995280D01*
X155364636Y-84933827D01*
X155462550Y-84875755D01*
X155548041Y-84823777D01*
X155616702Y-84780606D01*
X155664128Y-84748957D01*
X155684777Y-84732813D01*
X155724417Y-84692067D01*
X155730142Y-84141734D01*
X155731506Y-83979658D01*
X155731828Y-83848286D01*
X155731022Y-83744466D01*
X155729002Y-83665047D01*
X155725683Y-83606880D01*
X155720979Y-83566814D01*
X155714805Y-83541698D01*
X155713759Y-83539054D01*
X155678648Y-83492242D01*
X155623094Y-83453988D01*
X155560520Y-83432552D01*
X155537386Y-83430533D01*
X155513261Y-83438716D01*
X155464242Y-83461753D01*
X155394657Y-83497380D01*
X155308833Y-83543331D01*
X155211096Y-83597342D01*
X155118860Y-83649629D01*
X155014511Y-83709259D01*
X154918755Y-83763581D01*
X154835844Y-83810214D01*
X154770028Y-83846778D01*
X154725560Y-83870893D01*
X154707472Y-83879924D01*
X154678531Y-83876045D01*
X154622365Y-83852635D01*
X154538855Y-83809641D01*
X154449238Y-83759358D01*
X154370937Y-83713675D01*
X154304261Y-83673610D01*
X154254193Y-83642252D01*
X154225721Y-83622689D01*
X154221066Y-83617963D01*
X154235298Y-83608130D01*
X154275308Y-83583591D01*
X154337468Y-83546446D01*
X154418154Y-83498794D01*
X154513739Y-83442734D01*
X154620596Y-83380366D01*
X154735102Y-83313789D01*
X154853628Y-83245102D01*
X154972549Y-83176406D01*
X155088240Y-83109798D01*
X155197074Y-83047380D01*
X155295426Y-82991249D01*
X155379669Y-82943506D01*
X155446177Y-82906250D01*
X155491325Y-82881581D01*
X155505873Y-82874072D01*
X155522258Y-82867325D01*
X155539705Y-82865102D01*
X155562282Y-82869212D01*
X155594057Y-82881467D01*
X155639101Y-82903676D01*
X155701481Y-82937649D01*
X155785267Y-82985196D01*
X155885782Y-83043079D01*
X156218467Y-83235148D01*
X156218536Y-83514874D01*
X156219319Y-83631375D01*
X156221421Y-83757312D01*
X156224547Y-83879552D01*
X156228403Y-83984962D01*
X156229646Y-84011110D01*
X156240688Y-84227620D01*
X156386211Y-84317393D01*
X156444848Y-84352995D01*
X156526072Y-84401507D01*
X156623122Y-84458932D01*
X156729239Y-84521278D01*
X156837663Y-84584548D01*
X156872281Y-84604649D01*
X156993350Y-84674279D01*
X157089477Y-84727476D01*
X157164684Y-84765356D01*
X157222994Y-84789034D01*
X157268432Y-84799625D01*
X157305020Y-84798245D01*
X157336781Y-84786009D01*
X157367738Y-84764031D01*
X157386867Y-84747301D01*
X157446133Y-84693461D01*
X157452060Y-84207848D01*
X157457986Y-83722235D01*
X157678953Y-83597551D01*
X157757297Y-83553502D01*
X157825403Y-83515508D01*
X157877725Y-83486640D01*
X157908719Y-83469967D01*
X157914327Y-83467222D01*
X157917280Y-83482412D01*
X157920029Y-83528135D01*
X157922512Y-83601061D01*
X157924665Y-83697858D01*
X157926426Y-83815194D01*
X157927732Y-83949737D01*
X157928519Y-84098154D01*
X157928734Y-84230257D01*
X157928734Y-84998937D01*
X157523611Y-85233897D01*
X157382859Y-85316537D01*
X157271367Y-85384265D01*
X157188271Y-85437644D01*
X157132705Y-85477235D01*
X157103805Y-85503603D01*
X157099902Y-85509649D01*
X157093321Y-85540674D01*
X157087281Y-85600301D01*
X157081873Y-85683269D01*
X157077188Y-85784315D01*
X157073317Y-85898178D01*
X157070352Y-86019596D01*
X157068384Y-86143308D01*
X157067504Y-86264052D01*
X157067804Y-86376567D01*
X157069374Y-86475590D01*
X157072305Y-86555860D01*
X157076690Y-86612116D01*
X157080416Y-86633505D01*
X157086307Y-86655143D01*
X157092490Y-86673488D01*
X157101859Y-86690583D01*
X157117312Y-86708475D01*
X157141744Y-86729209D01*
X157178050Y-86754829D01*
X157229127Y-86787381D01*
X157297870Y-86828911D01*
X157387175Y-86881462D01*
X157499937Y-86947082D01*
X157637161Y-87026716D01*
X157768178Y-87102392D01*
X157873779Y-87162111D01*
X157957602Y-87207320D01*
X158023285Y-87239468D01*
X158074464Y-87260001D01*
X158114777Y-87270369D01*
X158147860Y-87272018D01*
X158177351Y-87266395D01*
X158206887Y-87254950D01*
X158208607Y-87254170D01*
X158234410Y-87240701D01*
X158254934Y-87223891D01*
X158270780Y-87199990D01*
X158282549Y-87165244D01*
X158290842Y-87115902D01*
X158296258Y-87048210D01*
X158299400Y-86958418D01*
X158300868Y-86842771D01*
X158301263Y-86697519D01*
X158301267Y-86675452D01*
X158301267Y-86210289D01*
X158540120Y-86073478D01*
X158620752Y-86027522D01*
X158690613Y-85988141D01*
X158744648Y-85958147D01*
X158777802Y-85940357D01*
X158785824Y-85936667D01*
X158787133Y-85953040D01*
X158788172Y-85999921D01*
X158788929Y-86073953D01*
X158789394Y-86171778D01*
X158789557Y-86290038D01*
X158789406Y-86425376D01*
X158788932Y-86574433D01*
X158788271Y-86708583D01*
X158783867Y-87480500D01*
X158452474Y-87671325D01*
X158121082Y-87862150D01*
X157716985Y-87627841D01*
X157597068Y-87558480D01*
X157502568Y-87504473D01*
X157429697Y-87464027D01*
X157374667Y-87435351D01*
X157333688Y-87416655D01*
X157302971Y-87406148D01*
X157278727Y-87402038D01*
X157257167Y-87402535D01*
X157244045Y-87404283D01*
X157209118Y-87416138D01*
X157147121Y-87445097D01*
X157057757Y-87491321D01*
X156940726Y-87554970D01*
X156795731Y-87636204D01*
X156622474Y-87735183D01*
X156531734Y-87787568D01*
X156311532Y-87915154D01*
X156119237Y-88026800D01*
X155953359Y-88123385D01*
X155812408Y-88205790D01*
X155694898Y-88274895D01*
X155599339Y-88331579D01*
X155524242Y-88376723D01*
X155468119Y-88411208D01*
X155429482Y-88435912D01*
X155406841Y-88451716D01*
X155402667Y-88455094D01*
X155373411Y-88500138D01*
X155361163Y-88561515D01*
X155367204Y-88625564D01*
X155382996Y-88664660D01*
X155407394Y-88689118D01*
X155457275Y-88726605D01*
X155528145Y-88774521D01*
X155615514Y-88830267D01*
X155714889Y-88891241D01*
X155821777Y-88954845D01*
X155931687Y-89018478D01*
X156040125Y-89079541D01*
X156142601Y-89135433D01*
X156234621Y-89183554D01*
X156311694Y-89221306D01*
X156369326Y-89246087D01*
X156403027Y-89255297D01*
X156403529Y-89255305D01*
X156434450Y-89250224D01*
X156479496Y-89233624D01*
X156542099Y-89203852D01*
X156625692Y-89159254D01*
X156733706Y-89098175D01*
X156754342Y-89086267D01*
X156844057Y-89034635D01*
X156923603Y-88989352D01*
X156988411Y-88952979D01*
X157033911Y-88928076D01*
X157055533Y-88917203D01*
X157056533Y-88916933D01*
X157059430Y-88932923D01*
X157061396Y-88977140D01*
X157062332Y-89043952D01*
X157062140Y-89127731D01*
X157061320Y-89191242D01*
X157056667Y-89465551D01*
X156689075Y-89678076D01*
X156584918Y-89739083D01*
X156487983Y-89797341D01*
X156402993Y-89849895D01*
X156334671Y-89893789D01*
X156287742Y-89926068D01*
X156269975Y-89940335D01*
X156228285Y-90001393D01*
X156218708Y-90071593D01*
X156241544Y-90148461D01*
X156244042Y-90153406D01*
X156279924Y-90202573D01*
X156329229Y-90229191D01*
X156400510Y-90237701D01*
X156406476Y-90237733D01*
X156431079Y-90235703D01*
X156460308Y-90228438D01*
X156497738Y-90214173D01*
X156546941Y-90191145D01*
X156611491Y-90157590D01*
X156694962Y-90111745D01*
X156800926Y-90051847D01*
X156911356Y-89988564D01*
X157024560Y-89922561D01*
X157130713Y-89858994D01*
X157225492Y-89800583D01*
X157304573Y-89750048D01*
X157363633Y-89710107D01*
X157398347Y-89683480D01*
X157401982Y-89679997D01*
X157459431Y-89620600D01*
X157450634Y-89053792D01*
X157441838Y-88486984D01*
X157388685Y-88439492D01*
X157357931Y-88414388D01*
X157327840Y-88397533D01*
X157294799Y-88390053D01*
X157255193Y-88393075D01*
X157205407Y-88407727D01*
X157141826Y-88435134D01*
X157060835Y-88476425D01*
X156958821Y-88532725D01*
X156832168Y-88605163D01*
X156802712Y-88622178D01*
X156404626Y-88852355D01*
X156324246Y-88806094D01*
X156274623Y-88777417D01*
X156206469Y-88737877D01*
X156130494Y-88693692D01*
X156085230Y-88667317D01*
X155926594Y-88574801D01*
X156076764Y-88487114D01*
X156127987Y-88457351D01*
X156203829Y-88413483D01*
X156299529Y-88358255D01*
X156410327Y-88294409D01*
X156531464Y-88224689D01*
X156658178Y-88151839D01*
X156739747Y-88104987D01*
X157252560Y-87810548D01*
X157315480Y-87840502D01*
X157349831Y-87858290D01*
X157407674Y-87889819D01*
X157483200Y-87931856D01*
X157570596Y-87981163D01*
X157664053Y-88034508D01*
X157666267Y-88035779D01*
X157788564Y-88105920D01*
X157885199Y-88160839D01*
X157959859Y-88202213D01*
X158016231Y-88231719D01*
X158058002Y-88251035D01*
X158088861Y-88261837D01*
X158112492Y-88265802D01*
X158132585Y-88264608D01*
X158152826Y-88259932D01*
X158156730Y-88258861D01*
X158185569Y-88246575D01*
X158239502Y-88219448D01*
X158314384Y-88179726D01*
X158406069Y-88129654D01*
X158510413Y-88071480D01*
X158623270Y-88007448D01*
X158665772Y-87983057D01*
X158807709Y-87900651D01*
X158921719Y-87832834D01*
X159009793Y-87778325D01*
X159073922Y-87735844D01*
X159116098Y-87704111D01*
X159138311Y-87681844D01*
X159141083Y-87677408D01*
X159146111Y-87662822D01*
X159150407Y-87638268D01*
X159154022Y-87601332D01*
X159157010Y-87549600D01*
X159159424Y-87480660D01*
X159161316Y-87392098D01*
X159162739Y-87281500D01*
X159163746Y-87146455D01*
X159164391Y-86984548D01*
X159164725Y-86793366D01*
X159164804Y-86593674D01*
X159164749Y-86379890D01*
D12*
X161573981Y-86715600D02*
G75*
G03X161573981Y-86715600I-283981J0D01*
G01*
X160020000Y-102870000D02*
X160451800Y-102870000D01*
X160020000Y-85090000D02*
X160451800Y-85090000D01*
X186690000Y-85090000D02*
X186258200Y-85090000D01*
X186690000Y-88900000D02*
X186690000Y-89331800D01*
X186690000Y-102870000D02*
X186131200Y-102870000D01*
X186690000Y-99060000D02*
X186690000Y-98628200D01*
X186690000Y-88900000D02*
X186690000Y-85090000D01*
X186690000Y-102870000D02*
X186690000Y-99060000D01*
X160020000Y-102870000D02*
X160020000Y-85090000D01*
D10*
X206695000Y-97050000D02*
X206695000Y-90130000D01*
X203645000Y-90130000D02*
X206695000Y-90130000D01*
X203645000Y-90130000D02*
X203645000Y-97050000D01*
X203645000Y-97050000D02*
X206695000Y-97050000D01*
D13*
X172425360Y-98016060D02*
X172425360Y-91213940D01*
X168826180Y-91213940D02*
X168826180Y-98016060D01*
X170624500Y-89413080D02*
G75*
G02X172425360Y-91213940I0J-1800860D01*
G01*
X168826180Y-91213940D02*
G75*
G02X170624500Y-89415620I1798320J0D01*
G01*
X172422820Y-98016060D02*
G75*
G02X170624500Y-99814380I-1798320J0D01*
G01*
X170624500Y-99814380D02*
G75*
G02X168826180Y-98016060I0J1798320D01*
G01*
X170624500Y-88912700D02*
G75*
G02X172925740Y-91213940I0J-2301240D01*
G01*
X168325800Y-91213940D02*
G75*
G02X170624500Y-88915240I2298700J0D01*
G01*
X172923200Y-98016060D02*
G75*
G02X170624500Y-100314760I-2298700J0D01*
G01*
X170624500Y-100314760D02*
G75*
G02X168325800Y-98016060I0J2298700D01*
G01*
X172925740Y-88915240D02*
X168325800Y-88915240D01*
X168325800Y-88915240D02*
X168325800Y-100314760D01*
X168325800Y-100314760D02*
X172925740Y-100314760D01*
X172925740Y-100314760D02*
X172925740Y-88915240D01*
X180627020Y-96116140D02*
G75*
G03X180627020Y-96116140I-3101340J0D01*
G01*
X166674800Y-102664260D02*
X182575200Y-102664260D01*
X182575200Y-102664260D02*
X182575200Y-86565740D01*
X182575200Y-86565740D02*
X166674800Y-86565740D01*
X166674800Y-86565740D02*
X166674800Y-102664260D01*
D12*
X160146905Y-83907381D02*
X160146905Y-84716905D01*
X160099286Y-84812143D01*
X160051667Y-84859762D01*
X159956429Y-84907381D01*
X159765952Y-84907381D01*
X159670714Y-84859762D01*
X159623095Y-84812143D01*
X159575476Y-84716905D01*
X159575476Y-83907381D01*
X159194524Y-83907381D02*
X158575476Y-83907381D01*
X158908810Y-84288333D01*
X158765952Y-84288333D01*
X158670714Y-84335952D01*
X158623095Y-84383571D01*
X158575476Y-84478810D01*
X158575476Y-84716905D01*
X158623095Y-84812143D01*
X158670714Y-84859762D01*
X158765952Y-84907381D01*
X159051667Y-84907381D01*
X159146905Y-84859762D01*
X159194524Y-84812143D01*
X204922381Y-93241905D02*
X203922381Y-93241905D01*
X203922381Y-93622858D01*
X203970000Y-93718096D01*
X204017619Y-93765715D01*
X204112857Y-93813334D01*
X204255714Y-93813334D01*
X204350952Y-93765715D01*
X204398571Y-93718096D01*
X204446190Y-93622858D01*
X204446190Y-93241905D01*
X204922381Y-94765715D02*
X204922381Y-94194286D01*
X204922381Y-94480000D02*
X203922381Y-94480000D01*
X204065238Y-94384762D01*
X204160476Y-94289524D01*
X204208095Y-94194286D01*
D14*
X175786143Y-103280029D02*
X175786143Y-104513743D01*
X175713571Y-104658886D01*
X175641000Y-104731457D01*
X175495857Y-104804029D01*
X175205571Y-104804029D01*
X175060429Y-104731457D01*
X174987857Y-104658886D01*
X174915286Y-104513743D01*
X174915286Y-103280029D01*
X174262143Y-103425171D02*
X174189572Y-103352600D01*
X174044429Y-103280029D01*
X173681572Y-103280029D01*
X173536429Y-103352600D01*
X173463858Y-103425171D01*
X173391286Y-103570314D01*
X173391286Y-103715457D01*
X173463858Y-103933171D01*
X174334715Y-104804029D01*
X173391286Y-104804029D01*
X178761572Y-85804829D02*
X179269572Y-85079114D01*
X179632429Y-85804829D02*
X179632429Y-84280829D01*
X179051857Y-84280829D01*
X178906715Y-84353400D01*
X178834143Y-84425971D01*
X178761572Y-84571114D01*
X178761572Y-84788829D01*
X178834143Y-84933971D01*
X178906715Y-85006543D01*
X179051857Y-85079114D01*
X179632429Y-85079114D01*
X177600429Y-85006543D02*
X178108429Y-85006543D01*
X178108429Y-85804829D02*
X178108429Y-84280829D01*
X177382715Y-84280829D01*
X176802143Y-85804829D02*
X176802143Y-84280829D01*
X176294143Y-85369400D01*
X175786143Y-84280829D01*
X175786143Y-85804829D01*
X174407286Y-84280829D02*
X174697572Y-84280829D01*
X174842715Y-84353400D01*
X174915286Y-84425971D01*
X175060429Y-84643686D01*
X175133000Y-84933971D01*
X175133000Y-85514543D01*
X175060429Y-85659686D01*
X174987857Y-85732257D01*
X174842715Y-85804829D01*
X174552429Y-85804829D01*
X174407286Y-85732257D01*
X174334715Y-85659686D01*
X174262143Y-85514543D01*
X174262143Y-85151686D01*
X174334715Y-85006543D01*
X174407286Y-84933971D01*
X174552429Y-84861400D01*
X174842715Y-84861400D01*
X174987857Y-84933971D01*
X175060429Y-85006543D01*
X175133000Y-85151686D01*
X173536428Y-85804829D02*
X173246143Y-85804829D01*
X173101000Y-85732257D01*
X173028428Y-85659686D01*
X172883286Y-85441971D01*
X172810714Y-85151686D01*
X172810714Y-84571114D01*
X172883286Y-84425971D01*
X172955857Y-84353400D01*
X173101000Y-84280829D01*
X173391286Y-84280829D01*
X173536428Y-84353400D01*
X173609000Y-84425971D01*
X173681571Y-84571114D01*
X173681571Y-84933971D01*
X173609000Y-85079114D01*
X173536428Y-85151686D01*
X173391286Y-85224257D01*
X173101000Y-85224257D01*
X172955857Y-85151686D01*
X172883286Y-85079114D01*
X172810714Y-84933971D01*
X171286714Y-85659686D02*
X171359285Y-85732257D01*
X171576999Y-85804829D01*
X171722142Y-85804829D01*
X171939857Y-85732257D01*
X172084999Y-85587114D01*
X172157571Y-85441971D01*
X172230142Y-85151686D01*
X172230142Y-84933971D01*
X172157571Y-84643686D01*
X172084999Y-84498543D01*
X171939857Y-84353400D01*
X171722142Y-84280829D01*
X171576999Y-84280829D01*
X171359285Y-84353400D01*
X171286714Y-84425971D01*
X170778714Y-84280829D02*
X170415857Y-85804829D01*
X170125571Y-84716257D01*
X169835285Y-85804829D01*
X169472428Y-84280829D01*
M02*
