M48
INCH,TZ
T1C0.016
T2C0.024
T3C0.030
T4C0.033
T5C0.039
T6C0.039
T7C0.051
%
G90
G05
T1
X59478Y-36273
X60025Y-39320
X60958Y-34579
X61077Y-36205
X62277Y-37099
X63876Y-39236
X64444Y-39743
X65110Y-41461
X65541Y-41460
X66387Y-35249
X66557Y-37407
X66591Y-38569
X66790Y-39270
X66850Y-38853
X67286Y-39994
X67589Y-36148
X67590Y-36657
X67750Y-31102
X67910Y-36702
X67987Y-34227
X68121Y-37025
X68309Y-34104
X68750Y-31244
X68769Y-38218
X69075Y-41194
X69088Y-34298
X69283Y-39436
X69376Y-37034
X69902Y-36148
X70234Y-32860
X71006Y-39451
X71030Y-36427
X71105Y-35358
X71121Y-34386
X71397Y-41492
X71857Y-41361
X72692Y-37266
X72872Y-38832
X73928Y-39157
X74004Y-37096
X74097Y-34796
T3
X58750Y-32500
X58750Y-33287
T4
X58425Y-35016
X58425Y-36984
T5
X74500Y-31750
X76272Y-31750
T6
X58000Y-41500
X58000Y-42500
X59250Y-38500
X59250Y-39500
X59250Y-40500
X59250Y-41500
X59250Y-42500
X61250Y-31500
X61250Y-43000
X62250Y-31500
X62250Y-43000
X63250Y-31500
X63250Y-43000
X64250Y-31500
X64250Y-43000
X65250Y-31500
X65250Y-43000
X66250Y-31500
X66250Y-43000
X67250Y-31500
X67250Y-43000
X68250Y-31500
X68250Y-43000
X69250Y-31500
X69250Y-43000
X70250Y-31500
X70250Y-43000
X71250Y-31500
X71250Y-43000
X72250Y-31500
X72250Y-43000
X74250Y-43000
X75250Y-43000
X76250Y-43000
T7
X74008Y-32730
X76768Y-32730
T2
X57224Y-34622G85X57500Y-34622
G05
X57500Y-37378G85X57224Y-37378
G05
T0
M30
