G04 #@! TF.FileFunction,Soldermask,Bot*
%FSLAX46Y46*%
G04 Gerber Fmt 4.6, Leading zero omitted, Abs format (unit mm)*
G04 Created by KiCad (PCBNEW 4.0.7-e2-6376~60~ubuntu17.10.1) date Thu Dec 28 10:46:34 2017*
%MOMM*%
%LPD*%
G01*
G04 APERTURE LIST*
%ADD10C,0.100000*%
%ADD11R,2.100000X1.600000*%
%ADD12O,2.100000X1.600000*%
%ADD13C,1.850000*%
%ADD14O,2.300000X1.600000*%
%ADD15R,2.100000X2.100000*%
%ADD16O,2.100000X2.100000*%
%ADD17R,1.416000X1.924000*%
%ADD18R,1.924000X1.416000*%
%ADD19R,5.100000X1.750000*%
%ADD20R,4.600000X1.670000*%
%ADD21R,3.397200X1.997660*%
%ADD22C,2.500000*%
%ADD23C,2.150000*%
G04 APERTURE END LIST*
D10*
D11*
X149225000Y-82550000D03*
D12*
X149225000Y-84550000D03*
D13*
X148400000Y-88940000D03*
X148400000Y-93940000D03*
D14*
X145700000Y-87940000D03*
X145700000Y-94940000D03*
D15*
X150495000Y-97790000D03*
D16*
X150495000Y-100330000D03*
X150495000Y-102870000D03*
X150495000Y-105410000D03*
X150495000Y-107950000D03*
D17*
X161290000Y-102870000D03*
X162560000Y-102870000D03*
X163830000Y-102870000D03*
X165100000Y-102870000D03*
X166370000Y-102870000D03*
X167640000Y-102870000D03*
X168910000Y-102870000D03*
X170180000Y-102870000D03*
X171450000Y-102870000D03*
X172720000Y-102870000D03*
X173990000Y-102870000D03*
X175260000Y-102870000D03*
X176530000Y-102870000D03*
X177800000Y-102870000D03*
X179070000Y-102870000D03*
X180340000Y-102870000D03*
X181610000Y-102870000D03*
X182880000Y-102870000D03*
X184150000Y-102870000D03*
X185420000Y-102870000D03*
X185420000Y-85090000D03*
D18*
X186690000Y-97790000D03*
X186690000Y-96520000D03*
X186690000Y-95250000D03*
X186690000Y-93980000D03*
X186690000Y-92710000D03*
X186690000Y-91440000D03*
X186690000Y-90170000D03*
D17*
X184150000Y-85090000D03*
X182880000Y-85090000D03*
X181610000Y-85090000D03*
X180340000Y-85090000D03*
X179070000Y-85090000D03*
X177800000Y-85090000D03*
X176530000Y-85090000D03*
X175260000Y-85090000D03*
X173990000Y-85090000D03*
X172720000Y-85090000D03*
X171450000Y-85090000D03*
X170180000Y-85090000D03*
X168910000Y-85090000D03*
X167640000Y-85090000D03*
X166370000Y-85090000D03*
X165100000Y-85090000D03*
X163830000Y-85090000D03*
X162560000Y-85090000D03*
X161290000Y-85090000D03*
D19*
X201295000Y-96375000D03*
X201295000Y-90805000D03*
X201295000Y-90805000D03*
D20*
X201545000Y-93590000D03*
D19*
X201295000Y-96375000D03*
D21*
X166626540Y-100614480D03*
X166624000Y-98615500D03*
X166624000Y-96613980D03*
X166624000Y-94615000D03*
X166624000Y-92616020D03*
X166624000Y-90614500D03*
X166624000Y-88615520D03*
X182626000Y-88615520D03*
X182626000Y-90614500D03*
X182626000Y-92616020D03*
X182626000Y-94615000D03*
X182626000Y-96613980D03*
X182626000Y-98615500D03*
X182626000Y-100614480D03*
D15*
X147320000Y-105410000D03*
D16*
X147320000Y-107950000D03*
D15*
X155575000Y-80010000D03*
D16*
X158115000Y-80010000D03*
X160655000Y-80010000D03*
X163195000Y-80010000D03*
X165735000Y-80010000D03*
X168275000Y-80010000D03*
X170815000Y-80010000D03*
X173355000Y-80010000D03*
X175895000Y-80010000D03*
X178435000Y-80010000D03*
X180975000Y-80010000D03*
X183515000Y-80010000D03*
D15*
X183515000Y-109220000D03*
D16*
X180975000Y-109220000D03*
X178435000Y-109220000D03*
X175895000Y-109220000D03*
X173355000Y-109220000D03*
X170815000Y-109220000D03*
X168275000Y-109220000D03*
X165735000Y-109220000D03*
X163195000Y-109220000D03*
X160655000Y-109220000D03*
X158115000Y-109220000D03*
X155575000Y-109220000D03*
D15*
X193675000Y-109220000D03*
D16*
X191135000Y-109220000D03*
X188595000Y-109220000D03*
D22*
X194990000Y-83135000D03*
D23*
X193730000Y-80645000D03*
X189230000Y-80645000D03*
D22*
X187980000Y-83135000D03*
M02*
