G04 #@! TF.FileFunction,Legend,Top*
%FSLAX46Y46*%
G04 Gerber Fmt 4.6, Leading zero omitted, Abs format (unit mm)*
G04 Created by KiCad (PCBNEW 4.0.7-e2-6376~60~ubuntu17.10.1) date Thu Dec 28 10:46:34 2017*
%MOMM*%
%LPD*%
G01*
G04 APERTURE LIST*
%ADD10C,0.100000*%
%ADD11C,0.300000*%
%ADD12C,0.120000*%
%ADD13C,0.150000*%
%ADD14C,0.203200*%
%ADD15C,0.127000*%
%ADD16C,0.010000*%
G04 APERTURE END LIST*
D10*
X190335000Y-111367857D02*
X190420714Y-111396429D01*
X190563571Y-111396429D01*
X190620714Y-111367857D01*
X190649285Y-111339286D01*
X190677857Y-111282143D01*
X190677857Y-111225000D01*
X190649285Y-111167857D01*
X190620714Y-111139286D01*
X190563571Y-111110714D01*
X190449285Y-111082143D01*
X190392143Y-111053571D01*
X190363571Y-111025000D01*
X190335000Y-110967857D01*
X190335000Y-110910714D01*
X190363571Y-110853571D01*
X190392143Y-110825000D01*
X190449285Y-110796429D01*
X190592143Y-110796429D01*
X190677857Y-110825000D01*
X190877857Y-110796429D02*
X191020714Y-111396429D01*
X191135000Y-110967857D01*
X191249286Y-111396429D01*
X191392143Y-110796429D01*
X191935000Y-111396429D02*
X191592143Y-111396429D01*
X191763571Y-111396429D02*
X191763571Y-110796429D01*
X191706428Y-110882143D01*
X191649286Y-110939286D01*
X191592143Y-110967857D01*
X193232143Y-111396429D02*
X193232143Y-110796429D01*
X193375000Y-110796429D01*
X193460715Y-110825000D01*
X193517857Y-110882143D01*
X193546429Y-110939286D01*
X193575000Y-111053571D01*
X193575000Y-111139286D01*
X193546429Y-111253571D01*
X193517857Y-111310714D01*
X193460715Y-111367857D01*
X193375000Y-111396429D01*
X193232143Y-111396429D01*
X193775000Y-110796429D02*
X194146429Y-110796429D01*
X193946429Y-111025000D01*
X194032143Y-111025000D01*
X194089286Y-111053571D01*
X194117857Y-111082143D01*
X194146429Y-111139286D01*
X194146429Y-111282143D01*
X194117857Y-111339286D01*
X194089286Y-111367857D01*
X194032143Y-111396429D01*
X193860715Y-111396429D01*
X193803572Y-111367857D01*
X193775000Y-111339286D01*
X188266428Y-111396429D02*
X188066428Y-111110714D01*
X187923571Y-111396429D02*
X187923571Y-110796429D01*
X188152143Y-110796429D01*
X188209285Y-110825000D01*
X188237857Y-110853571D01*
X188266428Y-110910714D01*
X188266428Y-110996429D01*
X188237857Y-111053571D01*
X188209285Y-111082143D01*
X188152143Y-111110714D01*
X187923571Y-111110714D01*
X188495000Y-111367857D02*
X188580714Y-111396429D01*
X188723571Y-111396429D01*
X188780714Y-111367857D01*
X188809285Y-111339286D01*
X188837857Y-111282143D01*
X188837857Y-111225000D01*
X188809285Y-111167857D01*
X188780714Y-111139286D01*
X188723571Y-111110714D01*
X188609285Y-111082143D01*
X188552143Y-111053571D01*
X188523571Y-111025000D01*
X188495000Y-110967857D01*
X188495000Y-110910714D01*
X188523571Y-110853571D01*
X188552143Y-110825000D01*
X188609285Y-110796429D01*
X188752143Y-110796429D01*
X188837857Y-110825000D01*
X189009286Y-110796429D02*
X189352143Y-110796429D01*
X189180714Y-111396429D02*
X189180714Y-110796429D01*
X197826667Y-100880000D02*
X197660000Y-100880000D01*
X197660000Y-99880000D01*
X197826667Y-99880000D01*
X198560000Y-100880000D02*
X198726667Y-100880000D01*
X198726667Y-99880000D01*
X198560000Y-99880000D01*
X199493334Y-100646667D02*
X199260000Y-100313333D01*
X199093334Y-100646667D02*
X199093334Y-99946667D01*
X199360000Y-99946667D01*
X199426667Y-99980000D01*
X199460000Y-100013333D01*
X199493334Y-100080000D01*
X199493334Y-100180000D01*
X199460000Y-100246667D01*
X199426667Y-100280000D01*
X199360000Y-100313333D01*
X199093334Y-100313333D01*
X200026667Y-100280000D02*
X199793334Y-100280000D01*
X199793334Y-100646667D02*
X199793334Y-99946667D01*
X200126667Y-99946667D01*
X200393334Y-100646667D02*
X200393334Y-99946667D01*
X200626667Y-100446667D01*
X200860000Y-99946667D01*
X200860000Y-100646667D01*
X201493334Y-99946667D02*
X201360000Y-99946667D01*
X201293334Y-99980000D01*
X201260000Y-100013333D01*
X201193334Y-100113333D01*
X201160000Y-100246667D01*
X201160000Y-100513333D01*
X201193334Y-100580000D01*
X201226667Y-100613333D01*
X201293334Y-100646667D01*
X201426667Y-100646667D01*
X201493334Y-100613333D01*
X201526667Y-100580000D01*
X201560000Y-100513333D01*
X201560000Y-100346667D01*
X201526667Y-100280000D01*
X201493334Y-100246667D01*
X201426667Y-100213333D01*
X201293334Y-100213333D01*
X201226667Y-100246667D01*
X201193334Y-100280000D01*
X201160000Y-100346667D01*
X201893334Y-100646667D02*
X202026667Y-100646667D01*
X202093334Y-100613333D01*
X202126667Y-100580000D01*
X202193334Y-100480000D01*
X202226667Y-100346667D01*
X202226667Y-100080000D01*
X202193334Y-100013333D01*
X202160001Y-99980000D01*
X202093334Y-99946667D01*
X201960001Y-99946667D01*
X201893334Y-99980000D01*
X201860001Y-100013333D01*
X201826667Y-100080000D01*
X201826667Y-100246667D01*
X201860001Y-100313333D01*
X201893334Y-100346667D01*
X201960001Y-100380000D01*
X202093334Y-100380000D01*
X202160001Y-100346667D01*
X202193334Y-100313333D01*
X202226667Y-100246667D01*
X202926668Y-100580000D02*
X202893334Y-100613333D01*
X202793334Y-100646667D01*
X202726668Y-100646667D01*
X202626668Y-100613333D01*
X202560001Y-100546667D01*
X202526668Y-100480000D01*
X202493334Y-100346667D01*
X202493334Y-100246667D01*
X202526668Y-100113333D01*
X202560001Y-100046667D01*
X202626668Y-99980000D01*
X202726668Y-99946667D01*
X202793334Y-99946667D01*
X202893334Y-99980000D01*
X202926668Y-100013333D01*
X203160001Y-99946667D02*
X203326668Y-100646667D01*
X203460001Y-100146667D01*
X203593334Y-100646667D01*
X203760001Y-99946667D01*
X198243333Y-98975000D02*
X198076666Y-98975000D01*
X198076666Y-97975000D01*
X198243333Y-97975000D01*
X198976666Y-98975000D02*
X199143333Y-98975000D01*
X199143333Y-97975000D01*
X198976666Y-97975000D01*
X199910000Y-98741667D02*
X199676666Y-98408333D01*
X199510000Y-98741667D02*
X199510000Y-98041667D01*
X199776666Y-98041667D01*
X199843333Y-98075000D01*
X199876666Y-98108333D01*
X199910000Y-98175000D01*
X199910000Y-98275000D01*
X199876666Y-98341667D01*
X199843333Y-98375000D01*
X199776666Y-98408333D01*
X199510000Y-98408333D01*
X200210000Y-98741667D02*
X200210000Y-98041667D01*
X200610000Y-98741667D01*
X200610000Y-98041667D01*
X200909999Y-98108333D02*
X200943333Y-98075000D01*
X201009999Y-98041667D01*
X201176666Y-98041667D01*
X201243333Y-98075000D01*
X201276666Y-98108333D01*
X201309999Y-98175000D01*
X201309999Y-98241667D01*
X201276666Y-98341667D01*
X200876666Y-98741667D01*
X201309999Y-98741667D01*
X201910000Y-98275000D02*
X201910000Y-98741667D01*
X201743333Y-98008333D02*
X201576666Y-98508333D01*
X202010000Y-98508333D01*
X202376667Y-98341667D02*
X202310000Y-98308333D01*
X202276667Y-98275000D01*
X202243333Y-98208333D01*
X202243333Y-98175000D01*
X202276667Y-98108333D01*
X202310000Y-98075000D01*
X202376667Y-98041667D01*
X202510000Y-98041667D01*
X202576667Y-98075000D01*
X202610000Y-98108333D01*
X202643333Y-98175000D01*
X202643333Y-98208333D01*
X202610000Y-98275000D01*
X202576667Y-98308333D01*
X202510000Y-98341667D01*
X202376667Y-98341667D01*
X202310000Y-98375000D01*
X202276667Y-98408333D01*
X202243333Y-98475000D01*
X202243333Y-98608333D01*
X202276667Y-98675000D01*
X202310000Y-98708333D01*
X202376667Y-98741667D01*
X202510000Y-98741667D01*
X202576667Y-98708333D01*
X202610000Y-98675000D01*
X202643333Y-98608333D01*
X202643333Y-98475000D01*
X202610000Y-98408333D01*
X202576667Y-98375000D01*
X202510000Y-98341667D01*
X202876667Y-98041667D02*
X203310000Y-98041667D01*
X203076667Y-98308333D01*
X203176667Y-98308333D01*
X203243334Y-98341667D01*
X203276667Y-98375000D01*
X203310000Y-98441667D01*
X203310000Y-98608333D01*
X203276667Y-98675000D01*
X203243334Y-98708333D01*
X203176667Y-98741667D01*
X202976667Y-98741667D01*
X202910000Y-98708333D01*
X202876667Y-98675000D01*
D11*
X185463571Y-79724286D02*
X185677857Y-80010000D01*
X185463571Y-80295715D01*
D10*
X151942858Y-100030000D02*
X151885715Y-100001429D01*
X151800001Y-100001429D01*
X151714286Y-100030000D01*
X151657144Y-100087143D01*
X151628572Y-100144286D01*
X151600001Y-100258571D01*
X151600001Y-100344286D01*
X151628572Y-100458571D01*
X151657144Y-100515714D01*
X151714286Y-100572857D01*
X151800001Y-100601429D01*
X151857144Y-100601429D01*
X151942858Y-100572857D01*
X151971429Y-100544286D01*
X151971429Y-100344286D01*
X151857144Y-100344286D01*
X152228572Y-100601429D02*
X152228572Y-100001429D01*
X152571429Y-100601429D01*
X152571429Y-100001429D01*
X152857143Y-100601429D02*
X152857143Y-100001429D01*
X153000000Y-100001429D01*
X153085715Y-100030000D01*
X153142857Y-100087143D01*
X153171429Y-100144286D01*
X153200000Y-100258571D01*
X153200000Y-100344286D01*
X153171429Y-100458571D01*
X153142857Y-100515714D01*
X153085715Y-100572857D01*
X153000000Y-100601429D01*
X152857143Y-100601429D01*
X151342857Y-97832857D02*
X151800000Y-97832857D01*
X151571429Y-98061429D02*
X151571429Y-97604286D01*
X152028571Y-97461429D02*
X152400000Y-97461429D01*
X152200000Y-97690000D01*
X152285714Y-97690000D01*
X152342857Y-97718571D01*
X152371428Y-97747143D01*
X152400000Y-97804286D01*
X152400000Y-97947143D01*
X152371428Y-98004286D01*
X152342857Y-98032857D01*
X152285714Y-98061429D01*
X152114286Y-98061429D01*
X152057143Y-98032857D01*
X152028571Y-98004286D01*
X152571429Y-97461429D02*
X152771429Y-98061429D01*
X152971429Y-97461429D01*
X153114286Y-97461429D02*
X153485715Y-97461429D01*
X153285715Y-97690000D01*
X153371429Y-97690000D01*
X153428572Y-97718571D01*
X153457143Y-97747143D01*
X153485715Y-97804286D01*
X153485715Y-97947143D01*
X153457143Y-98004286D01*
X153428572Y-98032857D01*
X153371429Y-98061429D01*
X153200001Y-98061429D01*
X153142858Y-98032857D01*
X153114286Y-98004286D01*
X151714286Y-108221429D02*
X151714286Y-107621429D01*
X151857143Y-107621429D01*
X151942858Y-107650000D01*
X152000000Y-107707143D01*
X152028572Y-107764286D01*
X152057143Y-107878571D01*
X152057143Y-107964286D01*
X152028572Y-108078571D01*
X152000000Y-108135714D01*
X151942858Y-108192857D01*
X151857143Y-108221429D01*
X151714286Y-108221429D01*
X152228572Y-107621429D02*
X152571429Y-107621429D01*
X152400000Y-108221429D02*
X152400000Y-107621429D01*
X153114286Y-108221429D02*
X152914286Y-107935714D01*
X152771429Y-108221429D02*
X152771429Y-107621429D01*
X153000001Y-107621429D01*
X153057143Y-107650000D01*
X153085715Y-107678571D01*
X153114286Y-107735714D01*
X153114286Y-107821429D01*
X153085715Y-107878571D01*
X153057143Y-107907143D01*
X153000001Y-107935714D01*
X152771429Y-107935714D01*
X151942857Y-105081429D02*
X152285714Y-105081429D01*
X152114285Y-105681429D02*
X152114285Y-105081429D01*
X152428571Y-105081429D02*
X152828571Y-105681429D01*
X152828571Y-105081429D02*
X152428571Y-105681429D01*
X152300000Y-103141429D02*
X152100000Y-102855714D01*
X151957143Y-103141429D02*
X151957143Y-102541429D01*
X152185715Y-102541429D01*
X152242857Y-102570000D01*
X152271429Y-102598571D01*
X152300000Y-102655714D01*
X152300000Y-102741429D01*
X152271429Y-102798571D01*
X152242857Y-102827143D01*
X152185715Y-102855714D01*
X151957143Y-102855714D01*
X152500000Y-102541429D02*
X152900000Y-103141429D01*
X152900000Y-102541429D02*
X152500000Y-103141429D01*
X175437857Y-81586429D02*
X175780714Y-81586429D01*
X175609285Y-82186429D02*
X175609285Y-81586429D01*
X175923571Y-81586429D02*
X176323571Y-82186429D01*
X176323571Y-81586429D02*
X175923571Y-82186429D01*
X173255000Y-82186429D02*
X173055000Y-81900714D01*
X172912143Y-82186429D02*
X172912143Y-81586429D01*
X173140715Y-81586429D01*
X173197857Y-81615000D01*
X173226429Y-81643571D01*
X173255000Y-81700714D01*
X173255000Y-81786429D01*
X173226429Y-81843571D01*
X173197857Y-81872143D01*
X173140715Y-81900714D01*
X172912143Y-81900714D01*
X173455000Y-81586429D02*
X173855000Y-82186429D01*
X173855000Y-81586429D02*
X173455000Y-82186429D01*
X160226429Y-82015000D02*
X160512143Y-82015000D01*
X160169286Y-82186429D02*
X160369286Y-81586429D01*
X160569286Y-82186429D01*
X160712143Y-81586429D02*
X161083572Y-81586429D01*
X160883572Y-81815000D01*
X160969286Y-81815000D01*
X161026429Y-81843571D01*
X161055000Y-81872143D01*
X161083572Y-81929286D01*
X161083572Y-82072143D01*
X161055000Y-82129286D01*
X161026429Y-82157857D01*
X160969286Y-82186429D01*
X160797858Y-82186429D01*
X160740715Y-82157857D01*
X160712143Y-82129286D01*
X177992143Y-82186429D02*
X177992143Y-81586429D01*
X178135000Y-81586429D01*
X178220715Y-81615000D01*
X178277857Y-81672143D01*
X178306429Y-81729286D01*
X178335000Y-81843571D01*
X178335000Y-81929286D01*
X178306429Y-82043571D01*
X178277857Y-82100714D01*
X178220715Y-82157857D01*
X178135000Y-82186429D01*
X177992143Y-82186429D01*
X178563572Y-81643571D02*
X178592143Y-81615000D01*
X178649286Y-81586429D01*
X178792143Y-81586429D01*
X178849286Y-81615000D01*
X178877857Y-81643571D01*
X178906429Y-81700714D01*
X178906429Y-81757857D01*
X178877857Y-81843571D01*
X178535000Y-82186429D01*
X178906429Y-82186429D01*
X165292143Y-111396429D02*
X165292143Y-110796429D01*
X165435000Y-110796429D01*
X165520715Y-110825000D01*
X165577857Y-110882143D01*
X165606429Y-110939286D01*
X165635000Y-111053571D01*
X165635000Y-111139286D01*
X165606429Y-111253571D01*
X165577857Y-111310714D01*
X165520715Y-111367857D01*
X165435000Y-111396429D01*
X165292143Y-111396429D01*
X165920715Y-111396429D02*
X166035000Y-111396429D01*
X166092143Y-111367857D01*
X166120715Y-111339286D01*
X166177857Y-111253571D01*
X166206429Y-111139286D01*
X166206429Y-110910714D01*
X166177857Y-110853571D01*
X166149286Y-110825000D01*
X166092143Y-110796429D01*
X165977857Y-110796429D01*
X165920715Y-110825000D01*
X165892143Y-110853571D01*
X165863572Y-110910714D01*
X165863572Y-111053571D01*
X165892143Y-111110714D01*
X165920715Y-111139286D01*
X165977857Y-111167857D01*
X166092143Y-111167857D01*
X166149286Y-111139286D01*
X166177857Y-111110714D01*
X166206429Y-111053571D01*
X167832143Y-111396429D02*
X167832143Y-110796429D01*
X167975000Y-110796429D01*
X168060715Y-110825000D01*
X168117857Y-110882143D01*
X168146429Y-110939286D01*
X168175000Y-111053571D01*
X168175000Y-111139286D01*
X168146429Y-111253571D01*
X168117857Y-111310714D01*
X168060715Y-111367857D01*
X167975000Y-111396429D01*
X167832143Y-111396429D01*
X168517857Y-111053571D02*
X168460715Y-111025000D01*
X168432143Y-110996429D01*
X168403572Y-110939286D01*
X168403572Y-110910714D01*
X168432143Y-110853571D01*
X168460715Y-110825000D01*
X168517857Y-110796429D01*
X168632143Y-110796429D01*
X168689286Y-110825000D01*
X168717857Y-110853571D01*
X168746429Y-110910714D01*
X168746429Y-110939286D01*
X168717857Y-110996429D01*
X168689286Y-111025000D01*
X168632143Y-111053571D01*
X168517857Y-111053571D01*
X168460715Y-111082143D01*
X168432143Y-111110714D01*
X168403572Y-111167857D01*
X168403572Y-111282143D01*
X168432143Y-111339286D01*
X168460715Y-111367857D01*
X168517857Y-111396429D01*
X168632143Y-111396429D01*
X168689286Y-111367857D01*
X168717857Y-111339286D01*
X168746429Y-111282143D01*
X168746429Y-111167857D01*
X168717857Y-111110714D01*
X168689286Y-111082143D01*
X168632143Y-111053571D01*
X190873334Y-105526667D02*
X191206668Y-105526667D01*
X190806668Y-105726667D02*
X191040001Y-105026667D01*
X191273334Y-105726667D01*
X191840001Y-105726667D02*
X191506668Y-105726667D01*
X191506668Y-105026667D01*
X192206668Y-105026667D02*
X192340001Y-105026667D01*
X192406668Y-105060000D01*
X192473335Y-105126667D01*
X192506668Y-105260000D01*
X192506668Y-105493333D01*
X192473335Y-105626667D01*
X192406668Y-105693333D01*
X192340001Y-105726667D01*
X192206668Y-105726667D01*
X192140001Y-105693333D01*
X192073335Y-105626667D01*
X192040001Y-105493333D01*
X192040001Y-105260000D01*
X192073335Y-105126667D01*
X192140001Y-105060000D01*
X192206668Y-105026667D01*
X192806668Y-105360000D02*
X193040001Y-105360000D01*
X193140001Y-105726667D02*
X192806668Y-105726667D01*
X192806668Y-105026667D01*
X193140001Y-105026667D01*
X193406667Y-105693333D02*
X193506667Y-105726667D01*
X193673334Y-105726667D01*
X193740001Y-105693333D01*
X193773334Y-105660000D01*
X193806667Y-105593333D01*
X193806667Y-105526667D01*
X193773334Y-105460000D01*
X193740001Y-105426667D01*
X193673334Y-105393333D01*
X193540001Y-105360000D01*
X193473334Y-105326667D01*
X193440001Y-105293333D01*
X193406667Y-105226667D01*
X193406667Y-105160000D01*
X193440001Y-105093333D01*
X193473334Y-105060000D01*
X193540001Y-105026667D01*
X193706667Y-105026667D01*
X193806667Y-105060000D01*
X194106668Y-105660000D02*
X194140001Y-105693333D01*
X194106668Y-105726667D01*
X194073334Y-105693333D01*
X194106668Y-105660000D01*
X194106668Y-105726667D01*
X194440001Y-105726667D02*
X194440001Y-105026667D01*
X194906667Y-105026667D02*
X195040000Y-105026667D01*
X195106667Y-105060000D01*
X195173334Y-105126667D01*
X195206667Y-105260000D01*
X195206667Y-105493333D01*
X195173334Y-105626667D01*
X195106667Y-105693333D01*
X195040000Y-105726667D01*
X194906667Y-105726667D01*
X194840000Y-105693333D01*
X194773334Y-105626667D01*
X194740000Y-105493333D01*
X194740000Y-105260000D01*
X194773334Y-105126667D01*
X194840000Y-105060000D01*
X194906667Y-105026667D01*
X176380714Y-78319286D02*
X176352143Y-78347857D01*
X176266429Y-78376429D01*
X176209286Y-78376429D01*
X176123571Y-78347857D01*
X176066429Y-78290714D01*
X176037857Y-78233571D01*
X176009286Y-78119286D01*
X176009286Y-78033571D01*
X176037857Y-77919286D01*
X176066429Y-77862143D01*
X176123571Y-77805000D01*
X176209286Y-77776429D01*
X176266429Y-77776429D01*
X176352143Y-77805000D01*
X176380714Y-77833571D01*
X176723571Y-78376429D02*
X176666429Y-78347857D01*
X176637857Y-78319286D01*
X176609286Y-78262143D01*
X176609286Y-78090714D01*
X176637857Y-78033571D01*
X176666429Y-78005000D01*
X176723571Y-77976429D01*
X176809286Y-77976429D01*
X176866429Y-78005000D01*
X176895000Y-78033571D01*
X176923571Y-78090714D01*
X176923571Y-78262143D01*
X176895000Y-78319286D01*
X176866429Y-78347857D01*
X176809286Y-78376429D01*
X176723571Y-78376429D01*
X177152143Y-78347857D02*
X177209286Y-78376429D01*
X177323571Y-78376429D01*
X177380714Y-78347857D01*
X177409286Y-78290714D01*
X177409286Y-78262143D01*
X177380714Y-78205000D01*
X177323571Y-78176429D01*
X177237857Y-78176429D01*
X177180714Y-78147857D01*
X177152143Y-78090714D01*
X177152143Y-78062143D01*
X177180714Y-78005000D01*
X177237857Y-77976429D01*
X177323571Y-77976429D01*
X177380714Y-78005000D01*
X177666428Y-78376429D02*
X177666428Y-77976429D01*
X177666428Y-78033571D02*
X177695000Y-78005000D01*
X177752142Y-77976429D01*
X177837857Y-77976429D01*
X177895000Y-78005000D01*
X177923571Y-78062143D01*
X177923571Y-78376429D01*
X177923571Y-78062143D02*
X177952142Y-78005000D01*
X178009285Y-77976429D01*
X178095000Y-77976429D01*
X178152142Y-78005000D01*
X178180714Y-78062143D01*
X178180714Y-78376429D01*
X178552142Y-78376429D02*
X178495000Y-78347857D01*
X178466428Y-78319286D01*
X178437857Y-78262143D01*
X178437857Y-78090714D01*
X178466428Y-78033571D01*
X178495000Y-78005000D01*
X178552142Y-77976429D01*
X178637857Y-77976429D01*
X178695000Y-78005000D01*
X178723571Y-78033571D01*
X178752142Y-78090714D01*
X178752142Y-78262143D01*
X178723571Y-78319286D01*
X178695000Y-78347857D01*
X178637857Y-78376429D01*
X178552142Y-78376429D01*
X179009285Y-77976429D02*
X179009285Y-78376429D01*
X179009285Y-78033571D02*
X179037857Y-78005000D01*
X179094999Y-77976429D01*
X179180714Y-77976429D01*
X179237857Y-78005000D01*
X179266428Y-78062143D01*
X179266428Y-78376429D01*
X179637856Y-78376429D02*
X179580714Y-78347857D01*
X179552142Y-78319286D01*
X179523571Y-78262143D01*
X179523571Y-78090714D01*
X179552142Y-78033571D01*
X179580714Y-78005000D01*
X179637856Y-77976429D01*
X179723571Y-77976429D01*
X179780714Y-78005000D01*
X179809285Y-78033571D01*
X179837856Y-78090714D01*
X179837856Y-78262143D01*
X179809285Y-78319286D01*
X179780714Y-78347857D01*
X179723571Y-78376429D01*
X179637856Y-78376429D01*
X180352142Y-78376429D02*
X180352142Y-77776429D01*
X180352142Y-78347857D02*
X180294999Y-78376429D01*
X180180713Y-78376429D01*
X180123571Y-78347857D01*
X180094999Y-78319286D01*
X180066428Y-78262143D01*
X180066428Y-78090714D01*
X180094999Y-78033571D01*
X180123571Y-78005000D01*
X180180713Y-77976429D01*
X180294999Y-77976429D01*
X180352142Y-78005000D01*
X180866428Y-78347857D02*
X180809285Y-78376429D01*
X180694999Y-78376429D01*
X180637856Y-78347857D01*
X180609285Y-78290714D01*
X180609285Y-78062143D01*
X180637856Y-78005000D01*
X180694999Y-77976429D01*
X180809285Y-77976429D01*
X180866428Y-78005000D01*
X180894999Y-78062143D01*
X180894999Y-78119286D01*
X180609285Y-78176429D01*
X181552142Y-77976429D02*
X181694999Y-78376429D01*
X181837857Y-77976429D01*
X182180714Y-77776429D02*
X182237857Y-77776429D01*
X182295000Y-77805000D01*
X182323571Y-77833571D01*
X182352142Y-77890714D01*
X182380714Y-78005000D01*
X182380714Y-78147857D01*
X182352142Y-78262143D01*
X182323571Y-78319286D01*
X182295000Y-78347857D01*
X182237857Y-78376429D01*
X182180714Y-78376429D01*
X182123571Y-78347857D01*
X182095000Y-78319286D01*
X182066428Y-78262143D01*
X182037857Y-78147857D01*
X182037857Y-78005000D01*
X182066428Y-77890714D01*
X182095000Y-77833571D01*
X182123571Y-77805000D01*
X182180714Y-77776429D01*
X182637857Y-78319286D02*
X182666429Y-78347857D01*
X182637857Y-78376429D01*
X182609286Y-78347857D01*
X182637857Y-78319286D01*
X182637857Y-78376429D01*
X182866428Y-77776429D02*
X183266428Y-77776429D01*
X183009285Y-78376429D01*
X154803572Y-111367857D02*
X154889286Y-111396429D01*
X155032143Y-111396429D01*
X155089286Y-111367857D01*
X155117857Y-111339286D01*
X155146429Y-111282143D01*
X155146429Y-111225000D01*
X155117857Y-111167857D01*
X155089286Y-111139286D01*
X155032143Y-111110714D01*
X154917857Y-111082143D01*
X154860715Y-111053571D01*
X154832143Y-111025000D01*
X154803572Y-110967857D01*
X154803572Y-110910714D01*
X154832143Y-110853571D01*
X154860715Y-110825000D01*
X154917857Y-110796429D01*
X155060715Y-110796429D01*
X155146429Y-110825000D01*
X155746429Y-111339286D02*
X155717858Y-111367857D01*
X155632144Y-111396429D01*
X155575001Y-111396429D01*
X155489286Y-111367857D01*
X155432144Y-111310714D01*
X155403572Y-111253571D01*
X155375001Y-111139286D01*
X155375001Y-111053571D01*
X155403572Y-110939286D01*
X155432144Y-110882143D01*
X155489286Y-110825000D01*
X155575001Y-110796429D01*
X155632144Y-110796429D01*
X155717858Y-110825000D01*
X155746429Y-110853571D01*
X156003572Y-111396429D02*
X156003572Y-110796429D01*
X156346429Y-111396429D02*
X156089286Y-111053571D01*
X156346429Y-110796429D02*
X156003572Y-111139286D01*
X157172143Y-111396429D02*
X157172143Y-110796429D01*
X157372143Y-111225000D01*
X157572143Y-110796429D01*
X157572143Y-111396429D01*
X157857857Y-111396429D02*
X157857857Y-110796429D01*
X158115000Y-111367857D02*
X158200714Y-111396429D01*
X158343571Y-111396429D01*
X158400714Y-111367857D01*
X158429285Y-111339286D01*
X158457857Y-111282143D01*
X158457857Y-111225000D01*
X158429285Y-111167857D01*
X158400714Y-111139286D01*
X158343571Y-111110714D01*
X158229285Y-111082143D01*
X158172143Y-111053571D01*
X158143571Y-111025000D01*
X158115000Y-110967857D01*
X158115000Y-110910714D01*
X158143571Y-110853571D01*
X158172143Y-110825000D01*
X158229285Y-110796429D01*
X158372143Y-110796429D01*
X158457857Y-110825000D01*
X158829286Y-110796429D02*
X158943572Y-110796429D01*
X159000714Y-110825000D01*
X159057857Y-110882143D01*
X159086429Y-110996429D01*
X159086429Y-111196429D01*
X159057857Y-111310714D01*
X159000714Y-111367857D01*
X158943572Y-111396429D01*
X158829286Y-111396429D01*
X158772143Y-111367857D01*
X158715000Y-111310714D01*
X158686429Y-111196429D01*
X158686429Y-110996429D01*
X158715000Y-110882143D01*
X158772143Y-110825000D01*
X158829286Y-110796429D01*
X159712143Y-111396429D02*
X159712143Y-110796429D01*
X159912143Y-111225000D01*
X160112143Y-110796429D01*
X160112143Y-111396429D01*
X160512143Y-110796429D02*
X160626429Y-110796429D01*
X160683571Y-110825000D01*
X160740714Y-110882143D01*
X160769286Y-110996429D01*
X160769286Y-111196429D01*
X160740714Y-111310714D01*
X160683571Y-111367857D01*
X160626429Y-111396429D01*
X160512143Y-111396429D01*
X160455000Y-111367857D01*
X160397857Y-111310714D01*
X160369286Y-111196429D01*
X160369286Y-110996429D01*
X160397857Y-110882143D01*
X160455000Y-110825000D01*
X160512143Y-110796429D01*
X160997857Y-111367857D02*
X161083571Y-111396429D01*
X161226428Y-111396429D01*
X161283571Y-111367857D01*
X161312142Y-111339286D01*
X161340714Y-111282143D01*
X161340714Y-111225000D01*
X161312142Y-111167857D01*
X161283571Y-111139286D01*
X161226428Y-111110714D01*
X161112142Y-111082143D01*
X161055000Y-111053571D01*
X161026428Y-111025000D01*
X160997857Y-110967857D01*
X160997857Y-110910714D01*
X161026428Y-110853571D01*
X161055000Y-110825000D01*
X161112142Y-110796429D01*
X161255000Y-110796429D01*
X161340714Y-110825000D01*
X161597857Y-111396429D02*
X161597857Y-110796429D01*
X162866428Y-111396429D02*
X162666428Y-111110714D01*
X162523571Y-111396429D02*
X162523571Y-110796429D01*
X162752143Y-110796429D01*
X162809285Y-110825000D01*
X162837857Y-110853571D01*
X162866428Y-110910714D01*
X162866428Y-110996429D01*
X162837857Y-111053571D01*
X162809285Y-111082143D01*
X162752143Y-111110714D01*
X162523571Y-111110714D01*
X163095000Y-111367857D02*
X163180714Y-111396429D01*
X163323571Y-111396429D01*
X163380714Y-111367857D01*
X163409285Y-111339286D01*
X163437857Y-111282143D01*
X163437857Y-111225000D01*
X163409285Y-111167857D01*
X163380714Y-111139286D01*
X163323571Y-111110714D01*
X163209285Y-111082143D01*
X163152143Y-111053571D01*
X163123571Y-111025000D01*
X163095000Y-110967857D01*
X163095000Y-110910714D01*
X163123571Y-110853571D01*
X163152143Y-110825000D01*
X163209285Y-110796429D01*
X163352143Y-110796429D01*
X163437857Y-110825000D01*
X163609286Y-110796429D02*
X163952143Y-110796429D01*
X163780714Y-111396429D02*
X163780714Y-110796429D01*
X167846429Y-82015000D02*
X168132143Y-82015000D01*
X167789286Y-82186429D02*
X167989286Y-81586429D01*
X168189286Y-82186429D01*
X168646429Y-81586429D02*
X168532143Y-81586429D01*
X168475000Y-81615000D01*
X168446429Y-81643571D01*
X168389286Y-81729286D01*
X168360715Y-81843571D01*
X168360715Y-82072143D01*
X168389286Y-82129286D01*
X168417858Y-82157857D01*
X168475000Y-82186429D01*
X168589286Y-82186429D01*
X168646429Y-82157857D01*
X168675000Y-82129286D01*
X168703572Y-82072143D01*
X168703572Y-81929286D01*
X168675000Y-81872143D01*
X168646429Y-81843571D01*
X168589286Y-81815000D01*
X168475000Y-81815000D01*
X168417858Y-81843571D01*
X168389286Y-81872143D01*
X168360715Y-81929286D01*
X157686429Y-82015000D02*
X157972143Y-82015000D01*
X157629286Y-82186429D02*
X157829286Y-81586429D01*
X158029286Y-82186429D01*
X158543572Y-82186429D02*
X158200715Y-82186429D01*
X158372143Y-82186429D02*
X158372143Y-81586429D01*
X158315000Y-81672143D01*
X158257858Y-81729286D01*
X158200715Y-81757857D01*
X155146429Y-82015000D02*
X155432143Y-82015000D01*
X155089286Y-82186429D02*
X155289286Y-81586429D01*
X155489286Y-82186429D01*
X155803572Y-81586429D02*
X155860715Y-81586429D01*
X155917858Y-81615000D01*
X155946429Y-81643571D01*
X155975000Y-81700714D01*
X156003572Y-81815000D01*
X156003572Y-81957857D01*
X155975000Y-82072143D01*
X155946429Y-82129286D01*
X155917858Y-82157857D01*
X155860715Y-82186429D01*
X155803572Y-82186429D01*
X155746429Y-82157857D01*
X155717858Y-82129286D01*
X155689286Y-82072143D01*
X155660715Y-81957857D01*
X155660715Y-81815000D01*
X155689286Y-81700714D01*
X155717858Y-81643571D01*
X155746429Y-81615000D01*
X155803572Y-81586429D01*
X170372143Y-111396429D02*
X170372143Y-110796429D01*
X170515000Y-110796429D01*
X170600715Y-110825000D01*
X170657857Y-110882143D01*
X170686429Y-110939286D01*
X170715000Y-111053571D01*
X170715000Y-111139286D01*
X170686429Y-111253571D01*
X170657857Y-111310714D01*
X170600715Y-111367857D01*
X170515000Y-111396429D01*
X170372143Y-111396429D01*
X170915000Y-110796429D02*
X171315000Y-110796429D01*
X171057857Y-111396429D01*
X177977858Y-110825000D02*
X177920715Y-110796429D01*
X177835001Y-110796429D01*
X177749286Y-110825000D01*
X177692144Y-110882143D01*
X177663572Y-110939286D01*
X177635001Y-111053571D01*
X177635001Y-111139286D01*
X177663572Y-111253571D01*
X177692144Y-111310714D01*
X177749286Y-111367857D01*
X177835001Y-111396429D01*
X177892144Y-111396429D01*
X177977858Y-111367857D01*
X178006429Y-111339286D01*
X178006429Y-111139286D01*
X177892144Y-111139286D01*
X178263572Y-111396429D02*
X178263572Y-110796429D01*
X178606429Y-111396429D01*
X178606429Y-110796429D01*
X178892143Y-111396429D02*
X178892143Y-110796429D01*
X179035000Y-110796429D01*
X179120715Y-110825000D01*
X179177857Y-110882143D01*
X179206429Y-110939286D01*
X179235000Y-111053571D01*
X179235000Y-111139286D01*
X179206429Y-111253571D01*
X179177857Y-111310714D01*
X179120715Y-111367857D01*
X179035000Y-111396429D01*
X178892143Y-111396429D01*
X170386429Y-82015000D02*
X170672143Y-82015000D01*
X170329286Y-82186429D02*
X170529286Y-81586429D01*
X170729286Y-82186429D01*
X170872143Y-81586429D02*
X171272143Y-81586429D01*
X171015000Y-82186429D01*
X165306429Y-82015000D02*
X165592143Y-82015000D01*
X165249286Y-82186429D02*
X165449286Y-81586429D01*
X165649286Y-82186429D01*
X166135000Y-81586429D02*
X165849286Y-81586429D01*
X165820715Y-81872143D01*
X165849286Y-81843571D01*
X165906429Y-81815000D01*
X166049286Y-81815000D01*
X166106429Y-81843571D01*
X166135000Y-81872143D01*
X166163572Y-81929286D01*
X166163572Y-82072143D01*
X166135000Y-82129286D01*
X166106429Y-82157857D01*
X166049286Y-82186429D01*
X165906429Y-82186429D01*
X165849286Y-82157857D01*
X165820715Y-82129286D01*
X162766429Y-82015000D02*
X163052143Y-82015000D01*
X162709286Y-82186429D02*
X162909286Y-81586429D01*
X163109286Y-82186429D01*
X163566429Y-81786429D02*
X163566429Y-82186429D01*
X163423572Y-81557857D02*
X163280715Y-81986429D01*
X163652143Y-81986429D01*
X180089285Y-110796429D02*
X180460714Y-110796429D01*
X180260714Y-111025000D01*
X180346428Y-111025000D01*
X180403571Y-111053571D01*
X180432142Y-111082143D01*
X180460714Y-111139286D01*
X180460714Y-111282143D01*
X180432142Y-111339286D01*
X180403571Y-111367857D01*
X180346428Y-111396429D01*
X180175000Y-111396429D01*
X180117857Y-111367857D01*
X180089285Y-111339286D01*
X180717857Y-111339286D02*
X180746429Y-111367857D01*
X180717857Y-111396429D01*
X180689286Y-111367857D01*
X180717857Y-111339286D01*
X180717857Y-111396429D01*
X180946428Y-110796429D02*
X181317857Y-110796429D01*
X181117857Y-111025000D01*
X181203571Y-111025000D01*
X181260714Y-111053571D01*
X181289285Y-111082143D01*
X181317857Y-111139286D01*
X181317857Y-111282143D01*
X181289285Y-111339286D01*
X181260714Y-111367857D01*
X181203571Y-111396429D01*
X181032143Y-111396429D01*
X180975000Y-111367857D01*
X180946428Y-111339286D01*
X181489286Y-110796429D02*
X181689286Y-111396429D01*
X181889286Y-110796429D01*
X182500714Y-111167857D02*
X182957857Y-111167857D01*
X182729286Y-111396429D02*
X182729286Y-110939286D01*
X183443571Y-111082143D02*
X183529285Y-111110714D01*
X183557857Y-111139286D01*
X183586428Y-111196429D01*
X183586428Y-111282143D01*
X183557857Y-111339286D01*
X183529285Y-111367857D01*
X183472143Y-111396429D01*
X183243571Y-111396429D01*
X183243571Y-110796429D01*
X183443571Y-110796429D01*
X183500714Y-110825000D01*
X183529285Y-110853571D01*
X183557857Y-110910714D01*
X183557857Y-110967857D01*
X183529285Y-111025000D01*
X183500714Y-111053571D01*
X183443571Y-111082143D01*
X183243571Y-111082143D01*
X183815000Y-111225000D02*
X184100714Y-111225000D01*
X183757857Y-111396429D02*
X183957857Y-110796429D01*
X184157857Y-111396429D01*
X184272143Y-110796429D02*
X184615000Y-110796429D01*
X184443571Y-111396429D02*
X184443571Y-110796429D01*
X172912143Y-111396429D02*
X172912143Y-110796429D01*
X173055000Y-110796429D01*
X173140715Y-110825000D01*
X173197857Y-110882143D01*
X173226429Y-110939286D01*
X173255000Y-111053571D01*
X173255000Y-111139286D01*
X173226429Y-111253571D01*
X173197857Y-111310714D01*
X173140715Y-111367857D01*
X173055000Y-111396429D01*
X172912143Y-111396429D01*
X173769286Y-110796429D02*
X173655000Y-110796429D01*
X173597857Y-110825000D01*
X173569286Y-110853571D01*
X173512143Y-110939286D01*
X173483572Y-111053571D01*
X173483572Y-111282143D01*
X173512143Y-111339286D01*
X173540715Y-111367857D01*
X173597857Y-111396429D01*
X173712143Y-111396429D01*
X173769286Y-111367857D01*
X173797857Y-111339286D01*
X173826429Y-111282143D01*
X173826429Y-111139286D01*
X173797857Y-111082143D01*
X173769286Y-111053571D01*
X173712143Y-111025000D01*
X173597857Y-111025000D01*
X173540715Y-111053571D01*
X173512143Y-111082143D01*
X173483572Y-111139286D01*
X175452143Y-111396429D02*
X175452143Y-110796429D01*
X175595000Y-110796429D01*
X175680715Y-110825000D01*
X175737857Y-110882143D01*
X175766429Y-110939286D01*
X175795000Y-111053571D01*
X175795000Y-111139286D01*
X175766429Y-111253571D01*
X175737857Y-111310714D01*
X175680715Y-111367857D01*
X175595000Y-111396429D01*
X175452143Y-111396429D01*
X176337857Y-110796429D02*
X176052143Y-110796429D01*
X176023572Y-111082143D01*
X176052143Y-111053571D01*
X176109286Y-111025000D01*
X176252143Y-111025000D01*
X176309286Y-111053571D01*
X176337857Y-111082143D01*
X176366429Y-111139286D01*
X176366429Y-111282143D01*
X176337857Y-111339286D01*
X176309286Y-111367857D01*
X176252143Y-111396429D01*
X176109286Y-111396429D01*
X176052143Y-111367857D01*
X176023572Y-111339286D01*
X183072143Y-82186429D02*
X183072143Y-81586429D01*
X183215000Y-81586429D01*
X183300715Y-81615000D01*
X183357857Y-81672143D01*
X183386429Y-81729286D01*
X183415000Y-81843571D01*
X183415000Y-81929286D01*
X183386429Y-82043571D01*
X183357857Y-82100714D01*
X183300715Y-82157857D01*
X183215000Y-82186429D01*
X183072143Y-82186429D01*
X183929286Y-81786429D02*
X183929286Y-82186429D01*
X183786429Y-81557857D02*
X183643572Y-81986429D01*
X184015000Y-81986429D01*
X180532143Y-82186429D02*
X180532143Y-81586429D01*
X180675000Y-81586429D01*
X180760715Y-81615000D01*
X180817857Y-81672143D01*
X180846429Y-81729286D01*
X180875000Y-81843571D01*
X180875000Y-81929286D01*
X180846429Y-82043571D01*
X180817857Y-82100714D01*
X180760715Y-82157857D01*
X180675000Y-82186429D01*
X180532143Y-82186429D01*
X181075000Y-81586429D02*
X181446429Y-81586429D01*
X181246429Y-81815000D01*
X181332143Y-81815000D01*
X181389286Y-81843571D01*
X181417857Y-81872143D01*
X181446429Y-81929286D01*
X181446429Y-82072143D01*
X181417857Y-82129286D01*
X181389286Y-82157857D01*
X181332143Y-82186429D01*
X181160715Y-82186429D01*
X181103572Y-82157857D01*
X181075000Y-82129286D01*
D12*
X165770000Y-84805000D02*
X165770000Y-84105000D01*
X166970000Y-84105000D02*
X166970000Y-84805000D01*
X170145000Y-84105000D02*
X170145000Y-84805000D01*
X168945000Y-84805000D02*
X168945000Y-84105000D01*
X170145000Y-103155000D02*
X170145000Y-103855000D01*
X168945000Y-103855000D02*
X168945000Y-103155000D01*
X156245000Y-84805000D02*
X156245000Y-84105000D01*
X157445000Y-84105000D02*
X157445000Y-84805000D01*
X162595000Y-84805000D02*
X162595000Y-84105000D01*
X163795000Y-84105000D02*
X163795000Y-84805000D01*
X186725000Y-96870000D02*
X186725000Y-96170000D01*
X187925000Y-96170000D02*
X187925000Y-96870000D01*
X151025000Y-80500000D02*
X146325000Y-80500000D01*
X146325000Y-80500000D02*
X146325000Y-86600000D01*
X146325000Y-86600000D02*
X151025000Y-86600000D01*
X151025000Y-86600000D02*
X151025000Y-80500000D01*
X151025000Y-83050000D02*
X150425000Y-83050000D01*
X150425000Y-83050000D02*
X150425000Y-81100000D01*
X150425000Y-81100000D02*
X146925000Y-81100000D01*
X146925000Y-81100000D02*
X146925000Y-86000000D01*
X146925000Y-86000000D02*
X150425000Y-86000000D01*
X150425000Y-86000000D02*
X150425000Y-84050000D01*
X150425000Y-84050000D02*
X151025000Y-84050000D01*
X149725000Y-80500000D02*
X149725000Y-81100000D01*
X148425000Y-80500000D02*
X148425000Y-81100000D01*
X149725000Y-86600000D02*
X149725000Y-86000000D01*
X148425000Y-86600000D02*
X148425000Y-86000000D01*
X151025000Y-82250000D02*
X151225000Y-82250000D01*
X151225000Y-82250000D02*
X151225000Y-81950000D01*
X151225000Y-81950000D02*
X151025000Y-81950000D01*
X151125000Y-82250000D02*
X151125000Y-81950000D01*
X146925000Y-83450000D02*
X147425000Y-83450000D01*
X147425000Y-83450000D02*
X147425000Y-83650000D01*
X147425000Y-83650000D02*
X146925000Y-83650000D01*
X146925000Y-83550000D02*
X147425000Y-83550000D01*
X151325000Y-81450000D02*
X151325000Y-80200000D01*
X151325000Y-80200000D02*
X150075000Y-80200000D01*
X177845000Y-103005000D02*
X177845000Y-104005000D01*
X176485000Y-104005000D02*
X176485000Y-103005000D01*
X181020000Y-83955000D02*
X181020000Y-84955000D01*
X179660000Y-84955000D02*
X179660000Y-83955000D01*
X177845000Y-83955000D02*
X177845000Y-84955000D01*
X176485000Y-84955000D02*
X176485000Y-83955000D01*
X154350000Y-83955000D02*
X154350000Y-84955000D01*
X152990000Y-84955000D02*
X152990000Y-83955000D01*
X182835000Y-91305000D02*
X182835000Y-90305000D01*
X184195000Y-90305000D02*
X184195000Y-91305000D01*
X159340000Y-84955000D02*
X159340000Y-83955000D01*
X160700000Y-83955000D02*
X160700000Y-84955000D01*
X162515000Y-90035000D02*
X162515000Y-89035000D01*
X163875000Y-89035000D02*
X163875000Y-90035000D01*
D13*
X171000000Y-98240000D02*
X171225000Y-98240000D01*
X171000000Y-90990000D02*
X171325000Y-90990000D01*
X178250000Y-90990000D02*
X177925000Y-90990000D01*
X178250000Y-98240000D02*
X177925000Y-98240000D01*
X171000000Y-98240000D02*
X171000000Y-97915000D01*
X178250000Y-98240000D02*
X178250000Y-97915000D01*
X178250000Y-90990000D02*
X178250000Y-91315000D01*
X171000000Y-90990000D02*
X171000000Y-91315000D01*
X171225000Y-98240000D02*
X171225000Y-99665000D01*
D12*
X173855000Y-83505000D02*
X174905000Y-83505000D01*
X174905000Y-83505000D02*
X174905000Y-85355000D01*
X171855000Y-83505000D02*
X172855000Y-83505000D01*
X171845000Y-83525000D02*
X171845000Y-85955000D01*
D14*
X172705000Y-101805000D02*
X172705000Y-101705000D01*
X172705000Y-101705000D02*
X174005000Y-101705000D01*
X174005000Y-101705000D02*
X174005000Y-101805000D01*
X174005000Y-105205000D02*
X174005000Y-105355000D01*
X174005000Y-105355000D02*
X172705000Y-105355000D01*
X172705000Y-105355000D02*
X172705000Y-105205000D01*
D15*
X172705000Y-104305000D02*
X172705000Y-103905000D01*
X172705000Y-103105000D02*
X172705000Y-102705000D01*
X174005000Y-104305000D02*
X174005000Y-103905000D01*
X174005000Y-103105000D02*
X174005000Y-102705000D01*
X174755000Y-104905000D02*
G75*
G03X174755000Y-104905000I-200000J0D01*
G01*
D12*
X160620000Y-89185000D02*
X160620000Y-89885000D01*
X159420000Y-89885000D02*
X159420000Y-89185000D01*
X160385000Y-93635000D02*
X158385000Y-93635000D01*
X158385000Y-93635000D02*
X158385000Y-97535000D01*
X160385000Y-93635000D02*
X160385000Y-97535000D01*
X164195000Y-93635000D02*
X162195000Y-93635000D01*
X162195000Y-93635000D02*
X162195000Y-97535000D01*
X164195000Y-93635000D02*
X164195000Y-97535000D01*
X147235000Y-96625000D02*
X146135000Y-96625000D01*
X146135000Y-96625000D02*
X146135000Y-99225000D01*
X147235000Y-96625000D02*
X147235000Y-99225000D01*
X148700000Y-87540000D02*
X148700000Y-87990000D01*
X146850000Y-87540000D02*
X148700000Y-87540000D01*
X144300000Y-95340000D02*
X144550000Y-95340000D01*
X144300000Y-87540000D02*
X144550000Y-87540000D01*
X146850000Y-95340000D02*
X148700000Y-95340000D01*
X148700000Y-95340000D02*
X148700000Y-94890000D01*
X149250000Y-89740000D02*
X149250000Y-90190000D01*
X149250000Y-89740000D02*
X148800000Y-89740000D01*
X149165000Y-109280000D02*
X151825000Y-109280000D01*
X149165000Y-99060000D02*
X149165000Y-109280000D01*
X151825000Y-99060000D02*
X151825000Y-109280000D01*
X149165000Y-99060000D02*
X151825000Y-99060000D01*
X149165000Y-97790000D02*
X149165000Y-96460000D01*
X149165000Y-96460000D02*
X150495000Y-96460000D01*
X165690000Y-95750000D02*
X165690000Y-94750000D01*
X167050000Y-94750000D02*
X167050000Y-95750000D01*
X167050000Y-89035000D02*
X167050000Y-90035000D01*
X165690000Y-90035000D02*
X165690000Y-89035000D01*
D16*
G36*
X193030055Y-100440126D02*
X193121325Y-100440220D01*
X193198284Y-100440419D01*
X193262242Y-100440760D01*
X193314511Y-100441284D01*
X193356401Y-100442027D01*
X193389224Y-100443028D01*
X193414291Y-100444325D01*
X193432912Y-100445957D01*
X193446399Y-100447962D01*
X193456062Y-100450379D01*
X193463213Y-100453245D01*
X193468242Y-100456030D01*
X193495972Y-100481640D01*
X193510062Y-100514393D01*
X193508969Y-100550443D01*
X193507789Y-100554662D01*
X193500767Y-100570949D01*
X193486474Y-100599091D01*
X193466244Y-100636785D01*
X193441410Y-100681725D01*
X193413305Y-100731606D01*
X193383261Y-100784124D01*
X193352612Y-100836973D01*
X193322691Y-100887848D01*
X193294830Y-100934445D01*
X193270362Y-100974458D01*
X193250621Y-101005583D01*
X193236939Y-101025515D01*
X193232306Y-101031037D01*
X193224936Y-101037113D01*
X193215884Y-101041798D01*
X193202821Y-101045367D01*
X193183415Y-101048096D01*
X193155336Y-101050261D01*
X193116254Y-101052138D01*
X193063837Y-101054004D01*
X193029015Y-101055108D01*
X192975299Y-101056922D01*
X192927776Y-101058804D01*
X192888879Y-101060635D01*
X192861038Y-101062296D01*
X192846687Y-101063666D01*
X192845267Y-101064121D01*
X192849277Y-101072205D01*
X192860342Y-101092349D01*
X192877012Y-101121968D01*
X192897838Y-101158477D01*
X192910883Y-101181154D01*
X192976500Y-101294884D01*
X193366814Y-101295200D01*
X193476127Y-101103386D01*
X193506619Y-101050549D01*
X193535512Y-101001730D01*
X193561435Y-100959149D01*
X193583016Y-100925027D01*
X193598883Y-100901586D01*
X193606850Y-100891719D01*
X193628260Y-100871867D01*
X194696145Y-100871867D01*
X194723206Y-100899787D01*
X194735806Y-100913613D01*
X194744833Y-100926887D01*
X194749741Y-100941269D01*
X194749984Y-100958417D01*
X194745015Y-100979992D01*
X194734289Y-101007654D01*
X194717259Y-101043061D01*
X194693378Y-101087872D01*
X194662102Y-101143749D01*
X194622883Y-101212349D01*
X194616917Y-101222734D01*
X194575480Y-101294273D01*
X194541294Y-101351979D01*
X194513646Y-101396966D01*
X194491824Y-101430343D01*
X194475115Y-101453222D01*
X194462805Y-101466716D01*
X194458167Y-101470235D01*
X194447296Y-101475610D01*
X194432977Y-101479771D01*
X194412779Y-101482955D01*
X194384271Y-101485401D01*
X194345023Y-101487348D01*
X194292603Y-101489035D01*
X194257450Y-101489934D01*
X194082132Y-101494167D01*
X194150318Y-101610583D01*
X194218504Y-101727000D01*
X194372202Y-101728077D01*
X194430142Y-101728761D01*
X194490283Y-101729949D01*
X194547317Y-101731504D01*
X194595938Y-101733291D01*
X194619033Y-101734427D01*
X194712167Y-101739700D01*
X194742919Y-101786267D01*
X194755723Y-101806506D01*
X194775461Y-101838787D01*
X194800571Y-101880503D01*
X194829489Y-101929048D01*
X194860655Y-101981814D01*
X194884736Y-102022884D01*
X194919327Y-102082415D01*
X194946080Y-102129416D01*
X194965950Y-102165831D01*
X194979891Y-102193601D01*
X194988858Y-102214668D01*
X194993805Y-102230974D01*
X194995688Y-102244461D01*
X194995800Y-102248800D01*
X194995035Y-102257672D01*
X194992323Y-102268782D01*
X194987046Y-102283291D01*
X194978581Y-102302360D01*
X194966307Y-102327149D01*
X194949602Y-102358819D01*
X194927847Y-102398530D01*
X194900420Y-102447442D01*
X194866699Y-102506717D01*
X194826064Y-102577514D01*
X194777893Y-102660995D01*
X194741799Y-102723383D01*
X194693951Y-102805677D01*
X194648564Y-102883059D01*
X194606399Y-102954271D01*
X194568220Y-103018055D01*
X194534787Y-103073155D01*
X194506862Y-103118312D01*
X194485207Y-103152268D01*
X194470585Y-103173767D01*
X194464515Y-103181108D01*
X194432645Y-103196908D01*
X194396289Y-103198691D01*
X194361120Y-103186342D01*
X194350173Y-103175929D01*
X194333632Y-103154023D01*
X194311042Y-103119911D01*
X194281949Y-103072882D01*
X194245900Y-103012224D01*
X194205297Y-102942200D01*
X194167278Y-102875759D01*
X194137077Y-102822183D01*
X194113855Y-102779790D01*
X194096768Y-102746895D01*
X194084974Y-102721813D01*
X194077633Y-102702860D01*
X194073902Y-102688352D01*
X194072934Y-102677392D01*
X194074515Y-102661334D01*
X194080029Y-102642281D01*
X194090631Y-102617690D01*
X194107477Y-102585017D01*
X194131723Y-102541722D01*
X194145221Y-102518325D01*
X194170156Y-102475213D01*
X194192935Y-102435541D01*
X194211832Y-102402340D01*
X194225117Y-102378644D01*
X194230105Y-102369425D01*
X194242702Y-102345067D01*
X193967100Y-102345329D01*
X193857034Y-102537815D01*
X193826465Y-102590657D01*
X193797580Y-102639438D01*
X193771734Y-102681956D01*
X193750283Y-102716012D01*
X193734584Y-102739405D01*
X193726681Y-102749350D01*
X193720894Y-102754494D01*
X193714455Y-102758615D01*
X193705555Y-102761824D01*
X193692388Y-102764231D01*
X193673145Y-102765948D01*
X193646020Y-102767085D01*
X193609205Y-102767753D01*
X193560892Y-102768064D01*
X193499276Y-102768129D01*
X193422547Y-102768057D01*
X193421881Y-102768056D01*
X193137367Y-102767712D01*
X193111362Y-102744773D01*
X193099286Y-102730421D01*
X193080938Y-102703880D01*
X193057588Y-102667384D01*
X193030505Y-102623167D01*
X193000960Y-102573462D01*
X192970223Y-102520504D01*
X192939564Y-102466527D01*
X192910253Y-102413764D01*
X192883560Y-102364450D01*
X192860754Y-102320818D01*
X192843107Y-102285101D01*
X192831887Y-102259536D01*
X192828333Y-102246931D01*
X192835049Y-102220766D01*
X192853368Y-102191566D01*
X192854350Y-102190363D01*
X192880366Y-102158800D01*
X193076600Y-102157881D01*
X193135847Y-102157378D01*
X193192357Y-102156479D01*
X193242931Y-102155270D01*
X193284369Y-102153832D01*
X193313473Y-102152248D01*
X193321508Y-102151531D01*
X193370182Y-102146100D01*
X193437079Y-102029683D01*
X193503975Y-101913267D01*
X192729953Y-101913267D01*
X192634501Y-102079793D01*
X192603398Y-102134379D01*
X192580036Y-102176351D01*
X192563509Y-102207658D01*
X192552912Y-102230246D01*
X192547340Y-102246063D01*
X192545888Y-102257055D01*
X192547651Y-102265170D01*
X192547975Y-102265912D01*
X192554611Y-102278483D01*
X192568522Y-102303416D01*
X192588425Y-102338459D01*
X192613036Y-102381362D01*
X192641073Y-102429876D01*
X192662984Y-102467573D01*
X192700225Y-102532296D01*
X192728830Y-102583909D01*
X192749361Y-102623520D01*
X192762382Y-102652238D01*
X192768452Y-102671169D01*
X192769067Y-102676732D01*
X192767742Y-102687795D01*
X192763294Y-102702579D01*
X192755016Y-102722408D01*
X192742198Y-102748611D01*
X192724131Y-102782512D01*
X192700108Y-102825439D01*
X192669419Y-102878718D01*
X192631356Y-102943675D01*
X192585210Y-103021637D01*
X192581130Y-103028504D01*
X192553028Y-103074948D01*
X192526845Y-103116628D01*
X192504106Y-103151240D01*
X192486337Y-103176481D01*
X192475064Y-103190047D01*
X192473193Y-103191488D01*
X192445518Y-103198936D01*
X192412208Y-103198082D01*
X192382195Y-103189254D01*
X192379903Y-103188048D01*
X192368321Y-103176287D01*
X192349381Y-103149991D01*
X192323430Y-103109700D01*
X192290815Y-103055960D01*
X192251882Y-102989311D01*
X192243417Y-102974565D01*
X192127795Y-102772634D01*
X191986520Y-102770310D01*
X191845244Y-102767986D01*
X191866435Y-102804177D01*
X191875260Y-102819349D01*
X191891513Y-102847397D01*
X191914162Y-102886533D01*
X191942170Y-102934967D01*
X191974504Y-102990909D01*
X192010128Y-103052570D01*
X192048009Y-103118160D01*
X192061158Y-103140934D01*
X192234689Y-103441500D01*
X192427795Y-103443619D01*
X192620900Y-103445738D01*
X192734858Y-103246082D01*
X192770063Y-103185296D01*
X192801781Y-103132294D01*
X192829023Y-103088637D01*
X192850801Y-103055884D01*
X192866127Y-103035594D01*
X192871631Y-103030180D01*
X192876886Y-103026849D01*
X192883438Y-103024007D01*
X192892585Y-103021615D01*
X192905626Y-103019634D01*
X192923861Y-103018026D01*
X192948588Y-103016751D01*
X192981106Y-103015773D01*
X193022714Y-103015050D01*
X193074709Y-103014546D01*
X193138392Y-103014221D01*
X193215061Y-103014036D01*
X193306015Y-103013953D01*
X193412552Y-103013934D01*
X193417074Y-103013934D01*
X193524214Y-103013950D01*
X193615730Y-103014025D01*
X193692932Y-103014199D01*
X193757131Y-103014511D01*
X193809636Y-103015001D01*
X193851757Y-103015710D01*
X193884804Y-103016677D01*
X193910087Y-103017941D01*
X193928916Y-103019543D01*
X193942600Y-103021522D01*
X193952450Y-103023918D01*
X193959776Y-103026771D01*
X193965887Y-103030121D01*
X193966726Y-103030636D01*
X193991025Y-103054053D01*
X194005418Y-103085065D01*
X194007638Y-103117647D01*
X194004321Y-103130547D01*
X193997118Y-103145696D01*
X193982786Y-103172792D01*
X193962639Y-103209548D01*
X193937992Y-103253678D01*
X193910162Y-103302893D01*
X193880463Y-103354908D01*
X193850211Y-103407435D01*
X193820722Y-103458187D01*
X193793310Y-103504877D01*
X193769291Y-103545218D01*
X193749981Y-103576923D01*
X193736695Y-103597706D01*
X193731726Y-103604483D01*
X193725585Y-103610655D01*
X193718383Y-103615325D01*
X193707856Y-103618704D01*
X193691740Y-103620999D01*
X193667772Y-103622421D01*
X193633686Y-103623178D01*
X193587220Y-103623479D01*
X193526109Y-103623533D01*
X193525358Y-103623533D01*
X193470860Y-103623804D01*
X193422553Y-103624563D01*
X193382828Y-103625730D01*
X193354078Y-103627223D01*
X193338693Y-103628963D01*
X193336759Y-103629883D01*
X193340951Y-103639038D01*
X193352238Y-103660141D01*
X193369152Y-103690535D01*
X193390221Y-103727562D01*
X193403479Y-103750533D01*
X193469774Y-103864833D01*
X193667637Y-103870054D01*
X193726828Y-103871613D01*
X193783023Y-103873087D01*
X193833108Y-103874397D01*
X193873967Y-103875459D01*
X193902488Y-103876194D01*
X193910787Y-103876404D01*
X193939792Y-103878597D01*
X193959201Y-103885268D01*
X193976273Y-103899268D01*
X193980637Y-103903829D01*
X194000598Y-103936049D01*
X194005647Y-103970950D01*
X193996513Y-104004730D01*
X193973926Y-104033584D01*
X193953069Y-104047546D01*
X193937817Y-104054210D01*
X193920643Y-104058671D01*
X193898097Y-104061260D01*
X193866731Y-104062311D01*
X193823095Y-104062157D01*
X193804454Y-104061882D01*
X193754920Y-104061074D01*
X193694450Y-104060095D01*
X193629042Y-104059043D01*
X193564692Y-104058014D01*
X193530255Y-104057467D01*
X193474825Y-104056493D01*
X193433801Y-104055381D01*
X193404657Y-104053822D01*
X193384868Y-104051505D01*
X193371907Y-104048122D01*
X193363248Y-104043365D01*
X193356365Y-104036923D01*
X193355611Y-104036101D01*
X193347128Y-104024157D01*
X193331461Y-103999505D01*
X193309816Y-103964147D01*
X193283402Y-103920084D01*
X193253425Y-103869318D01*
X193221092Y-103813849D01*
X193210373Y-103795308D01*
X193173688Y-103731525D01*
X193144704Y-103680502D01*
X193122528Y-103640409D01*
X193106266Y-103609416D01*
X193095025Y-103585691D01*
X193087913Y-103567404D01*
X193084037Y-103552724D01*
X193082503Y-103539822D01*
X193082334Y-103532841D01*
X193083855Y-103506334D01*
X193090764Y-103488961D01*
X193106580Y-103473024D01*
X193111515Y-103469017D01*
X193140695Y-103445733D01*
X193376098Y-103445731D01*
X193611500Y-103445729D01*
X193655846Y-103367415D01*
X193677668Y-103328967D01*
X193699584Y-103290503D01*
X193718279Y-103257834D01*
X193725867Y-103244650D01*
X193751543Y-103200200D01*
X193364021Y-103200239D01*
X192976500Y-103200277D01*
X192875672Y-103380155D01*
X192845907Y-103432362D01*
X192817051Y-103481334D01*
X192790667Y-103524541D01*
X192768318Y-103559457D01*
X192751567Y-103583553D01*
X192744837Y-103591783D01*
X192714830Y-103623533D01*
X192426565Y-103623264D01*
X192345968Y-103623070D01*
X192280711Y-103622610D01*
X192229202Y-103621822D01*
X192189849Y-103620642D01*
X192161060Y-103619006D01*
X192141244Y-103616852D01*
X192128808Y-103614117D01*
X192122709Y-103611181D01*
X192115781Y-103601892D01*
X192101219Y-103579216D01*
X192079801Y-103544460D01*
X192052306Y-103498931D01*
X192019513Y-103443936D01*
X191982203Y-103380783D01*
X191941155Y-103310778D01*
X191897147Y-103235230D01*
X191850959Y-103155445D01*
X191849659Y-103153191D01*
X191794497Y-103057574D01*
X191747265Y-102975472D01*
X191707448Y-102905723D01*
X191674535Y-102847164D01*
X191648010Y-102798631D01*
X191627361Y-102758962D01*
X191612075Y-102726993D01*
X191601638Y-102701563D01*
X191595536Y-102681507D01*
X191593256Y-102665663D01*
X191594286Y-102652868D01*
X191598111Y-102641959D01*
X191604217Y-102631773D01*
X191612093Y-102621148D01*
X191613798Y-102618916D01*
X191635395Y-102590600D01*
X191925923Y-102590600D01*
X192004003Y-102590646D01*
X192066940Y-102590846D01*
X192116524Y-102591294D01*
X192154546Y-102592085D01*
X192182796Y-102593313D01*
X192203064Y-102595071D01*
X192217140Y-102597453D01*
X192226815Y-102600554D01*
X192233880Y-102604468D01*
X192237245Y-102606958D01*
X192248117Y-102619424D01*
X192265485Y-102643948D01*
X192287569Y-102677814D01*
X192312592Y-102718306D01*
X192335620Y-102757241D01*
X192360851Y-102800717D01*
X192383495Y-102839583D01*
X192402050Y-102871274D01*
X192415016Y-102893226D01*
X192420713Y-102902608D01*
X192426796Y-102902857D01*
X192437923Y-102891722D01*
X192454609Y-102868431D01*
X192477367Y-102832215D01*
X192506713Y-102782302D01*
X192538774Y-102725759D01*
X192565040Y-102678884D01*
X192451333Y-102480225D01*
X192415565Y-102417275D01*
X192387718Y-102367082D01*
X192366941Y-102327921D01*
X192352381Y-102298065D01*
X192343188Y-102275789D01*
X192338510Y-102259367D01*
X192337446Y-102249348D01*
X192338755Y-102237789D01*
X192343337Y-102222477D01*
X192352001Y-102201825D01*
X192365558Y-102174244D01*
X192384817Y-102138147D01*
X192410589Y-102091948D01*
X192443683Y-102034060D01*
X192474546Y-101980727D01*
X192513516Y-101913900D01*
X192545171Y-101860367D01*
X192570486Y-101818656D01*
X192590434Y-101787293D01*
X192605990Y-101764808D01*
X192618128Y-101749728D01*
X192627821Y-101740580D01*
X192636044Y-101735893D01*
X192636676Y-101735663D01*
X192651014Y-101733701D01*
X192681771Y-101731974D01*
X192728437Y-101730491D01*
X192790499Y-101729258D01*
X192867445Y-101728284D01*
X192958764Y-101727578D01*
X193063943Y-101727147D01*
X193182471Y-101727000D01*
X193705699Y-101727000D01*
X193728767Y-101751079D01*
X193749076Y-101778211D01*
X193757313Y-101806687D01*
X193753464Y-101839594D01*
X193737511Y-101880021D01*
X193727964Y-101898569D01*
X193697621Y-101953995D01*
X193665108Y-102011937D01*
X193631603Y-102070433D01*
X193598282Y-102127519D01*
X193566324Y-102181234D01*
X193536906Y-102229615D01*
X193511206Y-102270699D01*
X193490402Y-102302522D01*
X193475671Y-102323123D01*
X193468928Y-102330278D01*
X193452241Y-102334670D01*
X193418806Y-102338455D01*
X193368800Y-102341618D01*
X193302397Y-102344148D01*
X193270941Y-102344988D01*
X193091248Y-102349300D01*
X193159758Y-102470107D01*
X193228269Y-102590913D01*
X193419885Y-102588640D01*
X193611500Y-102586367D01*
X193722360Y-102393149D01*
X193753087Y-102340182D01*
X193782123Y-102291225D01*
X193808112Y-102248480D01*
X193829697Y-102214149D01*
X193845522Y-102190436D01*
X193853594Y-102180112D01*
X193873967Y-102160292D01*
X194149133Y-102157429D01*
X194230171Y-102156747D01*
X194295857Y-102156586D01*
X194347767Y-102156989D01*
X194387477Y-102157999D01*
X194416560Y-102159659D01*
X194436593Y-102162011D01*
X194449151Y-102165098D01*
X194450473Y-102165621D01*
X194473879Y-102183176D01*
X194493006Y-102210953D01*
X194503724Y-102242240D01*
X194504734Y-102253807D01*
X194500642Y-102265870D01*
X194489124Y-102290379D01*
X194471310Y-102325172D01*
X194448335Y-102368084D01*
X194421329Y-102416952D01*
X194395186Y-102463070D01*
X194365371Y-102515245D01*
X194338210Y-102563123D01*
X194314893Y-102604578D01*
X194296611Y-102637486D01*
X194284554Y-102659720D01*
X194280038Y-102668764D01*
X194281978Y-102683235D01*
X194293683Y-102711318D01*
X194315180Y-102753073D01*
X194340321Y-102797881D01*
X194363163Y-102837032D01*
X194383195Y-102870370D01*
X194398874Y-102895404D01*
X194408656Y-102909640D01*
X194411019Y-102911967D01*
X194415935Y-102904851D01*
X194428205Y-102884846D01*
X194446777Y-102853766D01*
X194470603Y-102813423D01*
X194498633Y-102765631D01*
X194529817Y-102712202D01*
X194563106Y-102654949D01*
X194597449Y-102595686D01*
X194631797Y-102536226D01*
X194665101Y-102478380D01*
X194696310Y-102423963D01*
X194724376Y-102374787D01*
X194748247Y-102332666D01*
X194766875Y-102299412D01*
X194779210Y-102276838D01*
X194782964Y-102269564D01*
X194786338Y-102261371D01*
X194787449Y-102252648D01*
X194785394Y-102241359D01*
X194779267Y-102225472D01*
X194768162Y-102202950D01*
X194751176Y-102171760D01*
X194727402Y-102129867D01*
X194698461Y-102079609D01*
X194602426Y-101913267D01*
X194462563Y-101913232D01*
X194404313Y-101912841D01*
X194341344Y-101911790D01*
X194280224Y-101910227D01*
X194227519Y-101908299D01*
X194214445Y-101907677D01*
X194106190Y-101902156D01*
X194061304Y-101829395D01*
X194043503Y-101800076D01*
X194019247Y-101759464D01*
X193990534Y-101710939D01*
X193959361Y-101657881D01*
X193927726Y-101603669D01*
X193917676Y-101586360D01*
X193882861Y-101525825D01*
X193856262Y-101477762D01*
X193837322Y-101440158D01*
X193825483Y-101411003D01*
X193820188Y-101388284D01*
X193820878Y-101369990D01*
X193826996Y-101354110D01*
X193837985Y-101338631D01*
X193846350Y-101329067D01*
X193873270Y-101299434D01*
X194116076Y-101296470D01*
X194358883Y-101293507D01*
X194421225Y-101183024D01*
X194443249Y-101143852D01*
X194462246Y-101109799D01*
X194476680Y-101083638D01*
X194485017Y-101068141D01*
X194486389Y-101065337D01*
X194478794Y-101063860D01*
X194455933Y-101062486D01*
X194419470Y-101061244D01*
X194371071Y-101060168D01*
X194312403Y-101059287D01*
X194245132Y-101058634D01*
X194170923Y-101058241D01*
X194104872Y-101058133D01*
X193720532Y-101058133D01*
X193603052Y-101260695D01*
X193561732Y-101331071D01*
X193527868Y-101386817D01*
X193501178Y-101428365D01*
X193481383Y-101456148D01*
X193468199Y-101470598D01*
X193465176Y-101472549D01*
X193449663Y-101475840D01*
X193419850Y-101478860D01*
X193378366Y-101481564D01*
X193327843Y-101483906D01*
X193270911Y-101485842D01*
X193210202Y-101487324D01*
X193148346Y-101488308D01*
X193087974Y-101488748D01*
X193031717Y-101488598D01*
X192982205Y-101487813D01*
X192942070Y-101486348D01*
X192913942Y-101484155D01*
X192903248Y-101482292D01*
X192892429Y-101479347D01*
X192883256Y-101476255D01*
X192874709Y-101471571D01*
X192865763Y-101463844D01*
X192855396Y-101451628D01*
X192842586Y-101433475D01*
X192826310Y-101407937D01*
X192805545Y-101373565D01*
X192779269Y-101328913D01*
X192746459Y-101272532D01*
X192706642Y-101203920D01*
X192668804Y-101138411D01*
X192638945Y-101085611D01*
X192616340Y-101043699D01*
X192600266Y-101010858D01*
X192590000Y-100985268D01*
X192584816Y-100965112D01*
X192583991Y-100948570D01*
X192586803Y-100933825D01*
X192592525Y-100919057D01*
X192592915Y-100918197D01*
X192599650Y-100905295D01*
X192608055Y-100895033D01*
X192620005Y-100887110D01*
X192637378Y-100881226D01*
X192662049Y-100877079D01*
X192695895Y-100874371D01*
X192740791Y-100872800D01*
X192798615Y-100872066D01*
X192871241Y-100871869D01*
X192882274Y-100871867D01*
X193114856Y-100871867D01*
X193183261Y-100752440D01*
X193206239Y-100712124D01*
X193225930Y-100677194D01*
X193240927Y-100650176D01*
X193249822Y-100633599D01*
X193251667Y-100629588D01*
X193243480Y-100628934D01*
X193220040Y-100628414D01*
X193183024Y-100628036D01*
X193134111Y-100627803D01*
X193074981Y-100627722D01*
X193007312Y-100627797D01*
X192932784Y-100628034D01*
X192865709Y-100628365D01*
X192479750Y-100630567D01*
X192384338Y-100796263D01*
X192288925Y-100961959D01*
X192406080Y-101164008D01*
X192440760Y-101223966D01*
X192467764Y-101271216D01*
X192487987Y-101307652D01*
X192502325Y-101335167D01*
X192511673Y-101355656D01*
X192516926Y-101371015D01*
X192518981Y-101383137D01*
X192518733Y-101393917D01*
X192517859Y-101400478D01*
X192511931Y-101417941D01*
X192497452Y-101448940D01*
X192474340Y-101493622D01*
X192442515Y-101552137D01*
X192401898Y-101624635D01*
X192352409Y-101711263D01*
X192326216Y-101756633D01*
X192262423Y-101866734D01*
X192206600Y-101962882D01*
X192158308Y-102045821D01*
X192117105Y-102116296D01*
X192082553Y-102175051D01*
X192054211Y-102222831D01*
X192031639Y-102260379D01*
X192014396Y-102288441D01*
X192002044Y-102307759D01*
X191994142Y-102319080D01*
X191992453Y-102321167D01*
X191969931Y-102335795D01*
X191939243Y-102341919D01*
X191907218Y-102338898D01*
X191887670Y-102331002D01*
X191875441Y-102318803D01*
X191856698Y-102293863D01*
X191832740Y-102258428D01*
X191804867Y-102214743D01*
X191774380Y-102165056D01*
X191742578Y-102111612D01*
X191710761Y-102056657D01*
X191680230Y-102002438D01*
X191652284Y-101951200D01*
X191628223Y-101905190D01*
X191609347Y-101866653D01*
X191596957Y-101837837D01*
X191592352Y-101820987D01*
X191592348Y-101820736D01*
X191594888Y-101805275D01*
X191603188Y-101782752D01*
X191618074Y-101751451D01*
X191640373Y-101709654D01*
X191670913Y-101655647D01*
X191676867Y-101645329D01*
X191702683Y-101600472D01*
X191725324Y-101560699D01*
X191743511Y-101528295D01*
X191755962Y-101505545D01*
X191761399Y-101494734D01*
X191761534Y-101494234D01*
X191753539Y-101492785D01*
X191731430Y-101491802D01*
X191698024Y-101491334D01*
X191656135Y-101491430D01*
X191624379Y-101491840D01*
X191487225Y-101494167D01*
X191380962Y-101677963D01*
X191350459Y-101730041D01*
X191321330Y-101778509D01*
X191295053Y-101821004D01*
X191273106Y-101855165D01*
X191256966Y-101878629D01*
X191249833Y-101887513D01*
X191219304Y-101908358D01*
X191184204Y-101913146D01*
X191145770Y-101901728D01*
X191143297Y-101900479D01*
X191118714Y-101882538D01*
X191105405Y-101857886D01*
X191101150Y-101822245D01*
X191101134Y-101819262D01*
X191102149Y-101806961D01*
X191105781Y-101792346D01*
X191112914Y-101773631D01*
X191124428Y-101749030D01*
X191141205Y-101716755D01*
X191164128Y-101675019D01*
X191194077Y-101622037D01*
X191225718Y-101566822D01*
X191258720Y-101510220D01*
X191290503Y-101457144D01*
X191319709Y-101409754D01*
X191344976Y-101370214D01*
X191364947Y-101340684D01*
X191378260Y-101323327D01*
X191380002Y-101321509D01*
X191409700Y-101292785D01*
X191976508Y-101301581D01*
X192000254Y-101328158D01*
X192012806Y-101343535D01*
X192021234Y-101358580D01*
X192024974Y-101375101D01*
X192023463Y-101394904D01*
X192016137Y-101419797D01*
X192002433Y-101451587D01*
X191981788Y-101492083D01*
X191953638Y-101543090D01*
X191917419Y-101606416D01*
X191908911Y-101621144D01*
X191793823Y-101820187D01*
X191816953Y-101860377D01*
X191831292Y-101885189D01*
X191851062Y-101919266D01*
X191873154Y-101957253D01*
X191886342Y-101979885D01*
X191932600Y-102059203D01*
X191976443Y-101984118D01*
X191991325Y-101958507D01*
X192013259Y-101920586D01*
X192040873Y-101872736D01*
X192072796Y-101817337D01*
X192107656Y-101756768D01*
X192144081Y-101693411D01*
X192167507Y-101652627D01*
X192314726Y-101396220D01*
X192299749Y-101364760D01*
X192290855Y-101347585D01*
X192275091Y-101318663D01*
X192254072Y-101280900D01*
X192229419Y-101237202D01*
X192202746Y-101190474D01*
X192202111Y-101189367D01*
X192167040Y-101128218D01*
X192139581Y-101079901D01*
X192118894Y-101042571D01*
X192104141Y-101014385D01*
X192094483Y-100993499D01*
X192089082Y-100978070D01*
X192087099Y-100966254D01*
X192087696Y-100956208D01*
X192090034Y-100946087D01*
X192090570Y-100944135D01*
X192096713Y-100929716D01*
X192110276Y-100902749D01*
X192130137Y-100865308D01*
X192155173Y-100819466D01*
X192184260Y-100767294D01*
X192216276Y-100710865D01*
X192228472Y-100689614D01*
X192269675Y-100618646D01*
X192303583Y-100561641D01*
X192330838Y-100517604D01*
X192352078Y-100485539D01*
X192367945Y-100464451D01*
X192379078Y-100453345D01*
X192381296Y-100451959D01*
X192388589Y-100449445D01*
X192400866Y-100447297D01*
X192419334Y-100445489D01*
X192445200Y-100443995D01*
X192479670Y-100442788D01*
X192523951Y-100441842D01*
X192579250Y-100441131D01*
X192646773Y-100440627D01*
X192727726Y-100440305D01*
X192823317Y-100440138D01*
X192923163Y-100440098D01*
X193030055Y-100440126D01*
X193030055Y-100440126D01*
G37*
X193030055Y-100440126D02*
X193121325Y-100440220D01*
X193198284Y-100440419D01*
X193262242Y-100440760D01*
X193314511Y-100441284D01*
X193356401Y-100442027D01*
X193389224Y-100443028D01*
X193414291Y-100444325D01*
X193432912Y-100445957D01*
X193446399Y-100447962D01*
X193456062Y-100450379D01*
X193463213Y-100453245D01*
X193468242Y-100456030D01*
X193495972Y-100481640D01*
X193510062Y-100514393D01*
X193508969Y-100550443D01*
X193507789Y-100554662D01*
X193500767Y-100570949D01*
X193486474Y-100599091D01*
X193466244Y-100636785D01*
X193441410Y-100681725D01*
X193413305Y-100731606D01*
X193383261Y-100784124D01*
X193352612Y-100836973D01*
X193322691Y-100887848D01*
X193294830Y-100934445D01*
X193270362Y-100974458D01*
X193250621Y-101005583D01*
X193236939Y-101025515D01*
X193232306Y-101031037D01*
X193224936Y-101037113D01*
X193215884Y-101041798D01*
X193202821Y-101045367D01*
X193183415Y-101048096D01*
X193155336Y-101050261D01*
X193116254Y-101052138D01*
X193063837Y-101054004D01*
X193029015Y-101055108D01*
X192975299Y-101056922D01*
X192927776Y-101058804D01*
X192888879Y-101060635D01*
X192861038Y-101062296D01*
X192846687Y-101063666D01*
X192845267Y-101064121D01*
X192849277Y-101072205D01*
X192860342Y-101092349D01*
X192877012Y-101121968D01*
X192897838Y-101158477D01*
X192910883Y-101181154D01*
X192976500Y-101294884D01*
X193366814Y-101295200D01*
X193476127Y-101103386D01*
X193506619Y-101050549D01*
X193535512Y-101001730D01*
X193561435Y-100959149D01*
X193583016Y-100925027D01*
X193598883Y-100901586D01*
X193606850Y-100891719D01*
X193628260Y-100871867D01*
X194696145Y-100871867D01*
X194723206Y-100899787D01*
X194735806Y-100913613D01*
X194744833Y-100926887D01*
X194749741Y-100941269D01*
X194749984Y-100958417D01*
X194745015Y-100979992D01*
X194734289Y-101007654D01*
X194717259Y-101043061D01*
X194693378Y-101087872D01*
X194662102Y-101143749D01*
X194622883Y-101212349D01*
X194616917Y-101222734D01*
X194575480Y-101294273D01*
X194541294Y-101351979D01*
X194513646Y-101396966D01*
X194491824Y-101430343D01*
X194475115Y-101453222D01*
X194462805Y-101466716D01*
X194458167Y-101470235D01*
X194447296Y-101475610D01*
X194432977Y-101479771D01*
X194412779Y-101482955D01*
X194384271Y-101485401D01*
X194345023Y-101487348D01*
X194292603Y-101489035D01*
X194257450Y-101489934D01*
X194082132Y-101494167D01*
X194150318Y-101610583D01*
X194218504Y-101727000D01*
X194372202Y-101728077D01*
X194430142Y-101728761D01*
X194490283Y-101729949D01*
X194547317Y-101731504D01*
X194595938Y-101733291D01*
X194619033Y-101734427D01*
X194712167Y-101739700D01*
X194742919Y-101786267D01*
X194755723Y-101806506D01*
X194775461Y-101838787D01*
X194800571Y-101880503D01*
X194829489Y-101929048D01*
X194860655Y-101981814D01*
X194884736Y-102022884D01*
X194919327Y-102082415D01*
X194946080Y-102129416D01*
X194965950Y-102165831D01*
X194979891Y-102193601D01*
X194988858Y-102214668D01*
X194993805Y-102230974D01*
X194995688Y-102244461D01*
X194995800Y-102248800D01*
X194995035Y-102257672D01*
X194992323Y-102268782D01*
X194987046Y-102283291D01*
X194978581Y-102302360D01*
X194966307Y-102327149D01*
X194949602Y-102358819D01*
X194927847Y-102398530D01*
X194900420Y-102447442D01*
X194866699Y-102506717D01*
X194826064Y-102577514D01*
X194777893Y-102660995D01*
X194741799Y-102723383D01*
X194693951Y-102805677D01*
X194648564Y-102883059D01*
X194606399Y-102954271D01*
X194568220Y-103018055D01*
X194534787Y-103073155D01*
X194506862Y-103118312D01*
X194485207Y-103152268D01*
X194470585Y-103173767D01*
X194464515Y-103181108D01*
X194432645Y-103196908D01*
X194396289Y-103198691D01*
X194361120Y-103186342D01*
X194350173Y-103175929D01*
X194333632Y-103154023D01*
X194311042Y-103119911D01*
X194281949Y-103072882D01*
X194245900Y-103012224D01*
X194205297Y-102942200D01*
X194167278Y-102875759D01*
X194137077Y-102822183D01*
X194113855Y-102779790D01*
X194096768Y-102746895D01*
X194084974Y-102721813D01*
X194077633Y-102702860D01*
X194073902Y-102688352D01*
X194072934Y-102677392D01*
X194074515Y-102661334D01*
X194080029Y-102642281D01*
X194090631Y-102617690D01*
X194107477Y-102585017D01*
X194131723Y-102541722D01*
X194145221Y-102518325D01*
X194170156Y-102475213D01*
X194192935Y-102435541D01*
X194211832Y-102402340D01*
X194225117Y-102378644D01*
X194230105Y-102369425D01*
X194242702Y-102345067D01*
X193967100Y-102345329D01*
X193857034Y-102537815D01*
X193826465Y-102590657D01*
X193797580Y-102639438D01*
X193771734Y-102681956D01*
X193750283Y-102716012D01*
X193734584Y-102739405D01*
X193726681Y-102749350D01*
X193720894Y-102754494D01*
X193714455Y-102758615D01*
X193705555Y-102761824D01*
X193692388Y-102764231D01*
X193673145Y-102765948D01*
X193646020Y-102767085D01*
X193609205Y-102767753D01*
X193560892Y-102768064D01*
X193499276Y-102768129D01*
X193422547Y-102768057D01*
X193421881Y-102768056D01*
X193137367Y-102767712D01*
X193111362Y-102744773D01*
X193099286Y-102730421D01*
X193080938Y-102703880D01*
X193057588Y-102667384D01*
X193030505Y-102623167D01*
X193000960Y-102573462D01*
X192970223Y-102520504D01*
X192939564Y-102466527D01*
X192910253Y-102413764D01*
X192883560Y-102364450D01*
X192860754Y-102320818D01*
X192843107Y-102285101D01*
X192831887Y-102259536D01*
X192828333Y-102246931D01*
X192835049Y-102220766D01*
X192853368Y-102191566D01*
X192854350Y-102190363D01*
X192880366Y-102158800D01*
X193076600Y-102157881D01*
X193135847Y-102157378D01*
X193192357Y-102156479D01*
X193242931Y-102155270D01*
X193284369Y-102153832D01*
X193313473Y-102152248D01*
X193321508Y-102151531D01*
X193370182Y-102146100D01*
X193437079Y-102029683D01*
X193503975Y-101913267D01*
X192729953Y-101913267D01*
X192634501Y-102079793D01*
X192603398Y-102134379D01*
X192580036Y-102176351D01*
X192563509Y-102207658D01*
X192552912Y-102230246D01*
X192547340Y-102246063D01*
X192545888Y-102257055D01*
X192547651Y-102265170D01*
X192547975Y-102265912D01*
X192554611Y-102278483D01*
X192568522Y-102303416D01*
X192588425Y-102338459D01*
X192613036Y-102381362D01*
X192641073Y-102429876D01*
X192662984Y-102467573D01*
X192700225Y-102532296D01*
X192728830Y-102583909D01*
X192749361Y-102623520D01*
X192762382Y-102652238D01*
X192768452Y-102671169D01*
X192769067Y-102676732D01*
X192767742Y-102687795D01*
X192763294Y-102702579D01*
X192755016Y-102722408D01*
X192742198Y-102748611D01*
X192724131Y-102782512D01*
X192700108Y-102825439D01*
X192669419Y-102878718D01*
X192631356Y-102943675D01*
X192585210Y-103021637D01*
X192581130Y-103028504D01*
X192553028Y-103074948D01*
X192526845Y-103116628D01*
X192504106Y-103151240D01*
X192486337Y-103176481D01*
X192475064Y-103190047D01*
X192473193Y-103191488D01*
X192445518Y-103198936D01*
X192412208Y-103198082D01*
X192382195Y-103189254D01*
X192379903Y-103188048D01*
X192368321Y-103176287D01*
X192349381Y-103149991D01*
X192323430Y-103109700D01*
X192290815Y-103055960D01*
X192251882Y-102989311D01*
X192243417Y-102974565D01*
X192127795Y-102772634D01*
X191986520Y-102770310D01*
X191845244Y-102767986D01*
X191866435Y-102804177D01*
X191875260Y-102819349D01*
X191891513Y-102847397D01*
X191914162Y-102886533D01*
X191942170Y-102934967D01*
X191974504Y-102990909D01*
X192010128Y-103052570D01*
X192048009Y-103118160D01*
X192061158Y-103140934D01*
X192234689Y-103441500D01*
X192427795Y-103443619D01*
X192620900Y-103445738D01*
X192734858Y-103246082D01*
X192770063Y-103185296D01*
X192801781Y-103132294D01*
X192829023Y-103088637D01*
X192850801Y-103055884D01*
X192866127Y-103035594D01*
X192871631Y-103030180D01*
X192876886Y-103026849D01*
X192883438Y-103024007D01*
X192892585Y-103021615D01*
X192905626Y-103019634D01*
X192923861Y-103018026D01*
X192948588Y-103016751D01*
X192981106Y-103015773D01*
X193022714Y-103015050D01*
X193074709Y-103014546D01*
X193138392Y-103014221D01*
X193215061Y-103014036D01*
X193306015Y-103013953D01*
X193412552Y-103013934D01*
X193417074Y-103013934D01*
X193524214Y-103013950D01*
X193615730Y-103014025D01*
X193692932Y-103014199D01*
X193757131Y-103014511D01*
X193809636Y-103015001D01*
X193851757Y-103015710D01*
X193884804Y-103016677D01*
X193910087Y-103017941D01*
X193928916Y-103019543D01*
X193942600Y-103021522D01*
X193952450Y-103023918D01*
X193959776Y-103026771D01*
X193965887Y-103030121D01*
X193966726Y-103030636D01*
X193991025Y-103054053D01*
X194005418Y-103085065D01*
X194007638Y-103117647D01*
X194004321Y-103130547D01*
X193997118Y-103145696D01*
X193982786Y-103172792D01*
X193962639Y-103209548D01*
X193937992Y-103253678D01*
X193910162Y-103302893D01*
X193880463Y-103354908D01*
X193850211Y-103407435D01*
X193820722Y-103458187D01*
X193793310Y-103504877D01*
X193769291Y-103545218D01*
X193749981Y-103576923D01*
X193736695Y-103597706D01*
X193731726Y-103604483D01*
X193725585Y-103610655D01*
X193718383Y-103615325D01*
X193707856Y-103618704D01*
X193691740Y-103620999D01*
X193667772Y-103622421D01*
X193633686Y-103623178D01*
X193587220Y-103623479D01*
X193526109Y-103623533D01*
X193525358Y-103623533D01*
X193470860Y-103623804D01*
X193422553Y-103624563D01*
X193382828Y-103625730D01*
X193354078Y-103627223D01*
X193338693Y-103628963D01*
X193336759Y-103629883D01*
X193340951Y-103639038D01*
X193352238Y-103660141D01*
X193369152Y-103690535D01*
X193390221Y-103727562D01*
X193403479Y-103750533D01*
X193469774Y-103864833D01*
X193667637Y-103870054D01*
X193726828Y-103871613D01*
X193783023Y-103873087D01*
X193833108Y-103874397D01*
X193873967Y-103875459D01*
X193902488Y-103876194D01*
X193910787Y-103876404D01*
X193939792Y-103878597D01*
X193959201Y-103885268D01*
X193976273Y-103899268D01*
X193980637Y-103903829D01*
X194000598Y-103936049D01*
X194005647Y-103970950D01*
X193996513Y-104004730D01*
X193973926Y-104033584D01*
X193953069Y-104047546D01*
X193937817Y-104054210D01*
X193920643Y-104058671D01*
X193898097Y-104061260D01*
X193866731Y-104062311D01*
X193823095Y-104062157D01*
X193804454Y-104061882D01*
X193754920Y-104061074D01*
X193694450Y-104060095D01*
X193629042Y-104059043D01*
X193564692Y-104058014D01*
X193530255Y-104057467D01*
X193474825Y-104056493D01*
X193433801Y-104055381D01*
X193404657Y-104053822D01*
X193384868Y-104051505D01*
X193371907Y-104048122D01*
X193363248Y-104043365D01*
X193356365Y-104036923D01*
X193355611Y-104036101D01*
X193347128Y-104024157D01*
X193331461Y-103999505D01*
X193309816Y-103964147D01*
X193283402Y-103920084D01*
X193253425Y-103869318D01*
X193221092Y-103813849D01*
X193210373Y-103795308D01*
X193173688Y-103731525D01*
X193144704Y-103680502D01*
X193122528Y-103640409D01*
X193106266Y-103609416D01*
X193095025Y-103585691D01*
X193087913Y-103567404D01*
X193084037Y-103552724D01*
X193082503Y-103539822D01*
X193082334Y-103532841D01*
X193083855Y-103506334D01*
X193090764Y-103488961D01*
X193106580Y-103473024D01*
X193111515Y-103469017D01*
X193140695Y-103445733D01*
X193376098Y-103445731D01*
X193611500Y-103445729D01*
X193655846Y-103367415D01*
X193677668Y-103328967D01*
X193699584Y-103290503D01*
X193718279Y-103257834D01*
X193725867Y-103244650D01*
X193751543Y-103200200D01*
X193364021Y-103200239D01*
X192976500Y-103200277D01*
X192875672Y-103380155D01*
X192845907Y-103432362D01*
X192817051Y-103481334D01*
X192790667Y-103524541D01*
X192768318Y-103559457D01*
X192751567Y-103583553D01*
X192744837Y-103591783D01*
X192714830Y-103623533D01*
X192426565Y-103623264D01*
X192345968Y-103623070D01*
X192280711Y-103622610D01*
X192229202Y-103621822D01*
X192189849Y-103620642D01*
X192161060Y-103619006D01*
X192141244Y-103616852D01*
X192128808Y-103614117D01*
X192122709Y-103611181D01*
X192115781Y-103601892D01*
X192101219Y-103579216D01*
X192079801Y-103544460D01*
X192052306Y-103498931D01*
X192019513Y-103443936D01*
X191982203Y-103380783D01*
X191941155Y-103310778D01*
X191897147Y-103235230D01*
X191850959Y-103155445D01*
X191849659Y-103153191D01*
X191794497Y-103057574D01*
X191747265Y-102975472D01*
X191707448Y-102905723D01*
X191674535Y-102847164D01*
X191648010Y-102798631D01*
X191627361Y-102758962D01*
X191612075Y-102726993D01*
X191601638Y-102701563D01*
X191595536Y-102681507D01*
X191593256Y-102665663D01*
X191594286Y-102652868D01*
X191598111Y-102641959D01*
X191604217Y-102631773D01*
X191612093Y-102621148D01*
X191613798Y-102618916D01*
X191635395Y-102590600D01*
X191925923Y-102590600D01*
X192004003Y-102590646D01*
X192066940Y-102590846D01*
X192116524Y-102591294D01*
X192154546Y-102592085D01*
X192182796Y-102593313D01*
X192203064Y-102595071D01*
X192217140Y-102597453D01*
X192226815Y-102600554D01*
X192233880Y-102604468D01*
X192237245Y-102606958D01*
X192248117Y-102619424D01*
X192265485Y-102643948D01*
X192287569Y-102677814D01*
X192312592Y-102718306D01*
X192335620Y-102757241D01*
X192360851Y-102800717D01*
X192383495Y-102839583D01*
X192402050Y-102871274D01*
X192415016Y-102893226D01*
X192420713Y-102902608D01*
X192426796Y-102902857D01*
X192437923Y-102891722D01*
X192454609Y-102868431D01*
X192477367Y-102832215D01*
X192506713Y-102782302D01*
X192538774Y-102725759D01*
X192565040Y-102678884D01*
X192451333Y-102480225D01*
X192415565Y-102417275D01*
X192387718Y-102367082D01*
X192366941Y-102327921D01*
X192352381Y-102298065D01*
X192343188Y-102275789D01*
X192338510Y-102259367D01*
X192337446Y-102249348D01*
X192338755Y-102237789D01*
X192343337Y-102222477D01*
X192352001Y-102201825D01*
X192365558Y-102174244D01*
X192384817Y-102138147D01*
X192410589Y-102091948D01*
X192443683Y-102034060D01*
X192474546Y-101980727D01*
X192513516Y-101913900D01*
X192545171Y-101860367D01*
X192570486Y-101818656D01*
X192590434Y-101787293D01*
X192605990Y-101764808D01*
X192618128Y-101749728D01*
X192627821Y-101740580D01*
X192636044Y-101735893D01*
X192636676Y-101735663D01*
X192651014Y-101733701D01*
X192681771Y-101731974D01*
X192728437Y-101730491D01*
X192790499Y-101729258D01*
X192867445Y-101728284D01*
X192958764Y-101727578D01*
X193063943Y-101727147D01*
X193182471Y-101727000D01*
X193705699Y-101727000D01*
X193728767Y-101751079D01*
X193749076Y-101778211D01*
X193757313Y-101806687D01*
X193753464Y-101839594D01*
X193737511Y-101880021D01*
X193727964Y-101898569D01*
X193697621Y-101953995D01*
X193665108Y-102011937D01*
X193631603Y-102070433D01*
X193598282Y-102127519D01*
X193566324Y-102181234D01*
X193536906Y-102229615D01*
X193511206Y-102270699D01*
X193490402Y-102302522D01*
X193475671Y-102323123D01*
X193468928Y-102330278D01*
X193452241Y-102334670D01*
X193418806Y-102338455D01*
X193368800Y-102341618D01*
X193302397Y-102344148D01*
X193270941Y-102344988D01*
X193091248Y-102349300D01*
X193159758Y-102470107D01*
X193228269Y-102590913D01*
X193419885Y-102588640D01*
X193611500Y-102586367D01*
X193722360Y-102393149D01*
X193753087Y-102340182D01*
X193782123Y-102291225D01*
X193808112Y-102248480D01*
X193829697Y-102214149D01*
X193845522Y-102190436D01*
X193853594Y-102180112D01*
X193873967Y-102160292D01*
X194149133Y-102157429D01*
X194230171Y-102156747D01*
X194295857Y-102156586D01*
X194347767Y-102156989D01*
X194387477Y-102157999D01*
X194416560Y-102159659D01*
X194436593Y-102162011D01*
X194449151Y-102165098D01*
X194450473Y-102165621D01*
X194473879Y-102183176D01*
X194493006Y-102210953D01*
X194503724Y-102242240D01*
X194504734Y-102253807D01*
X194500642Y-102265870D01*
X194489124Y-102290379D01*
X194471310Y-102325172D01*
X194448335Y-102368084D01*
X194421329Y-102416952D01*
X194395186Y-102463070D01*
X194365371Y-102515245D01*
X194338210Y-102563123D01*
X194314893Y-102604578D01*
X194296611Y-102637486D01*
X194284554Y-102659720D01*
X194280038Y-102668764D01*
X194281978Y-102683235D01*
X194293683Y-102711318D01*
X194315180Y-102753073D01*
X194340321Y-102797881D01*
X194363163Y-102837032D01*
X194383195Y-102870370D01*
X194398874Y-102895404D01*
X194408656Y-102909640D01*
X194411019Y-102911967D01*
X194415935Y-102904851D01*
X194428205Y-102884846D01*
X194446777Y-102853766D01*
X194470603Y-102813423D01*
X194498633Y-102765631D01*
X194529817Y-102712202D01*
X194563106Y-102654949D01*
X194597449Y-102595686D01*
X194631797Y-102536226D01*
X194665101Y-102478380D01*
X194696310Y-102423963D01*
X194724376Y-102374787D01*
X194748247Y-102332666D01*
X194766875Y-102299412D01*
X194779210Y-102276838D01*
X194782964Y-102269564D01*
X194786338Y-102261371D01*
X194787449Y-102252648D01*
X194785394Y-102241359D01*
X194779267Y-102225472D01*
X194768162Y-102202950D01*
X194751176Y-102171760D01*
X194727402Y-102129867D01*
X194698461Y-102079609D01*
X194602426Y-101913267D01*
X194462563Y-101913232D01*
X194404313Y-101912841D01*
X194341344Y-101911790D01*
X194280224Y-101910227D01*
X194227519Y-101908299D01*
X194214445Y-101907677D01*
X194106190Y-101902156D01*
X194061304Y-101829395D01*
X194043503Y-101800076D01*
X194019247Y-101759464D01*
X193990534Y-101710939D01*
X193959361Y-101657881D01*
X193927726Y-101603669D01*
X193917676Y-101586360D01*
X193882861Y-101525825D01*
X193856262Y-101477762D01*
X193837322Y-101440158D01*
X193825483Y-101411003D01*
X193820188Y-101388284D01*
X193820878Y-101369990D01*
X193826996Y-101354110D01*
X193837985Y-101338631D01*
X193846350Y-101329067D01*
X193873270Y-101299434D01*
X194116076Y-101296470D01*
X194358883Y-101293507D01*
X194421225Y-101183024D01*
X194443249Y-101143852D01*
X194462246Y-101109799D01*
X194476680Y-101083638D01*
X194485017Y-101068141D01*
X194486389Y-101065337D01*
X194478794Y-101063860D01*
X194455933Y-101062486D01*
X194419470Y-101061244D01*
X194371071Y-101060168D01*
X194312403Y-101059287D01*
X194245132Y-101058634D01*
X194170923Y-101058241D01*
X194104872Y-101058133D01*
X193720532Y-101058133D01*
X193603052Y-101260695D01*
X193561732Y-101331071D01*
X193527868Y-101386817D01*
X193501178Y-101428365D01*
X193481383Y-101456148D01*
X193468199Y-101470598D01*
X193465176Y-101472549D01*
X193449663Y-101475840D01*
X193419850Y-101478860D01*
X193378366Y-101481564D01*
X193327843Y-101483906D01*
X193270911Y-101485842D01*
X193210202Y-101487324D01*
X193148346Y-101488308D01*
X193087974Y-101488748D01*
X193031717Y-101488598D01*
X192982205Y-101487813D01*
X192942070Y-101486348D01*
X192913942Y-101484155D01*
X192903248Y-101482292D01*
X192892429Y-101479347D01*
X192883256Y-101476255D01*
X192874709Y-101471571D01*
X192865763Y-101463844D01*
X192855396Y-101451628D01*
X192842586Y-101433475D01*
X192826310Y-101407937D01*
X192805545Y-101373565D01*
X192779269Y-101328913D01*
X192746459Y-101272532D01*
X192706642Y-101203920D01*
X192668804Y-101138411D01*
X192638945Y-101085611D01*
X192616340Y-101043699D01*
X192600266Y-101010858D01*
X192590000Y-100985268D01*
X192584816Y-100965112D01*
X192583991Y-100948570D01*
X192586803Y-100933825D01*
X192592525Y-100919057D01*
X192592915Y-100918197D01*
X192599650Y-100905295D01*
X192608055Y-100895033D01*
X192620005Y-100887110D01*
X192637378Y-100881226D01*
X192662049Y-100877079D01*
X192695895Y-100874371D01*
X192740791Y-100872800D01*
X192798615Y-100872066D01*
X192871241Y-100871869D01*
X192882274Y-100871867D01*
X193114856Y-100871867D01*
X193183261Y-100752440D01*
X193206239Y-100712124D01*
X193225930Y-100677194D01*
X193240927Y-100650176D01*
X193249822Y-100633599D01*
X193251667Y-100629588D01*
X193243480Y-100628934D01*
X193220040Y-100628414D01*
X193183024Y-100628036D01*
X193134111Y-100627803D01*
X193074981Y-100627722D01*
X193007312Y-100627797D01*
X192932784Y-100628034D01*
X192865709Y-100628365D01*
X192479750Y-100630567D01*
X192384338Y-100796263D01*
X192288925Y-100961959D01*
X192406080Y-101164008D01*
X192440760Y-101223966D01*
X192467764Y-101271216D01*
X192487987Y-101307652D01*
X192502325Y-101335167D01*
X192511673Y-101355656D01*
X192516926Y-101371015D01*
X192518981Y-101383137D01*
X192518733Y-101393917D01*
X192517859Y-101400478D01*
X192511931Y-101417941D01*
X192497452Y-101448940D01*
X192474340Y-101493622D01*
X192442515Y-101552137D01*
X192401898Y-101624635D01*
X192352409Y-101711263D01*
X192326216Y-101756633D01*
X192262423Y-101866734D01*
X192206600Y-101962882D01*
X192158308Y-102045821D01*
X192117105Y-102116296D01*
X192082553Y-102175051D01*
X192054211Y-102222831D01*
X192031639Y-102260379D01*
X192014396Y-102288441D01*
X192002044Y-102307759D01*
X191994142Y-102319080D01*
X191992453Y-102321167D01*
X191969931Y-102335795D01*
X191939243Y-102341919D01*
X191907218Y-102338898D01*
X191887670Y-102331002D01*
X191875441Y-102318803D01*
X191856698Y-102293863D01*
X191832740Y-102258428D01*
X191804867Y-102214743D01*
X191774380Y-102165056D01*
X191742578Y-102111612D01*
X191710761Y-102056657D01*
X191680230Y-102002438D01*
X191652284Y-101951200D01*
X191628223Y-101905190D01*
X191609347Y-101866653D01*
X191596957Y-101837837D01*
X191592352Y-101820987D01*
X191592348Y-101820736D01*
X191594888Y-101805275D01*
X191603188Y-101782752D01*
X191618074Y-101751451D01*
X191640373Y-101709654D01*
X191670913Y-101655647D01*
X191676867Y-101645329D01*
X191702683Y-101600472D01*
X191725324Y-101560699D01*
X191743511Y-101528295D01*
X191755962Y-101505545D01*
X191761399Y-101494734D01*
X191761534Y-101494234D01*
X191753539Y-101492785D01*
X191731430Y-101491802D01*
X191698024Y-101491334D01*
X191656135Y-101491430D01*
X191624379Y-101491840D01*
X191487225Y-101494167D01*
X191380962Y-101677963D01*
X191350459Y-101730041D01*
X191321330Y-101778509D01*
X191295053Y-101821004D01*
X191273106Y-101855165D01*
X191256966Y-101878629D01*
X191249833Y-101887513D01*
X191219304Y-101908358D01*
X191184204Y-101913146D01*
X191145770Y-101901728D01*
X191143297Y-101900479D01*
X191118714Y-101882538D01*
X191105405Y-101857886D01*
X191101150Y-101822245D01*
X191101134Y-101819262D01*
X191102149Y-101806961D01*
X191105781Y-101792346D01*
X191112914Y-101773631D01*
X191124428Y-101749030D01*
X191141205Y-101716755D01*
X191164128Y-101675019D01*
X191194077Y-101622037D01*
X191225718Y-101566822D01*
X191258720Y-101510220D01*
X191290503Y-101457144D01*
X191319709Y-101409754D01*
X191344976Y-101370214D01*
X191364947Y-101340684D01*
X191378260Y-101323327D01*
X191380002Y-101321509D01*
X191409700Y-101292785D01*
X191976508Y-101301581D01*
X192000254Y-101328158D01*
X192012806Y-101343535D01*
X192021234Y-101358580D01*
X192024974Y-101375101D01*
X192023463Y-101394904D01*
X192016137Y-101419797D01*
X192002433Y-101451587D01*
X191981788Y-101492083D01*
X191953638Y-101543090D01*
X191917419Y-101606416D01*
X191908911Y-101621144D01*
X191793823Y-101820187D01*
X191816953Y-101860377D01*
X191831292Y-101885189D01*
X191851062Y-101919266D01*
X191873154Y-101957253D01*
X191886342Y-101979885D01*
X191932600Y-102059203D01*
X191976443Y-101984118D01*
X191991325Y-101958507D01*
X192013259Y-101920586D01*
X192040873Y-101872736D01*
X192072796Y-101817337D01*
X192107656Y-101756768D01*
X192144081Y-101693411D01*
X192167507Y-101652627D01*
X192314726Y-101396220D01*
X192299749Y-101364760D01*
X192290855Y-101347585D01*
X192275091Y-101318663D01*
X192254072Y-101280900D01*
X192229419Y-101237202D01*
X192202746Y-101190474D01*
X192202111Y-101189367D01*
X192167040Y-101128218D01*
X192139581Y-101079901D01*
X192118894Y-101042571D01*
X192104141Y-101014385D01*
X192094483Y-100993499D01*
X192089082Y-100978070D01*
X192087099Y-100966254D01*
X192087696Y-100956208D01*
X192090034Y-100946087D01*
X192090570Y-100944135D01*
X192096713Y-100929716D01*
X192110276Y-100902749D01*
X192130137Y-100865308D01*
X192155173Y-100819466D01*
X192184260Y-100767294D01*
X192216276Y-100710865D01*
X192228472Y-100689614D01*
X192269675Y-100618646D01*
X192303583Y-100561641D01*
X192330838Y-100517604D01*
X192352078Y-100485539D01*
X192367945Y-100464451D01*
X192379078Y-100453345D01*
X192381296Y-100451959D01*
X192388589Y-100449445D01*
X192400866Y-100447297D01*
X192419334Y-100445489D01*
X192445200Y-100443995D01*
X192479670Y-100442788D01*
X192523951Y-100441842D01*
X192579250Y-100441131D01*
X192646773Y-100440627D01*
X192727726Y-100440305D01*
X192823317Y-100440138D01*
X192923163Y-100440098D01*
X193030055Y-100440126D01*
D12*
X202460000Y-81830000D02*
X202460000Y-80730000D01*
X202460000Y-80730000D02*
X199860000Y-80730000D01*
X202460000Y-81830000D02*
X199860000Y-81830000D01*
X202460000Y-85640000D02*
X202460000Y-84540000D01*
X202460000Y-84540000D02*
X199860000Y-84540000D01*
X202460000Y-85640000D02*
X199860000Y-85640000D01*
X185040000Y-85725000D02*
X185040000Y-83185000D01*
X183260000Y-83185000D02*
X183260000Y-85725000D01*
X183260000Y-83185000D02*
X185040000Y-83185000D01*
X185040000Y-85725000D02*
X183260000Y-85725000D01*
X185040000Y-104775000D02*
X185040000Y-102235000D01*
X183260000Y-102235000D02*
X183260000Y-104775000D01*
X183260000Y-102235000D02*
X185040000Y-102235000D01*
X185040000Y-104775000D02*
X183260000Y-104775000D01*
X188005000Y-90305000D02*
X188005000Y-91305000D01*
X186645000Y-91305000D02*
X186645000Y-90305000D01*
X181020000Y-103005000D02*
X181020000Y-104005000D01*
X179660000Y-104005000D02*
X179660000Y-103005000D01*
X153330000Y-94985000D02*
X153330000Y-96785000D01*
X156550000Y-96785000D02*
X156550000Y-94335000D01*
X154440000Y-90485000D02*
X153390000Y-90485000D01*
X153390000Y-90485000D02*
X153390000Y-88635000D01*
X156440000Y-90485000D02*
X155440000Y-90485000D01*
X156450000Y-90465000D02*
X156450000Y-88035000D01*
X159605000Y-105520000D02*
X159605000Y-101270000D01*
X161705000Y-105520000D02*
X161705000Y-101270000D01*
X159605000Y-105520000D02*
X161705000Y-105520000D01*
X155160000Y-105520000D02*
X155160000Y-101270000D01*
X157260000Y-105520000D02*
X157260000Y-101270000D01*
X155160000Y-105520000D02*
X157260000Y-105520000D01*
X167005000Y-103250000D02*
X164465000Y-103250000D01*
X164465000Y-105030000D02*
X167005000Y-105030000D01*
X164465000Y-105030000D02*
X164465000Y-103250000D01*
X167005000Y-103250000D02*
X167005000Y-105030000D01*
X167005000Y-99440000D02*
X164465000Y-99440000D01*
X164465000Y-101220000D02*
X167005000Y-101220000D01*
X164465000Y-101220000D02*
X164465000Y-99440000D01*
X167005000Y-99440000D02*
X167005000Y-101220000D01*
X145990000Y-109280000D02*
X148650000Y-109280000D01*
X145990000Y-106680000D02*
X145990000Y-109280000D01*
X148650000Y-106680000D02*
X148650000Y-109280000D01*
X145990000Y-106680000D02*
X148650000Y-106680000D01*
X145990000Y-105410000D02*
X145990000Y-104080000D01*
X145990000Y-104080000D02*
X147320000Y-104080000D01*
X184845000Y-81340000D02*
X184845000Y-78680000D01*
X156845000Y-81340000D02*
X184845000Y-81340000D01*
X156845000Y-78680000D02*
X184845000Y-78680000D01*
X156845000Y-81340000D02*
X156845000Y-78680000D01*
X155575000Y-81340000D02*
X154245000Y-81340000D01*
X154245000Y-81340000D02*
X154245000Y-80010000D01*
X154245000Y-107890000D02*
X154245000Y-110550000D01*
X182245000Y-107890000D02*
X154245000Y-107890000D01*
X182245000Y-110550000D02*
X154245000Y-110550000D01*
X182245000Y-107890000D02*
X182245000Y-110550000D01*
X183515000Y-107890000D02*
X184845000Y-107890000D01*
X184845000Y-107890000D02*
X184845000Y-109220000D01*
X187265000Y-107890000D02*
X187265000Y-110550000D01*
X192405000Y-107890000D02*
X187265000Y-107890000D01*
X192405000Y-110550000D02*
X187265000Y-110550000D01*
X192405000Y-107890000D02*
X192405000Y-110550000D01*
X193675000Y-107890000D02*
X195005000Y-107890000D01*
X195005000Y-107890000D02*
X195005000Y-109220000D01*
X188140000Y-81615000D02*
X188140000Y-81845000D01*
X187620000Y-77945000D02*
X195340000Y-77945000D01*
X195340000Y-77945000D02*
X195340000Y-81845000D01*
X187620000Y-84955000D02*
X188140000Y-84955000D01*
X187620000Y-77945000D02*
X187620000Y-81845000D01*
X194820000Y-81615000D02*
X194820000Y-81845000D01*
X188140000Y-84445000D02*
X188140000Y-84955000D01*
X187620000Y-84445000D02*
X187620000Y-84955000D01*
X194280000Y-81615000D02*
X194820000Y-81615000D01*
X194820000Y-84445000D02*
X194820000Y-84955000D01*
X194820000Y-84955000D02*
X195340000Y-84955000D01*
X195340000Y-84445000D02*
X195340000Y-84955000D01*
X188140000Y-81615000D02*
X188680000Y-81615000D01*
X189780000Y-81615000D02*
X193180000Y-81615000D01*
D13*
X166203334Y-87352143D02*
X166155715Y-87399762D01*
X166012858Y-87447381D01*
X165917620Y-87447381D01*
X165774762Y-87399762D01*
X165679524Y-87304524D01*
X165631905Y-87209286D01*
X165584286Y-87018810D01*
X165584286Y-86875952D01*
X165631905Y-86685476D01*
X165679524Y-86590238D01*
X165774762Y-86495000D01*
X165917620Y-86447381D01*
X166012858Y-86447381D01*
X166155715Y-86495000D01*
X166203334Y-86542619D01*
X167155715Y-87447381D02*
X166584286Y-87447381D01*
X166870000Y-87447381D02*
X166870000Y-86447381D01*
X166774762Y-86590238D01*
X166679524Y-86685476D01*
X166584286Y-86733095D01*
X169378334Y-87352143D02*
X169330715Y-87399762D01*
X169187858Y-87447381D01*
X169092620Y-87447381D01*
X168949762Y-87399762D01*
X168854524Y-87304524D01*
X168806905Y-87209286D01*
X168759286Y-87018810D01*
X168759286Y-86875952D01*
X168806905Y-86685476D01*
X168854524Y-86590238D01*
X168949762Y-86495000D01*
X169092620Y-86447381D01*
X169187858Y-86447381D01*
X169330715Y-86495000D01*
X169378334Y-86542619D01*
X169759286Y-86542619D02*
X169806905Y-86495000D01*
X169902143Y-86447381D01*
X170140239Y-86447381D01*
X170235477Y-86495000D01*
X170283096Y-86542619D01*
X170330715Y-86637857D01*
X170330715Y-86733095D01*
X170283096Y-86875952D01*
X169711667Y-87447381D01*
X170330715Y-87447381D01*
X169378334Y-106402143D02*
X169330715Y-106449762D01*
X169187858Y-106497381D01*
X169092620Y-106497381D01*
X168949762Y-106449762D01*
X168854524Y-106354524D01*
X168806905Y-106259286D01*
X168759286Y-106068810D01*
X168759286Y-105925952D01*
X168806905Y-105735476D01*
X168854524Y-105640238D01*
X168949762Y-105545000D01*
X169092620Y-105497381D01*
X169187858Y-105497381D01*
X169330715Y-105545000D01*
X169378334Y-105592619D01*
X169711667Y-105497381D02*
X170330715Y-105497381D01*
X169997381Y-105878333D01*
X170140239Y-105878333D01*
X170235477Y-105925952D01*
X170283096Y-105973571D01*
X170330715Y-106068810D01*
X170330715Y-106306905D01*
X170283096Y-106402143D01*
X170235477Y-106449762D01*
X170140239Y-106497381D01*
X169854524Y-106497381D01*
X169759286Y-106449762D01*
X169711667Y-106402143D01*
X156678334Y-87352143D02*
X156630715Y-87399762D01*
X156487858Y-87447381D01*
X156392620Y-87447381D01*
X156249762Y-87399762D01*
X156154524Y-87304524D01*
X156106905Y-87209286D01*
X156059286Y-87018810D01*
X156059286Y-86875952D01*
X156106905Y-86685476D01*
X156154524Y-86590238D01*
X156249762Y-86495000D01*
X156392620Y-86447381D01*
X156487858Y-86447381D01*
X156630715Y-86495000D01*
X156678334Y-86542619D01*
X157535477Y-86447381D02*
X157345000Y-86447381D01*
X157249762Y-86495000D01*
X157202143Y-86542619D01*
X157106905Y-86685476D01*
X157059286Y-86875952D01*
X157059286Y-87256905D01*
X157106905Y-87352143D01*
X157154524Y-87399762D01*
X157249762Y-87447381D01*
X157440239Y-87447381D01*
X157535477Y-87399762D01*
X157583096Y-87352143D01*
X157630715Y-87256905D01*
X157630715Y-87018810D01*
X157583096Y-86923571D01*
X157535477Y-86875952D01*
X157440239Y-86828333D01*
X157249762Y-86828333D01*
X157154524Y-86875952D01*
X157106905Y-86923571D01*
X157059286Y-87018810D01*
X163028334Y-87352143D02*
X162980715Y-87399762D01*
X162837858Y-87447381D01*
X162742620Y-87447381D01*
X162599762Y-87399762D01*
X162504524Y-87304524D01*
X162456905Y-87209286D01*
X162409286Y-87018810D01*
X162409286Y-86875952D01*
X162456905Y-86685476D01*
X162504524Y-86590238D01*
X162599762Y-86495000D01*
X162742620Y-86447381D01*
X162837858Y-86447381D01*
X162980715Y-86495000D01*
X163028334Y-86542619D01*
X163361667Y-86447381D02*
X164028334Y-86447381D01*
X163599762Y-87447381D01*
X187158334Y-99417143D02*
X187110715Y-99464762D01*
X186967858Y-99512381D01*
X186872620Y-99512381D01*
X186729762Y-99464762D01*
X186634524Y-99369524D01*
X186586905Y-99274286D01*
X186539286Y-99083810D01*
X186539286Y-98940952D01*
X186586905Y-98750476D01*
X186634524Y-98655238D01*
X186729762Y-98560000D01*
X186872620Y-98512381D01*
X186967858Y-98512381D01*
X187110715Y-98560000D01*
X187158334Y-98607619D01*
X187729762Y-98940952D02*
X187634524Y-98893333D01*
X187586905Y-98845714D01*
X187539286Y-98750476D01*
X187539286Y-98702857D01*
X187586905Y-98607619D01*
X187634524Y-98560000D01*
X187729762Y-98512381D01*
X187920239Y-98512381D01*
X188015477Y-98560000D01*
X188063096Y-98607619D01*
X188110715Y-98702857D01*
X188110715Y-98750476D01*
X188063096Y-98845714D01*
X188015477Y-98893333D01*
X187920239Y-98940952D01*
X187729762Y-98940952D01*
X187634524Y-98988571D01*
X187586905Y-99036190D01*
X187539286Y-99131429D01*
X187539286Y-99321905D01*
X187586905Y-99417143D01*
X187634524Y-99464762D01*
X187729762Y-99512381D01*
X187920239Y-99512381D01*
X188015477Y-99464762D01*
X188063096Y-99417143D01*
X188110715Y-99321905D01*
X188110715Y-99131429D01*
X188063096Y-99036190D01*
X188015477Y-98988571D01*
X187920239Y-98940952D01*
X147407381Y-84153333D02*
X148121667Y-84153333D01*
X148264524Y-84200953D01*
X148359762Y-84296191D01*
X148407381Y-84439048D01*
X148407381Y-84534286D01*
X147407381Y-83200952D02*
X147407381Y-83677143D01*
X147883571Y-83724762D01*
X147835952Y-83677143D01*
X147788333Y-83581905D01*
X147788333Y-83343809D01*
X147835952Y-83248571D01*
X147883571Y-83200952D01*
X147978810Y-83153333D01*
X148216905Y-83153333D01*
X148312143Y-83200952D01*
X148359762Y-83248571D01*
X148407381Y-83343809D01*
X148407381Y-83581905D01*
X148359762Y-83677143D01*
X148312143Y-83724762D01*
X176998334Y-106497381D02*
X176665000Y-106021190D01*
X176426905Y-106497381D02*
X176426905Y-105497381D01*
X176807858Y-105497381D01*
X176903096Y-105545000D01*
X176950715Y-105592619D01*
X176998334Y-105687857D01*
X176998334Y-105830714D01*
X176950715Y-105925952D01*
X176903096Y-105973571D01*
X176807858Y-106021190D01*
X176426905Y-106021190D01*
X177331667Y-105497381D02*
X177950715Y-105497381D01*
X177617381Y-105878333D01*
X177760239Y-105878333D01*
X177855477Y-105925952D01*
X177903096Y-105973571D01*
X177950715Y-106068810D01*
X177950715Y-106306905D01*
X177903096Y-106402143D01*
X177855477Y-106449762D01*
X177760239Y-106497381D01*
X177474524Y-106497381D01*
X177379286Y-106449762D01*
X177331667Y-106402143D01*
X180173334Y-87447381D02*
X179840000Y-86971190D01*
X179601905Y-87447381D02*
X179601905Y-86447381D01*
X179982858Y-86447381D01*
X180078096Y-86495000D01*
X180125715Y-86542619D01*
X180173334Y-86637857D01*
X180173334Y-86780714D01*
X180125715Y-86875952D01*
X180078096Y-86923571D01*
X179982858Y-86971190D01*
X179601905Y-86971190D01*
X181030477Y-86780714D02*
X181030477Y-87447381D01*
X180792381Y-86399762D02*
X180554286Y-87114048D01*
X181173334Y-87114048D01*
X176998334Y-87447381D02*
X176665000Y-86971190D01*
X176426905Y-87447381D02*
X176426905Y-86447381D01*
X176807858Y-86447381D01*
X176903096Y-86495000D01*
X176950715Y-86542619D01*
X176998334Y-86637857D01*
X176998334Y-86780714D01*
X176950715Y-86875952D01*
X176903096Y-86923571D01*
X176807858Y-86971190D01*
X176426905Y-86971190D01*
X177903096Y-86447381D02*
X177426905Y-86447381D01*
X177379286Y-86923571D01*
X177426905Y-86875952D01*
X177522143Y-86828333D01*
X177760239Y-86828333D01*
X177855477Y-86875952D01*
X177903096Y-86923571D01*
X177950715Y-87018810D01*
X177950715Y-87256905D01*
X177903096Y-87352143D01*
X177855477Y-87399762D01*
X177760239Y-87447381D01*
X177522143Y-87447381D01*
X177426905Y-87399762D01*
X177379286Y-87352143D01*
X153503334Y-87447381D02*
X153170000Y-86971190D01*
X152931905Y-87447381D02*
X152931905Y-86447381D01*
X153312858Y-86447381D01*
X153408096Y-86495000D01*
X153455715Y-86542619D01*
X153503334Y-86637857D01*
X153503334Y-86780714D01*
X153455715Y-86875952D01*
X153408096Y-86923571D01*
X153312858Y-86971190D01*
X152931905Y-86971190D01*
X154360477Y-86447381D02*
X154170000Y-86447381D01*
X154074762Y-86495000D01*
X154027143Y-86542619D01*
X153931905Y-86685476D01*
X153884286Y-86875952D01*
X153884286Y-87256905D01*
X153931905Y-87352143D01*
X153979524Y-87399762D01*
X154074762Y-87447381D01*
X154265239Y-87447381D01*
X154360477Y-87399762D01*
X154408096Y-87352143D01*
X154455715Y-87256905D01*
X154455715Y-87018810D01*
X154408096Y-86923571D01*
X154360477Y-86875952D01*
X154265239Y-86828333D01*
X154074762Y-86828333D01*
X153979524Y-86875952D01*
X153931905Y-86923571D01*
X153884286Y-87018810D01*
X183348334Y-93797381D02*
X183015000Y-93321190D01*
X182776905Y-93797381D02*
X182776905Y-92797381D01*
X183157858Y-92797381D01*
X183253096Y-92845000D01*
X183300715Y-92892619D01*
X183348334Y-92987857D01*
X183348334Y-93130714D01*
X183300715Y-93225952D01*
X183253096Y-93273571D01*
X183157858Y-93321190D01*
X182776905Y-93321190D01*
X183681667Y-92797381D02*
X184348334Y-92797381D01*
X183919762Y-93797381D01*
X159853334Y-87447381D02*
X159520000Y-86971190D01*
X159281905Y-87447381D02*
X159281905Y-86447381D01*
X159662858Y-86447381D01*
X159758096Y-86495000D01*
X159805715Y-86542619D01*
X159853334Y-86637857D01*
X159853334Y-86780714D01*
X159805715Y-86875952D01*
X159758096Y-86923571D01*
X159662858Y-86971190D01*
X159281905Y-86971190D01*
X160424762Y-86875952D02*
X160329524Y-86828333D01*
X160281905Y-86780714D01*
X160234286Y-86685476D01*
X160234286Y-86637857D01*
X160281905Y-86542619D01*
X160329524Y-86495000D01*
X160424762Y-86447381D01*
X160615239Y-86447381D01*
X160710477Y-86495000D01*
X160758096Y-86542619D01*
X160805715Y-86637857D01*
X160805715Y-86685476D01*
X160758096Y-86780714D01*
X160710477Y-86828333D01*
X160615239Y-86875952D01*
X160424762Y-86875952D01*
X160329524Y-86923571D01*
X160281905Y-86971190D01*
X160234286Y-87066429D01*
X160234286Y-87256905D01*
X160281905Y-87352143D01*
X160329524Y-87399762D01*
X160424762Y-87447381D01*
X160615239Y-87447381D01*
X160710477Y-87399762D01*
X160758096Y-87352143D01*
X160805715Y-87256905D01*
X160805715Y-87066429D01*
X160758096Y-86971190D01*
X160710477Y-86923571D01*
X160615239Y-86875952D01*
X163028334Y-92527381D02*
X162695000Y-92051190D01*
X162456905Y-92527381D02*
X162456905Y-91527381D01*
X162837858Y-91527381D01*
X162933096Y-91575000D01*
X162980715Y-91622619D01*
X163028334Y-91717857D01*
X163028334Y-91860714D01*
X162980715Y-91955952D01*
X162933096Y-92003571D01*
X162837858Y-92051190D01*
X162456905Y-92051190D01*
X163504524Y-92527381D02*
X163695000Y-92527381D01*
X163790239Y-92479762D01*
X163837858Y-92432143D01*
X163933096Y-92289286D01*
X163980715Y-92098810D01*
X163980715Y-91717857D01*
X163933096Y-91622619D01*
X163885477Y-91575000D01*
X163790239Y-91527381D01*
X163599762Y-91527381D01*
X163504524Y-91575000D01*
X163456905Y-91622619D01*
X163409286Y-91717857D01*
X163409286Y-91955952D01*
X163456905Y-92051190D01*
X163504524Y-92098810D01*
X163599762Y-92146429D01*
X163790239Y-92146429D01*
X163885477Y-92098810D01*
X163933096Y-92051190D01*
X163980715Y-91955952D01*
X169418095Y-98512381D02*
X169418095Y-99321905D01*
X169465714Y-99417143D01*
X169513333Y-99464762D01*
X169608571Y-99512381D01*
X169799048Y-99512381D01*
X169894286Y-99464762D01*
X169941905Y-99417143D01*
X169989524Y-99321905D01*
X169989524Y-98512381D01*
X170989524Y-99512381D02*
X170418095Y-99512381D01*
X170703809Y-99512381D02*
X170703809Y-98512381D01*
X170608571Y-98655238D01*
X170513333Y-98750476D01*
X170418095Y-98798095D01*
X172593095Y-86447381D02*
X172593095Y-87256905D01*
X172640714Y-87352143D01*
X172688333Y-87399762D01*
X172783571Y-87447381D01*
X172974048Y-87447381D01*
X173069286Y-87399762D01*
X173116905Y-87352143D01*
X173164524Y-87256905D01*
X173164524Y-86447381D01*
X174069286Y-86447381D02*
X173878809Y-86447381D01*
X173783571Y-86495000D01*
X173735952Y-86542619D01*
X173640714Y-86685476D01*
X173593095Y-86875952D01*
X173593095Y-87256905D01*
X173640714Y-87352143D01*
X173688333Y-87399762D01*
X173783571Y-87447381D01*
X173974048Y-87447381D01*
X174069286Y-87399762D01*
X174116905Y-87352143D01*
X174164524Y-87256905D01*
X174164524Y-87018810D01*
X174116905Y-86923571D01*
X174069286Y-86875952D01*
X173974048Y-86828333D01*
X173783571Y-86828333D01*
X173688333Y-86875952D01*
X173640714Y-86923571D01*
X173593095Y-87018810D01*
X172878809Y-106021190D02*
X172878809Y-106497381D01*
X172545476Y-105497381D02*
X172878809Y-106021190D01*
X173212143Y-105497381D01*
X174069286Y-106497381D02*
X173497857Y-106497381D01*
X173783571Y-106497381D02*
X173783571Y-105497381D01*
X173688333Y-105640238D01*
X173593095Y-105735476D01*
X173497857Y-105783095D01*
X159853334Y-92432143D02*
X159805715Y-92479762D01*
X159662858Y-92527381D01*
X159567620Y-92527381D01*
X159424762Y-92479762D01*
X159329524Y-92384524D01*
X159281905Y-92289286D01*
X159234286Y-92098810D01*
X159234286Y-91955952D01*
X159281905Y-91765476D01*
X159329524Y-91670238D01*
X159424762Y-91575000D01*
X159567620Y-91527381D01*
X159662858Y-91527381D01*
X159805715Y-91575000D01*
X159853334Y-91622619D01*
X160329524Y-92527381D02*
X160520000Y-92527381D01*
X160615239Y-92479762D01*
X160662858Y-92432143D01*
X160758096Y-92289286D01*
X160805715Y-92098810D01*
X160805715Y-91717857D01*
X160758096Y-91622619D01*
X160710477Y-91575000D01*
X160615239Y-91527381D01*
X160424762Y-91527381D01*
X160329524Y-91575000D01*
X160281905Y-91622619D01*
X160234286Y-91717857D01*
X160234286Y-91955952D01*
X160281905Y-92051190D01*
X160329524Y-92098810D01*
X160424762Y-92146429D01*
X160615239Y-92146429D01*
X160710477Y-92098810D01*
X160758096Y-92051190D01*
X160805715Y-91955952D01*
X158646905Y-99512381D02*
X158646905Y-98512381D01*
X158885000Y-98512381D01*
X159027858Y-98560000D01*
X159123096Y-98655238D01*
X159170715Y-98750476D01*
X159218334Y-98940952D01*
X159218334Y-99083810D01*
X159170715Y-99274286D01*
X159123096Y-99369524D01*
X159027858Y-99464762D01*
X158885000Y-99512381D01*
X158646905Y-99512381D01*
X160170715Y-99512381D02*
X159599286Y-99512381D01*
X159885000Y-99512381D02*
X159885000Y-98512381D01*
X159789762Y-98655238D01*
X159694524Y-98750476D01*
X159599286Y-98798095D01*
X162456905Y-99512381D02*
X162456905Y-98512381D01*
X162695000Y-98512381D01*
X162837858Y-98560000D01*
X162933096Y-98655238D01*
X162980715Y-98750476D01*
X163028334Y-98940952D01*
X163028334Y-99083810D01*
X162980715Y-99274286D01*
X162933096Y-99369524D01*
X162837858Y-99464762D01*
X162695000Y-99512381D01*
X162456905Y-99512381D01*
X163409286Y-98607619D02*
X163456905Y-98560000D01*
X163552143Y-98512381D01*
X163790239Y-98512381D01*
X163885477Y-98560000D01*
X163933096Y-98607619D01*
X163980715Y-98702857D01*
X163980715Y-98798095D01*
X163933096Y-98940952D01*
X163361667Y-99512381D01*
X163980715Y-99512381D01*
X145946905Y-101417381D02*
X145946905Y-100417381D01*
X146185000Y-100417381D01*
X146327858Y-100465000D01*
X146423096Y-100560238D01*
X146470715Y-100655476D01*
X146518334Y-100845952D01*
X146518334Y-100988810D01*
X146470715Y-101179286D01*
X146423096Y-101274524D01*
X146327858Y-101369762D01*
X146185000Y-101417381D01*
X145946905Y-101417381D01*
X146851667Y-100417381D02*
X147470715Y-100417381D01*
X147137381Y-100798333D01*
X147280239Y-100798333D01*
X147375477Y-100845952D01*
X147423096Y-100893571D01*
X147470715Y-100988810D01*
X147470715Y-101226905D01*
X147423096Y-101322143D01*
X147375477Y-101369762D01*
X147280239Y-101417381D01*
X146994524Y-101417381D01*
X146899286Y-101369762D01*
X146851667Y-101322143D01*
X145502381Y-91773333D02*
X146216667Y-91773333D01*
X146359524Y-91820953D01*
X146454762Y-91916191D01*
X146502381Y-92059048D01*
X146502381Y-92154286D01*
X145930952Y-91154286D02*
X145883333Y-91249524D01*
X145835714Y-91297143D01*
X145740476Y-91344762D01*
X145692857Y-91344762D01*
X145597619Y-91297143D01*
X145550000Y-91249524D01*
X145502381Y-91154286D01*
X145502381Y-90963809D01*
X145550000Y-90868571D01*
X145597619Y-90820952D01*
X145692857Y-90773333D01*
X145740476Y-90773333D01*
X145835714Y-90820952D01*
X145883333Y-90868571D01*
X145930952Y-90963809D01*
X145930952Y-91154286D01*
X145978571Y-91249524D01*
X146026190Y-91297143D01*
X146121429Y-91344762D01*
X146311905Y-91344762D01*
X146407143Y-91297143D01*
X146454762Y-91249524D01*
X146502381Y-91154286D01*
X146502381Y-90963809D01*
X146454762Y-90868571D01*
X146407143Y-90820952D01*
X146311905Y-90773333D01*
X146121429Y-90773333D01*
X146026190Y-90820952D01*
X145978571Y-90868571D01*
X145930952Y-90963809D01*
X165727143Y-98242381D02*
X165393809Y-97766190D01*
X165155714Y-98242381D02*
X165155714Y-97242381D01*
X165536667Y-97242381D01*
X165631905Y-97290000D01*
X165679524Y-97337619D01*
X165727143Y-97432857D01*
X165727143Y-97575714D01*
X165679524Y-97670952D01*
X165631905Y-97718571D01*
X165536667Y-97766190D01*
X165155714Y-97766190D01*
X166679524Y-98242381D02*
X166108095Y-98242381D01*
X166393809Y-98242381D02*
X166393809Y-97242381D01*
X166298571Y-97385238D01*
X166203333Y-97480476D01*
X166108095Y-97528095D01*
X167631905Y-98242381D02*
X167060476Y-98242381D01*
X167346190Y-98242381D02*
X167346190Y-97242381D01*
X167250952Y-97385238D01*
X167155714Y-97480476D01*
X167060476Y-97528095D01*
X165727143Y-92527381D02*
X165393809Y-92051190D01*
X165155714Y-92527381D02*
X165155714Y-91527381D01*
X165536667Y-91527381D01*
X165631905Y-91575000D01*
X165679524Y-91622619D01*
X165727143Y-91717857D01*
X165727143Y-91860714D01*
X165679524Y-91955952D01*
X165631905Y-92003571D01*
X165536667Y-92051190D01*
X165155714Y-92051190D01*
X166679524Y-92527381D02*
X166108095Y-92527381D01*
X166393809Y-92527381D02*
X166393809Y-91527381D01*
X166298571Y-91670238D01*
X166203333Y-91765476D01*
X166108095Y-91813095D01*
X167060476Y-91622619D02*
X167108095Y-91575000D01*
X167203333Y-91527381D01*
X167441429Y-91527381D01*
X167536667Y-91575000D01*
X167584286Y-91622619D01*
X167631905Y-91717857D01*
X167631905Y-91813095D01*
X167584286Y-91955952D01*
X167012857Y-92527381D01*
X167631905Y-92527381D01*
X199921905Y-83002381D02*
X199921905Y-82002381D01*
X200160000Y-82002381D01*
X200302858Y-82050000D01*
X200398096Y-82145238D01*
X200445715Y-82240476D01*
X200493334Y-82430952D01*
X200493334Y-82573810D01*
X200445715Y-82764286D01*
X200398096Y-82859524D01*
X200302858Y-82954762D01*
X200160000Y-83002381D01*
X199921905Y-83002381D01*
X201350477Y-82335714D02*
X201350477Y-83002381D01*
X201112381Y-81954762D02*
X200874286Y-82669048D01*
X201493334Y-82669048D01*
X199921905Y-86812381D02*
X199921905Y-85812381D01*
X200160000Y-85812381D01*
X200302858Y-85860000D01*
X200398096Y-85955238D01*
X200445715Y-86050476D01*
X200493334Y-86240952D01*
X200493334Y-86383810D01*
X200445715Y-86574286D01*
X200398096Y-86669524D01*
X200302858Y-86764762D01*
X200160000Y-86812381D01*
X199921905Y-86812381D01*
X201398096Y-85812381D02*
X200921905Y-85812381D01*
X200874286Y-86288571D01*
X200921905Y-86240952D01*
X201017143Y-86193333D01*
X201255239Y-86193333D01*
X201350477Y-86240952D01*
X201398096Y-86288571D01*
X201445715Y-86383810D01*
X201445715Y-86621905D01*
X201398096Y-86717143D01*
X201350477Y-86764762D01*
X201255239Y-86812381D01*
X201017143Y-86812381D01*
X200921905Y-86764762D01*
X200874286Y-86717143D01*
X183816667Y-85812381D02*
X183816667Y-86526667D01*
X183769047Y-86669524D01*
X183673809Y-86764762D01*
X183530952Y-86812381D01*
X183435714Y-86812381D01*
X184340476Y-86812381D02*
X184530952Y-86812381D01*
X184626191Y-86764762D01*
X184673810Y-86717143D01*
X184769048Y-86574286D01*
X184816667Y-86383810D01*
X184816667Y-86002857D01*
X184769048Y-85907619D01*
X184721429Y-85860000D01*
X184626191Y-85812381D01*
X184435714Y-85812381D01*
X184340476Y-85860000D01*
X184292857Y-85907619D01*
X184245238Y-86002857D01*
X184245238Y-86240952D01*
X184292857Y-86336190D01*
X184340476Y-86383810D01*
X184435714Y-86431429D01*
X184626191Y-86431429D01*
X184721429Y-86383810D01*
X184769048Y-86336190D01*
X184816667Y-86240952D01*
X183340477Y-104862381D02*
X183340477Y-105576667D01*
X183292857Y-105719524D01*
X183197619Y-105814762D01*
X183054762Y-105862381D01*
X182959524Y-105862381D01*
X184340477Y-105862381D02*
X183769048Y-105862381D01*
X184054762Y-105862381D02*
X184054762Y-104862381D01*
X183959524Y-105005238D01*
X183864286Y-105100476D01*
X183769048Y-105148095D01*
X185197620Y-105195714D02*
X185197620Y-105862381D01*
X184959524Y-104814762D02*
X184721429Y-105529048D01*
X185340477Y-105529048D01*
X186682143Y-93797381D02*
X186348809Y-93321190D01*
X186110714Y-93797381D02*
X186110714Y-92797381D01*
X186491667Y-92797381D01*
X186586905Y-92845000D01*
X186634524Y-92892619D01*
X186682143Y-92987857D01*
X186682143Y-93130714D01*
X186634524Y-93225952D01*
X186586905Y-93273571D01*
X186491667Y-93321190D01*
X186110714Y-93321190D01*
X187634524Y-93797381D02*
X187063095Y-93797381D01*
X187348809Y-93797381D02*
X187348809Y-92797381D01*
X187253571Y-92940238D01*
X187158333Y-93035476D01*
X187063095Y-93083095D01*
X187967857Y-92797381D02*
X188586905Y-92797381D01*
X188253571Y-93178333D01*
X188396429Y-93178333D01*
X188491667Y-93225952D01*
X188539286Y-93273571D01*
X188586905Y-93368810D01*
X188586905Y-93606905D01*
X188539286Y-93702143D01*
X188491667Y-93749762D01*
X188396429Y-93797381D01*
X188110714Y-93797381D01*
X188015476Y-93749762D01*
X187967857Y-93702143D01*
X179697143Y-106497381D02*
X179363809Y-106021190D01*
X179125714Y-106497381D02*
X179125714Y-105497381D01*
X179506667Y-105497381D01*
X179601905Y-105545000D01*
X179649524Y-105592619D01*
X179697143Y-105687857D01*
X179697143Y-105830714D01*
X179649524Y-105925952D01*
X179601905Y-105973571D01*
X179506667Y-106021190D01*
X179125714Y-106021190D01*
X180649524Y-106497381D02*
X180078095Y-106497381D01*
X180363809Y-106497381D02*
X180363809Y-105497381D01*
X180268571Y-105640238D01*
X180173333Y-105735476D01*
X180078095Y-105783095D01*
X181506667Y-105830714D02*
X181506667Y-106497381D01*
X181268571Y-105449762D02*
X181030476Y-106164048D01*
X181649524Y-106164048D01*
X154178095Y-97877381D02*
X154178095Y-98686905D01*
X154225714Y-98782143D01*
X154273333Y-98829762D01*
X154368571Y-98877381D01*
X154559048Y-98877381D01*
X154654286Y-98829762D01*
X154701905Y-98782143D01*
X154749524Y-98686905D01*
X154749524Y-97877381D01*
X155130476Y-97877381D02*
X155797143Y-97877381D01*
X155368571Y-98877381D01*
X156083095Y-90892381D02*
X156083095Y-91701905D01*
X156130714Y-91797143D01*
X156178333Y-91844762D01*
X156273571Y-91892381D01*
X156464048Y-91892381D01*
X156559286Y-91844762D01*
X156606905Y-91797143D01*
X156654524Y-91701905D01*
X156654524Y-90892381D01*
X157606905Y-90892381D02*
X157130714Y-90892381D01*
X157083095Y-91368571D01*
X157130714Y-91320952D01*
X157225952Y-91273333D01*
X157464048Y-91273333D01*
X157559286Y-91320952D01*
X157606905Y-91368571D01*
X157654524Y-91463810D01*
X157654524Y-91701905D01*
X157606905Y-91797143D01*
X157559286Y-91844762D01*
X157464048Y-91892381D01*
X157225952Y-91892381D01*
X157130714Y-91844762D01*
X157083095Y-91797143D01*
X160488334Y-106402143D02*
X160440715Y-106449762D01*
X160297858Y-106497381D01*
X160202620Y-106497381D01*
X160059762Y-106449762D01*
X159964524Y-106354524D01*
X159916905Y-106259286D01*
X159869286Y-106068810D01*
X159869286Y-105925952D01*
X159916905Y-105735476D01*
X159964524Y-105640238D01*
X160059762Y-105545000D01*
X160202620Y-105497381D01*
X160297858Y-105497381D01*
X160440715Y-105545000D01*
X160488334Y-105592619D01*
X161393096Y-105497381D02*
X160916905Y-105497381D01*
X160869286Y-105973571D01*
X160916905Y-105925952D01*
X161012143Y-105878333D01*
X161250239Y-105878333D01*
X161345477Y-105925952D01*
X161393096Y-105973571D01*
X161440715Y-106068810D01*
X161440715Y-106306905D01*
X161393096Y-106402143D01*
X161345477Y-106449762D01*
X161250239Y-106497381D01*
X161012143Y-106497381D01*
X160916905Y-106449762D01*
X160869286Y-106402143D01*
X156043334Y-106402143D02*
X155995715Y-106449762D01*
X155852858Y-106497381D01*
X155757620Y-106497381D01*
X155614762Y-106449762D01*
X155519524Y-106354524D01*
X155471905Y-106259286D01*
X155424286Y-106068810D01*
X155424286Y-105925952D01*
X155471905Y-105735476D01*
X155519524Y-105640238D01*
X155614762Y-105545000D01*
X155757620Y-105497381D01*
X155852858Y-105497381D01*
X155995715Y-105545000D01*
X156043334Y-105592619D01*
X156900477Y-105830714D02*
X156900477Y-106497381D01*
X156662381Y-105449762D02*
X156424286Y-106164048D01*
X157043334Y-106164048D01*
X165401667Y-104862381D02*
X165401667Y-105576667D01*
X165354047Y-105719524D01*
X165258809Y-105814762D01*
X165115952Y-105862381D01*
X165020714Y-105862381D01*
X165782619Y-104862381D02*
X166401667Y-104862381D01*
X166068333Y-105243333D01*
X166211191Y-105243333D01*
X166306429Y-105290952D01*
X166354048Y-105338571D01*
X166401667Y-105433810D01*
X166401667Y-105671905D01*
X166354048Y-105767143D01*
X166306429Y-105814762D01*
X166211191Y-105862381D01*
X165925476Y-105862381D01*
X165830238Y-105814762D01*
X165782619Y-105767143D01*
X165401667Y-101052381D02*
X165401667Y-101766667D01*
X165354047Y-101909524D01*
X165258809Y-102004762D01*
X165115952Y-102052381D01*
X165020714Y-102052381D01*
X166306429Y-101052381D02*
X166115952Y-101052381D01*
X166020714Y-101100000D01*
X165973095Y-101147619D01*
X165877857Y-101290476D01*
X165830238Y-101480952D01*
X165830238Y-101861905D01*
X165877857Y-101957143D01*
X165925476Y-102004762D01*
X166020714Y-102052381D01*
X166211191Y-102052381D01*
X166306429Y-102004762D01*
X166354048Y-101957143D01*
X166401667Y-101861905D01*
X166401667Y-101623810D01*
X166354048Y-101528571D01*
X166306429Y-101480952D01*
X166211191Y-101433333D01*
X166020714Y-101433333D01*
X165925476Y-101480952D01*
X165877857Y-101528571D01*
X165830238Y-101623810D01*
D10*
X146653334Y-109416905D02*
X146653334Y-109988333D01*
X146615238Y-110102619D01*
X146539048Y-110178810D01*
X146424762Y-110216905D01*
X146348572Y-110216905D01*
X147034286Y-110216905D02*
X147034286Y-109416905D01*
X147339048Y-109416905D01*
X147415239Y-109455000D01*
X147453334Y-109493095D01*
X147491429Y-109569286D01*
X147491429Y-109683571D01*
X147453334Y-109759762D01*
X147415239Y-109797857D01*
X147339048Y-109835952D01*
X147034286Y-109835952D01*
X148253334Y-110216905D02*
X147796191Y-110216905D01*
X148024762Y-110216905D02*
X148024762Y-109416905D01*
X147948572Y-109531190D01*
X147872381Y-109607381D01*
X147796191Y-109645476D01*
D13*
X189801667Y-84224762D02*
X189944524Y-84272381D01*
X190182620Y-84272381D01*
X190277858Y-84224762D01*
X190325477Y-84177143D01*
X190373096Y-84081905D01*
X190373096Y-83986667D01*
X190325477Y-83891429D01*
X190277858Y-83843810D01*
X190182620Y-83796190D01*
X189992143Y-83748571D01*
X189896905Y-83700952D01*
X189849286Y-83653333D01*
X189801667Y-83558095D01*
X189801667Y-83462857D01*
X189849286Y-83367619D01*
X189896905Y-83320000D01*
X189992143Y-83272381D01*
X190230239Y-83272381D01*
X190373096Y-83320000D01*
X190706429Y-83272381D02*
X190944524Y-84272381D01*
X191135001Y-83558095D01*
X191325477Y-84272381D01*
X191563572Y-83272381D01*
X192468334Y-84272381D02*
X191896905Y-84272381D01*
X192182619Y-84272381D02*
X192182619Y-83272381D01*
X192087381Y-83415238D01*
X191992143Y-83510476D01*
X191896905Y-83558095D01*
M02*
