G04 #@! TF.FileFunction,Copper,L2,Bot,Signal*
%FSLAX46Y46*%
G04 Gerber Fmt 4.6, Leading zero omitted, Abs format (unit mm)*
G04 Created by KiCad (PCBNEW 4.0.7-e2-6376~60~ubuntu17.10.1) date Thu Dec 28 10:46:34 2017*
%MOMM*%
%LPD*%
G01*
G04 APERTURE LIST*
%ADD10C,0.100000*%
%ADD11R,1.700000X1.200000*%
%ADD12O,1.700000X1.200000*%
%ADD13C,1.450000*%
%ADD14O,1.900000X1.200000*%
%ADD15R,1.700000X1.700000*%
%ADD16O,1.700000X1.700000*%
%ADD17R,1.016000X1.524000*%
%ADD18R,1.524000X1.016000*%
%ADD19R,4.700000X1.350000*%
%ADD20R,4.200000X1.270000*%
%ADD21R,2.997200X1.597660*%
%ADD22C,2.100000*%
%ADD23C,1.750000*%
%ADD24C,0.600000*%
%ADD25C,0.250000*%
%ADD26C,0.254000*%
G04 APERTURE END LIST*
D10*
D11*
X149225000Y-82550000D03*
D12*
X149225000Y-84550000D03*
D13*
X148400000Y-88940000D03*
X148400000Y-93940000D03*
D14*
X145700000Y-87940000D03*
X145700000Y-94940000D03*
D15*
X150495000Y-97790000D03*
D16*
X150495000Y-100330000D03*
X150495000Y-102870000D03*
X150495000Y-105410000D03*
X150495000Y-107950000D03*
D17*
X161290000Y-102870000D03*
X162560000Y-102870000D03*
X163830000Y-102870000D03*
X165100000Y-102870000D03*
X166370000Y-102870000D03*
X167640000Y-102870000D03*
X168910000Y-102870000D03*
X170180000Y-102870000D03*
X171450000Y-102870000D03*
X172720000Y-102870000D03*
X173990000Y-102870000D03*
X175260000Y-102870000D03*
X176530000Y-102870000D03*
X177800000Y-102870000D03*
X179070000Y-102870000D03*
X180340000Y-102870000D03*
X181610000Y-102870000D03*
X182880000Y-102870000D03*
X184150000Y-102870000D03*
X185420000Y-102870000D03*
X185420000Y-85090000D03*
D18*
X186690000Y-97790000D03*
X186690000Y-96520000D03*
X186690000Y-95250000D03*
X186690000Y-93980000D03*
X186690000Y-92710000D03*
X186690000Y-91440000D03*
X186690000Y-90170000D03*
D17*
X184150000Y-85090000D03*
X182880000Y-85090000D03*
X181610000Y-85090000D03*
X180340000Y-85090000D03*
X179070000Y-85090000D03*
X177800000Y-85090000D03*
X176530000Y-85090000D03*
X175260000Y-85090000D03*
X173990000Y-85090000D03*
X172720000Y-85090000D03*
X171450000Y-85090000D03*
X170180000Y-85090000D03*
X168910000Y-85090000D03*
X167640000Y-85090000D03*
X166370000Y-85090000D03*
X165100000Y-85090000D03*
X163830000Y-85090000D03*
X162560000Y-85090000D03*
X161290000Y-85090000D03*
D19*
X201295000Y-90805000D03*
D20*
X201545000Y-93590000D03*
D19*
X201295000Y-96375000D03*
D21*
X166626540Y-100614480D03*
X166624000Y-98615500D03*
X166624000Y-96613980D03*
X166624000Y-94615000D03*
X166624000Y-92616020D03*
X166624000Y-90614500D03*
X166624000Y-88615520D03*
X182626000Y-88615520D03*
X182626000Y-90614500D03*
X182626000Y-92616020D03*
X182626000Y-94615000D03*
X182626000Y-96613980D03*
X182626000Y-98615500D03*
X182626000Y-100614480D03*
D15*
X147320000Y-105410000D03*
D16*
X147320000Y-107950000D03*
D15*
X155575000Y-80010000D03*
D16*
X158115000Y-80010000D03*
X160655000Y-80010000D03*
X163195000Y-80010000D03*
X165735000Y-80010000D03*
X168275000Y-80010000D03*
X170815000Y-80010000D03*
X173355000Y-80010000D03*
X175895000Y-80010000D03*
X178435000Y-80010000D03*
X180975000Y-80010000D03*
X183515000Y-80010000D03*
D15*
X183515000Y-109220000D03*
D16*
X180975000Y-109220000D03*
X178435000Y-109220000D03*
X175895000Y-109220000D03*
X173355000Y-109220000D03*
X170815000Y-109220000D03*
X168275000Y-109220000D03*
X165735000Y-109220000D03*
X163195000Y-109220000D03*
X160655000Y-109220000D03*
X158115000Y-109220000D03*
X155575000Y-109220000D03*
D15*
X193675000Y-109220000D03*
D16*
X191135000Y-109220000D03*
X188595000Y-109220000D03*
D22*
X194990000Y-83135000D03*
D23*
X193730000Y-80645000D03*
X189230000Y-80645000D03*
D22*
X187980000Y-83135000D03*
D24*
X175451500Y-104633000D03*
X187971300Y-94224800D03*
X187777700Y-99458700D03*
X180605600Y-89810100D03*
X175979300Y-100167300D03*
X180648500Y-87341400D03*
X178393200Y-83464800D03*
X154833200Y-87831400D03*
X169798100Y-98687500D03*
X169054100Y-95015000D03*
X151073800Y-92132200D03*
X174625000Y-79360900D03*
X173506000Y-86624200D03*
X171679400Y-93109700D03*
X175484000Y-87117500D03*
X172491700Y-93223600D03*
X172085000Y-78999700D03*
X174672700Y-97074400D03*
X180354300Y-100205900D03*
X152463700Y-99872800D03*
X182517600Y-105055700D03*
X168623700Y-89532600D03*
X163688700Y-100946400D03*
X181348500Y-105388900D03*
X169646800Y-99744600D03*
X176216100Y-94066800D03*
X185094000Y-98633500D03*
X165380200Y-105310400D03*
X172686400Y-86937400D03*
X171677000Y-91815000D03*
X188206300Y-88382100D03*
X173027900Y-94044100D03*
X162245400Y-99658900D03*
X169141100Y-97964400D03*
X155135300Y-91960700D03*
X180416500Y-92525200D03*
X177551500Y-91815000D03*
X184638700Y-94655400D03*
X170905300Y-101585400D03*
X158184100Y-94231900D03*
X166473300Y-105308000D03*
D25*
X149225000Y-84550000D02*
X149225000Y-85475300D01*
X145700000Y-87940000D02*
X146975300Y-87940000D01*
X148400000Y-87940000D02*
X146975300Y-87940000D01*
X148400000Y-88940000D02*
X148400000Y-87940000D01*
X148400000Y-86300300D02*
X149225000Y-85475300D01*
X148400000Y-87940000D02*
X148400000Y-86300300D01*
X186690000Y-90170000D02*
X187664700Y-90170000D01*
X149687000Y-99154700D02*
X150495000Y-99154700D01*
X148400000Y-97867700D02*
X149687000Y-99154700D01*
X148400000Y-93940000D02*
X148400000Y-97867700D01*
X150495000Y-100330000D02*
X150495000Y-99154700D01*
X185602700Y-93768800D02*
X184449900Y-92616000D01*
X185602700Y-93980000D02*
X185602700Y-93768800D01*
X182626000Y-92616000D02*
X184449900Y-92616000D01*
X186690000Y-93980000D02*
X185602700Y-93980000D01*
X162361900Y-86177300D02*
X164800100Y-88615500D01*
X161290000Y-86177300D02*
X162361900Y-86177300D01*
X166624000Y-88615500D02*
X164800100Y-88615500D01*
X161290000Y-85633600D02*
X161290000Y-86177300D01*
X187379500Y-78794500D02*
X189230000Y-80645000D01*
X183000200Y-78794500D02*
X187379500Y-78794500D01*
X182309700Y-79485000D02*
X183000200Y-78794500D01*
X182309700Y-80892400D02*
X182309700Y-79485000D01*
X185420000Y-84002700D02*
X182309700Y-80892400D01*
X190928700Y-78946300D02*
X189230000Y-80645000D01*
X194408400Y-78946300D02*
X190928700Y-78946300D01*
X198619700Y-83157600D02*
X194408400Y-78946300D01*
X198619700Y-90805000D02*
X198619700Y-83157600D01*
X201295000Y-90805000D02*
X198619700Y-90805000D01*
X170180000Y-85090000D02*
X170180000Y-84115300D01*
X170292600Y-84002700D02*
X170180000Y-84115300D01*
X173990000Y-84002700D02*
X170292600Y-84002700D01*
X186690000Y-93980000D02*
X187777300Y-93980000D01*
X186690000Y-91440000D02*
X187664700Y-91440000D01*
X187777300Y-91552600D02*
X187777300Y-93980000D01*
X187664700Y-91440000D02*
X187777300Y-91552600D01*
X187664700Y-91440000D02*
X187664700Y-90170000D01*
X186690000Y-97790000D02*
X187133800Y-97790000D01*
X186690000Y-96520000D02*
X187777300Y-96520000D01*
X187971300Y-94174000D02*
X187971300Y-94224800D01*
X187777300Y-93980000D02*
X187971300Y-94174000D01*
X187971300Y-96326000D02*
X187777300Y-96520000D01*
X187971300Y-94224800D02*
X187971300Y-96326000D01*
X185420000Y-84658900D02*
X185420000Y-84002700D01*
X185420000Y-84658900D02*
X185420000Y-85090000D01*
X185420000Y-86177300D02*
X173990000Y-86177300D01*
X173990000Y-85090000D02*
X173990000Y-86177300D01*
X185420000Y-85090000D02*
X185420000Y-86177300D01*
X161290000Y-85633600D02*
X161290000Y-85090000D01*
X170067400Y-84002700D02*
X170180000Y-84115300D01*
X161290000Y-84002700D02*
X170067400Y-84002700D01*
X161290000Y-85090000D02*
X161290000Y-84002700D01*
X173990000Y-85090000D02*
X173990000Y-84002700D01*
X168910000Y-102870000D02*
X168910000Y-103957300D01*
X161290000Y-102870000D02*
X161290000Y-103957300D01*
X168910000Y-103957300D02*
X161290000Y-103957300D01*
X187777300Y-97169500D02*
X187777300Y-96520000D01*
X187156800Y-97790000D02*
X187777300Y-97169500D01*
X187133800Y-97790000D02*
X187156800Y-97790000D01*
X178435000Y-109220000D02*
X179610300Y-109220000D01*
X179070000Y-101782700D02*
X185420000Y-101782700D01*
X179070000Y-102870000D02*
X179070000Y-101782700D01*
X185420000Y-102870000D02*
X185420000Y-101782700D01*
X187133800Y-103540900D02*
X187133800Y-97790000D01*
X185555200Y-105119500D02*
X187133800Y-103540900D01*
X183413200Y-105119500D02*
X185555200Y-105119500D01*
X179610300Y-108922400D02*
X183413200Y-105119500D01*
X179610300Y-109220000D02*
X179610300Y-108922400D01*
X175451500Y-104633000D02*
X175451500Y-104363300D01*
X175045500Y-103957300D02*
X168910000Y-103957300D01*
X175451500Y-104363300D02*
X175045500Y-103957300D01*
X178664000Y-104363300D02*
X179070000Y-103957300D01*
X175451500Y-104363300D02*
X178664000Y-104363300D01*
X179070000Y-102870000D02*
X179070000Y-103957300D01*
X150495000Y-97790000D02*
X150495000Y-96614700D01*
X182626000Y-90614500D02*
X180802100Y-90614500D01*
X177800000Y-102870000D02*
X177800000Y-101782700D01*
X176184600Y-100167300D02*
X175979300Y-100167300D01*
X177800000Y-101782700D02*
X176184600Y-100167300D01*
X180802100Y-90006600D02*
X180802100Y-90614500D01*
X180605600Y-89810100D02*
X180802100Y-90006600D01*
X175260000Y-85090000D02*
X175260000Y-84002700D01*
X175797900Y-83464800D02*
X175260000Y-84002700D01*
X178393200Y-83464800D02*
X175797900Y-83464800D01*
X154833300Y-87831400D02*
X154833200Y-87831400D01*
X154833300Y-87751900D02*
X154833300Y-87831400D01*
X161925000Y-80660200D02*
X154833300Y-87751900D01*
X161925000Y-79593000D02*
X161925000Y-80660200D01*
X163674800Y-77843200D02*
X161925000Y-79593000D01*
X177957900Y-77843200D02*
X163674800Y-77843200D01*
X179635800Y-79521100D02*
X177957900Y-77843200D01*
X179635800Y-82222200D02*
X179635800Y-79521100D01*
X178393200Y-83464800D02*
X179635800Y-82222200D01*
X152238600Y-94871100D02*
X150495000Y-96614700D01*
X152238600Y-90426000D02*
X152238600Y-94871100D01*
X154833200Y-87831400D02*
X152238600Y-90426000D01*
X180648500Y-89767200D02*
X180648500Y-87341400D01*
X180605600Y-89810100D02*
X180648500Y-89767200D01*
X187777700Y-103547500D02*
X187777700Y-99458700D01*
X185755400Y-105569800D02*
X187777700Y-103547500D01*
X184625200Y-105569800D02*
X185755400Y-105569800D01*
X180975000Y-109220000D02*
X184625200Y-105569800D01*
X188595000Y-109220000D02*
X187419700Y-109220000D01*
X163195000Y-109220000D02*
X164370300Y-109220000D01*
X185747000Y-110892700D02*
X187419700Y-109220000D01*
X165675700Y-110892700D02*
X185747000Y-110892700D01*
X164370300Y-109587300D02*
X165675700Y-110892700D01*
X164370300Y-109220000D02*
X164370300Y-109587300D01*
X169798100Y-95759000D02*
X169798100Y-98687500D01*
X169054100Y-95015000D02*
X169798100Y-95759000D01*
X149225000Y-82550000D02*
X149225000Y-83475300D01*
X183515000Y-109220000D02*
X182339700Y-109220000D01*
X150402400Y-92132200D02*
X151073800Y-92132200D01*
X150402400Y-84146700D02*
X150402400Y-92132200D01*
X149731000Y-83475300D02*
X150402400Y-84146700D01*
X149225000Y-83475300D02*
X149731000Y-83475300D01*
X182339700Y-109587300D02*
X182339700Y-109220000D01*
X181503900Y-110423100D02*
X182339700Y-109587300D01*
X167751500Y-110423100D02*
X181503900Y-110423100D01*
X167005000Y-109676600D02*
X167751500Y-110423100D01*
X167005000Y-108773500D02*
X167005000Y-109676600D01*
X166242100Y-108010600D02*
X167005000Y-108773500D01*
X162733900Y-108010600D02*
X166242100Y-108010600D01*
X161925000Y-108819500D02*
X162733900Y-108010600D01*
X161925000Y-109638500D02*
X161925000Y-108819500D01*
X161146400Y-110417100D02*
X161925000Y-109638500D01*
X147461500Y-110417100D02*
X161146400Y-110417100D01*
X145682300Y-108637900D02*
X147461500Y-110417100D01*
X145682300Y-104082100D02*
X145682300Y-108637900D01*
X147273100Y-102491300D02*
X145682300Y-104082100D01*
X147273100Y-93566400D02*
X147273100Y-102491300D01*
X148707300Y-92132200D02*
X147273100Y-93566400D01*
X150402400Y-92132200D02*
X148707300Y-92132200D01*
X163195000Y-80010000D02*
X164370300Y-80010000D01*
X173604900Y-78340800D02*
X174625000Y-79360900D01*
X165672200Y-78340800D02*
X173604900Y-78340800D01*
X164370300Y-79642700D02*
X165672200Y-78340800D01*
X164370300Y-80010000D02*
X164370300Y-79642700D01*
X173506000Y-91283100D02*
X171679400Y-93109700D01*
X173506000Y-86624200D02*
X173506000Y-91283100D01*
X175484000Y-90231300D02*
X172491700Y-93223600D01*
X175484000Y-87117500D02*
X175484000Y-90231300D01*
X171876500Y-78791200D02*
X172085000Y-78999700D01*
X167761800Y-78791200D02*
X171876500Y-78791200D01*
X166910300Y-79642700D02*
X167761800Y-78791200D01*
X166910300Y-80010000D02*
X166910300Y-79642700D01*
X165735000Y-80010000D02*
X166910300Y-80010000D01*
X177804200Y-100205900D02*
X174672700Y-97074400D01*
X180354300Y-100205900D02*
X177804200Y-100205900D01*
X173355000Y-80010000D02*
X172179700Y-80010000D01*
X150495000Y-102870000D02*
X150495000Y-101694700D01*
X152463600Y-99872800D02*
X152463700Y-99872800D01*
X152463600Y-100093500D02*
X152463600Y-99872800D01*
X150862400Y-101694700D02*
X152463600Y-100093500D01*
X150495000Y-101694700D02*
X150862400Y-101694700D01*
X152914000Y-99422500D02*
X152463700Y-99872800D01*
X152914000Y-90704000D02*
X152914000Y-99422500D01*
X155476400Y-88141600D02*
X152914000Y-90704000D01*
X155476400Y-87781900D02*
X155476400Y-88141600D01*
X161352700Y-81905600D02*
X155476400Y-87781900D01*
X170651400Y-81905600D02*
X161352700Y-81905600D01*
X172179700Y-80377300D02*
X170651400Y-81905600D01*
X172179700Y-80010000D02*
X172179700Y-80377300D01*
X170815000Y-109220000D02*
X171990300Y-109220000D01*
X182517600Y-105104200D02*
X182517600Y-105055700D01*
X179577100Y-108044700D02*
X182517600Y-105104200D01*
X172798200Y-108044700D02*
X179577100Y-108044700D01*
X171990300Y-108852600D02*
X172798200Y-108044700D01*
X171990300Y-109220000D02*
X171990300Y-108852600D01*
X167640000Y-86407700D02*
X167640000Y-85090000D01*
X168623700Y-87391400D02*
X167640000Y-86407700D01*
X168623700Y-89532600D02*
X168623700Y-87391400D01*
X168275000Y-109220000D02*
X168275000Y-108044700D01*
X168275000Y-108044700D02*
X168275000Y-107180800D01*
X163828000Y-107180800D02*
X168275000Y-107180800D01*
X160456600Y-103809400D02*
X163828000Y-107180800D01*
X160456600Y-101960800D02*
X160456600Y-103809400D01*
X161020600Y-101396800D02*
X160456600Y-101960800D01*
X163238300Y-101396800D02*
X161020600Y-101396800D01*
X163688700Y-100946400D02*
X163238300Y-101396800D01*
X179556600Y-107180800D02*
X181348500Y-105388900D01*
X168275000Y-107180800D02*
X179556600Y-107180800D01*
X172331900Y-97059500D02*
X169646800Y-99744600D01*
X172331900Y-94688400D02*
X172331900Y-97059500D01*
X173707400Y-94688400D02*
X172331900Y-94688400D01*
X174329000Y-94066800D02*
X173707400Y-94688400D01*
X176216100Y-94066800D02*
X174329000Y-94066800D01*
X166624000Y-90614500D02*
X168447900Y-90614500D01*
X168447900Y-90804400D02*
X172331900Y-94688400D01*
X168447900Y-90614500D02*
X168447900Y-90804400D01*
X168910000Y-85090000D02*
X168910000Y-86177300D01*
X169251600Y-89810800D02*
X168447900Y-90614500D01*
X169251600Y-86518900D02*
X169251600Y-89810800D01*
X168910000Y-86177300D02*
X169251600Y-86518900D01*
X150862300Y-104234700D02*
X150495000Y-104234700D01*
X154184000Y-100913000D02*
X150862300Y-104234700D01*
X154184000Y-90423800D02*
X154184000Y-100913000D01*
X158109800Y-86498000D02*
X154184000Y-90423800D01*
X158109800Y-85843700D02*
X158109800Y-86498000D01*
X161543000Y-82410500D02*
X158109800Y-85843700D01*
X172686500Y-82410500D02*
X161543000Y-82410500D01*
X174719700Y-80377300D02*
X172686500Y-82410500D01*
X174719700Y-80010000D02*
X174719700Y-80377300D01*
X175895000Y-80010000D02*
X174719700Y-80010000D01*
X150495000Y-105410000D02*
X150495000Y-104234700D01*
X182626000Y-100614500D02*
X184337300Y-100614500D01*
X184337300Y-100614500D02*
X184900100Y-100614500D01*
X185094000Y-100420600D02*
X185094000Y-98633500D01*
X184900100Y-100614500D02*
X185094000Y-100420600D01*
X166003200Y-105933400D02*
X165380200Y-105310400D01*
X179871700Y-105933400D02*
X166003200Y-105933400D01*
X181604000Y-104201100D02*
X179871700Y-105933400D01*
X185836700Y-104201100D02*
X181604000Y-104201100D01*
X186262000Y-103775800D02*
X185836700Y-104201100D01*
X186262000Y-101976400D02*
X186262000Y-103775800D01*
X184900100Y-100614500D02*
X186262000Y-101976400D01*
X171677000Y-87946800D02*
X172686400Y-86937400D01*
X171677000Y-91815000D02*
X171677000Y-87946800D01*
X189909300Y-90085100D02*
X188206300Y-88382100D01*
X189909300Y-109707000D02*
X189909300Y-90085100D01*
X190619700Y-110417400D02*
X189909300Y-109707000D01*
X191669600Y-110417400D02*
X190619700Y-110417400D01*
X192499700Y-109587300D02*
X191669600Y-110417400D01*
X192499700Y-109220000D02*
X192499700Y-109587300D01*
X193675000Y-109220000D02*
X192499700Y-109220000D01*
X183515000Y-80010000D02*
X183515000Y-81185300D01*
X180444300Y-86627700D02*
X173027900Y-94044100D01*
X185693700Y-86627700D02*
X180444300Y-86627700D01*
X186253400Y-86068000D02*
X185693700Y-86627700D01*
X186253400Y-83923700D02*
X186253400Y-86068000D01*
X183515000Y-81185300D02*
X186253400Y-83923700D01*
X178435000Y-80010000D02*
X177259700Y-80010000D01*
X166624000Y-98615500D02*
X168447900Y-98615500D01*
X169099000Y-97964400D02*
X169141100Y-97964400D01*
X168447900Y-98615500D02*
X169099000Y-97964400D01*
X162245400Y-98677100D02*
X162883500Y-98039000D01*
X162245400Y-99658900D02*
X162245400Y-98677100D01*
X177259700Y-80377500D02*
X177259700Y-80010000D01*
X174348500Y-83288700D02*
X177259700Y-80377500D01*
X161301700Y-83288700D02*
X174348500Y-83288700D01*
X160424400Y-84166000D02*
X161301700Y-83288700D01*
X160424400Y-95579900D02*
X160424400Y-84166000D01*
X162883500Y-98039000D02*
X160424400Y-95579900D01*
X164223600Y-98039000D02*
X164800100Y-98615500D01*
X162883500Y-98039000D02*
X164223600Y-98039000D01*
X166624000Y-98615500D02*
X164800100Y-98615500D01*
X147320000Y-107950000D02*
X148495300Y-107950000D01*
X155135300Y-102466900D02*
X155135300Y-91960700D01*
X150827500Y-106774700D02*
X155135300Y-102466900D01*
X149670600Y-106774700D02*
X150827500Y-106774700D01*
X148495300Y-107950000D02*
X149670600Y-106774700D01*
X182626000Y-96614000D02*
X180802100Y-96614000D01*
X180416500Y-95564200D02*
X180084400Y-95896300D01*
X180416500Y-92525200D02*
X180416500Y-95564200D01*
X180084400Y-95896300D02*
X180802100Y-96614000D01*
X160655000Y-109220000D02*
X160655000Y-108044700D01*
X159984900Y-107374600D02*
X160655000Y-108044700D01*
X159984900Y-101795600D02*
X159984900Y-107374600D01*
X161009200Y-100771300D02*
X159984900Y-101795600D01*
X162979500Y-100771300D02*
X161009200Y-100771300D01*
X163429700Y-100321100D02*
X162979500Y-100771300D01*
X163947800Y-100321100D02*
X163429700Y-100321100D01*
X164314000Y-100687300D02*
X163947800Y-100321100D01*
X164314000Y-101119700D02*
X164314000Y-100687300D01*
X164933000Y-101738700D02*
X164314000Y-101119700D01*
X169231800Y-101738700D02*
X164933000Y-101738700D01*
X173572300Y-97398200D02*
X169231800Y-101738700D01*
X173572300Y-96653400D02*
X173572300Y-97398200D01*
X174329400Y-95896300D02*
X173572300Y-96653400D01*
X180084400Y-95896300D02*
X174329400Y-95896300D01*
X166626500Y-100614500D02*
X168450400Y-100614500D01*
X166626500Y-100614500D02*
X164802600Y-100614500D01*
X158115000Y-103028600D02*
X158115000Y-109220000D01*
X160828100Y-100315500D02*
X158115000Y-103028600D01*
X162798400Y-100315500D02*
X160828100Y-100315500D01*
X163243100Y-99870800D02*
X162798400Y-100315500D01*
X164134400Y-99870800D02*
X163243100Y-99870800D01*
X164802600Y-100539000D02*
X164134400Y-99870800D01*
X164802600Y-100614500D02*
X164802600Y-100539000D01*
X177551500Y-93615800D02*
X177551500Y-91815000D01*
X176475200Y-94692100D02*
X177551500Y-93615800D01*
X174896700Y-94692100D02*
X176475200Y-94692100D01*
X173122000Y-96466800D02*
X174896700Y-94692100D01*
X173122000Y-97153800D02*
X173122000Y-96466800D01*
X169661300Y-100614500D02*
X173122000Y-97153800D01*
X168450400Y-100614500D02*
X169661300Y-100614500D01*
X184449900Y-94844200D02*
X184638700Y-94655400D01*
X184449900Y-98615500D02*
X184449900Y-94844200D01*
X182626000Y-98615500D02*
X184449900Y-98615500D01*
X174022600Y-98468100D02*
X170905300Y-101585400D01*
X174022600Y-96840000D02*
X174022600Y-98468100D01*
X174468100Y-96394500D02*
X174022600Y-96840000D01*
X176538400Y-96394500D02*
X174468100Y-96394500D01*
X178759400Y-98615500D02*
X176538400Y-96394500D01*
X182626000Y-98615500D02*
X178759400Y-98615500D01*
X184449900Y-91557200D02*
X185602700Y-92710000D01*
X184449900Y-88615500D02*
X184449900Y-91557200D01*
X182626000Y-88615500D02*
X184449900Y-88615500D01*
X186690000Y-92710000D02*
X185602700Y-92710000D01*
X189683200Y-83382200D02*
X184449900Y-88615500D01*
X189683200Y-82951800D02*
X189683200Y-83382200D01*
X193238300Y-79396700D02*
X189683200Y-82951800D01*
X194221900Y-79396700D02*
X193238300Y-79396700D01*
X197426700Y-82601500D02*
X194221900Y-79396700D01*
X197426700Y-91897000D02*
X197426700Y-82601500D01*
X199119700Y-93590000D02*
X197426700Y-91897000D01*
X201545000Y-93590000D02*
X199119700Y-93590000D01*
X147320000Y-105410000D02*
X147320000Y-106585300D01*
X146952700Y-106585300D02*
X147320000Y-106585300D01*
X146133900Y-107404100D02*
X146952700Y-106585300D01*
X146133900Y-108427200D02*
X146133900Y-107404100D01*
X146833400Y-109126700D02*
X146133900Y-108427200D01*
X151046000Y-109126700D02*
X146833400Y-109126700D01*
X158184100Y-101988600D02*
X151046000Y-109126700D01*
X158184100Y-94231900D02*
X158184100Y-101988600D01*
X191135000Y-83240000D02*
X191135000Y-109220000D01*
X193730000Y-80645000D02*
X191135000Y-83240000D01*
X180340000Y-102870000D02*
X180340000Y-103957300D01*
X178989300Y-105308000D02*
X166473300Y-105308000D01*
X180340000Y-103957300D02*
X178989300Y-105308000D01*
D26*
G36*
X161589533Y-78853665D02*
X161223285Y-78608946D01*
X160655000Y-78495907D01*
X160086715Y-78608946D01*
X159604946Y-78930853D01*
X159385000Y-79260026D01*
X159165054Y-78930853D01*
X158683285Y-78608946D01*
X158115000Y-78495907D01*
X157546715Y-78608946D01*
X157064946Y-78930853D01*
X157037150Y-78972452D01*
X157028162Y-78924683D01*
X156889090Y-78708559D01*
X156676890Y-78563569D01*
X156425000Y-78512560D01*
X154725000Y-78512560D01*
X154489683Y-78556838D01*
X154273559Y-78695910D01*
X154128569Y-78908110D01*
X154077560Y-79160000D01*
X154077560Y-80860000D01*
X154121838Y-81095317D01*
X154260910Y-81311441D01*
X154473110Y-81456431D01*
X154725000Y-81507440D01*
X156425000Y-81507440D01*
X156660317Y-81463162D01*
X156876441Y-81324090D01*
X157021431Y-81111890D01*
X157035086Y-81044459D01*
X157064946Y-81089147D01*
X157546715Y-81411054D01*
X158115000Y-81524093D01*
X158683285Y-81411054D01*
X159165054Y-81089147D01*
X159385000Y-80759974D01*
X159604946Y-81089147D01*
X160086715Y-81411054D01*
X160097249Y-81413149D01*
X154590309Y-86920089D01*
X154304257Y-87038283D01*
X154041008Y-87301073D01*
X153898362Y-87644601D01*
X153898321Y-87691476D01*
X151701199Y-89888599D01*
X151536452Y-90135161D01*
X151478600Y-90426000D01*
X151478600Y-91287884D01*
X151260599Y-91197362D01*
X151162400Y-91197276D01*
X151162400Y-84146700D01*
X151104548Y-83855861D01*
X150939801Y-83609299D01*
X150681697Y-83351195D01*
X150722440Y-83150000D01*
X150722440Y-81950000D01*
X150678162Y-81714683D01*
X150539090Y-81498559D01*
X150326890Y-81353569D01*
X150075000Y-81302560D01*
X148375000Y-81302560D01*
X148139683Y-81346838D01*
X147923559Y-81485910D01*
X147778569Y-81698110D01*
X147727560Y-81950000D01*
X147727560Y-83150000D01*
X147771838Y-83385317D01*
X147910910Y-83601441D01*
X148063309Y-83705571D01*
X148043067Y-83720875D01*
X147796714Y-84140624D01*
X147781538Y-84232391D01*
X147906269Y-84423000D01*
X149098000Y-84423000D01*
X149098000Y-84403000D01*
X149352000Y-84403000D01*
X149352000Y-84423000D01*
X149372000Y-84423000D01*
X149372000Y-84677000D01*
X149352000Y-84677000D01*
X149352000Y-85632547D01*
X149547696Y-85795256D01*
X149642400Y-85770603D01*
X149642400Y-88353395D01*
X149591753Y-88231122D01*
X149353398Y-88166207D01*
X148579605Y-88940000D01*
X149353398Y-89713793D01*
X149591753Y-89648878D01*
X149642400Y-89505816D01*
X149642400Y-91372200D01*
X148707300Y-91372200D01*
X148416461Y-91430052D01*
X148169899Y-91594799D01*
X146735699Y-93028999D01*
X146570952Y-93275561D01*
X146513100Y-93566400D01*
X146513100Y-93808535D01*
X146177000Y-93705000D01*
X145827000Y-93705000D01*
X145827000Y-94813000D01*
X145847000Y-94813000D01*
X145847000Y-95067000D01*
X145827000Y-95067000D01*
X145827000Y-96175000D01*
X146177000Y-96175000D01*
X146513100Y-96071465D01*
X146513100Y-102176498D01*
X145144899Y-103544699D01*
X144980152Y-103791261D01*
X144922300Y-104082100D01*
X144922300Y-108637900D01*
X144980152Y-108928739D01*
X145144899Y-109175301D01*
X146924099Y-110954501D01*
X147170661Y-111119248D01*
X147461500Y-111177100D01*
X161146400Y-111177100D01*
X161437239Y-111119248D01*
X161683801Y-110954501D01*
X162261366Y-110376936D01*
X162626715Y-110621054D01*
X163195000Y-110734093D01*
X163763285Y-110621054D01*
X164102558Y-110394360D01*
X165138299Y-111430101D01*
X165384860Y-111594848D01*
X165675700Y-111652700D01*
X185747000Y-111652700D01*
X186037839Y-111594848D01*
X186284401Y-111430101D01*
X187493039Y-110221463D01*
X187544946Y-110299147D01*
X188026715Y-110621054D01*
X188595000Y-110734093D01*
X189163285Y-110621054D01*
X189514127Y-110386629D01*
X190082299Y-110954801D01*
X190328860Y-111119548D01*
X190619700Y-111177400D01*
X191669600Y-111177400D01*
X191960439Y-111119548D01*
X192207001Y-110954801D01*
X192526927Y-110634875D01*
X192573110Y-110666431D01*
X192825000Y-110717440D01*
X194525000Y-110717440D01*
X194760317Y-110673162D01*
X194976441Y-110534090D01*
X195121431Y-110321890D01*
X195172440Y-110070000D01*
X195172440Y-108370000D01*
X195128162Y-108134683D01*
X194989090Y-107918559D01*
X194776890Y-107773569D01*
X194525000Y-107722560D01*
X192825000Y-107722560D01*
X192589683Y-107766838D01*
X192373559Y-107905910D01*
X192228569Y-108118110D01*
X192214914Y-108185541D01*
X192185054Y-108140853D01*
X191895000Y-107947046D01*
X191895000Y-96660750D01*
X198310000Y-96660750D01*
X198310000Y-97176310D01*
X198406673Y-97409699D01*
X198585302Y-97588327D01*
X198818691Y-97685000D01*
X201009250Y-97685000D01*
X201168000Y-97526250D01*
X201168000Y-96502000D01*
X198468750Y-96502000D01*
X198310000Y-96660750D01*
X191895000Y-96660750D01*
X191895000Y-95573690D01*
X198310000Y-95573690D01*
X198310000Y-96089250D01*
X198468750Y-96248000D01*
X201168000Y-96248000D01*
X201168000Y-95223750D01*
X201009250Y-95065000D01*
X198818691Y-95065000D01*
X198585302Y-95161673D01*
X198406673Y-95340301D01*
X198310000Y-95573690D01*
X191895000Y-95573690D01*
X191895000Y-83554802D01*
X193334163Y-82115639D01*
X193428325Y-82154738D01*
X193586804Y-82154876D01*
X193562360Y-82179278D01*
X193305293Y-82798362D01*
X193304708Y-83468697D01*
X193560694Y-84088229D01*
X194034278Y-84562640D01*
X194653362Y-84819707D01*
X195323697Y-84820292D01*
X195943229Y-84564306D01*
X196417640Y-84090722D01*
X196666700Y-83490921D01*
X196666700Y-91897000D01*
X196724552Y-92187839D01*
X196889299Y-92434401D01*
X198582299Y-94127401D01*
X198807510Y-94277882D01*
X198841838Y-94460317D01*
X198980910Y-94676441D01*
X199193110Y-94821431D01*
X199445000Y-94872440D01*
X203125000Y-94872440D01*
X203125000Y-95065000D01*
X201580750Y-95065000D01*
X201422000Y-95223750D01*
X201422000Y-96248000D01*
X201442000Y-96248000D01*
X201442000Y-96502000D01*
X201422000Y-96502000D01*
X201422000Y-97526250D01*
X201580750Y-97685000D01*
X203125000Y-97685000D01*
X203125000Y-110195909D01*
X201000908Y-112320000D01*
X146979091Y-112320000D01*
X144855000Y-110195908D01*
X144855000Y-96061638D01*
X145223000Y-96175000D01*
X145573000Y-96175000D01*
X145573000Y-95067000D01*
X145553000Y-95067000D01*
X145553000Y-94813000D01*
X145573000Y-94813000D01*
X145573000Y-93705000D01*
X145223000Y-93705000D01*
X144855000Y-93818362D01*
X144855000Y-89893398D01*
X147626207Y-89893398D01*
X147691122Y-90131753D01*
X148201146Y-90312312D01*
X148741444Y-90283949D01*
X149108878Y-90131753D01*
X149173793Y-89893398D01*
X148400000Y-89119605D01*
X147626207Y-89893398D01*
X144855000Y-89893398D01*
X144855000Y-89082715D01*
X145318948Y-89175000D01*
X146081052Y-89175000D01*
X146553666Y-89080991D01*
X146954329Y-88813277D01*
X147056044Y-88661050D01*
X147027688Y-88741146D01*
X147056051Y-89281444D01*
X147208247Y-89648878D01*
X147446602Y-89713793D01*
X148220395Y-88940000D01*
X147446602Y-88166207D01*
X147261002Y-88216754D01*
X147306782Y-87986602D01*
X147626207Y-87986602D01*
X148400000Y-88760395D01*
X149173793Y-87986602D01*
X149108878Y-87748247D01*
X148598854Y-87567688D01*
X148058556Y-87596051D01*
X147691122Y-87748247D01*
X147626207Y-87986602D01*
X147306782Y-87986602D01*
X147316052Y-87940000D01*
X147222043Y-87467386D01*
X146954329Y-87066723D01*
X146553666Y-86799009D01*
X146081052Y-86705000D01*
X145318948Y-86705000D01*
X144855000Y-86797285D01*
X144855000Y-84867609D01*
X147781538Y-84867609D01*
X147796714Y-84959376D01*
X148043067Y-85379125D01*
X148431299Y-85672647D01*
X148902304Y-85795256D01*
X149098000Y-85632547D01*
X149098000Y-84677000D01*
X147906269Y-84677000D01*
X147781538Y-84867609D01*
X144855000Y-84867609D01*
X144855000Y-79669092D01*
X146979091Y-77545000D01*
X162898198Y-77545000D01*
X161589533Y-78853665D01*
X161589533Y-78853665D01*
G37*
X161589533Y-78853665D02*
X161223285Y-78608946D01*
X160655000Y-78495907D01*
X160086715Y-78608946D01*
X159604946Y-78930853D01*
X159385000Y-79260026D01*
X159165054Y-78930853D01*
X158683285Y-78608946D01*
X158115000Y-78495907D01*
X157546715Y-78608946D01*
X157064946Y-78930853D01*
X157037150Y-78972452D01*
X157028162Y-78924683D01*
X156889090Y-78708559D01*
X156676890Y-78563569D01*
X156425000Y-78512560D01*
X154725000Y-78512560D01*
X154489683Y-78556838D01*
X154273559Y-78695910D01*
X154128569Y-78908110D01*
X154077560Y-79160000D01*
X154077560Y-80860000D01*
X154121838Y-81095317D01*
X154260910Y-81311441D01*
X154473110Y-81456431D01*
X154725000Y-81507440D01*
X156425000Y-81507440D01*
X156660317Y-81463162D01*
X156876441Y-81324090D01*
X157021431Y-81111890D01*
X157035086Y-81044459D01*
X157064946Y-81089147D01*
X157546715Y-81411054D01*
X158115000Y-81524093D01*
X158683285Y-81411054D01*
X159165054Y-81089147D01*
X159385000Y-80759974D01*
X159604946Y-81089147D01*
X160086715Y-81411054D01*
X160097249Y-81413149D01*
X154590309Y-86920089D01*
X154304257Y-87038283D01*
X154041008Y-87301073D01*
X153898362Y-87644601D01*
X153898321Y-87691476D01*
X151701199Y-89888599D01*
X151536452Y-90135161D01*
X151478600Y-90426000D01*
X151478600Y-91287884D01*
X151260599Y-91197362D01*
X151162400Y-91197276D01*
X151162400Y-84146700D01*
X151104548Y-83855861D01*
X150939801Y-83609299D01*
X150681697Y-83351195D01*
X150722440Y-83150000D01*
X150722440Y-81950000D01*
X150678162Y-81714683D01*
X150539090Y-81498559D01*
X150326890Y-81353569D01*
X150075000Y-81302560D01*
X148375000Y-81302560D01*
X148139683Y-81346838D01*
X147923559Y-81485910D01*
X147778569Y-81698110D01*
X147727560Y-81950000D01*
X147727560Y-83150000D01*
X147771838Y-83385317D01*
X147910910Y-83601441D01*
X148063309Y-83705571D01*
X148043067Y-83720875D01*
X147796714Y-84140624D01*
X147781538Y-84232391D01*
X147906269Y-84423000D01*
X149098000Y-84423000D01*
X149098000Y-84403000D01*
X149352000Y-84403000D01*
X149352000Y-84423000D01*
X149372000Y-84423000D01*
X149372000Y-84677000D01*
X149352000Y-84677000D01*
X149352000Y-85632547D01*
X149547696Y-85795256D01*
X149642400Y-85770603D01*
X149642400Y-88353395D01*
X149591753Y-88231122D01*
X149353398Y-88166207D01*
X148579605Y-88940000D01*
X149353398Y-89713793D01*
X149591753Y-89648878D01*
X149642400Y-89505816D01*
X149642400Y-91372200D01*
X148707300Y-91372200D01*
X148416461Y-91430052D01*
X148169899Y-91594799D01*
X146735699Y-93028999D01*
X146570952Y-93275561D01*
X146513100Y-93566400D01*
X146513100Y-93808535D01*
X146177000Y-93705000D01*
X145827000Y-93705000D01*
X145827000Y-94813000D01*
X145847000Y-94813000D01*
X145847000Y-95067000D01*
X145827000Y-95067000D01*
X145827000Y-96175000D01*
X146177000Y-96175000D01*
X146513100Y-96071465D01*
X146513100Y-102176498D01*
X145144899Y-103544699D01*
X144980152Y-103791261D01*
X144922300Y-104082100D01*
X144922300Y-108637900D01*
X144980152Y-108928739D01*
X145144899Y-109175301D01*
X146924099Y-110954501D01*
X147170661Y-111119248D01*
X147461500Y-111177100D01*
X161146400Y-111177100D01*
X161437239Y-111119248D01*
X161683801Y-110954501D01*
X162261366Y-110376936D01*
X162626715Y-110621054D01*
X163195000Y-110734093D01*
X163763285Y-110621054D01*
X164102558Y-110394360D01*
X165138299Y-111430101D01*
X165384860Y-111594848D01*
X165675700Y-111652700D01*
X185747000Y-111652700D01*
X186037839Y-111594848D01*
X186284401Y-111430101D01*
X187493039Y-110221463D01*
X187544946Y-110299147D01*
X188026715Y-110621054D01*
X188595000Y-110734093D01*
X189163285Y-110621054D01*
X189514127Y-110386629D01*
X190082299Y-110954801D01*
X190328860Y-111119548D01*
X190619700Y-111177400D01*
X191669600Y-111177400D01*
X191960439Y-111119548D01*
X192207001Y-110954801D01*
X192526927Y-110634875D01*
X192573110Y-110666431D01*
X192825000Y-110717440D01*
X194525000Y-110717440D01*
X194760317Y-110673162D01*
X194976441Y-110534090D01*
X195121431Y-110321890D01*
X195172440Y-110070000D01*
X195172440Y-108370000D01*
X195128162Y-108134683D01*
X194989090Y-107918559D01*
X194776890Y-107773569D01*
X194525000Y-107722560D01*
X192825000Y-107722560D01*
X192589683Y-107766838D01*
X192373559Y-107905910D01*
X192228569Y-108118110D01*
X192214914Y-108185541D01*
X192185054Y-108140853D01*
X191895000Y-107947046D01*
X191895000Y-96660750D01*
X198310000Y-96660750D01*
X198310000Y-97176310D01*
X198406673Y-97409699D01*
X198585302Y-97588327D01*
X198818691Y-97685000D01*
X201009250Y-97685000D01*
X201168000Y-97526250D01*
X201168000Y-96502000D01*
X198468750Y-96502000D01*
X198310000Y-96660750D01*
X191895000Y-96660750D01*
X191895000Y-95573690D01*
X198310000Y-95573690D01*
X198310000Y-96089250D01*
X198468750Y-96248000D01*
X201168000Y-96248000D01*
X201168000Y-95223750D01*
X201009250Y-95065000D01*
X198818691Y-95065000D01*
X198585302Y-95161673D01*
X198406673Y-95340301D01*
X198310000Y-95573690D01*
X191895000Y-95573690D01*
X191895000Y-83554802D01*
X193334163Y-82115639D01*
X193428325Y-82154738D01*
X193586804Y-82154876D01*
X193562360Y-82179278D01*
X193305293Y-82798362D01*
X193304708Y-83468697D01*
X193560694Y-84088229D01*
X194034278Y-84562640D01*
X194653362Y-84819707D01*
X195323697Y-84820292D01*
X195943229Y-84564306D01*
X196417640Y-84090722D01*
X196666700Y-83490921D01*
X196666700Y-91897000D01*
X196724552Y-92187839D01*
X196889299Y-92434401D01*
X198582299Y-94127401D01*
X198807510Y-94277882D01*
X198841838Y-94460317D01*
X198980910Y-94676441D01*
X199193110Y-94821431D01*
X199445000Y-94872440D01*
X203125000Y-94872440D01*
X203125000Y-95065000D01*
X201580750Y-95065000D01*
X201422000Y-95223750D01*
X201422000Y-96248000D01*
X201442000Y-96248000D01*
X201442000Y-96502000D01*
X201422000Y-96502000D01*
X201422000Y-97526250D01*
X201580750Y-97685000D01*
X203125000Y-97685000D01*
X203125000Y-110195909D01*
X201000908Y-112320000D01*
X146979091Y-112320000D01*
X144855000Y-110195908D01*
X144855000Y-96061638D01*
X145223000Y-96175000D01*
X145573000Y-96175000D01*
X145573000Y-95067000D01*
X145553000Y-95067000D01*
X145553000Y-94813000D01*
X145573000Y-94813000D01*
X145573000Y-93705000D01*
X145223000Y-93705000D01*
X144855000Y-93818362D01*
X144855000Y-89893398D01*
X147626207Y-89893398D01*
X147691122Y-90131753D01*
X148201146Y-90312312D01*
X148741444Y-90283949D01*
X149108878Y-90131753D01*
X149173793Y-89893398D01*
X148400000Y-89119605D01*
X147626207Y-89893398D01*
X144855000Y-89893398D01*
X144855000Y-89082715D01*
X145318948Y-89175000D01*
X146081052Y-89175000D01*
X146553666Y-89080991D01*
X146954329Y-88813277D01*
X147056044Y-88661050D01*
X147027688Y-88741146D01*
X147056051Y-89281444D01*
X147208247Y-89648878D01*
X147446602Y-89713793D01*
X148220395Y-88940000D01*
X147446602Y-88166207D01*
X147261002Y-88216754D01*
X147306782Y-87986602D01*
X147626207Y-87986602D01*
X148400000Y-88760395D01*
X149173793Y-87986602D01*
X149108878Y-87748247D01*
X148598854Y-87567688D01*
X148058556Y-87596051D01*
X147691122Y-87748247D01*
X147626207Y-87986602D01*
X147306782Y-87986602D01*
X147316052Y-87940000D01*
X147222043Y-87467386D01*
X146954329Y-87066723D01*
X146553666Y-86799009D01*
X146081052Y-86705000D01*
X145318948Y-86705000D01*
X144855000Y-86797285D01*
X144855000Y-84867609D01*
X147781538Y-84867609D01*
X147796714Y-84959376D01*
X148043067Y-85379125D01*
X148431299Y-85672647D01*
X148902304Y-85795256D01*
X149098000Y-85632547D01*
X149098000Y-84677000D01*
X147906269Y-84677000D01*
X147781538Y-84867609D01*
X144855000Y-84867609D01*
X144855000Y-79669092D01*
X146979091Y-77545000D01*
X162898198Y-77545000D01*
X161589533Y-78853665D01*
G36*
X190375000Y-89475998D02*
X189141422Y-88242420D01*
X189141462Y-88196933D01*
X188999417Y-87853157D01*
X188736627Y-87589908D01*
X188393099Y-87447262D01*
X188021133Y-87446938D01*
X187677357Y-87588983D01*
X187414108Y-87851773D01*
X187271462Y-88195301D01*
X187271138Y-88567267D01*
X187413183Y-88911043D01*
X187528938Y-89027000D01*
X186975750Y-89027000D01*
X186817000Y-89185750D01*
X186817000Y-90043000D01*
X187928250Y-90043000D01*
X188087000Y-89884250D01*
X188087000Y-89535691D01*
X187991589Y-89305348D01*
X188019501Y-89316938D01*
X188066377Y-89316979D01*
X189149300Y-90399902D01*
X189149300Y-107816164D01*
X188595000Y-107705907D01*
X188026715Y-107818946D01*
X187544946Y-108140853D01*
X187318210Y-108480188D01*
X187128861Y-108517852D01*
X186882299Y-108682599D01*
X185432198Y-110132700D01*
X184999743Y-110132700D01*
X185012440Y-110070000D01*
X185012440Y-108370000D01*
X184968162Y-108134683D01*
X184829090Y-107918559D01*
X184616890Y-107773569D01*
X184365000Y-107722560D01*
X183547242Y-107722560D01*
X184940002Y-106329800D01*
X185755400Y-106329800D01*
X186046239Y-106271948D01*
X186292801Y-106107201D01*
X188315101Y-104084901D01*
X188479848Y-103838339D01*
X188537700Y-103547500D01*
X188537700Y-100021163D01*
X188569892Y-99989027D01*
X188712538Y-99645499D01*
X188712862Y-99273533D01*
X188570817Y-98929757D01*
X188308027Y-98666508D01*
X188033838Y-98552654D01*
X188087000Y-98424309D01*
X188087000Y-98075750D01*
X187928250Y-97917000D01*
X186817000Y-97917000D01*
X186817000Y-98774250D01*
X186975750Y-98933000D01*
X186983587Y-98933000D01*
X186842862Y-99271901D01*
X186842538Y-99643867D01*
X186984583Y-99987643D01*
X187017700Y-100020818D01*
X187017700Y-101954783D01*
X186964562Y-101687640D01*
X186964148Y-101685560D01*
X186799401Y-101438999D01*
X185841889Y-100481487D01*
X185854000Y-100420600D01*
X185854000Y-99195963D01*
X185886192Y-99163827D01*
X185982040Y-98933000D01*
X186404250Y-98933000D01*
X186563000Y-98774250D01*
X186563000Y-97917000D01*
X186543000Y-97917000D01*
X186543000Y-97663000D01*
X186563000Y-97663000D01*
X186563000Y-96647000D01*
X186817000Y-96647000D01*
X186817000Y-97663000D01*
X187928250Y-97663000D01*
X188087000Y-97504250D01*
X188087000Y-97155691D01*
X188086714Y-97155000D01*
X188087000Y-97154309D01*
X188087000Y-96805750D01*
X187928250Y-96647000D01*
X186817000Y-96647000D01*
X186563000Y-96647000D01*
X185451750Y-96647000D01*
X185293000Y-96805750D01*
X185293000Y-97154309D01*
X185293286Y-97155000D01*
X185293000Y-97155691D01*
X185293000Y-97504250D01*
X185451748Y-97662998D01*
X185293000Y-97662998D01*
X185293000Y-97703728D01*
X185280799Y-97698662D01*
X185209900Y-97698600D01*
X185209900Y-95406334D01*
X185280560Y-95335797D01*
X185280560Y-95758000D01*
X185300967Y-95866456D01*
X185293000Y-95885691D01*
X185293000Y-96234250D01*
X185451750Y-96393000D01*
X185866569Y-96393000D01*
X185928000Y-96405440D01*
X187452000Y-96405440D01*
X187518113Y-96393000D01*
X187928250Y-96393000D01*
X188087000Y-96234250D01*
X188087000Y-95885691D01*
X188077988Y-95863934D01*
X188099440Y-95758000D01*
X188099440Y-94742000D01*
X188079033Y-94633544D01*
X188087000Y-94614309D01*
X188087000Y-94265750D01*
X187928250Y-94107000D01*
X187513431Y-94107000D01*
X187452000Y-94094560D01*
X185928000Y-94094560D01*
X185861887Y-94107000D01*
X185451750Y-94107000D01*
X185431956Y-94126794D01*
X185431817Y-94126457D01*
X185169027Y-93863208D01*
X184825499Y-93720562D01*
X184754038Y-93720500D01*
X184732571Y-93606413D01*
X184759600Y-93541160D01*
X184759600Y-92941702D01*
X185065299Y-93247401D01*
X185293000Y-93399546D01*
X185293000Y-93694250D01*
X185451750Y-93853000D01*
X185866569Y-93853000D01*
X185928000Y-93865440D01*
X187452000Y-93865440D01*
X187518113Y-93853000D01*
X187928250Y-93853000D01*
X188087000Y-93694250D01*
X188087000Y-93345691D01*
X188077988Y-93323934D01*
X188099440Y-93218000D01*
X188099440Y-92202000D01*
X188079033Y-92093544D01*
X188087000Y-92074309D01*
X188087000Y-91725750D01*
X187928250Y-91567000D01*
X187513431Y-91567000D01*
X187452000Y-91554560D01*
X186543000Y-91554560D01*
X186543000Y-91313000D01*
X186563000Y-91313000D01*
X186563000Y-90297000D01*
X186817000Y-90297000D01*
X186817000Y-91313000D01*
X187928250Y-91313000D01*
X188087000Y-91154250D01*
X188087000Y-90805691D01*
X188086714Y-90805000D01*
X188087000Y-90804309D01*
X188087000Y-90455750D01*
X187928250Y-90297000D01*
X186817000Y-90297000D01*
X186563000Y-90297000D01*
X185451750Y-90297000D01*
X185293000Y-90455750D01*
X185293000Y-90804309D01*
X185293286Y-90805000D01*
X185293000Y-90805691D01*
X185293000Y-91154250D01*
X185451748Y-91312998D01*
X185293000Y-91312998D01*
X185293000Y-91325498D01*
X185209900Y-91242398D01*
X185209900Y-89535691D01*
X185293000Y-89535691D01*
X185293000Y-89884250D01*
X185451750Y-90043000D01*
X186563000Y-90043000D01*
X186563000Y-89185750D01*
X186404250Y-89027000D01*
X185801690Y-89027000D01*
X185568301Y-89123673D01*
X185389673Y-89302302D01*
X185293000Y-89535691D01*
X185209900Y-89535691D01*
X185209900Y-88930302D01*
X190220601Y-83919601D01*
X190375000Y-83688526D01*
X190375000Y-89475998D01*
X190375000Y-89475998D01*
G37*
X190375000Y-89475998D02*
X189141422Y-88242420D01*
X189141462Y-88196933D01*
X188999417Y-87853157D01*
X188736627Y-87589908D01*
X188393099Y-87447262D01*
X188021133Y-87446938D01*
X187677357Y-87588983D01*
X187414108Y-87851773D01*
X187271462Y-88195301D01*
X187271138Y-88567267D01*
X187413183Y-88911043D01*
X187528938Y-89027000D01*
X186975750Y-89027000D01*
X186817000Y-89185750D01*
X186817000Y-90043000D01*
X187928250Y-90043000D01*
X188087000Y-89884250D01*
X188087000Y-89535691D01*
X187991589Y-89305348D01*
X188019501Y-89316938D01*
X188066377Y-89316979D01*
X189149300Y-90399902D01*
X189149300Y-107816164D01*
X188595000Y-107705907D01*
X188026715Y-107818946D01*
X187544946Y-108140853D01*
X187318210Y-108480188D01*
X187128861Y-108517852D01*
X186882299Y-108682599D01*
X185432198Y-110132700D01*
X184999743Y-110132700D01*
X185012440Y-110070000D01*
X185012440Y-108370000D01*
X184968162Y-108134683D01*
X184829090Y-107918559D01*
X184616890Y-107773569D01*
X184365000Y-107722560D01*
X183547242Y-107722560D01*
X184940002Y-106329800D01*
X185755400Y-106329800D01*
X186046239Y-106271948D01*
X186292801Y-106107201D01*
X188315101Y-104084901D01*
X188479848Y-103838339D01*
X188537700Y-103547500D01*
X188537700Y-100021163D01*
X188569892Y-99989027D01*
X188712538Y-99645499D01*
X188712862Y-99273533D01*
X188570817Y-98929757D01*
X188308027Y-98666508D01*
X188033838Y-98552654D01*
X188087000Y-98424309D01*
X188087000Y-98075750D01*
X187928250Y-97917000D01*
X186817000Y-97917000D01*
X186817000Y-98774250D01*
X186975750Y-98933000D01*
X186983587Y-98933000D01*
X186842862Y-99271901D01*
X186842538Y-99643867D01*
X186984583Y-99987643D01*
X187017700Y-100020818D01*
X187017700Y-101954783D01*
X186964562Y-101687640D01*
X186964148Y-101685560D01*
X186799401Y-101438999D01*
X185841889Y-100481487D01*
X185854000Y-100420600D01*
X185854000Y-99195963D01*
X185886192Y-99163827D01*
X185982040Y-98933000D01*
X186404250Y-98933000D01*
X186563000Y-98774250D01*
X186563000Y-97917000D01*
X186543000Y-97917000D01*
X186543000Y-97663000D01*
X186563000Y-97663000D01*
X186563000Y-96647000D01*
X186817000Y-96647000D01*
X186817000Y-97663000D01*
X187928250Y-97663000D01*
X188087000Y-97504250D01*
X188087000Y-97155691D01*
X188086714Y-97155000D01*
X188087000Y-97154309D01*
X188087000Y-96805750D01*
X187928250Y-96647000D01*
X186817000Y-96647000D01*
X186563000Y-96647000D01*
X185451750Y-96647000D01*
X185293000Y-96805750D01*
X185293000Y-97154309D01*
X185293286Y-97155000D01*
X185293000Y-97155691D01*
X185293000Y-97504250D01*
X185451748Y-97662998D01*
X185293000Y-97662998D01*
X185293000Y-97703728D01*
X185280799Y-97698662D01*
X185209900Y-97698600D01*
X185209900Y-95406334D01*
X185280560Y-95335797D01*
X185280560Y-95758000D01*
X185300967Y-95866456D01*
X185293000Y-95885691D01*
X185293000Y-96234250D01*
X185451750Y-96393000D01*
X185866569Y-96393000D01*
X185928000Y-96405440D01*
X187452000Y-96405440D01*
X187518113Y-96393000D01*
X187928250Y-96393000D01*
X188087000Y-96234250D01*
X188087000Y-95885691D01*
X188077988Y-95863934D01*
X188099440Y-95758000D01*
X188099440Y-94742000D01*
X188079033Y-94633544D01*
X188087000Y-94614309D01*
X188087000Y-94265750D01*
X187928250Y-94107000D01*
X187513431Y-94107000D01*
X187452000Y-94094560D01*
X185928000Y-94094560D01*
X185861887Y-94107000D01*
X185451750Y-94107000D01*
X185431956Y-94126794D01*
X185431817Y-94126457D01*
X185169027Y-93863208D01*
X184825499Y-93720562D01*
X184754038Y-93720500D01*
X184732571Y-93606413D01*
X184759600Y-93541160D01*
X184759600Y-92941702D01*
X185065299Y-93247401D01*
X185293000Y-93399546D01*
X185293000Y-93694250D01*
X185451750Y-93853000D01*
X185866569Y-93853000D01*
X185928000Y-93865440D01*
X187452000Y-93865440D01*
X187518113Y-93853000D01*
X187928250Y-93853000D01*
X188087000Y-93694250D01*
X188087000Y-93345691D01*
X188077988Y-93323934D01*
X188099440Y-93218000D01*
X188099440Y-92202000D01*
X188079033Y-92093544D01*
X188087000Y-92074309D01*
X188087000Y-91725750D01*
X187928250Y-91567000D01*
X187513431Y-91567000D01*
X187452000Y-91554560D01*
X186543000Y-91554560D01*
X186543000Y-91313000D01*
X186563000Y-91313000D01*
X186563000Y-90297000D01*
X186817000Y-90297000D01*
X186817000Y-91313000D01*
X187928250Y-91313000D01*
X188087000Y-91154250D01*
X188087000Y-90805691D01*
X188086714Y-90805000D01*
X188087000Y-90804309D01*
X188087000Y-90455750D01*
X187928250Y-90297000D01*
X186817000Y-90297000D01*
X186563000Y-90297000D01*
X185451750Y-90297000D01*
X185293000Y-90455750D01*
X185293000Y-90804309D01*
X185293286Y-90805000D01*
X185293000Y-90805691D01*
X185293000Y-91154250D01*
X185451748Y-91312998D01*
X185293000Y-91312998D01*
X185293000Y-91325498D01*
X185209900Y-91242398D01*
X185209900Y-89535691D01*
X185293000Y-89535691D01*
X185293000Y-89884250D01*
X185451750Y-90043000D01*
X186563000Y-90043000D01*
X186563000Y-89185750D01*
X186404250Y-89027000D01*
X185801690Y-89027000D01*
X185568301Y-89123673D01*
X185389673Y-89302302D01*
X185293000Y-89535691D01*
X185209900Y-89535691D01*
X185209900Y-88930302D01*
X190220601Y-83919601D01*
X190375000Y-83688526D01*
X190375000Y-89475998D01*
G36*
X178562000Y-109093000D02*
X178582000Y-109093000D01*
X178582000Y-109347000D01*
X178562000Y-109347000D01*
X178562000Y-109367000D01*
X178308000Y-109367000D01*
X178308000Y-109347000D01*
X178288000Y-109347000D01*
X178288000Y-109093000D01*
X178308000Y-109093000D01*
X178308000Y-109073000D01*
X178562000Y-109073000D01*
X178562000Y-109093000D01*
X178562000Y-109093000D01*
G37*
X178562000Y-109093000D02*
X178582000Y-109093000D01*
X178582000Y-109347000D01*
X178562000Y-109347000D01*
X178562000Y-109367000D01*
X178308000Y-109367000D01*
X178308000Y-109347000D01*
X178288000Y-109347000D01*
X178288000Y-109093000D01*
X178308000Y-109093000D01*
X178308000Y-109073000D01*
X178562000Y-109073000D01*
X178562000Y-109093000D01*
G36*
X150543473Y-92924392D02*
X150887001Y-93067038D01*
X151258967Y-93067362D01*
X151478600Y-92976612D01*
X151478600Y-94556298D01*
X149957599Y-96077299D01*
X149813767Y-96292560D01*
X149645000Y-96292560D01*
X149409683Y-96336838D01*
X149193559Y-96475910D01*
X149048569Y-96688110D01*
X148997560Y-96940000D01*
X148997560Y-98640000D01*
X149041838Y-98875317D01*
X149180910Y-99091441D01*
X149393110Y-99236431D01*
X149501107Y-99258301D01*
X149223355Y-99563076D01*
X149053524Y-99973110D01*
X149174845Y-100203000D01*
X150368000Y-100203000D01*
X150368000Y-100183000D01*
X150622000Y-100183000D01*
X150622000Y-100203000D01*
X150642000Y-100203000D01*
X150642000Y-100457000D01*
X150622000Y-100457000D01*
X150622000Y-100477000D01*
X150368000Y-100477000D01*
X150368000Y-100457000D01*
X149174845Y-100457000D01*
X149053524Y-100686890D01*
X149223355Y-101096924D01*
X149613642Y-101525183D01*
X149755470Y-101591789D01*
X149755188Y-101593210D01*
X149415853Y-101819946D01*
X149093946Y-102301715D01*
X148980907Y-102870000D01*
X149093946Y-103438285D01*
X149415853Y-103920054D01*
X149745026Y-104140000D01*
X149415853Y-104359946D01*
X149093946Y-104841715D01*
X148980907Y-105410000D01*
X149093946Y-105978285D01*
X149225710Y-106175485D01*
X149133199Y-106237299D01*
X148427748Y-106942750D01*
X148399147Y-106899946D01*
X148357548Y-106872150D01*
X148405317Y-106863162D01*
X148621441Y-106724090D01*
X148766431Y-106511890D01*
X148817440Y-106260000D01*
X148817440Y-104560000D01*
X148773162Y-104324683D01*
X148634090Y-104108559D01*
X148421890Y-103963569D01*
X148170000Y-103912560D01*
X146926642Y-103912560D01*
X147810501Y-103028701D01*
X147975248Y-102782139D01*
X148033100Y-102491300D01*
X148033100Y-95252820D01*
X148201146Y-95312312D01*
X148741444Y-95283949D01*
X149108878Y-95131753D01*
X149173793Y-94893398D01*
X148400000Y-94119605D01*
X148385858Y-94133748D01*
X148206253Y-93954143D01*
X148220395Y-93940000D01*
X148579605Y-93940000D01*
X149353398Y-94713793D01*
X149591753Y-94648878D01*
X149772312Y-94138854D01*
X149743949Y-93598556D01*
X149591753Y-93231122D01*
X149353398Y-93166207D01*
X148579605Y-93940000D01*
X148220395Y-93940000D01*
X148206253Y-93925858D01*
X148385858Y-93746253D01*
X148400000Y-93760395D01*
X149173793Y-92986602D01*
X149148083Y-92892200D01*
X150511337Y-92892200D01*
X150543473Y-92924392D01*
X150543473Y-92924392D01*
G37*
X150543473Y-92924392D02*
X150887001Y-93067038D01*
X151258967Y-93067362D01*
X151478600Y-92976612D01*
X151478600Y-94556298D01*
X149957599Y-96077299D01*
X149813767Y-96292560D01*
X149645000Y-96292560D01*
X149409683Y-96336838D01*
X149193559Y-96475910D01*
X149048569Y-96688110D01*
X148997560Y-96940000D01*
X148997560Y-98640000D01*
X149041838Y-98875317D01*
X149180910Y-99091441D01*
X149393110Y-99236431D01*
X149501107Y-99258301D01*
X149223355Y-99563076D01*
X149053524Y-99973110D01*
X149174845Y-100203000D01*
X150368000Y-100203000D01*
X150368000Y-100183000D01*
X150622000Y-100183000D01*
X150622000Y-100203000D01*
X150642000Y-100203000D01*
X150642000Y-100457000D01*
X150622000Y-100457000D01*
X150622000Y-100477000D01*
X150368000Y-100477000D01*
X150368000Y-100457000D01*
X149174845Y-100457000D01*
X149053524Y-100686890D01*
X149223355Y-101096924D01*
X149613642Y-101525183D01*
X149755470Y-101591789D01*
X149755188Y-101593210D01*
X149415853Y-101819946D01*
X149093946Y-102301715D01*
X148980907Y-102870000D01*
X149093946Y-103438285D01*
X149415853Y-103920054D01*
X149745026Y-104140000D01*
X149415853Y-104359946D01*
X149093946Y-104841715D01*
X148980907Y-105410000D01*
X149093946Y-105978285D01*
X149225710Y-106175485D01*
X149133199Y-106237299D01*
X148427748Y-106942750D01*
X148399147Y-106899946D01*
X148357548Y-106872150D01*
X148405317Y-106863162D01*
X148621441Y-106724090D01*
X148766431Y-106511890D01*
X148817440Y-106260000D01*
X148817440Y-104560000D01*
X148773162Y-104324683D01*
X148634090Y-104108559D01*
X148421890Y-103963569D01*
X148170000Y-103912560D01*
X146926642Y-103912560D01*
X147810501Y-103028701D01*
X147975248Y-102782139D01*
X148033100Y-102491300D01*
X148033100Y-95252820D01*
X148201146Y-95312312D01*
X148741444Y-95283949D01*
X149108878Y-95131753D01*
X149173793Y-94893398D01*
X148400000Y-94119605D01*
X148385858Y-94133748D01*
X148206253Y-93954143D01*
X148220395Y-93940000D01*
X148579605Y-93940000D01*
X149353398Y-94713793D01*
X149591753Y-94648878D01*
X149772312Y-94138854D01*
X149743949Y-93598556D01*
X149591753Y-93231122D01*
X149353398Y-93166207D01*
X148579605Y-93940000D01*
X148220395Y-93940000D01*
X148206253Y-93925858D01*
X148385858Y-93746253D01*
X148400000Y-93760395D01*
X149173793Y-92986602D01*
X149148083Y-92892200D01*
X150511337Y-92892200D01*
X150543473Y-92924392D01*
G36*
X169024560Y-103632000D02*
X169037000Y-103698113D01*
X169037000Y-104108250D01*
X169195750Y-104267000D01*
X169544310Y-104267000D01*
X169566067Y-104257988D01*
X169672000Y-104279440D01*
X170688000Y-104279440D01*
X170819662Y-104254666D01*
X170942000Y-104279440D01*
X171958000Y-104279440D01*
X172089662Y-104254666D01*
X172212000Y-104279440D01*
X173228000Y-104279440D01*
X173359662Y-104254666D01*
X173482000Y-104279440D01*
X174498000Y-104279440D01*
X174629662Y-104254666D01*
X174752000Y-104279440D01*
X175768000Y-104279440D01*
X175899662Y-104254666D01*
X176022000Y-104279440D01*
X177038000Y-104279440D01*
X177169662Y-104254666D01*
X177292000Y-104279440D01*
X178308000Y-104279440D01*
X178416455Y-104259033D01*
X178435690Y-104267000D01*
X178784250Y-104267000D01*
X178942998Y-104108252D01*
X178942998Y-104267000D01*
X178955498Y-104267000D01*
X178674498Y-104548000D01*
X167035763Y-104548000D01*
X167003627Y-104515808D01*
X166660099Y-104373162D01*
X166288133Y-104372838D01*
X165944357Y-104514883D01*
X165925750Y-104533458D01*
X165910527Y-104518208D01*
X165566999Y-104375562D01*
X165195033Y-104375238D01*
X164851257Y-104517283D01*
X164588008Y-104780073D01*
X164445362Y-105123601D01*
X164445038Y-105495567D01*
X164587083Y-105839343D01*
X164849873Y-106102592D01*
X165193401Y-106245238D01*
X165240277Y-106245279D01*
X165415798Y-106420800D01*
X164142802Y-106420800D01*
X161988604Y-104266602D01*
X162052000Y-104279440D01*
X163068000Y-104279440D01*
X163199662Y-104254666D01*
X163322000Y-104279440D01*
X164338000Y-104279440D01*
X164469662Y-104254666D01*
X164592000Y-104279440D01*
X165608000Y-104279440D01*
X165739662Y-104254666D01*
X165862000Y-104279440D01*
X166878000Y-104279440D01*
X167009662Y-104254666D01*
X167132000Y-104279440D01*
X168148000Y-104279440D01*
X168256455Y-104259033D01*
X168275690Y-104267000D01*
X168624250Y-104267000D01*
X168783000Y-104108250D01*
X168783000Y-103693431D01*
X168795440Y-103632000D01*
X168795440Y-102723000D01*
X169024560Y-102723000D01*
X169024560Y-103632000D01*
X169024560Y-103632000D01*
G37*
X169024560Y-103632000D02*
X169037000Y-103698113D01*
X169037000Y-104108250D01*
X169195750Y-104267000D01*
X169544310Y-104267000D01*
X169566067Y-104257988D01*
X169672000Y-104279440D01*
X170688000Y-104279440D01*
X170819662Y-104254666D01*
X170942000Y-104279440D01*
X171958000Y-104279440D01*
X172089662Y-104254666D01*
X172212000Y-104279440D01*
X173228000Y-104279440D01*
X173359662Y-104254666D01*
X173482000Y-104279440D01*
X174498000Y-104279440D01*
X174629662Y-104254666D01*
X174752000Y-104279440D01*
X175768000Y-104279440D01*
X175899662Y-104254666D01*
X176022000Y-104279440D01*
X177038000Y-104279440D01*
X177169662Y-104254666D01*
X177292000Y-104279440D01*
X178308000Y-104279440D01*
X178416455Y-104259033D01*
X178435690Y-104267000D01*
X178784250Y-104267000D01*
X178942998Y-104108252D01*
X178942998Y-104267000D01*
X178955498Y-104267000D01*
X178674498Y-104548000D01*
X167035763Y-104548000D01*
X167003627Y-104515808D01*
X166660099Y-104373162D01*
X166288133Y-104372838D01*
X165944357Y-104514883D01*
X165925750Y-104533458D01*
X165910527Y-104518208D01*
X165566999Y-104375562D01*
X165195033Y-104375238D01*
X164851257Y-104517283D01*
X164588008Y-104780073D01*
X164445362Y-105123601D01*
X164445038Y-105495567D01*
X164587083Y-105839343D01*
X164849873Y-106102592D01*
X165193401Y-106245238D01*
X165240277Y-106245279D01*
X165415798Y-106420800D01*
X164142802Y-106420800D01*
X161988604Y-104266602D01*
X162052000Y-104279440D01*
X163068000Y-104279440D01*
X163199662Y-104254666D01*
X163322000Y-104279440D01*
X164338000Y-104279440D01*
X164469662Y-104254666D01*
X164592000Y-104279440D01*
X165608000Y-104279440D01*
X165739662Y-104254666D01*
X165862000Y-104279440D01*
X166878000Y-104279440D01*
X167009662Y-104254666D01*
X167132000Y-104279440D01*
X168148000Y-104279440D01*
X168256455Y-104259033D01*
X168275690Y-104267000D01*
X168624250Y-104267000D01*
X168783000Y-104108250D01*
X168783000Y-103693431D01*
X168795440Y-103632000D01*
X168795440Y-102723000D01*
X169024560Y-102723000D01*
X169024560Y-103632000D01*
G36*
X185502000Y-103017000D02*
X185305440Y-103017000D01*
X185305440Y-102723000D01*
X185502000Y-102723000D01*
X185502000Y-103017000D01*
X185502000Y-103017000D01*
G37*
X185502000Y-103017000D02*
X185305440Y-103017000D01*
X185305440Y-102723000D01*
X185502000Y-102723000D01*
X185502000Y-103017000D01*
G36*
X161404560Y-103017000D02*
X161216600Y-103017000D01*
X161216600Y-102723000D01*
X161404560Y-102723000D01*
X161404560Y-103017000D01*
X161404560Y-103017000D01*
G37*
X161404560Y-103017000D02*
X161216600Y-103017000D01*
X161216600Y-102723000D01*
X161404560Y-102723000D01*
X161404560Y-103017000D01*
G36*
X179823973Y-100998092D02*
X180167501Y-101140738D01*
X180479960Y-101141010D01*
X180479960Y-101413310D01*
X180488851Y-101460560D01*
X179832000Y-101460560D01*
X179723545Y-101480967D01*
X179704310Y-101473000D01*
X179355750Y-101473000D01*
X179197000Y-101631750D01*
X179197000Y-102046569D01*
X179184560Y-102108000D01*
X179184560Y-103017000D01*
X178955440Y-103017000D01*
X178955440Y-102108000D01*
X178943000Y-102041887D01*
X178943000Y-101631750D01*
X178784250Y-101473000D01*
X178489546Y-101473000D01*
X178337401Y-101245299D01*
X178058002Y-100965900D01*
X179791837Y-100965900D01*
X179823973Y-100998092D01*
X179823973Y-100998092D01*
G37*
X179823973Y-100998092D02*
X180167501Y-101140738D01*
X180479960Y-101141010D01*
X180479960Y-101413310D01*
X180488851Y-101460560D01*
X179832000Y-101460560D01*
X179723545Y-101480967D01*
X179704310Y-101473000D01*
X179355750Y-101473000D01*
X179197000Y-101631750D01*
X179197000Y-102046569D01*
X179184560Y-102108000D01*
X179184560Y-103017000D01*
X178955440Y-103017000D01*
X178955440Y-102108000D01*
X178943000Y-102041887D01*
X178943000Y-101631750D01*
X178784250Y-101473000D01*
X178489546Y-101473000D01*
X178337401Y-101245299D01*
X178058002Y-100965900D01*
X179791837Y-100965900D01*
X179823973Y-100998092D01*
G36*
X161404560Y-85852000D02*
X161417000Y-85918113D01*
X161417000Y-86328250D01*
X161575750Y-86487000D01*
X161924310Y-86487000D01*
X161946067Y-86477988D01*
X162052000Y-86499440D01*
X163068000Y-86499440D01*
X163199662Y-86474666D01*
X163322000Y-86499440D01*
X164338000Y-86499440D01*
X164469662Y-86474666D01*
X164592000Y-86499440D01*
X165608000Y-86499440D01*
X165739662Y-86474666D01*
X165862000Y-86499440D01*
X166878000Y-86499440D01*
X166897518Y-86495767D01*
X166937852Y-86698539D01*
X167102599Y-86945101D01*
X167339188Y-87181690D01*
X166909750Y-87181690D01*
X166751000Y-87340440D01*
X166751000Y-88488520D01*
X166771000Y-88488520D01*
X166771000Y-88742520D01*
X166751000Y-88742520D01*
X166751000Y-88762520D01*
X166497000Y-88762520D01*
X166497000Y-88742520D01*
X164649150Y-88742520D01*
X164490400Y-88901270D01*
X164490400Y-89540660D01*
X164519449Y-89610791D01*
X164477960Y-89815670D01*
X164477960Y-91413330D01*
X164517351Y-91622673D01*
X164477960Y-91817190D01*
X164477960Y-93414850D01*
X164517103Y-93622876D01*
X164477960Y-93816170D01*
X164477960Y-95413830D01*
X164517103Y-95621856D01*
X164477960Y-95815150D01*
X164477960Y-97329596D01*
X164223600Y-97279000D01*
X163198302Y-97279000D01*
X161184400Y-95265098D01*
X161184400Y-87690380D01*
X164490400Y-87690380D01*
X164490400Y-88329770D01*
X164649150Y-88488520D01*
X166497000Y-88488520D01*
X166497000Y-87340440D01*
X166338250Y-87181690D01*
X164999091Y-87181690D01*
X164765702Y-87278363D01*
X164587073Y-87456991D01*
X164490400Y-87690380D01*
X161184400Y-87690380D01*
X161184400Y-84943000D01*
X161404560Y-84943000D01*
X161404560Y-85852000D01*
X161404560Y-85852000D01*
G37*
X161404560Y-85852000D02*
X161417000Y-85918113D01*
X161417000Y-86328250D01*
X161575750Y-86487000D01*
X161924310Y-86487000D01*
X161946067Y-86477988D01*
X162052000Y-86499440D01*
X163068000Y-86499440D01*
X163199662Y-86474666D01*
X163322000Y-86499440D01*
X164338000Y-86499440D01*
X164469662Y-86474666D01*
X164592000Y-86499440D01*
X165608000Y-86499440D01*
X165739662Y-86474666D01*
X165862000Y-86499440D01*
X166878000Y-86499440D01*
X166897518Y-86495767D01*
X166937852Y-86698539D01*
X167102599Y-86945101D01*
X167339188Y-87181690D01*
X166909750Y-87181690D01*
X166751000Y-87340440D01*
X166751000Y-88488520D01*
X166771000Y-88488520D01*
X166771000Y-88742520D01*
X166751000Y-88742520D01*
X166751000Y-88762520D01*
X166497000Y-88762520D01*
X166497000Y-88742520D01*
X164649150Y-88742520D01*
X164490400Y-88901270D01*
X164490400Y-89540660D01*
X164519449Y-89610791D01*
X164477960Y-89815670D01*
X164477960Y-91413330D01*
X164517351Y-91622673D01*
X164477960Y-91817190D01*
X164477960Y-93414850D01*
X164517103Y-93622876D01*
X164477960Y-93816170D01*
X164477960Y-95413830D01*
X164517103Y-95621856D01*
X164477960Y-95815150D01*
X164477960Y-97329596D01*
X164223600Y-97279000D01*
X163198302Y-97279000D01*
X161184400Y-95265098D01*
X161184400Y-87690380D01*
X164490400Y-87690380D01*
X164490400Y-88329770D01*
X164649150Y-88488520D01*
X166497000Y-88488520D01*
X166497000Y-87340440D01*
X166338250Y-87181690D01*
X164999091Y-87181690D01*
X164765702Y-87278363D01*
X164587073Y-87456991D01*
X164490400Y-87690380D01*
X161184400Y-87690380D01*
X161184400Y-84943000D01*
X161404560Y-84943000D01*
X161404560Y-85852000D01*
G36*
X182753000Y-92489020D02*
X182773000Y-92489020D01*
X182773000Y-92743020D01*
X182753000Y-92743020D01*
X182753000Y-92763020D01*
X182499000Y-92763020D01*
X182499000Y-92743020D01*
X182479000Y-92743020D01*
X182479000Y-92489020D01*
X182499000Y-92489020D01*
X182499000Y-92469020D01*
X182753000Y-92469020D01*
X182753000Y-92489020D01*
X182753000Y-92489020D01*
G37*
X182753000Y-92489020D02*
X182773000Y-92489020D01*
X182773000Y-92743020D01*
X182753000Y-92743020D01*
X182753000Y-92763020D01*
X182499000Y-92763020D01*
X182499000Y-92743020D01*
X182479000Y-92743020D01*
X182479000Y-92489020D01*
X182499000Y-92489020D01*
X182499000Y-92469020D01*
X182753000Y-92469020D01*
X182753000Y-92489020D01*
G36*
X203125000Y-79669091D02*
X203125000Y-89495000D01*
X201580750Y-89495000D01*
X201422000Y-89653750D01*
X201422000Y-90678000D01*
X201442000Y-90678000D01*
X201442000Y-90932000D01*
X201422000Y-90932000D01*
X201422000Y-91956250D01*
X201580750Y-92115000D01*
X203125000Y-92115000D01*
X203125000Y-92307560D01*
X199445000Y-92307560D01*
X199209683Y-92351838D01*
X199055533Y-92451031D01*
X198649365Y-92044863D01*
X198818691Y-92115000D01*
X201009250Y-92115000D01*
X201168000Y-91956250D01*
X201168000Y-90932000D01*
X198468750Y-90932000D01*
X198310000Y-91090750D01*
X198310000Y-91606310D01*
X198380137Y-91775635D01*
X198186700Y-91582198D01*
X198186700Y-90003690D01*
X198310000Y-90003690D01*
X198310000Y-90519250D01*
X198468750Y-90678000D01*
X201168000Y-90678000D01*
X201168000Y-89653750D01*
X201009250Y-89495000D01*
X198818691Y-89495000D01*
X198585302Y-89591673D01*
X198406673Y-89770301D01*
X198310000Y-90003690D01*
X198186700Y-90003690D01*
X198186700Y-82601500D01*
X198128848Y-82310661D01*
X197964101Y-82064099D01*
X194759301Y-78859299D01*
X194512739Y-78694552D01*
X194221900Y-78636700D01*
X193238300Y-78636700D01*
X192947461Y-78694552D01*
X192700899Y-78859299D01*
X190748637Y-80811561D01*
X190725579Y-80279542D01*
X190545953Y-79845884D01*
X190292060Y-79762545D01*
X189409605Y-80645000D01*
X189423748Y-80659143D01*
X189244143Y-80838748D01*
X189230000Y-80824605D01*
X189215858Y-80838748D01*
X189036253Y-80659143D01*
X189050395Y-80645000D01*
X188167940Y-79762545D01*
X187914047Y-79845884D01*
X187708410Y-80410306D01*
X187734421Y-81010458D01*
X187914047Y-81444116D01*
X187931842Y-81449957D01*
X187646303Y-81449708D01*
X187026771Y-81705694D01*
X186552360Y-82179278D01*
X186295293Y-82798362D01*
X186295212Y-82890710D01*
X184522250Y-81117748D01*
X184565054Y-81089147D01*
X184886961Y-80607378D01*
X185000000Y-80039093D01*
X185000000Y-79980907D01*
X184920840Y-79582940D01*
X188347545Y-79582940D01*
X189230000Y-80465395D01*
X190112455Y-79582940D01*
X190029116Y-79329047D01*
X189464694Y-79123410D01*
X188864542Y-79149421D01*
X188430884Y-79329047D01*
X188347545Y-79582940D01*
X184920840Y-79582940D01*
X184886961Y-79412622D01*
X184565054Y-78930853D01*
X184083285Y-78608946D01*
X183515000Y-78495907D01*
X182946715Y-78608946D01*
X182464946Y-78930853D01*
X182245000Y-79260026D01*
X182025054Y-78930853D01*
X181543285Y-78608946D01*
X180975000Y-78495907D01*
X180406715Y-78608946D01*
X180042085Y-78852583D01*
X178734502Y-77545000D01*
X201000908Y-77545000D01*
X203125000Y-79669091D01*
X203125000Y-79669091D01*
G37*
X203125000Y-79669091D02*
X203125000Y-89495000D01*
X201580750Y-89495000D01*
X201422000Y-89653750D01*
X201422000Y-90678000D01*
X201442000Y-90678000D01*
X201442000Y-90932000D01*
X201422000Y-90932000D01*
X201422000Y-91956250D01*
X201580750Y-92115000D01*
X203125000Y-92115000D01*
X203125000Y-92307560D01*
X199445000Y-92307560D01*
X199209683Y-92351838D01*
X199055533Y-92451031D01*
X198649365Y-92044863D01*
X198818691Y-92115000D01*
X201009250Y-92115000D01*
X201168000Y-91956250D01*
X201168000Y-90932000D01*
X198468750Y-90932000D01*
X198310000Y-91090750D01*
X198310000Y-91606310D01*
X198380137Y-91775635D01*
X198186700Y-91582198D01*
X198186700Y-90003690D01*
X198310000Y-90003690D01*
X198310000Y-90519250D01*
X198468750Y-90678000D01*
X201168000Y-90678000D01*
X201168000Y-89653750D01*
X201009250Y-89495000D01*
X198818691Y-89495000D01*
X198585302Y-89591673D01*
X198406673Y-89770301D01*
X198310000Y-90003690D01*
X198186700Y-90003690D01*
X198186700Y-82601500D01*
X198128848Y-82310661D01*
X197964101Y-82064099D01*
X194759301Y-78859299D01*
X194512739Y-78694552D01*
X194221900Y-78636700D01*
X193238300Y-78636700D01*
X192947461Y-78694552D01*
X192700899Y-78859299D01*
X190748637Y-80811561D01*
X190725579Y-80279542D01*
X190545953Y-79845884D01*
X190292060Y-79762545D01*
X189409605Y-80645000D01*
X189423748Y-80659143D01*
X189244143Y-80838748D01*
X189230000Y-80824605D01*
X189215858Y-80838748D01*
X189036253Y-80659143D01*
X189050395Y-80645000D01*
X188167940Y-79762545D01*
X187914047Y-79845884D01*
X187708410Y-80410306D01*
X187734421Y-81010458D01*
X187914047Y-81444116D01*
X187931842Y-81449957D01*
X187646303Y-81449708D01*
X187026771Y-81705694D01*
X186552360Y-82179278D01*
X186295293Y-82798362D01*
X186295212Y-82890710D01*
X184522250Y-81117748D01*
X184565054Y-81089147D01*
X184886961Y-80607378D01*
X185000000Y-80039093D01*
X185000000Y-79980907D01*
X184920840Y-79582940D01*
X188347545Y-79582940D01*
X189230000Y-80465395D01*
X190112455Y-79582940D01*
X190029116Y-79329047D01*
X189464694Y-79123410D01*
X188864542Y-79149421D01*
X188430884Y-79329047D01*
X188347545Y-79582940D01*
X184920840Y-79582940D01*
X184886961Y-79412622D01*
X184565054Y-78930853D01*
X184083285Y-78608946D01*
X183515000Y-78495907D01*
X182946715Y-78608946D01*
X182464946Y-78930853D01*
X182245000Y-79260026D01*
X182025054Y-78930853D01*
X181543285Y-78608946D01*
X180975000Y-78495907D01*
X180406715Y-78608946D01*
X180042085Y-78852583D01*
X178734502Y-77545000D01*
X201000908Y-77545000D01*
X203125000Y-79669091D01*
G36*
X170294560Y-85852000D02*
X170307000Y-85918113D01*
X170307000Y-86328250D01*
X170465750Y-86487000D01*
X170814310Y-86487000D01*
X170836067Y-86477988D01*
X170942000Y-86499440D01*
X171855854Y-86499440D01*
X171751562Y-86750601D01*
X171751521Y-86797477D01*
X171139599Y-87409399D01*
X170974852Y-87655961D01*
X170917000Y-87946800D01*
X170917000Y-91252537D01*
X170884808Y-91284673D01*
X170742162Y-91628201D01*
X170741838Y-92000167D01*
X170758293Y-92039991D01*
X169427752Y-90709450D01*
X169789001Y-90348201D01*
X169953748Y-90101640D01*
X169971821Y-90010781D01*
X170011600Y-89810800D01*
X170011600Y-86518900D01*
X169986838Y-86394412D01*
X170053000Y-86328250D01*
X170053000Y-85913431D01*
X170065440Y-85852000D01*
X170065440Y-84943000D01*
X170294560Y-84943000D01*
X170294560Y-85852000D01*
X170294560Y-85852000D01*
G37*
X170294560Y-85852000D02*
X170307000Y-85918113D01*
X170307000Y-86328250D01*
X170465750Y-86487000D01*
X170814310Y-86487000D01*
X170836067Y-86477988D01*
X170942000Y-86499440D01*
X171855854Y-86499440D01*
X171751562Y-86750601D01*
X171751521Y-86797477D01*
X171139599Y-87409399D01*
X170974852Y-87655961D01*
X170917000Y-87946800D01*
X170917000Y-91252537D01*
X170884808Y-91284673D01*
X170742162Y-91628201D01*
X170741838Y-92000167D01*
X170758293Y-92039991D01*
X169427752Y-90709450D01*
X169789001Y-90348201D01*
X169953748Y-90101640D01*
X169971821Y-90010781D01*
X170011600Y-89810800D01*
X170011600Y-86518900D01*
X169986838Y-86394412D01*
X170053000Y-86328250D01*
X170053000Y-85913431D01*
X170065440Y-85852000D01*
X170065440Y-84943000D01*
X170294560Y-84943000D01*
X170294560Y-85852000D01*
G36*
X174104560Y-85237000D02*
X173875440Y-85237000D01*
X173875440Y-84943000D01*
X174104560Y-84943000D01*
X174104560Y-85237000D01*
X174104560Y-85237000D01*
G37*
X174104560Y-85237000D02*
X173875440Y-85237000D01*
X173875440Y-84943000D01*
X174104560Y-84943000D01*
X174104560Y-85237000D01*
G36*
X185493400Y-85237000D02*
X185305440Y-85237000D01*
X185305440Y-84943000D01*
X185493400Y-84943000D01*
X185493400Y-85237000D01*
X185493400Y-85237000D01*
G37*
X185493400Y-85237000D02*
X185305440Y-85237000D01*
X185305440Y-84943000D01*
X185493400Y-84943000D01*
X185493400Y-85237000D01*
G36*
X182464946Y-81089147D02*
X182777402Y-81297923D01*
X182812852Y-81476139D01*
X182977599Y-81722701D01*
X184947898Y-83693000D01*
X184785690Y-83693000D01*
X184763933Y-83702012D01*
X184658000Y-83680560D01*
X183642000Y-83680560D01*
X183510338Y-83705334D01*
X183388000Y-83680560D01*
X182372000Y-83680560D01*
X182240338Y-83705334D01*
X182118000Y-83680560D01*
X181102000Y-83680560D01*
X180970338Y-83705334D01*
X180848000Y-83680560D01*
X179832000Y-83680560D01*
X179700338Y-83705334D01*
X179578000Y-83680560D01*
X179316012Y-83680560D01*
X179328038Y-83651599D01*
X179328079Y-83604723D01*
X180173201Y-82759601D01*
X180337948Y-82513039D01*
X180395800Y-82222200D01*
X180395800Y-81403761D01*
X180406715Y-81411054D01*
X180975000Y-81524093D01*
X181543285Y-81411054D01*
X182025054Y-81089147D01*
X182245000Y-80759974D01*
X182464946Y-81089147D01*
X182464946Y-81089147D01*
G37*
X182464946Y-81089147D02*
X182777402Y-81297923D01*
X182812852Y-81476139D01*
X182977599Y-81722701D01*
X184947898Y-83693000D01*
X184785690Y-83693000D01*
X184763933Y-83702012D01*
X184658000Y-83680560D01*
X183642000Y-83680560D01*
X183510338Y-83705334D01*
X183388000Y-83680560D01*
X182372000Y-83680560D01*
X182240338Y-83705334D01*
X182118000Y-83680560D01*
X181102000Y-83680560D01*
X180970338Y-83705334D01*
X180848000Y-83680560D01*
X179832000Y-83680560D01*
X179700338Y-83705334D01*
X179578000Y-83680560D01*
X179316012Y-83680560D01*
X179328038Y-83651599D01*
X179328079Y-83604723D01*
X180173201Y-82759601D01*
X180337948Y-82513039D01*
X180395800Y-82222200D01*
X180395800Y-81403761D01*
X180406715Y-81411054D01*
X180975000Y-81524093D01*
X181543285Y-81411054D01*
X182025054Y-81089147D01*
X182245000Y-80759974D01*
X182464946Y-81089147D01*
M02*
