G04 #@! TF.FileFunction,Paste,Bot*
%FSLAX46Y46*%
G04 Gerber Fmt 4.6, Leading zero omitted, Abs format (unit mm)*
G04 Created by KiCad (PCBNEW 4.0.7-e2-6376~60~ubuntu17.10.1) date Thu Dec 28 10:46:34 2017*
%MOMM*%
%LPD*%
G01*
G04 APERTURE LIST*
%ADD10C,0.100000*%
%ADD11R,1.016000X1.524000*%
%ADD12R,1.524000X1.016000*%
%ADD13R,4.700000X1.350000*%
%ADD14R,4.200000X1.270000*%
%ADD15R,2.997200X1.597660*%
G04 APERTURE END LIST*
D10*
D11*
X161290000Y-102870000D03*
X162560000Y-102870000D03*
X163830000Y-102870000D03*
X165100000Y-102870000D03*
X166370000Y-102870000D03*
X167640000Y-102870000D03*
X168910000Y-102870000D03*
X170180000Y-102870000D03*
X171450000Y-102870000D03*
X172720000Y-102870000D03*
X173990000Y-102870000D03*
X175260000Y-102870000D03*
X176530000Y-102870000D03*
X177800000Y-102870000D03*
X179070000Y-102870000D03*
X180340000Y-102870000D03*
X181610000Y-102870000D03*
X182880000Y-102870000D03*
X184150000Y-102870000D03*
X185420000Y-102870000D03*
X185420000Y-85090000D03*
D12*
X186690000Y-97790000D03*
X186690000Y-96520000D03*
X186690000Y-95250000D03*
X186690000Y-93980000D03*
X186690000Y-92710000D03*
X186690000Y-91440000D03*
X186690000Y-90170000D03*
D11*
X184150000Y-85090000D03*
X182880000Y-85090000D03*
X181610000Y-85090000D03*
X180340000Y-85090000D03*
X179070000Y-85090000D03*
X177800000Y-85090000D03*
X176530000Y-85090000D03*
X175260000Y-85090000D03*
X173990000Y-85090000D03*
X172720000Y-85090000D03*
X171450000Y-85090000D03*
X170180000Y-85090000D03*
X168910000Y-85090000D03*
X167640000Y-85090000D03*
X166370000Y-85090000D03*
X165100000Y-85090000D03*
X163830000Y-85090000D03*
X162560000Y-85090000D03*
X161290000Y-85090000D03*
D13*
X201295000Y-96375000D03*
X201295000Y-90805000D03*
X201295000Y-90805000D03*
D14*
X201545000Y-93590000D03*
D13*
X201295000Y-96375000D03*
D15*
X166626540Y-100614480D03*
X166624000Y-98615500D03*
X166624000Y-96613980D03*
X166624000Y-94615000D03*
X166624000Y-92616020D03*
X166624000Y-90614500D03*
X166624000Y-88615520D03*
X182626000Y-88615520D03*
X182626000Y-90614500D03*
X182626000Y-92616020D03*
X182626000Y-94615000D03*
X182626000Y-96613980D03*
X182626000Y-98615500D03*
X182626000Y-100614480D03*
M02*
